<?xml version="1.0" standalone="no"?>
<!DOCTYPE svg PUBLIC "-//W3C//DTD SVG 1.1//EN" "http://www.w3.org/Graphics/SVG/1.1/DTD/svg11.dtd">
<svg xmlns="http://www.w3.org/2000/svg">
<defs >
<font id="Fredoka" horiz-adv-x="535" ><font-face
    font-family="Fredoka Light Medium"
    units-per-em="1000"
    panose-1="0 0 0 0 0 0 0 0 0 0"
    ascent="974"
    descent="-236"
    alphabetic="0" />
<glyph unicode=" " horiz-adv-x="248" />
<glyph unicode="!" horiz-adv-x="237" d="M119 203Q91 203 78 210T62 230T59 258V635Q59 650 62 663T78 683T119 691Q147 691 159 684T175 663T179 635V259Q179 243 176 231T160 211T119 203ZM119 -10Q79 -10 66 5T52 57Q52 75 56 90T74 115T119 124Q159 124 172
109T185 57Q185 39 182 24T164 -1T119 -10Z" />
<glyph unicode="&quot;" horiz-adv-x="356" d="M257 411Q245 411 236 424T220 460T209 509T202 564T199 615Q199 632 201 648T216 674T259 685Q288 685 299 674T313 647T316 615Q316 592 314 565T308 510T296 460T280 425T257 411ZM98 411Q86 411 77 424T61 460T49
509T42 564T40 615Q40 632 42 648T57 674T99 685Q128 685 139 674T153 647T156 615Q156 592 154 565T148 510T136 460T120 425T98 411Z" />
<glyph unicode="#" horiz-adv-x="763" d="M185 -11Q161 -11 151 -1T145 34L165 157H75Q53 157 45 167T41 203Q44 227 52 237T72 251T99 255H180L205 405H115Q94 405 86 415T82 450Q85 473 93 484T113 498T139 501H221L242 631Q246 653 251 667T269 688T312 696Q338
696 348 684T354 645L330 501H505L525 628Q529 650 533 665T551 688T593 696Q620 696 630 685T637 649L614 501H688Q712 501 719 490T721 453Q716 430 708 420T688 408T665 405H597L574 255H647Q670 255 677 243T680 210Q675 185 667 174T648 160T624 157H556L539
51Q537 33 531 19T511 -3T468 -11Q446 -11 435 -1T428 34L447 157H273L256 52Q253 33 247 19T227 -3T185 -11ZM289 255H465L488 405H315L289 255Z" />
<glyph unicode="$" horiz-adv-x="459" d="M418 211Q418 176 407 148T376 99T328 64T264 44V-24Q264 -39 262 -51T249 -71T217 -78Q197 -78 187 -71T175 -51T172 -24V44Q145 49 120 60T75 88T41 124Q26 147 26 163T49 199Q65 212 79 213T105 206T127 183Q144 160
166 149T215 137Q247 137 269 145T302 170T313 209Q313 236 291 250T235 275T166 301Q141 310 118 322T77 353T48 396T37 456Q37 487 46 512T73 557T116 590T172 609V671Q172 686 174 698T187 717T218 724Q239 724 249 717T261 698T264 671V610Q297 605 322 591T367
558Q387 540 388 527T373 491Q363 476 351 470T327 466T301 479Q291 489 279 497T251 510T214 515Q198 515 185 511T162 498T147 479T141 455Q141 432 157 418T201 396T259 378Q287 369 315 358T366 329T404 282T418 211Z" />
<glyph unicode="%" horiz-adv-x="809" d="M205 -38Q194 -32 188 -25T182 -6T191 19L550 696Q558 710 565 717T583 724T605 717Q618 710 623 702T628 684T618 660L258 -19Q251 -33 244 -39T227 -45T205 -38ZM204 321Q125 321 78 371T30 505Q30 589 77 640T203 691Q283
691 329 641T376 506Q376 420 330 371T204 321ZM203 413Q243 413 265 438T288 508Q288 552 266 575T203 599Q162 599 140 575T117 507Q117 462 139 438T203 413ZM610 -11Q532 -11 484 40T436 174Q436 258 483 308T610 359Q689 359 735 310T782 175Q782 88 736 39T610
-11ZM610 81Q650 81 672 106T694 176Q694 220 672 243T610 267Q569 267 547 243T524 175Q524 130 546 106T610 81Z" />
<glyph unicode="&amp;" horiz-adv-x="707" d="M253 -14Q180 -14 130 8T53 74T27 180Q27 213 40 246T81 311T147 375Q133 404 123 432T108 487T102 539Q102 594 125 632T193 691T301 712Q354 712 393 693T453 639T474 555Q474 528 460 502T422 450T365 398T296
344Q319 311 344 281T395 227T446 183Q476 210 488 234T506 283Q509 300 524 309T571 319Q595 319 606 312T620 295T623 275Q621 239 601 203T544 129Q555 126 563 124T583 120T612 118Q641 118 654 105T667 62Q667 25 655 12T611 -1Q583 -1 555 3T498 17T441 43Q413
25 382 13T318 -7T253 -14ZM255 96Q280 96 302 101T340 117Q325 131 308 148T273 185T238 227T205 272Q190 258 180 246T163 224T153 203T150 181Q150 154 162 135T198 106T255 96ZM243 439Q271 459 293 476T331 508T354 535T362 557Q362 584 345 600T298 616Q272
616 253 608T224 584T214 546Q214 532 217 516T226 482T243 439Z" />
<glyph unicode="&apos;" horiz-adv-x="185" d="M92 411Q80 411 71 424T55 460T44 509T37 564T35 615Q35 632 37 648T52 674T93 685Q122 685 134 674T148 647T151 615Q151 592 149 565T142 510T130 460T114 425T92 411Z" />
<glyph unicode="(" horiz-adv-x="371" d="M283 -167Q236 -167 198 -142T131 -72T82 32T53 159T43 299Q43 370 52 438T81 567T129 672T197 744T284 770Q299 770 310 767T327 753T334 720Q334 697 328 687T312 673T288 670H283Q251 670 221 628T173 505T154 301Q154
219 163 152T190 35T232 -41T284 -68Q299 -68 310 -71T327 -84T334 -118Q334 -141 327 -151T309 -164T283 -167Z" />
<glyph unicode=")" horiz-adv-x="371" d="M86 -167Q72 -167 61 -165T43 -152T36 -118Q36 -95 42 -85T60 -71T85 -68Q114 -68 137 -41T178 35T206 151T216 301Q216 423 197 504T149 628T86 670H81Q69 670 59 673T42 686T36 720Q36 742 42 752T60 766T85 770Q134
770 172 744T240 673T288 567T317 439T327 299Q327 228 317 160T288 32T239 -72T172 -142T86 -167Z" />
<glyph unicode="*" horiz-adv-x="486" d="M234 670Q264 670 276 658T288 617V543L375 571Q396 577 409 569T430 534Q440 506 433 491T397 467L319 443L375 365Q387 346 383 332T355 301Q332 284 316 286T284 312L234 380L181 307Q167 288 151 288T111 304Q89 320
86 335T98 372L148 443L65 468Q41 474 35 488T37 531Q47 560 60 568T97 569L182 542V619Q182 647 194 658T234 670Z" />
<glyph unicode="+" horiz-adv-x="521" d="M261 25Q235 25 223 32T208 52T205 80V432Q205 447 208 459T223 479T262 486Q288 486 299 479T314 459T317 430V81Q317 65 314 53T300 33T261 25ZM83 199Q69 199 57 202T37 217T30 255Q30 282 37 294T58 309T86 312H437Q452
312 464 309T484 294T492 255Q492 229 485 217T465 202T438 199H83Z" />
<glyph unicode="," horiz-adv-x="225" d="M61 -112Q61 -112 57 -111T49 -104T45 -83Q45 -64 51 -58T59 -52Q60 -51 73 -41T88 -5Q78 -3 71 0T57 10Q48 19 46 33T44 62Q45 78 47 93T64 118T112 128Q150 128 166 112Q175 103 177 89T179 60Q179 53 179 46T177 33Q173
-7 157 -40T116 -92T61 -112Z" />
<glyph unicode="-" horiz-adv-x="418" d="M63 200Q50 200 38 203T18 218T10 257Q10 283 17 294T37 309T62 313H311Q324 313 336 310T355 295T363 256Q363 230 356 218T336 203T310 200H63Z" />
<glyph unicode="." horiz-adv-x="214" d="M107 -10Q70 -10 55 4T40 56Q40 82 46 96T68 118T108 125Q145 125 160 110T175 57Q175 32 169 17T148 -4T107 -10Z" />
<glyph unicode="/" horiz-adv-x="508" d="M53 -48Q24 -33 19 -17T30 32L358 683Q369 705 379 714T404 724T438 713Q459 703 467 693T473 668T460 631L131 -17Q116 -50 100 -55T53 -48Z" />
<glyph unicode="0" horiz-adv-x="580" d="M294 -17Q235 -17 191 2T117 56T69 136T43 234T35 341Q35 393 43 444T68 540T116 621T189 677T292 698Q349 698 391 678T463 623T511 542T537 445T545 340Q545 286 537 234T511 137T464 57T392 3T294 -17ZM289 105Q330
105 355 122T394 168T415 228T422 288T424 335V341Q424 416 409 469T365 549T291 577Q245 577 215 550T171 470T156 340Q156 265 171 213T215 133T289 105Z" />
<glyph unicode="1" horiz-adv-x="388" d="M286 -11Q253 -11 240 2T227 50V630Q227 663 240 676T287 689Q320 689 333 676T346 628V49Q346 16 333 3T286 -11ZM132 428Q109 407 91 407T51 432Q30 455 31 475T59 518L230 669Q253 689 271 688T311 663Q333 640 331
620T302 577L132 428Z" />
<glyph unicode="2" horiz-adv-x="587" d="M95 -5Q72 -5 54 13T35 57Q35 73 37 88T46 117T67 144Q113 182 160 214T252 275T331 333T386 395T406 466Q406 497 394 522T354 562T282 577Q251 577 228 568T189 542T165 501T156 445Q156 428 153 415T138 395T95 387Q65
387 53 396T38 420T35 453Q35 503 51 547T100 625T177 678T281 698Q354 698 409 668T496 584T528 455Q528 416 516 382T483 319T435 264T376 217T312 175T250 137L212 117H496Q513 117 527 114T548 97T556 55Q556 27 548 14T526 -2T494 -5H95Z" />
<glyph unicode="3" horiz-adv-x="580" d="M289 -16Q236 -16 191 0T111 45T57 111T35 188Q35 232 100 232Q120 232 130 228T146 213T158 183Q165 163 181 144T225 113T290 100Q331 100 361 113T407 151T424 206Q424 237 408 259T363 294T299 307Q280 307 266 310T243
325T234 365Q234 394 242 405T266 420T300 423Q334 423 356 432T391 457T403 493Q403 520 390 540T354 572T298 584Q269 584 248 577T212 555T183 521Q168 492 149 487T98 500Q73 515 68 532T75 573Q78 580 86 594T111 626T152 660T211 688T292 699Q348 699 391
682T464 636T509 572T525 498Q525 464 512 437T480 392T442 365Q463 356 481 340T514 303T537 257T545 208Q545 144 513 93T422 13T289 -16Z" />
<glyph unicode="4" horiz-adv-x="547" d="M443 -9Q415 -9 403 -1T387 21T383 52V204H91Q63 204 50 212T34 235T30 265Q30 273 31 278T33 290L132 645Q141 683 157 690T206 690Q232 684 245 671T254 636L165 317H383V634Q383 650 386 662T403 682T445 690Q473 690
486 682T502 660T505 629V50Q505 34 502 20T485 -1T443 -9Z" />
<glyph unicode="5" horiz-adv-x="509" d="M247 -17Q209 -17 179 -10T125 8T85 29T59 48Q47 58 39 67T30 90Q30 100 35 110T54 135Q65 149 75 155T96 161Q105 161 115 156T142 138Q150 131 161 124T192 111T241 105Q275 105 300 118T338 155T352 213Q352 245 338
269T300 308T244 322Q229 322 215 318T191 308T173 295Q165 288 158 283T138 277Q127 275 116 277T87 287Q65 298 55 307T45 330L86 629Q88 641 92 655T109 680T147 690H397Q413 690 426 687T447 670T455 628Q455 601 448 589T428 574T399 571H201L179 421Q189
428 200 432T222 439T245 442H252Q296 442 336 425T407 376T456 305T474 220Q474 152 444 99T363 14T247 -17Z" />
<glyph unicode="6" horiz-adv-x="531" d="M273 -16Q198 -16 145 16T64 112T35 264Q35 341 52 407T103 525T184 615T291 672T419 692Q435 692 447 689T468 672T476 631Q476 603 468 590T446 574T415 571Q365 571 326 558T257 523T207 473T177 413T166 350L152 344Q158
361 176 376T221 400T281 410Q344 410 392 383T469 310T497 205Q497 141 469 91T390 13T273 -16ZM269 97Q304 97 328 109T365 145T378 200Q378 230 366 252T331 287T275 300Q240 300 214 288T175 253T161 202Q161 170 173 146T210 110T269 97Z" />
<glyph unicode="7" horiz-adv-x="543" d="M197 -10Q169 -10 157 -4T140 13T136 38Q136 96 153 151T197 258T254 356T310 443T354 515T372 568H90Q74 568 60 572T38 588T30 629Q30 657 37 669T57 685T85 689H453Q482 689 494 680T509 656T513 623Q513 581 495 536T448
442T386 344T324 243T277 140T258 36Q258 23 255 13T238 -4T197 -10Z" />
<glyph unicode="8" horiz-adv-x="553" d="M280 -17Q209 -17 154 11T67 89T35 204Q35 232 43 257T63 302T89 336T113 359T128 367Q125 368 114 378T90 406T67 448T57 502Q57 560 86 605T165 676T280 702Q342 702 391 676T468 604T497 500Q497 479 491 460T476 423T456
394T439 375T428 367Q432 367 442 359T466 336T491 301T511 256T519 204Q519 153 500 112T447 42T370 -2T280 -17ZM278 95Q315 95 341 108T383 145T398 202Q398 235 383 259T341 296T276 309Q240 309 213 296T171 259T156 202Q156 170 171 146T213 108T278 95ZM278
415Q308 415 330 425T364 456T376 502Q376 528 364 547T329 577T277 588Q248 588 226 578T192 548T180 502Q180 476 192 456T226 426T278 415Z" />
<glyph unicode="9" horiz-adv-x="531" d="M110 -9Q95 -9 83 -6T63 11T55 52Q55 80 63 92T86 108T117 112Q166 112 205 124T274 159T324 210T354 270T365 333L380 338Q374 322 356 307T310 283T250 273Q188 273 139 300T63 373T35 477Q35 541 63 591T141 669T258
698Q333 698 386 666T468 571T497 418Q497 341 479 275T428 157T347 67T240 11T110 -9ZM256 382Q292 382 317 394T356 429T370 480Q370 513 358 536T322 573T262 586Q227 586 203 574T166 538T153 483Q153 454 165 431T201 395T256 382Z" />
<glyph unicode=":" horiz-adv-x="230" d="M111 322Q73 322 58 337T43 388Q43 414 49 429T71 450T111 457Q149 457 163 442T178 389Q178 365 172 350T151 329T111 322ZM110 -10Q73 -10 58 4T43 56Q43 82 49 96T71 118T111 125Q148 125 163 110T178 57Q178 32 172
17T151 -4T110 -10Z" />
<glyph unicode=";" horiz-adv-x="216" d="M58 -113Q58 -113 54 -112T46 -104T42 -83Q42 -64 48 -59T56 -52Q57 -51 70 -41T85 -5Q75 -3 68 0T55 9Q45 19 43 32T41 60Q41 83 46 98T65 120T109 128Q147 128 163 112Q172 103 173 89T175 61Q175 51 175 45T174 33Q170
-7 154 -40T113 -93T58 -113ZM107 321Q69 321 55 336T40 387Q40 413 45 428T66 449T108 456Q147 456 161 441T175 388Q175 370 171 355T153 330T107 321Z" />
<glyph unicode="&lt;" horiz-adv-x="537" d="M422 5L46 244Q36 250 28 262T20 292Q20 314 29 324T47 339L422 578Q436 587 448 591T473 591T501 562Q515 540 515 526T507 502T485 483L180 291L485 99Q499 91 507 82T516 58T501 21Q487 -1 474 -6T449 -8T422 5Z" />
<glyph unicode="=" horiz-adv-x="459" d="M81 302Q69 302 57 304T38 319T30 356Q30 382 37 393T56 407T81 411H378Q392 411 403 408T422 393T429 356Q429 330 422 319T403 305T377 302H81ZM81 103Q68 103 57 106T38 120T30 158Q30 183 37 194T56 209T81 212H378Q391
212 402 209T421 195T429 157Q429 132 422 121T403 106T377 103H81Z" />
<glyph unicode="&gt;" horiz-adv-x="537" d="M115 5Q102 -4 89 -8T64 -7T36 21Q22 43 22 57T29 81T52 99L357 291L52 483Q39 492 30 502T22 526T36 562Q51 585 64 590T89 592T115 578L490 339Q499 334 508 324T517 292Q517 275 509 263T491 244L115 5Z" />
<glyph unicode="?" horiz-adv-x="486" d="M244 202Q218 202 206 209T192 228T189 256V321Q189 345 200 359T228 382T265 400T302 420T331 451T342 501Q342 547 317 571T239 596Q215 596 196 589T165 569T146 539Q140 520 132 510T111 498T76 503Q55 512 45 520T34
540T38 571Q41 584 50 601T74 636T113 670T168 695T239 705Q303 705 351 680T425 609T452 503Q452 467 442 438T415 387T376 349T334 323T295 308L301 319V252Q301 238 298 227T283 209T244 202ZM243 -10Q202 -10 189 6T176 58Q176 73 179 88T196 114T244 125Q286
125 298 109T311 57Q311 41 309 26T292 0T243 -10Z" />
<glyph unicode="@" horiz-adv-x="834" d="M380 -137Q273 -137 194 -91T72 39T29 236Q29 319 57 387T135 505T256 582T409 609Q502 609 575 583T700 508T778 390T805 235Q805 167 787 114T736 24T663 -32T579 -51Q519 -51 483 -17T449 75Q450 84 451 94T452 113Q444
103 431 95T401 81T359 76Q331 76 306 87T260 120T229 169T219 231Q219 238 219 243T220 252Q223 290 239 322T280 379T334 416T396 429Q423 429 443 421T477 401T497 375L489 393Q491 414 503 422T542 430Q563 430 574 421T584 393L543 79Q543 62 552 53T584 43Q605
43 627 54T669 90T700 152T712 244Q712 306 693 356T637 441T545 496T417 515Q330 515 264 481T162 386T125 243Q125 154 155 90T242 -8T381 -42Q400 -42 410 -46T424 -60T429 -90Q429 -110 422 -120T404 -134T380 -137ZM384 173Q399 173 413 178T438 194T456 219T466
251V258Q466 276 462 289T448 312T427 327T399 332Q383 332 369 327T344 311T326 286T316 252V245Q316 223 324 207T348 182T384 173Z" />
<glyph unicode="A" horiz-adv-x="706" d="M686 75Q696 56 696 42T688 17T658 -5Q626 -20 609 -13T576 26L353 497L131 26Q116 -5 98 -11T48 -4Q28 6 19 17T10 43T23 81L298 654Q306 670 321 679T354 689Q366 689 376 685T394 673T409 653L686 75ZM175 172L223
275H484L532 172H175Z" />
<glyph unicode="B" horiz-adv-x="629" d="M106 -9Q80 -9 67 0T51 24T47 57V625Q47 643 51 657T67 681T107 690H371Q429 690 473 663T543 592T568 494Q568 470 563 447T546 403T517 367Q540 349 557 323T582 267T591 203Q590 158 574 120T530 52T463 7T381 -9H106ZM168
109H371Q400 109 422 120T458 154T471 214Q471 243 464 260T444 288T416 302T385 306T357 307H311Q285 307 273 319T261 361Q261 388 274 399T314 411H359Q372 411 387 412T417 419T440 441T449 485Q449 530 426 550T345 571H168V109Z" />
<glyph unicode="C" horiz-adv-x="655" d="M392 -14Q343 -14 293 0T197 44T116 117T59 218T38 346Q38 415 59 470T115 568T196 638T292 680T393 696Q444 696 481 685T541 662T572 644Q588 634 602 622T618 591Q619 579 615 570T604 550Q592 533 580 525T556 517Q545
517 536 523T512 538Q506 542 491 550T450 566T388 573Q345 573 304 558T231 514T179 441T160 341Q160 285 179 242T230 169T304 124T388 109Q422 109 446 115T488 131T515 146Q526 153 536 159T557 165Q569 165 580 157T603 131Q610 120 614 110T617 89Q616 71
602 59T571 37Q563 32 541 20T481 -3T392 -14Z" />
<glyph unicode="D" horiz-adv-x="680" d="M113 -9Q87 -9 74 -1T57 22T53 52V630Q53 646 56 659T73 681T114 690L302 689Q375 689 436 664T543 593T612 484T637 344Q637 266 612 201T542 89T436 17T299 -9H113ZM174 112H302Q366 112 414 140T488 220T515 339Q515
408 489 459T414 539T301 568H174V112Z" />
<glyph unicode="E" horiz-adv-x="617" d="M124 -10Q96 -10 83 -2T67 21T64 52V629Q64 663 77 676T127 689H517Q534 689 547 686T569 670T577 628Q577 600 569 587T547 571T516 568H185V400H413Q430 400 442 397T461 382T468 345Q468 320 461 309T441 295T411 292H185V112H517Q534
112 547 109T569 92T577 51Q577 23 569 10T547 -6T516 -10H124Z" />
<glyph unicode="F" horiz-adv-x="625" d="M124 -10Q96 -10 83 -2T67 21T64 52V629Q64 663 77 676T127 689H517Q534 689 547 686T568 670T576 628Q576 600 568 587T546 571T515 568H185V400H412Q429 400 441 397T460 382T467 344Q467 320 460 309T441 295T411 292H185V51Q185
34 182 21T165 -1T124 -10Z" />
<glyph unicode="G" horiz-adv-x="712" d="M392 -14Q317 -14 254 12T145 88T74 203T49 351Q49 427 75 490T148 599T259 672T401 698Q433 698 467 693T533 676T589 647Q608 635 621 623T636 594Q637 585 633 575T621 553Q610 536 598 528T573 520Q566 520 556 525T529
541Q516 550 495 558T449 571T397 576Q330 576 279 548T200 469T171 348Q171 277 200 223T279 139T396 108Q419 108 442 111T488 120T530 135V293H388Q374 293 363 296T345 310T338 346Q338 372 345 383T363 397T389 400H593Q619 400 631 391T647 369T651 338V105Q651
85 632 64T577 25Q554 13 525 5T462 -9T392 -14Z" />
<glyph unicode="H" horiz-adv-x="675" d="M556 -9Q528 -9 515 -1T499 21T496 52V629Q496 645 499 659T515 681T557 689Q585 689 597 681T613 659T617 628V51Q617 35 614 21T597 -1T556 -9ZM118 -9Q90 -9 78 -1T62 21T58 52V629Q58 645 61 659T78 681T119 689Q148
689 160 681T176 659T179 628V51Q179 35 176 21T160 -1T118 -9ZM147 292V400H512L511 292H147Z" />
<glyph unicode="I" horiz-adv-x="224" d="M112 -10Q84 -10 71 -2T55 21T52 52V629Q52 645 55 659T71 681T113 689Q141 689 153 681T169 659T173 628V51Q173 34 170 21T153 -1T112 -10Z" />
<glyph unicode="J" horiz-adv-x="540" d="M241 -15Q207 -15 178 -7T125 15T86 40T61 61Q50 73 42 84T33 107Q33 118 39 129T57 152Q70 166 80 171T101 177Q116 177 127 167T155 141Q163 135 176 127T206 112T245 106Q273 106 293 115T327 143T347 185T354 239V621Q354
639 358 655T375 680T417 689Q444 689 456 681T472 658T476 627V232Q476 179 460 134T413 56T339 4T241 -15Z" />
<glyph unicode="K" horiz-adv-x="593" d="M120 -10Q92 -10 79 -2T63 21T60 51V629Q60 646 63 659T79 681T121 689Q149 689 161 681T177 659T181 628V421L436 669Q452 686 465 692T492 694T522 673Q548 648 548 630T525 587L261 340L528 92Q553 68 552 49T525 6Q506
-10 493 -14T467 -13T439 11L181 261V50Q181 34 178 20T162 -2T120 -10Z" />
<glyph unicode="L" horiz-adv-x="562" d="M122 -10Q93 -10 80 -2T64 21T60 51V628Q60 645 63 659T79 681T121 689Q149 689 161 681T177 659T181 628V98H486Q501 98 513 96T532 82T539 45Q539 20 532 9T513 -6T486 -10H122Z" />
<glyph unicode="M" horiz-adv-x="820" d="M115 -9Q89 -9 76 -1T60 21T56 52V629Q56 645 59 658T76 680T117 689Q138 689 148 687T165 680T177 668L421 327H398L643 669Q650 677 657 681T675 687T704 689Q731 689 744 681T760 658T764 627V50Q764 35 761 21T744
-1T703 -9Q676 -9 663 -1T647 22T643 52V481L461 218Q458 214 452 208T436 196T409 191Q393 191 383 196T368 207T357 219L176 481V50Q176 35 173 21T156 -1T115 -9Z" />
<glyph unicode="N" horiz-adv-x="695" d="M112 -9Q85 -9 73 -1T57 22T53 52V632Q53 647 57 660T74 681T115 689Q145 689 156 683T178 664L512 197V632Q512 647 516 660T533 681T573 689Q601 689 613 681T629 658T633 627V51Q633 35 629 22T611 0T569 -9Q547 -9
535 -5T512 12L173 478V51Q173 35 170 22T153 0T112 -9Z" />
<glyph unicode="O" horiz-adv-x="728" d="M369 -18Q297 -18 235 9T124 85T49 197T22 334Q22 409 48 474T121 589T229 667T360 695Q433 695 495 668T605 591T679 478T706 338Q706 265 680 201T607 87T500 10T369 -18ZM364 104Q410 104 450 122T520 172T568 246T585
338Q585 387 568 429T520 504T450 555T364 573Q319 573 279 555T209 505T161 429T144 338Q144 290 161 247T209 172T278 122T364 104Z" />
<glyph unicode="P" horiz-adv-x="599" d="M118 -9Q90 -9 77 -1T61 21T58 52V629Q58 645 61 658T78 680T119 689H331Q375 689 417 674T492 629T545 555T565 452Q565 394 546 351T492 277T417 232T330 217H179V51Q179 35 176 21T160 -1T118 -9ZM179 339H331Q362
339 387 351T429 389T445 454Q445 489 431 514T391 554T330 568H179V339Z" />
<glyph unicode="Q" horiz-adv-x="801" d="M746 106Q775 87 778 69T761 22Q747 2 735 -5T710 -9T677 7L585 69Q542 29 487 6T369 -18Q297 -18 235 9T124 85T49 197T22 334Q22 409 48 474T121 589T229 667T361 695Q433 695 495 668T605 592T679 478T706 338Q706
291 695 247T661 164L746 106ZM364 104Q410 104 450 122T520 172T568 246T585 338Q585 387 568 429T520 504T450 555T365 573Q319 573 279 555T209 505T161 430T144 338Q144 289 161 247T209 172T279 122T364 104Z" />
<glyph unicode="R" horiz-adv-x="618" d="M122 -9Q94 -9 82 -1T66 21T62 52V629Q62 645 66 658T82 680T123 689H337Q383 689 424 675T499 631T551 557T571 453Q571 414 559 376T524 305T464 249T379 219H183V51Q183 35 180 21T164 -1T122 -9ZM548 6Q519 -14 501
-9T464 23L296 277L431 295L564 93Q578 73 581 59T576 33T548 6ZM183 339H352Q370 339 387 345T419 366T441 402T450 454Q450 490 436 515T397 554T335 568H183V339Z" />
<glyph unicode="S" horiz-adv-x="550" d="M271 -19Q226 -19 190 -8T126 20T79 55T51 88Q38 106 34 120T36 147T61 176Q79 192 94 192T124 183T153 155Q177 123 207 110T267 96Q306 96 335 106T380 138T397 192Q397 219 381 236T337 266T277 289T209 313Q185 321
161 332T117 359T81 394T56 442T47 505Q47 562 75 605T153 674T267 700Q308 700 340 693T396 674T435 651T458 631Q481 608 483 593T465 551Q444 524 425 522T381 537Q365 554 349 564T314 580T266 585Q246 585 228 580T196 564T176 538T168 504Q168 478 182 462T222
435T278 415T341 396Q374 385 406 370T463 333T503 277T518 195Q518 140 497 99T440 32T360 -6T271 -19Z" />
<glyph unicode="T" horiz-adv-x="656" d="M574 690Q589 690 600 687T619 673T626 636Q626 611 619 600T600 586T573 583H389V50Q389 33 386 20T370 -2T328 -10Q301 -10 288 -2T272 20T269 51V583H83Q69 583 57 586T38 600T30 636Q30 661 37 672T56 687T83 690H574Z" />
<glyph unicode="U" horiz-adv-x="701" d="M349 -15Q279 -15 225 10T133 81T77 185T58 310V629Q58 646 61 659T77 681T119 690Q148 690 160 682T176 660T180 628V310Q180 255 198 209T255 134T352 106Q405 106 443 131T501 202T522 311V634Q522 650 525 662T542
682T583 690Q612 690 624 682T640 659T643 628V308Q643 242 624 184T567 81T475 11T349 -15Z" />
<glyph unicode="V" horiz-adv-x="726" d="M364 -9Q341 -9 326 -2T302 24L54 609Q41 640 49 655T86 685Q106 696 121 696T146 688T165 657L363 161L559 652Q568 672 578 683T604 695T642 684Q677 667 680 649T670 603L424 24Q417 9 401 0T364 -9Z" />
<glyph unicode="W" horiz-adv-x="959" d="M284 -7Q264 -7 252 0T235 18T227 35L31 609Q21 641 28 657T69 685Q92 693 106 692T129 681T146 648L290 212L419 644Q422 654 427 664T445 682T478 689Q502 689 514 681T531 664T539 646L668 209L813 647Q820 670 829
681T854 693T891 687Q914 679 924 670T934 646T927 609L732 34Q730 28 725 18T707 1T674 -7Q653 -7 641 2T623 22T615 38L479 478L343 39Q341 32 336 21T318 2T284 -7Z" />
<glyph unicode="X" horiz-adv-x="693" d="M622 2Q604 -13 591 -18T565 -16T537 8L65 590Q44 614 44 633T70 675Q88 691 101 695T128 694T155 669L627 86Q650 61 650 43T622 2ZM71 2Q44 24 44 42T66 86L538 669Q553 687 565 693T591 696T623 675Q650 652 650 633T628
590L156 8Q141 -9 129 -16T103 -18T71 2Z" />
<glyph unicode="Y" horiz-adv-x="638" d="M586 682Q615 662 618 644T604 602L381 265V50Q381 33 378 20T361 -2T320 -11Q291 -11 279 -3T263 20T259 52V265L35 601Q17 626 21 644T54 681Q74 695 88 698T115 693T138 667L318 382L501 667Q513 685 524 692T551 698T586
682Z" />
<glyph unicode="Z" horiz-adv-x="583" d="M84 -11Q59 -11 42 5T25 50Q25 59 27 67T34 82L372 571H89Q72 571 58 574T34 589T25 628Q25 657 33 670T55 686T86 690H484Q511 690 527 672T544 630Q544 618 541 608T532 592L198 107H499Q515 107 528 104T550 88T558
49Q558 21 550 9T528 -7T497 -11H84Z" />
<glyph unicode="[" horiz-adv-x="336" d="M97 -164Q70 -164 58 -156T42 -134T39 -104V706Q39 723 42 736T57 758T97 766H256Q269 766 279 764T295 750T301 713Q301 688 295 677T279 663T255 660H153V-58H255Q268 -58 278 -61T295 -75T301 -112Q301 -136 295 -147T279
-161T256 -164H97Z" />
<glyph unicode="\" horiz-adv-x="510" d="M431 -47Q412 -56 398 -56T373 -46T353 -16L33 641Q18 671 24 688T58 720Q87 734 104 727T137 689L454 36Q469 2 464 -15T431 -47Z" />
<glyph unicode="]" horiz-adv-x="336" d="M73 -164Q61 -164 50 -162T33 -148T27 -112Q27 -87 33 -76T50 -61T73 -58H175V660H74Q61 660 51 663T34 677T27 713Q27 738 33 749T49 763T72 766H231Q258 766 270 758T286 737T290 706V-104Q290 -120 287 -134T271 -156T231
-164H73Z" />
<glyph unicode="^" horiz-adv-x="503" d="M252 516Q263 516 271 511T288 498L453 332Q463 323 468 313T471 291T451 261Q434 244 422 241T399 244T380 259L252 388L124 259Q115 250 105 244T83 241T52 261Q35 278 32 290T35 313T50 332L216 498Q223 506 232 511T252 516Z" />
<glyph unicode="_" horiz-adv-x="797" d="M80 -169Q67 -169 56 -166T39 -152T32 -118Q32 -93 38 -82T56 -68T79 -65H720Q733 -65 744 -68T761 -82T767 -118Q767 -142 761 -152T743 -166T719 -169H80Z" />
<glyph unicode="`" horiz-adv-x="372" d="M234 538L81 589Q56 598 51 612T53 653Q62 682 74 689T112 689L265 639Q290 630 295 616T292 574Q283 545 271 539T234 538Z" />
<glyph unicode="a" horiz-adv-x="569" d="M462 -8Q433 -8 419 3T405 33L412 66Q404 53 385 36T335 5T260 -9Q213 -9 172 10T99 64T49 143T30 239Q30 288 48 331T99 409T172 462T260 482Q301 482 329 471T378 444T411 409L405 438Q405 460 419 471T463 483Q491
483 503 475T518 452T521 419V53Q521 36 518 22T503 0T462 -8ZM278 108Q312 108 339 125T382 171T399 237Q399 276 382 305T338 350T276 367Q239 367 210 350T165 303T148 236Q148 200 165 171T211 125T278 108Z" />
<glyph unicode="b" horiz-adv-x="573" d="M309 -9Q260 -9 222 10T157 64T117 142T103 238Q104 289 118 333T158 411T223 464T309 483Q355 483 395 464T467 412T517 334T535 239Q535 187 517 142T468 63T396 10T309 -9ZM293 108Q328 108 356 124T400 170T417 236Q417
274 401 303T356 349T293 366Q259 366 231 349T187 303T170 236Q170 199 186 170T231 125T293 108ZM108 -10Q81 -10 68 -2T52 20T49 51V647Q49 664 52 677T68 699T108 707Q136 707 148 699T163 677T166 647V31Q162 9 150 0T108 -10Z" />
<glyph unicode="c" horiz-adv-x="507" d="M290 -12Q242 -12 197 4T115 53T57 131T35 237Q35 296 56 342T114 420T195 469T288 486Q323 486 354 476T409 452T442 424Q455 412 464 401T470 374Q467 364 461 356T446 338Q422 311 399 318Q386 325 373 333T347 348T319
361T288 366Q250 366 221 350T175 304T158 237Q158 199 174 170T220 124T286 107Q304 107 320 111T350 123T371 139Q382 146 391 152T410 158Q422 158 433 150T459 123Q472 108 473 94T468 67T443 43Q431 31 408 19T354 -3T290 -12Z" />
<glyph unicode="d" horiz-adv-x="575" d="M264 -9Q218 -9 177 10T105 62T56 141T38 239Q38 289 56 333T105 411T178 464T264 483Q312 483 350 464T414 412T455 334T470 238Q470 187 457 143T417 64T352 11T264 -9ZM280 108Q315 108 342 124T386 170T403 236Q403
274 387 303T343 349T280 366Q245 366 217 350T173 304T156 236Q156 199 172 170T217 125T280 108ZM465 -9Q437 -9 424 0T407 31V647Q407 664 409 677T424 699T464 708Q493 708 505 700T520 679T524 648V52Q524 35 521 21T506 -1T465 -9Z" />
<glyph unicode="e" horiz-adv-x="539" d="M290 -16Q225 -16 177 5T96 62T47 144T30 239Q30 311 63 367T154 455T289 487Q343 487 384 470T452 426T494 365T509 301Q509 248 484 224T420 200H156Q157 166 177 141T229 103T294 89Q319 89 338 92T372 99T396 109T416
118T433 123Q444 124 455 118T473 97Q479 87 481 79T484 62Q484 42 460 25T393 -4T290 -16ZM156 271H361Q378 271 387 276T396 300Q396 323 382 341T344 370T288 381Q251 381 221 367T174 327T156 271Z" />
<glyph unicode="f" horiz-adv-x="392" d="M168 -10Q141 -10 129 -2T113 20T110 51V537Q110 574 120 605T152 660T209 696T294 710Q311 710 324 707T346 691T355 650Q355 623 347 610T324 594T293 591Q276 591 264 590T244 583T233 567T229 539V49Q229 33 226 20T209
-2T168 -10ZM69 473L172 472L310 476Q327 476 340 473T362 457T370 416Q370 390 362 377T341 361T311 357L177 359L66 358Q41 359 32 372T22 417Q22 446 33 459T69 473Z" />
<glyph unicode="g" horiz-adv-x="559" d="M267 -210Q231 -210 198 -202T139 -179T97 -149T81 -119Q81 -105 85 -95T99 -75Q111 -63 118 -57T139 -51Q150 -51 160 -59T185 -77T219 -95T270 -103Q296 -103 318 -94T355 -68T380 -26T389 28L388 442Q390 465 404 474T447
484Q474 484 486 477T501 456T504 426V21Q504 -34 485 -77T433 -149T358 -194T267 -210ZM256 3Q209 3 169 21T98 72T50 148T32 243Q32 293 49 336T97 412T168 463T255 482Q300 482 333 465T389 415T422 339T434 242Q434 169 414 115T355 32T256 3ZM267 116Q301
116 327 132T369 178T385 243Q385 280 370 308T327 353T266 369Q232 369 206 353T164 308T149 243Q149 206 164 178T206 133T267 116Z" />
<glyph unicode="h" horiz-adv-x="545" d="M106 -10Q78 -10 66 -2T50 21T47 51V648Q47 665 50 678T66 700T107 708Q135 708 147 700T163 678T167 647V421Q187 444 218 463T295 483Q356 483 404 454T480 372T508 250V50Q508 34 505 21T490 -1T449 -9Q421 -9 408
-1T392 20T389 52V251Q389 286 377 312T342 352T283 367Q236 367 204 340T167 269V50Q167 34 164 20T148 -2T106 -10Z" />
<glyph unicode="i" horiz-adv-x="233" d="M116 -10Q89 -10 76 -2T60 20T57 51V423Q57 439 60 452T76 474T117 482Q145 482 157 474T173 452T176 421V50Q176 33 173 20T158 -2T116 -10ZM116 579Q87 579 74 587T57 611T53 644Q53 663 56 677T74 699T117 708Q147
708 160 699T177 676T181 642Q181 625 177 610T160 587T116 579Z" />
<glyph unicode="j" horiz-adv-x="238" d="M-42 -209Q-57 -209 -70 -206T-92 -190T-101 -150Q-101 -124 -93 -112T-71 -96T-40 -92Q-22 -92 -4 -89T29 -75T52 -44T61 11V429Q61 444 64 456T81 476T121 484Q148 484 160 476T175 454T179 424V9Q179 -46 161 -87T111
-156T41 -196T-42 -209ZM119 580Q83 580 70 594T56 645Q56 681 69 694T120 707Q156 707 169 694T183 643Q183 607 170 594T119 580Z" />
<glyph unicode="k" horiz-adv-x="497" d="M444 98Q470 76 471 57T451 13Q434 -6 421 -12T395 -13T364 8L173 169V50Q173 34 170 20T154 -2T113 -10Q85 -10 73 -2T57 21T54 51V648Q54 665 57 678T73 700T114 709Q142 709 154 701T169 679T173 647V319L311 453Q327
468 341 473T368 475T397 453Q422 426 421 409T396 367L261 242L444 98Z" />
<glyph unicode="l" horiz-adv-x="291" d="M224 -10Q187 -10 159 -5T110 12T76 44T57 95T50 167V649Q50 666 53 679T69 701T110 710Q138 710 150 702T166 681T170 650V172Q170 153 172 141T181 121T198 110T224 107Q237 107 247 104T264 89T271 50Q271 22 265 9T247
-7T224 -10Z" />
<glyph unicode="m" horiz-adv-x="814" d="M110 -9Q83 -9 71 -1T55 21T52 51V425Q52 441 55 454T71 475T112 483Q141 483 154 471T168 433L159 405Q164 416 176 429T205 455T245 476T291 484Q324 484 351 473T400 441T438 390Q455 416 476 437T525 471T588 484Q646
484 685 455T745 373T766 245V51Q766 34 763 21T747 -1T706 -9Q678 -9 665 -1T649 21T646 52V246Q646 283 637 310T611 352T565 367Q535 367 514 353T480 311T468 245V50Q468 33 463 19T444 -3T402 -9Q377 -8 366 1T352 23T349 52V246Q349 283 340 310T314 352T267
367Q236 367 215 351T182 308T171 246V50Q171 34 168 20T152 -1T110 -9Z" />
<glyph unicode="n" horiz-adv-x="560" d="M111 -9Q84 -9 72 -1T56 21T53 52V426Q53 442 56 455T72 475T112 483Q136 483 148 477T164 462T168 444T170 430L166 398Q172 414 186 429T220 456T263 476T312 484Q359 484 396 467T459 419T500 346T514 250V51Q514 34
511 21T495 -1T454 -9Q426 -9 413 -1T397 21T394 52V251Q394 287 382 313T346 353T286 367Q251 367 225 353T185 312T171 251V51Q171 34 168 21T153 -1T111 -9Z" />
<glyph unicode="o" horiz-adv-x="559" d="M282 -16Q234 -16 189 2T107 55T49 135T27 236Q27 289 47 335T102 416T182 470T280 490Q350 490 407 457T498 366T532 237Q532 180 511 134T454 54T374 2T282 -16ZM280 102Q313 102 343 118T393 166T413 239Q413 278 396
308T348 355T279 372Q242 372 212 355T165 307T147 238Q147 196 166 166T215 119T280 102Z" />
<glyph unicode="p" horiz-adv-x="563" d="M305 -3Q256 -3 218 15T153 67T113 145T99 240Q100 291 114 335T154 413T219 465T305 484Q351 484 391 465T463 412T513 334T531 238Q531 186 513 142T464 66T392 15T305 -3ZM105 -211Q78 -211 65 -203T49 -182T46 -152V423Q46
440 49 453T64 474T104 483Q130 483 145 475T165 448V-151Q166 -168 163 -181T146 -203T105 -211ZM289 109Q324 109 352 125T396 171T413 238Q413 276 397 305T352 350T289 367Q255 367 227 350T183 305T166 238Q166 201 182 172T227 126T289 109Z" />
<glyph unicode="q" horiz-adv-x="560" d="M254 -3Q208 -3 167 15T95 65T46 142T28 238Q28 289 46 333T95 412T168 465T254 484Q302 484 340 465T404 413T445 336T460 240Q460 189 447 145T407 68T342 16T254 -3ZM270 109Q304 109 332 125T376 171T393 238Q393
276 377 304T333 350T270 367Q235 367 207 351T163 305T146 238Q146 201 162 172T207 126T270 109ZM454 -211Q426 -211 413 -203T397 -182T394 -151V448Q398 461 405 468T425 479T455 483Q482 483 494 475T510 453T513 423V-152Q513 -169 510 -182T495 -203T454
-211Z" />
<glyph unicode="r" horiz-adv-x="415" d="M111 -10Q84 -10 72 -2T56 21T53 52V423Q53 441 56 454T71 475T112 483Q139 483 151 476T167 459T171 438L163 420Q168 428 177 439T201 462T237 481T287 489Q299 489 312 487T339 480T364 468T381 452T387 430Q387 398
371 376T333 354Q318 354 311 357T300 364T287 371T260 374Q245 374 230 369T201 354T180 329T172 293V50Q172 33 169 20T153 -2T111 -10Z" />
<glyph unicode="s" horiz-adv-x="459" d="M223 -16Q197 -16 168 -11T112 5T66 30T41 63Q37 73 38 82T44 102T59 124Q68 135 77 136T102 130Q115 125 130 117T162 101T196 88T231 83Q268 83 290 95T312 131Q312 144 305 154T287 170T260 182T227 192T190 203Q165
210 140 220T96 246T64 286T52 346Q52 391 73 422T136 471T235 488Q255 488 273 485T309 477T343 463T375 445Q400 431 401 413T387 373Q376 359 365 354T342 353Q326 361 308 370T270 387T229 394Q209 394 193 388T169 371T161 345Q161 331 169 322T190 307T221
297T259 288Q287 282 316 273T369 248T409 206T424 137Q424 64 371 24T223 -16Z" />
<glyph unicode="t" horiz-adv-x="394" d="M295 -10Q246 -10 211 0T154 31T122 85T111 165V589Q111 607 114 620T130 640T170 648Q198 648 210 640T226 619T230 589V169Q230 148 233 135T244 116T264 107T295 104Q314 104 327 101T348 87T355 49Q355 21 347 9T325
-7T295 -10ZM70 473L173 472L311 476Q328 476 341 473T363 457T371 416Q371 390 363 377T342 361T312 357L178 359L67 358Q42 359 33 372T23 417Q23 446 34 459T70 473Z" />
<glyph unicode="u" horiz-adv-x="551" d="M256 -9Q210 -9 172 7T104 55T59 129T43 224V423Q43 440 46 453T62 475T102 483Q131 483 143 475T159 453T162 422V224Q162 188 174 162T211 122T270 107Q306 107 331 121T371 162T385 224V424Q385 441 388 454T404 475T445
483Q473 483 485 475T500 453T504 423V48Q504 33 501 20T485 -1T444 -9Q424 -9 413 -5T396 7T389 23T387 39L395 66Q389 57 377 45T348 20T307 -1T256 -9Z" />
<glyph unicode="v" horiz-adv-x="551" d="M275 -12Q254 -12 240 -5T218 18L36 399Q21 429 28 447T64 479Q94 494 112 489T144 452L275 145L404 446Q418 479 436 487T488 479Q522 462 524 442T513 395L332 18Q324 3 310 -4T275 -12Z" />
<glyph unicode="w" horiz-adv-x="755" d="M232 -9Q212 -9 201 -2T184 17T174 37L27 409Q21 428 21 441T31 463T60 480Q92 493 110 487T138 453L233 201L319 442Q322 451 328 461T345 478T377 486Q398 486 410 479T428 461T437 442L523 199L614 444Q626 475 644
485T693 483Q721 471 731 454T729 408L581 37Q577 27 572 17T555 -1T524 -9Q504 -9 493 -3T475 15T465 38L378 285L291 38Q285 24 280 13T264 -3T232 -9Z" />
<glyph unicode="x" horiz-adv-x="509" d="M454 469Q473 452 478 439T479 413T456 380L139 13Q122 -5 109 -11T84 -13T54 6Q37 23 31 35T31 62T54 94L371 461Q396 488 412 490T454 469ZM55 469Q72 484 84 488T109 486T138 461L455 94Q472 76 478 62T479 36T455
6Q438 -9 426 -13T401 -12T370 13L53 380Q37 398 31 412T31 439T55 469Z" />
<glyph unicode="y" horiz-adv-x="543" d="M176 -207Q144 -193 139 -176T148 -129L406 449Q420 481 436 487T485 480Q516 466 521 449T514 403L254 -178Q241 -210 225 -215T176 -207ZM269 38L38 393Q20 420 23 438T55 473Q86 492 103 488T139 456L322 171L269 38Z" />
<glyph unicode="z" horiz-adv-x="536" d="M89 -10Q62 -10 46 6T30 49Q30 63 34 74T48 94L309 363H112Q96 363 82 366T60 382T51 423Q51 451 59 463T82 479T112 483H435Q461 483 477 467T494 425Q494 412 490 401T478 382L220 110H447Q464 110 477 107T499 90T507
49Q507 22 499 9T477 -7T446 -10H89Z" />
<glyph unicode="{" horiz-adv-x="368" d="M273 -164Q240 -164 214 -155T171 -126T145 -78T136 -12L135 189Q135 207 130 218T116 235T93 245T64 248H54Q35 248 27 260T19 300Q19 325 24 336T38 350T53 354H61Q77 354 90 356T114 365T129 383T135 413L136 618Q136
654 145 682T171 728T213 757T272 767Q288 767 300 764T319 750T327 714Q327 691 320 680T300 665T273 661Q261 661 254 657T244 641T241 610V437Q241 408 238 386T226 346T204 317T171 296Q190 288 204 275T226 243T237 201T241 151V-22Q241 -35 244 -43T253 -55T272
-59Q288 -59 300 -62T319 -76T327 -112Q327 -136 320 -147T300 -161T273 -164Z" />
<glyph unicode="|" horiz-adv-x="210" d="M106 -214Q83 -214 73 -206T59 -184T56 -153V649Q56 665 59 678T73 700T107 708Q131 708 141 700T155 678T158 647V-155Q158 -171 155 -184T141 -206T106 -214Z" />
<glyph unicode="}" horiz-adv-x="368" d="M72 -164Q58 -164 46 -162T27 -148T19 -112Q19 -87 26 -76T46 -62T73 -59Q85 -59 92 -56T102 -44T105 -22V151Q105 178 108 201T120 242T141 274T175 296Q155 304 142 316T120 346T109 385T105 437V610Q105 630 102 641T92
656T73 661Q58 661 46 664T26 679T19 714Q19 738 26 749T45 764T73 767Q107 767 132 757T174 729T201 682T210 618L211 413Q211 395 216 384T231 366T254 357T284 354H292Q300 354 308 351T321 336T327 300Q327 273 319 261T291 248H281Q265 248 252 245T230 236T215
218T210 189V-12Q210 -49 201 -77T175 -125T132 -154T72 -164Z" />
<glyph unicode="~" horiz-adv-x="554" d="M201 353Q226 353 245 346T280 330T309 310T334 293T358 286Q370 286 379 292T396 309T413 328T436 342Q444 348 456 348T482 338Q498 328 505 317T513 294Q513 275 499 254T462 215T411 185T356 173Q329 173 310 180T275
197T248 217T223 233T198 240Q186 240 177 234T158 218T140 199T117 185Q112 182 105 182T88 185T70 194Q47 212 43 227T52 264Q57 275 70 290T102 319T147 343T201 353Z" />
<glyph unicode="&#xa0;" horiz-adv-x="248" />
<glyph unicode="&#xa1;" horiz-adv-x="237" d="M119 282Q147 282 159 275T175 255T179 226V-150Q179 -165 176 -178T160 -198T119 -206Q91 -206 78 -199T62 -178T59 -150V227Q59 242 62 254T78 274T119 282ZM119 495Q150 495 164 486T181 462T185 428Q185 391
172 376T119 361Q88 361 74 370T56 394T52 428Q52 465 65 480T119 495Z" />
<glyph unicode="&#xa2;" horiz-adv-x="419" d="M231 -78Q210 -78 200 -71T188 -51T185 -24V52Q133 61 96 90T38 164T18 263Q18 317 38 361T95 434T185 472V556Q185 572 187 584T200 603T231 610Q253 610 262 603T274 583T277 555V472Q299 469 317 462T349 446T371
426Q383 416 390 406T394 381Q391 373 385 365T372 350Q351 327 330 334Q315 343 301 352T271 368T234 374Q200 374 176 359T139 319T126 262Q126 231 138 206T175 165T232 150Q252 150 268 155T300 168T329 184Q340 187 350 185T374 170Q382 164 387 156T396 139Q398
128 393 116T371 92Q358 80 343 71T311 57T277 50V-24Q277 -39 275 -51T262 -71T231 -78Z" />
<glyph unicode="&#xa3;" horiz-adv-x="652" d="M137 -10Q110 -10 95 6T80 50Q80 78 89 94T112 125T134 160T144 217Q144 224 142 244T132 283H67Q53 283 43 286T26 300T19 334Q19 358 25 368T43 382T69 385H110V436Q110 473 117 500T138 557Q158 598 193 629T277
677T383 695Q425 695 459 686T520 662T564 633T590 608Q610 585 611 564T591 523Q567 502 545 502T507 522Q497 534 482 546T443 568T384 578Q337 578 302 561T248 511T229 434V385H356Q370 385 381 382T398 369T404 333Q404 311 398 300T380 286T356 283H253Q258
265 260 246T262 215Q262 199 258 180T246 142T230 109H569Q586 109 599 106T620 90T628 48Q628 21 620 9T599 -6T568 -10H137Z" />
<glyph unicode="&#xa4;" horiz-adv-x="654" d="M61 0Q37 13 34 28T40 62Q48 82 62 100T95 134T133 158Q114 173 95 199T64 263T51 347Q51 406 72 459T136 549Q103 563 80 586T44 635Q33 659 36 674T61 704Q85 719 99 714T128 685Q133 676 138 669T150 653Q160
637 188 629T253 617T322 614H335Q373 614 408 617T468 629T503 653Q508 661 513 668T523 684Q538 707 551 710T589 702Q615 688 617 674T607 635Q595 609 572 586T509 547Q554 516 576 464T598 350Q598 313 588 277T561 209T518 157Q536 150 554 135T586 102T607
67Q619 44 616 30T589 1Q565 -14 551 -9T524 20Q518 30 513 38T502 55Q495 67 473 74T414 86T329 90H308Q272 90 245 88T200 81T169 70T150 55Q140 43 136 34T127 17Q113 -7 100 -10T61 0ZM320 187Q375 187 413 206T472 261T492 351Q492 403 473 439T416 494T325
514Q273 514 236 495T180 440T160 352Q160 300 179 264T234 207T320 187Z" />
<glyph unicode="&#xa5;" horiz-adv-x="654" d="M598 682Q626 662 629 644T615 602L392 265V50Q392 33 389 20T373 -2T331 -11Q303 -11 290 -3T274 20T270 52V265L46 601Q29 626 33 644T65 681Q96 703 114 699T149 667L331 379L513 667Q531 695 549 698T598 682ZM182
112Q169 112 157 114T138 127T130 157Q130 177 138 186T158 198T183 201H469Q483 201 494 199T513 187T521 156Q521 136 514 127T495 115T469 112H182ZM182 248Q169 248 157 250T138 262T130 292Q130 318 142 327T181 337H471Q498 337 509 328T521 292Q521 272
514 263T495 251T469 248H182Z" />
<glyph unicode="&#xa6;" horiz-adv-x="208" d="M106 292Q83 292 73 300T59 320T56 342V649Q56 666 59 679T73 700T107 708Q130 708 140 700T154 679T157 648V341Q157 331 154 320T141 300T106 292ZM106 -210Q83 -210 73 -202T59 -180T56 -150V157Q56 167 59 178T73
198T107 206Q131 206 141 198T154 179T157 156V-151Q157 -167 154 -180T141 -202T106 -210Z" />
<glyph unicode="&#xa7;" horiz-adv-x="541" d="M271 -222Q230 -222 195 -212T131 -184T83 -149T53 -114Q34 -87 35 -69T62 -28Q91 -6 109 -15T150 -47Q167 -68 187 -82T227 -104T268 -111Q307 -111 334 -102T375 -72T390 -22Q390 4 372 20T324 46T258 67T186 90Q150
103 118 123T67 177T47 260Q47 291 57 316T85 362T127 397Q92 420 70 453T47 534Q47 589 74 630T150 693T262 716Q305 716 339 707T400 682T449 646Q471 626 472 611T455 572Q435 545 416 543T373 558Q361 570 345 580T309 597T261 604Q234 604 212 597T177 574T164
533Q164 507 182 491T232 464T299 444T372 421T440 388T489 336T508 256Q508 208 487 173T431 114Q465 92 486 60T508 -19Q508 -71 488 -109T434 -173T358 -210T271 -222ZM308 167Q333 172 351 182T379 210T390 253Q390 270 381 283T353 306T309 325T251 342Q211
335 188 315T164 259Q164 243 171 231T193 209T225 193T264 180T308 167Z" />
<glyph unicode="&#xa8;" horiz-adv-x="398" d="M289 556Q258 556 245 565T229 590T226 620Q226 636 229 650T245 674T290 683Q322 683 335 674T350 650T353 619Q353 604 351 590T335 566T289 556ZM109 556Q77 556 64 565T48 590T45 620Q46 636 48 650T64 674T109
683Q141 683 154 674T169 650T172 619Q172 604 170 590T154 566T109 556Z" />
<glyph unicode="&#xa9;" horiz-adv-x="656" d="M330 102Q254 102 198 119T106 172T53 263T35 396Q35 475 52 531T106 624T197 678T327 696Q403 696 458 679T550 625T603 532T621 398Q621 320 604 264T550 172T459 119T330 102ZM338 212Q285 212 243 237T176 305T151
403Q151 453 175 494T241 559T334 584Q369 584 393 575T431 554T447 537Q456 524 455 511T441 483Q433 476 425 474T410 475T395 482Q393 483 377 492T336 501Q306 501 283 488T247 452T234 398Q234 368 247 345T283 308T335 294Q355 294 367 300T388 311T406 318Q420
321 427 321T446 306Q462 285 458 269T435 241Q425 235 411 228T378 217T338 212ZM328 175Q388 175 430 187T498 226T536 295T548 399Q548 460 536 503T497 572T429 611T328 623Q268 623 227 611T159 571T121 501T108 397Q108 336 120 294T160 225T228 187T328
175Z" />
<glyph unicode="&#xaa;" horiz-adv-x="430" d="M344 680Q366 680 375 673T388 655T391 628V358Q391 344 388 333T375 315T343 308Q319 308 308 318T296 352L306 367Q298 350 281 336T242 315T193 307Q146 307 107 332T44 400T20 496Q20 547 44 589T107 655T193
680Q220 680 241 672T278 652T304 626L295 633Q296 658 307 669T344 680ZM208 401Q233 401 251 413T281 446T292 494Q292 522 281 543T251 576T206 588Q166 588 141 561T115 492Q115 466 127 446T160 413T208 401Z" />
<glyph unicode="&#xab;" horiz-adv-x="577" d="M558 8Q543 -8 531 -13T506 -14T479 5L291 192Q281 202 277 212T272 232Q272 243 276 252T291 272L480 460Q495 475 507 479T531 478T558 457Q575 441 577 429T573 405T551 378L405 232L551 86Q566 71 573 60T578
36T558 8ZM542 8Q527 -8 515 -13T490 -14T463 5L275 192Q265 202 261 212T256 232Q256 243 260 252T275 272L464 460Q479 475 491 479T515 478T542 457Q559 441 561 429T557 405T535 378L389 232L535 86Q550 71 557 60T562 36T542 8Z" />
<glyph unicode="&#xac;" horiz-adv-x="508" d="M433 120Q409 120 398 127T384 147T381 171V263H78Q65 263 54 266T35 282T28 322Q28 351 35 363T54 379T79 383H431Q461 383 472 371T484 331V171Q484 158 481 147T467 128T433 120Z" />
<glyph unicode="&#xae;" horiz-adv-x="656" d="M327 696Q403 696 458 679T550 625T603 532T621 398Q621 320 604 264T550 172T459 119T330 102Q254 102 198 119T106 172T53 263T35 396Q35 475 52 531T106 624T197 678T327 696ZM328 175Q386 175 428 187T496 227T535
296T548 399Q548 460 536 503T497 572T429 611T328 623Q268 623 227 611T159 571T121 501T108 397Q108 336 120 294T160 225T228 187T328 175ZM427 360L476 261Q481 252 476 243T460 227T436 218Q424 216 415 221T401 239L352 332H284V257Q284 248 282 239T271
224T244 218Q227 218 219 224T208 239T205 257V551Q205 563 209 571T224 582T249 586H344Q384 586 412 571T457 526T473 457Q473 432 462 405T427 360ZM284 506V411H353Q372 411 383 424T395 458Q395 482 382 494T344 506H284Z" />
<glyph unicode="&#xb0;" horiz-adv-x="347" d="M174 390Q131 390 96 411T39 469T17 547Q17 591 38 627T95 684T173 706Q216 706 252 685T309 629T330 548Q330 505 309 469T253 412T174 390ZM173 479Q202 479 222 499T242 549Q242 579 222 598T173 617Q144 617
125 597T105 548Q105 519 125 499T173 479Z" />
<glyph unicode="&#xb1;" horiz-adv-x="489" d="M77 247Q64 247 52 249T33 263T25 298Q25 322 32 333T52 347T76 350H413Q427 350 438 347T457 333T464 297Q464 274 457 263T438 250T412 247H77ZM245 135Q219 135 207 142T192 162T188 190V412Q188 427 191 439T207
459T245 466Q271 466 283 459T298 439T301 410V191Q301 175 298 163T283 143T245 135ZM77 -9Q64 -9 52 -7T33 6T25 41Q25 66 32 76T52 90T76 93H413Q427 93 438 90T457 76T464 41Q464 17 457 7T438 -6T412 -9H77Z" />
<glyph unicode="&#xb2;" horiz-adv-x="439" d="M81 193Q64 193 51 200T31 220T24 249Q24 265 27 279T39 307T65 332Q107 361 146 385T216 431T265 479T284 535Q284 552 276 567T251 591T207 601Q179 601 162 589T138 559T130 520Q130 505 126 494T111 475T74 467Q48
467 38 476T25 499T23 523Q23 577 46 618T111 683T207 707Q262 707 303 685T367 621T391 526Q391 500 383 476T360 431T324 389T276 348T217 307L182 299H364Q376 299 386 296T404 282T411 245Q411 222 404 211T387 196T364 193H81Z" />
<glyph unicode="&#xb3;" horiz-adv-x="441" d="M210 183Q159 183 117 204T50 260T22 337Q22 350 29 360T49 375T79 380Q102 380 110 371T124 345Q128 332 139 318T168 293T212 283Q239 283 257 292T285 317T294 349Q294 378 275 393T218 409Q204 409 194 412T178
425T173 457Q173 475 178 483T194 495T216 498Q246 498 262 511T278 548Q278 572 260 588T213 604Q193 604 180 598T158 581T142 558Q138 549 130 542T105 534Q94 534 85 538T63 551Q42 569 45 590Q50 606 63 626T98 664T149 693T215 705Q264 705 302 685T364 631T387
555Q387 527 375 503T340 461Q358 449 372 431T393 393T401 351Q401 303 376 265T308 205T210 183Z" />
<glyph unicode="&#xb4;" horiz-adv-x="430" d="M138 536Q122 533 112 542T94 574Q85 602 90 616T121 639L289 692Q305 695 315 686T332 653Q342 626 336 612T305 589L138 536Z" />
<glyph unicode="&#xb5;" horiz-adv-x="580" d="M110 -210Q83 -210 71 -202T55 -180T51 -151V424Q51 441 55 454T71 475T111 483Q139 483 151 475T167 453T170 423V224Q170 189 182 163T219 123T278 109Q313 109 338 123T378 164T392 225V424Q392 441 395 454T411
475T452 483Q479 483 491 475T507 453T510 423V51Q510 36 507 23T492 2T451 -6Q433 -6 422 -3T405 7T397 20T393 36L401 64Q392 52 381 40T353 17T317 0T272 -7Q241 -7 215 2T170 30V-152Q170 -167 166 -180T150 -201T110 -210Z" />
<glyph unicode="&#xb6;" horiz-adv-x="519" d="M261 -238Q237 -238 226 -229T212 -204T209 -167V272Q137 272 98 290T43 343T27 432Q27 474 33 504T57 553T106 583T190 593H419Q442 593 452 584T466 559T469 523V-169Q469 -189 466 -204T453 -229T418 -238Q394
-238 383 -229T370 -204T367 -167V507H312V-169Q312 -189 309 -204T296 -229T261 -238Z" />
<glyph unicode="&#xb7;" horiz-adv-x="194" d="M98 220Q58 220 44 235T30 287Q30 321 43 338T98 355Q137 355 151 340T165 287Q165 253 152 237T98 220Z" />
<glyph unicode="&#xb8;" horiz-adv-x="287" d="M129 -182Q104 -182 81 -171T56 -143Q55 -131 64 -120Q74 -109 80 -105T92 -101Q100 -101 109 -107T130 -114Q142 -114 153 -106T164 -81Q164 -65 153 -56T130 -47Q116 -47 107 -54T90 -62Q82 -62 76 -56T64 -41Q60
-34 58 -29T56 -19Q57 -8 68 1T97 15T130 20Q154 20 177 8T216 -26T232 -80Q232 -109 218 -132T181 -168T129 -182Z" />
<glyph unicode="&#xb9;" horiz-adv-x="310" d="M197 191Q173 191 162 198T148 216T145 238V532Q131 522 117 514T89 498Q76 493 64 497T41 515Q23 536 25 552T46 586L157 678Q166 686 176 690T198 695Q225 695 238 683T251 646V237Q251 225 248 215T234 198T197 191Z" />
<glyph unicode="&#xba;" horiz-adv-x="424" d="M220 301Q167 301 125 325T58 392T33 488Q33 543 57 585T124 652T219 677Q272 677 313 653T379 587T403 489Q403 435 379 392T314 325T220 301ZM219 395Q258 395 282 421T307 491Q307 533 283 558T218 583Q179 583
154 557T129 490Q129 448 154 422T219 395Z" />
<glyph unicode="&#xbb;" horiz-adv-x="569" d="M285 8Q269 24 266 36T269 59T292 86L438 232L292 378Q278 393 271 404T266 428T285 457Q300 472 312 477T336 479T363 460L552 272Q562 262 566 253T571 232Q571 222 567 212T552 192L364 5Q350 -9 338 -14T314
-14T285 8ZM268 8Q252 24 249 36T252 59T275 86L421 232L275 378Q261 393 254 404T249 428T268 457Q283 472 295 477T319 479T346 460L535 272Q545 262 549 253T554 232Q554 222 550 212T535 192L347 5Q333 -9 321 -14T297 -14T268 8Z" />
<glyph unicode="&#xbc;" horiz-adv-x="759" d="M142 -27Q129 -19 124 -12T119 6T129 30L487 707Q495 722 503 729T521 736T543 728Q555 721 560 714T565 696T556 672L196 -7Q189 -20 181 -27T164 -34T142 -27ZM650 -9Q629 -9 620 -3T607 12T604 33V102H448Q428
102 418 113T407 145Q407 152 408 159T411 174L467 372Q474 400 485 406T521 408Q538 404 547 397T558 378T556 349L510 189H604V366Q604 377 607 386T620 400T651 406Q672 406 682 400T694 384T697 362V31Q697 22 694 13T682 -3T650 -9ZM189 328Q169 328 160 334T147
349T144 369V579Q135 573 126 567T107 556Q95 550 86 553T66 567Q50 584 50 599T69 631L153 705Q162 714 170 717T190 721Q213 721 224 711T235 678V368Q235 358 233 349T220 334T189 328Z" />
<glyph unicode="&#xbd;" horiz-adv-x="776" d="M146 -27Q133 -19 128 -12T123 6T132 30L490 707Q498 722 506 729T524 736T546 728Q559 721 564 714T568 696T559 672L199 -7Q193 -20 185 -27T168 -34T146 -27ZM204 328Q184 328 175 334T162 349T159 369V579Q150
573 141 567T122 556Q110 551 101 553T81 567Q65 584 65 599T84 631L168 705Q177 714 185 717T205 721Q228 721 239 711T250 678V368Q250 358 248 349T235 334T204 328ZM467 -9Q453 -9 443 -3T426 14T420 39Q420 54 424 66T437 89T462 110Q496 131 526 149T579
186T616 224T630 271Q630 283 624 293T605 310T570 317Q548 317 535 308T515 285T509 253Q509 241 506 232T493 216T461 210Q440 210 431 217T421 236T419 256Q419 300 438 334T491 388T570 407Q614 407 648 389T701 338T721 263Q721 236 711 213T680 168T634 126T573
85L559 81H698Q707 81 715 78T730 65T736 34Q736 15 731 6T717 -6T697 -9H467Z" />
<glyph unicode="&#xbe;" horiz-adv-x="795" d="M195 -27Q182 -19 176 -12T171 6T181 30L539 707Q548 722 556 728T573 735T595 728Q608 721 613 714T617 696T608 672L248 -7Q241 -20 234 -26T217 -33T195 -27ZM194 326Q157 326 126 342T76 384T55 441Q55 454 62
460T80 469T97 472Q117 472 123 464T132 447Q136 438 143 427T163 407T196 399Q221 399 239 413T258 450Q258 469 245 482T197 495Q183 495 175 501T167 530Q167 549 175 554T197 559Q221 559 234 569T247 598Q247 618 233 629T197 640Q182 640 172 637T156 627T144
610Q140 602 135 595T116 588Q100 588 85 601T72 630Q77 647 93 666T136 700T198 714Q237 714 265 699T310 658T326 604Q326 577 315 560T291 533Q312 520 324 498T337 451Q337 418 320 390T271 344T194 326ZM695 -9Q674 -9 665 -3T652 12T649 33V102H493Q473 102
463 113T452 145Q452 152 453 159T456 174L512 372Q519 400 530 407T566 408Q583 404 592 397T603 378T601 349L555 189H649V366Q649 377 652 386T665 400T696 406Q717 406 727 400T739 384T742 362V31Q742 22 739 13T727 -3T695 -9Z" />
<glyph unicode="&#xbf;" horiz-adv-x="475" d="M239 279Q265 279 276 272T291 253T294 226V160Q294 136 283 122T255 99T218 81T181 61T152 31T141 -19Q141 -66 166 -90T243 -114Q268 -114 286 -107T318 -86T337 -57Q344 -39 351 -29T372 -16T406 -22Q428 -29
438 -38T449 -58T445 -89Q442 -102 433 -119T408 -155T369 -188T315 -214T243 -224Q180 -224 132 -198T57 -127T30 -22Q30 15 40 44T68 95T106 132T148 158T188 173L181 162V230Q181 244 184 255T200 273T239 279ZM239 492Q281 492 293 476T306 424Q306 408 304
393T287 367T239 357Q197 357 184 373T171 425Q171 441 174 456T191 481T239 492Z" />
<glyph unicode="&#xc0;" horiz-adv-x="706" d="M686 75Q696 56 696 42T688 17T658 -5Q626 -20 609 -13T576 26L353 497L131 26Q116 -5 98 -11T48 -4Q28 6 19 17T10 43T23 81L298 654Q306 670 321 679T354 689Q366 689 376 685T394 673T409 653L686 75ZM175 172L223
275H484L532 172H175ZM380 738L227 789Q202 798 197 812T199 853Q208 882 220 889T258 889L411 839Q436 830 441 816T438 774Q429 745 417 739T380 738Z" />
<glyph unicode="&#xc1;" horiz-adv-x="706" d="M686 75Q696 56 696 42T688 17T658 -5Q626 -20 609 -13T576 26L353 497L131 26Q116 -5 98 -11T48 -4Q28 6 19 17T10 43T23 81L298 654Q306 670 321 679T354 689Q366 689 376 685T394 673T409 653L686 75ZM175 172L223
275H484L532 172H175ZM297 726Q281 723 271 732T253 764Q244 792 249 806T280 829L448 882Q464 885 474 876T491 843Q501 816 495 802T464 779L297 726Z" />
<glyph unicode="&#xc2;" horiz-adv-x="706" d="M686 75Q696 56 696 42T688 17T658 -5Q626 -20 609 -13T576 26L353 497L131 26Q116 -5 98 -11T48 -4Q28 6 19 17T10 43T23 81L298 654Q306 670 321 679T354 689Q366 689 376 685T394 673T409 653L686 75ZM175 172L223
275H484L532 172H175ZM353 891Q359 891 363 890T371 887L485 840Q510 831 515 814T509 774Q498 753 486 744T460 740L353 789L246 741Q232 735 220 745T196 775Q184 798 189 814T219 840L334 887Q337 889 342 890T353 891Z" />
<glyph unicode="&#xc3;" horiz-adv-x="706" d="M686 75Q696 56 696 42T688 17T658 -5Q626 -20 609 -13T576 26L353 497L131 26Q116 -5 98 -11T48 -4Q28 6 19 17T10 43T23 81L298 654Q306 670 321 679T354 689Q366 689 376 685T394 673T409 653L686 75ZM175 172L223
275H484L532 172H175ZM300 871Q325 871 341 859T369 836T394 824Q405 824 413 832T430 849T450 862Q457 867 467 867T488 859Q508 846 514 833T511 803Q505 784 488 766T449 738T402 727Q380 727 364 738T334 762T306 774Q287 774 274 765T255 746Q248 736 238
733T209 742Q189 757 185 771T193 803Q203 821 221 836T260 861T300 871Z" />
<glyph unicode="&#xc4;" horiz-adv-x="706" d="M686 75Q696 56 696 42T688 17T658 -5Q626 -20 609 -13T576 26L353 497L131 26Q116 -5 98 -11T48 -4Q28 6 19 17T10 43T23 81L298 654Q306 670 321 679T354 689Q366 689 376 685T394 673T409 653L686 75ZM175 172L223
275H484L532 172H175ZM445 756Q414 756 401 765T385 790T382 820Q382 836 385 850T401 874T446 883Q478 883 491 874T506 850T509 819Q509 804 507 790T491 766T445 756ZM265 756Q233 756 220 765T204 790T201 820Q202 836 204 850T220 874T265 883Q297 883 310
874T325 850T328 819Q328 804 326 790T310 766T265 756Z" />
<glyph unicode="&#xc5;" horiz-adv-x="706" d="M686 75Q696 56 696 42T688 17T658 -5Q626 -20 609 -13T576 26L353 497L131 26Q116 -5 98 -11T48 -4Q28 6 19 17T10 43T23 81L298 654Q306 670 321 679T354 689Q366 689 376 685T394 673T409 653L686 75ZM175 172L223
275H484L532 172H175ZM352 742Q320 742 294 758T252 800T236 858Q236 890 252 916T293 959T351 975Q384 975 410 960T452 918T468 859Q468 826 453 800T411 758T352 742ZM352 806Q374 806 389 821T404 860Q404 882 390 896T351 911Q330 911 315 896T299 859Q299
836 314 821T352 806Z" />
<glyph unicode="&#xc6;" horiz-adv-x="1108" d="M620 -9Q604 -9 590 -1T568 22T559 53V519L124 9Q109 -9 95 -14T67 -13T38 9Q22 29 18 42T19 67T39 96L536 671Q544 681 555 685T583 690H1011Q1028 690 1041 687T1063 670T1071 629Q1071 601 1064 588T1044 572T1016
568H682V402H902Q919 402 932 399T954 382T962 341Q962 313 954 301T932 285T901 281H682V112H1017Q1032 112 1044 109T1064 92T1071 51Q1071 23 1063 11T1041 -5T1010 -9H620ZM230 167L315 270H578V167H230Z" />
<glyph unicode="&#xc7;" horiz-adv-x="655" d="M392 -14Q343 -14 293 0T197 44T116 117T59 218T38 346Q38 415 59 470T115 568T196 638T292 680T393 696Q444 696 481 685T541 662T572 644Q588 634 602 622T618 591Q619 579 615 570T604 550Q592 533 580 525T556
517Q545 517 536 523T512 538Q506 542 491 550T450 566T388 573Q345 573 304 558T231 514T179 441T160 341Q160 285 179 242T230 169T304 124T388 109Q422 109 446 115T488 131T515 146Q526 153 536 159T557 165Q569 165 580 157T603 131Q610 120 614 110T617 89Q616
71 602 59T571 37Q563 32 541 20T481 -3T392 -14ZM362 -169Q337 -169 314 -158T289 -130Q288 -118 297 -107Q307 -96 313 -92T325 -88Q333 -88 342 -94T363 -101Q375 -101 386 -93T397 -68Q397 -52 386 -43T363 -34Q349 -34 340 -41T323 -49Q315 -49 309 -43T297
-28Q293 -21 291 -16T289 -6Q290 5 301 14T330 28T363 33Q387 33 410 21T449 -13T465 -67Q465 -96 451 -119T414 -155T362 -169Z" />
<glyph unicode="&#xc8;" horiz-adv-x="617" d="M124 -10Q96 -10 83 -2T67 21T64 52V629Q64 663 77 676T127 689H517Q534 689 547 686T569 670T577 628Q577 600 569 587T547 571T516 568H185V400H413Q430 400 442 397T461 382T468 345Q468 320 461 309T441 295T411
292H185V112H517Q534 112 547 109T569 92T577 51Q577 23 569 10T547 -6T516 -10H124ZM316 738L163 789Q138 798 133 812T135 853Q144 882 156 889T194 889L347 839Q372 830 377 816T374 774Q365 745 353 739T316 738Z" />
<glyph unicode="&#xc9;" horiz-adv-x="617" d="M124 -10Q96 -10 83 -2T67 21T64 52V629Q64 663 77 676T127 689H517Q534 689 547 686T569 670T577 628Q577 600 569 587T547 571T516 568H185V400H413Q430 400 442 397T461 382T468 345Q468 320 461 309T441 295T411
292H185V112H517Q534 112 547 109T569 92T577 51Q577 23 569 10T547 -6T516 -10H124ZM281 734Q265 731 255 740T237 772Q228 800 233 814T264 837L432 890Q448 893 458 884T475 851Q485 824 479 810T448 787L281 734Z" />
<glyph unicode="&#xca;" horiz-adv-x="617" d="M124 -10Q96 -10 83 -2T67 21T64 52V629Q64 663 77 676T127 689H517Q534 689 547 686T569 670T577 628Q577 600 569 587T547 571T516 568H185V400H413Q430 400 442 397T461 382T468 345Q468 320 461 309T441 295T411
292H185V112H517Q534 112 547 109T569 92T577 51Q577 23 569 10T547 -6T516 -10H124ZM314 891Q320 891 324 890T332 887L446 840Q471 831 476 814T470 774Q459 753 447 744T421 740L314 789L207 741Q193 735 181 745T157 775Q145 798 150 814T180 840L295 887Q298
889 303 890T314 891Z" />
<glyph unicode="&#xcb;" horiz-adv-x="617" d="M124 -10Q96 -10 83 -2T67 21T64 52V629Q64 663 77 676T127 689H517Q534 689 547 686T569 670T577 628Q577 600 569 587T547 571T516 568H185V400H413Q430 400 442 397T461 382T468 345Q468 320 461 309T441 295T411
292H185V112H517Q534 112 547 109T569 92T577 51Q577 23 569 10T547 -6T516 -10H124ZM406 756Q375 756 362 765T346 790T343 820Q343 836 346 850T362 874T407 883Q439 883 452 874T467 850T470 819Q470 804 468 790T452 766T406 756ZM226 756Q194 756 181 765T165
790T162 820Q163 836 165 850T181 874T226 883Q258 883 271 874T286 850T289 819Q289 804 287 790T271 766T226 756Z" />
<glyph unicode="&#xcc;" horiz-adv-x="224" d="M112 -10Q84 -10 71 -2T55 21T52 52V629Q52 645 55 659T71 681T113 689Q141 689 153 681T169 659T173 628V51Q173 34 170 21T153 -1T112 -10ZM113 738L-40 789Q-65 798 -70 812T-68 853Q-59 882 -47 889T-9 889L144
839Q169 830 174 816T171 774Q162 745 150 739T113 738Z" />
<glyph unicode="&#xcd;" horiz-adv-x="224" d="M112 -10Q84 -10 71 -2T55 21T52 52V629Q52 645 55 659T71 681T113 689Q141 689 153 681T169 659T173 628V51Q173 34 170 21T153 -1T112 -10ZM56 726Q40 723 30 732T12 764Q3 792 8 806T39 829L207 882Q223 885 233
876T250 843Q260 816 254 802T223 779L56 726Z" />
<glyph unicode="&#xce;" horiz-adv-x="224" d="M112 -10Q84 -10 71 -2T55 21T52 52V629Q52 645 55 659T71 681T113 689Q141 689 153 681T169 659T173 628V51Q173 34 170 21T153 -1T112 -10ZM111 891Q117 891 121 890T129 887L243 840Q268 831 273 814T267 774Q256
753 244 744T218 740L111 789L4 741Q-10 735 -22 745T-46 775Q-58 798 -53 814T-23 840L92 887Q95 889 100 890T111 891Z" />
<glyph unicode="&#xcf;" horiz-adv-x="224" d="M112 -10Q84 -10 71 -2T55 21T52 52V629Q52 645 55 659T71 681T113 689Q141 689 153 681T169 659T173 628V51Q173 34 170 21T153 -1T112 -10ZM203 756Q172 756 159 765T143 790T140 820Q140 836 143 850T159 874T204
883Q236 883 249 874T264 850T267 819Q267 804 265 790T249 766T203 756ZM23 756Q-9 756 -22 765T-38 790T-41 820Q-40 836 -38 850T-22 874T23 883Q55 883 68 874T83 850T86 819Q86 804 84 790T68 766T23 756Z" />
<glyph unicode="&#xd0;" horiz-adv-x="743" d="M169 -9Q143 -9 130 -1T113 22T109 52V630Q109 646 112 659T129 681T170 690L358 689Q431 689 492 664T599 593T668 484T693 344Q693 266 668 201T598 89T492 17T355 -9H169ZM230 112H358Q422 112 470 140T544 220T571
339Q571 408 545 459T470 539T357 568H230V112ZM76 290Q63 290 51 293T31 308T23 347Q23 373 30 384T50 399T75 403H324Q337 403 349 400T368 385T376 346Q376 320 369 308T349 293T323 290H76Z" />
<glyph unicode="&#xd1;" horiz-adv-x="695" d="M112 -9Q85 -9 73 -1T57 22T53 52V632Q53 647 57 660T74 681T115 689Q145 689 156 683T178 664L512 197V632Q512 647 516 660T533 681T573 689Q601 689 613 681T629 658T633 627V51Q633 35 629 22T611 0T569 -9Q547
-9 535 -5T512 12L173 478V51Q173 35 170 22T153 0T112 -9ZM296 871Q321 871 337 859T365 836T390 824Q401 824 409 832T426 849T446 862Q453 867 463 867T484 859Q504 846 510 833T507 803Q501 784 484 766T445 738T398 727Q376 727 360 738T330 762T302 774Q283
774 270 765T251 746Q244 736 234 733T205 742Q185 757 181 771T189 803Q199 821 217 836T256 861T296 871Z" />
<glyph unicode="&#xd2;" horiz-adv-x="728" d="M369 -18Q297 -18 235 9T124 85T49 197T22 334Q22 409 48 474T121 589T229 667T360 695Q433 695 495 668T605 591T679 478T706 338Q706 265 680 201T607 87T500 10T369 -18ZM364 104Q410 104 450 122T520 172T568
246T585 338Q585 387 568 429T520 504T450 555T364 573Q319 573 279 555T209 505T161 429T144 338Q144 290 161 247T209 172T278 122T364 104ZM367 738L214 789Q189 798 184 812T186 853Q195 882 207 889T245 889L398 839Q423 830 428 816T425 774Q416 745 404
739T367 738Z" />
<glyph unicode="&#xd3;" horiz-adv-x="728" d="M369 -18Q297 -18 235 9T124 85T49 197T22 334Q22 409 48 474T121 589T229 667T360 695Q433 695 495 668T605 591T679 478T706 338Q706 265 680 201T607 87T500 10T369 -18ZM364 104Q410 104 450 122T520 172T568
246T585 338Q585 387 568 429T520 504T450 555T364 573Q319 573 279 555T209 505T161 429T144 338Q144 290 161 247T209 172T278 122T364 104ZM310 726Q294 723 284 732T266 764Q257 792 262 806T293 829L461 882Q477 885 487 876T504 843Q514 816 508 802T477
779L310 726Z" />
<glyph unicode="&#xd4;" horiz-adv-x="728" d="M369 -18Q297 -18 235 9T124 85T49 197T22 334Q22 409 48 474T121 589T229 667T360 695Q433 695 495 668T605 591T679 478T706 338Q706 265 680 201T607 87T500 10T369 -18ZM364 104Q410 104 450 122T520 172T568
246T585 338Q585 387 568 429T520 504T450 555T364 573Q319 573 279 555T209 505T161 429T144 338Q144 290 161 247T209 172T278 122T364 104ZM366 891Q372 891 376 890T384 887L498 840Q523 831 528 814T522 774Q511 753 499 744T473 740L366 789L259 741Q245
735 233 745T209 775Q197 798 202 814T232 840L347 887Q350 889 355 890T366 891Z" />
<glyph unicode="&#xd5;" horiz-adv-x="728" d="M369 -18Q297 -18 235 9T124 85T49 197T22 334Q22 409 48 474T121 589T229 667T360 695Q433 695 495 668T605 591T679 478T706 338Q706 265 680 201T607 87T500 10T369 -18ZM364 104Q410 104 450 122T520 172T568
246T585 338Q585 387 568 429T520 504T450 555T364 573Q319 573 279 555T209 505T161 429T144 338Q144 290 161 247T209 172T278 122T364 104ZM313 871Q338 871 354 859T382 836T407 824Q418 824 426 832T443 849T463 862Q470 867 480 867T501 859Q521 846 527
833T524 803Q518 784 501 766T462 738T415 727Q393 727 377 738T347 762T319 774Q300 774 287 765T268 746Q261 736 251 733T222 742Q202 757 198 771T206 803Q216 821 234 836T273 861T313 871Z" />
<glyph unicode="&#xd6;" horiz-adv-x="728" d="M369 -18Q297 -18 235 9T124 85T49 197T22 334Q22 409 48 474T121 589T229 667T360 695Q433 695 495 668T605 591T679 478T706 338Q706 265 680 201T607 87T500 10T369 -18ZM364 104Q410 104 450 122T520 172T568
246T585 338Q585 387 568 429T520 504T450 555T364 573Q319 573 279 555T209 505T161 429T144 338Q144 290 161 247T209 172T278 122T364 104ZM458 756Q427 756 414 765T398 790T395 820Q395 836 398 850T414 874T459 883Q491 883 504 874T519 850T522 819Q522
804 520 790T504 766T458 756ZM278 756Q246 756 233 765T217 790T214 820Q215 836 217 850T233 874T278 883Q310 883 323 874T338 850T341 819Q341 804 339 790T323 766T278 756Z" />
<glyph unicode="&#xd7;" horiz-adv-x="464" d="M312 251L411 152Q426 138 431 125T432 100T412 72Q397 57 385 52T360 52T332 71L232 172L133 72Q118 57 106 52T81 52T53 72Q38 87 33 99T33 124T53 151L152 251L51 352Q37 366 33 378T33 403T53 431Q68 445 80
450T106 450T133 430L232 331L332 431Q347 446 359 450T384 450T412 430Q427 415 432 403T432 378T412 351L312 251Z" />
<glyph unicode="&#xd8;" horiz-adv-x="739" d="M374 -18Q302 -18 240 9T129 85T54 197T27 334Q27 409 53 474T126 589T234 667T365 695Q438 695 500 668T610 591T684 478T711 338Q711 265 685 201T612 87T505 10T374 -18ZM369 104Q415 104 455 122T525 172T573
246T590 338Q590 387 573 429T525 504T455 555T369 573Q324 573 284 555T214 505T166 429T149 338Q149 289 166 247T214 172T284 122T369 104ZM189 -36Q159 -21 154 -6T161 37L470 687Q484 716 500 721T547 711Q578 696 583 681T574 636L265 -11Q252 -40 236 -45T189
-36Z" />
<glyph unicode="&#xd9;" horiz-adv-x="701" d="M349 -15Q279 -15 225 10T133 81T77 185T58 310V629Q58 646 61 659T77 681T119 690Q148 690 160 682T176 660T180 628V310Q180 255 198 209T255 134T352 106Q405 106 443 131T501 202T522 311V634Q522 650 525 662T542
682T583 690Q612 690 624 682T640 659T643 628V308Q643 242 624 184T567 81T475 11T349 -15ZM352 738L199 789Q174 798 169 812T171 853Q180 882 192 889T230 889L383 839Q408 830 413 816T410 774Q401 745 389 739T352 738Z" />
<glyph unicode="&#xda;" horiz-adv-x="701" d="M349 -15Q279 -15 225 10T133 81T77 185T58 310V629Q58 646 61 659T77 681T119 690Q148 690 160 682T176 660T180 628V310Q180 255 198 209T255 134T352 106Q405 106 443 131T501 202T522 311V634Q522 650 525 662T542
682T583 690Q612 690 624 682T640 659T643 628V308Q643 242 624 184T567 81T475 11T349 -15ZM295 726Q279 723 269 732T251 764Q242 792 247 806T278 829L446 882Q462 885 472 876T489 843Q499 816 493 802T462 779L295 726Z" />
<glyph unicode="&#xdb;" horiz-adv-x="701" d="M349 -15Q279 -15 225 10T133 81T77 185T58 310V629Q58 646 61 659T77 681T119 690Q148 690 160 682T176 660T180 628V310Q180 255 198 209T255 134T352 106Q405 106 443 131T501 202T522 311V634Q522 650 525 662T542
682T583 690Q612 690 624 682T640 659T643 628V308Q643 242 624 184T567 81T475 11T349 -15ZM351 891Q357 891 361 890T369 887L483 840Q508 831 513 814T507 774Q496 753 484 744T458 740L351 789L244 741Q230 735 218 745T194 775Q182 798 187 814T217 840L332
887Q335 889 340 890T351 891Z" />
<glyph unicode="&#xdc;" horiz-adv-x="701" d="M349 -15Q279 -15 225 10T133 81T77 185T58 310V629Q58 646 61 659T77 681T119 690Q148 690 160 682T176 660T180 628V310Q180 255 198 209T255 134T352 106Q405 106 443 131T501 202T522 311V634Q522 650 525 662T542
682T583 690Q612 690 624 682T640 659T643 628V308Q643 242 624 184T567 81T475 11T349 -15ZM443 756Q412 756 399 765T383 790T380 820Q380 836 383 850T399 874T444 883Q476 883 489 874T504 850T507 819Q507 804 505 790T489 766T443 756ZM263 756Q231 756 218
765T202 790T199 820Q200 836 202 850T218 874T263 883Q295 883 308 874T323 850T326 819Q326 804 324 790T308 766T263 756Z" />
<glyph unicode="&#xdd;" horiz-adv-x="638" d="M586 682Q615 662 618 644T604 602L381 265V50Q381 33 378 20T361 -2T320 -11Q291 -11 279 -3T263 20T259 52V265L35 601Q17 626 21 644T54 681Q74 695 88 698T115 693T138 667L318 382L501 667Q513 685 524 692T551
698T586 682ZM265 726Q249 723 239 732T221 764Q212 792 217 806T248 829L416 882Q432 885 442 876T459 843Q469 816 463 802T432 779L265 726Z" />
<glyph unicode="&#xde;" horiz-adv-x="597" d="M118 -9Q90 -9 77 -1T61 21T58 52V629Q58 645 61 659T77 681T119 689Q147 689 159 681T175 659T179 628V578H331Q372 578 413 562T488 515T544 440T565 341Q565 286 544 243T489 169T413 122T330 106H179V51Q179
35 176 21T160 -1T118 -9ZM179 227H331Q359 227 385 241T428 280T445 342Q445 374 430 400T388 441T330 456H179V227Z" />
<glyph unicode="&#xdf;" horiz-adv-x="586" d="M110 -30Q83 -30 71 -22T55 -1T52 30V475Q52 549 77 597T152 670T280 694Q341 694 381 676T442 627T463 560Q463 518 451 491T424 446T396 412T384 380Q384 359 401 346T443 319T492 287T534 238T551 160Q551 121
539 90T504 38T449 6T376 -6Q349 -6 323 0T273 16Q252 22 241 33T232 69Q234 85 240 99T256 122T280 128Q293 126 306 119T335 107T366 101Q386 101 402 108T428 130T438 172Q438 195 421 210T380 240T331 270T289 310T272 367Q272 405 283 428T309 467T335 500T346
544Q346 557 339 567T318 583T281 589Q248 589 227 581T193 559T175 526T170 483V28Q170 12 167 -1T151 -22T110 -30Z" />
<glyph unicode="&#xe0;" horiz-adv-x="569" d="M462 -8Q433 -8 419 3T405 33L412 66Q404 53 385 36T335 5T260 -9Q213 -9 172 10T99 64T49 143T30 239Q30 288 48 331T99 409T172 462T260 482Q301 482 329 471T378 444T411 409L405 438Q405 460 419 471T463 483Q491
483 503 475T518 452T521 419V53Q521 36 518 22T503 0T462 -8ZM278 108Q312 108 339 125T382 171T399 237Q399 276 382 305T338 350T276 367Q239 367 210 350T165 303T148 236Q148 200 165 171T211 125T278 108ZM310 538L157 589Q132 598 127 612T129 653Q138 682
150 689T188 689L341 639Q366 630 371 616T368 574Q359 545 347 539T310 538Z" />
<glyph unicode="&#xe1;" horiz-adv-x="569" d="M462 -8Q433 -8 419 3T405 33L412 66Q404 53 385 36T335 5T260 -9Q213 -9 172 10T99 64T49 143T30 239Q30 288 48 331T99 409T172 462T260 482Q301 482 329 471T378 444T411 409L405 438Q405 460 419 471T463 483Q491
483 503 475T518 452T521 419V53Q521 36 518 22T503 0T462 -8ZM278 108Q312 108 339 125T382 171T399 237Q399 276 382 305T338 350T276 367Q239 367 210 350T165 303T148 236Q148 200 165 171T211 125T278 108ZM249 790Q233 787 223 796T205 828Q196 856 201 870T232
893L400 946Q416 949 426 940T443 907Q453 880 447 866T416 843L249 790Z" />
<glyph unicode="&#xe2;" horiz-adv-x="569" d="M462 -8Q433 -8 419 3T405 33L412 66Q404 53 385 36T335 5T260 -9Q213 -9 172 10T99 64T49 143T30 239Q30 288 48 331T99 409T172 462T260 482Q301 482 329 471T378 444T411 409L405 438Q405 460 419 471T463 483Q491
483 503 475T518 452T521 419V53Q521 36 518 22T503 0T462 -8ZM278 108Q312 108 339 125T382 171T399 237Q399 276 382 305T338 350T276 367Q239 367 210 350T165 303T148 236Q148 200 165 171T211 125T278 108ZM281 691Q287 691 291 690T299 687L413 640Q438 631
443 614T437 574Q426 553 414 544T388 540L281 589L174 541Q160 535 148 545T124 575Q112 598 117 614T147 640L262 687Q265 689 270 690T281 691Z" />
<glyph unicode="&#xe3;" horiz-adv-x="569" d="M462 -8Q433 -8 419 3T405 33L412 66Q404 53 385 36T335 5T260 -9Q213 -9 172 10T99 64T49 143T30 239Q30 288 48 331T99 409T172 462T260 482Q301 482 329 471T378 444T411 409L405 438Q405 460 419 471T463 483Q491
483 503 475T518 452T521 419V53Q521 36 518 22T503 0T462 -8ZM278 108Q312 108 339 125T382 171T399 237Q399 276 382 305T338 350T276 367Q239 367 210 350T165 303T148 236Q148 200 165 171T211 125T278 108ZM224 691Q249 691 265 679T293 656T318 644Q329 644
337 652T354 669T374 682Q381 687 391 687T412 679Q432 666 438 653T435 623Q429 604 412 586T373 558T326 547Q304 547 288 558T258 582T230 594Q211 594 198 585T179 566Q172 556 162 553T133 562Q113 577 109 591T117 623Q127 641 145 656T184 681T224 691Z"
/>
<glyph unicode="&#xe4;" horiz-adv-x="569" d="M462 -8Q433 -8 419 3T405 33L412 66Q404 53 385 36T335 5T260 -9Q213 -9 172 10T99 64T49 143T30 239Q30 288 48 331T99 409T172 462T260 482Q301 482 329 471T378 444T411 409L405 438Q405 460 419 471T463 483Q491
483 503 475T518 452T521 419V53Q521 36 518 22T503 0T462 -8ZM278 108Q312 108 339 125T382 171T399 237Q399 276 382 305T338 350T276 367Q239 367 210 350T165 303T148 236Q148 200 165 171T211 125T278 108ZM374 556Q343 556 330 565T314 590T311 620Q311 636
314 650T330 674T375 683Q407 683 420 674T435 650T438 619Q438 604 436 590T420 566T374 556ZM194 556Q162 556 149 565T133 590T130 620Q131 636 133 650T149 674T194 683Q226 683 239 674T254 650T257 619Q257 604 255 590T239 566T194 556Z" />
<glyph unicode="&#xe5;" horiz-adv-x="569" d="M462 -8Q433 -8 419 3T405 33L412 66Q404 53 385 36T335 5T260 -9Q213 -9 172 10T99 64T49 143T30 239Q30 288 48 331T99 409T172 462T260 482Q301 482 329 471T378 444T411 409L405 438Q405 460 419 471T463 483Q491
483 503 475T518 452T521 419V53Q521 36 518 22T503 0T462 -8ZM278 108Q312 108 339 125T382 171T399 237Q399 276 382 305T338 350T276 367Q239 367 210 350T165 303T148 236Q148 200 165 171T211 125T278 108ZM280 778Q248 778 222 794T180 836T164 894Q164 926
180 952T221 995T279 1011Q312 1011 338 996T380 954T396 895Q396 862 381 836T339 794T280 778ZM280 842Q302 842 317 857T332 896Q332 918 318 932T279 947Q258 947 243 932T227 895Q227 872 242 857T280 842Z" />
<glyph unicode="&#xe6;" horiz-adv-x="872" d="M258 485Q291 485 323 476T382 447T431 397Q453 424 483 443T551 473T629 484Q681 484 721 468T790 424T832 365T847 301Q847 248 822 223T759 197H498Q499 173 511 154T542 120T586 99T634 91Q666 91 687 95T723
105T749 116T772 124Q783 125 794 119T812 99Q817 90 820 81T823 63Q823 43 796 25T724 -3T631 -14Q585 -14 547 -3T477 31T423 83Q406 58 379 36T309 -1T198 -15Q117 -15 71 21T25 125Q25 165 47 194T113 241T215 258Q233 258 251 257T286 252T318 245T347 236T372
225Q371 273 360 306T326 357T261 375Q247 375 232 373T203 366T177 354T156 338Q131 311 109 311T66 333Q43 360 44 379T73 422Q94 440 121 454T183 477T258 485ZM498 272H700Q715 272 724 276T733 299Q733 321 720 339T683 368T628 379Q595 379 566 365T518 326T498
272ZM226 73Q250 73 273 79T317 95T353 121T375 154Q361 161 339 167T292 178T239 182Q200 182 177 176T143 158T133 130Q133 103 155 88T226 73Z" />
<glyph unicode="&#xe7;" horiz-adv-x="506" d="M290 -12Q242 -12 197 4T115 53T57 131T35 237Q35 296 56 342T114 420T195 469T288 486Q323 486 354 476T409 452T442 424Q455 412 464 401T470 374Q467 364 461 356T446 338Q422 311 399 318Q386 325 373 333T347
348T319 361T288 366Q250 366 221 350T175 304T158 237Q158 199 174 170T220 124T286 107Q304 107 320 111T350 123T371 139Q382 146 391 152T410 158Q422 158 433 150T459 123Q472 108 473 94T468 67T443 43Q431 31 408 19T354 -3T290 -12ZM274 -182Q249 -182
226 -171T201 -143Q200 -131 209 -120Q219 -109 225 -105T237 -101Q245 -101 254 -107T275 -114Q287 -114 298 -106T309 -81Q309 -65 298 -56T275 -47Q261 -47 252 -54T235 -62Q227 -62 221 -56T209 -41Q205 -34 203 -29T201 -19Q202 -8 213 1T242 15T275 20Q299
20 322 8T361 -26T377 -80Q377 -109 363 -132T326 -168T274 -182Z" />
<glyph unicode="&#xe8;" horiz-adv-x="539" d="M290 -16Q225 -16 177 5T96 62T47 144T30 239Q30 311 63 367T154 455T289 487Q343 487 384 470T452 426T494 365T509 301Q509 248 484 224T420 200H156Q157 166 177 141T229 103T294 89Q319 89 338 92T372 99T396
109T416 118T433 123Q444 124 455 118T473 97Q479 87 481 79T484 62Q484 42 460 25T393 -4T290 -16ZM156 271H361Q378 271 387 276T396 300Q396 323 382 341T344 370T288 381Q251 381 221 367T174 327T156 271ZM298 538L145 589Q120 598 115 612T117 653Q126 682
138 689T176 689L329 639Q354 630 359 616T356 574Q347 545 335 539T298 538Z" />
<glyph unicode="&#xe9;" horiz-adv-x="539" d="M290 -16Q225 -16 177 5T96 62T47 144T30 239Q30 311 63 367T154 455T289 487Q343 487 384 470T452 426T494 365T509 301Q509 248 484 224T420 200H156Q157 166 177 141T229 103T294 89Q319 89 338 92T372 99T396
109T416 118T433 123Q444 124 455 118T473 97Q479 87 481 79T484 62Q484 42 460 25T393 -4T290 -16ZM156 271H361Q378 271 387 276T396 300Q396 323 382 341T344 370T288 381Q251 381 221 367T174 327T156 271ZM237 790Q221 787 211 796T193 828Q184 856 189 870T220
893L388 946Q404 949 414 940T431 907Q441 880 435 866T404 843L237 790Z" />
<glyph unicode="&#xea;" horiz-adv-x="539" d="M290 -16Q225 -16 177 5T96 62T47 144T30 239Q30 311 63 367T154 455T289 487Q343 487 384 470T452 426T494 365T509 301Q509 248 484 224T420 200H156Q157 166 177 141T229 103T294 89Q319 89 338 92T372 99T396
109T416 118T433 123Q444 124 455 118T473 97Q479 87 481 79T484 62Q484 42 460 25T393 -4T290 -16ZM156 271H361Q378 271 387 276T396 300Q396 323 382 341T344 370T288 381Q251 381 221 367T174 327T156 271ZM269 691Q275 691 279 690T287 687L401 640Q426 631
431 614T425 574Q414 553 402 544T376 540L269 589L162 541Q148 535 136 545T112 575Q100 598 105 614T135 640L250 687Q253 689 258 690T269 691Z" />
<glyph unicode="&#xeb;" horiz-adv-x="539" d="M290 -16Q225 -16 177 5T96 62T47 144T30 239Q30 311 63 367T154 455T289 487Q343 487 384 470T452 426T494 365T509 301Q509 248 484 224T420 200H156Q157 166 177 141T229 103T294 89Q319 89 338 92T372 99T396
109T416 118T433 123Q444 124 455 118T473 97Q479 87 481 79T484 62Q484 42 460 25T393 -4T290 -16ZM156 271H361Q378 271 387 276T396 300Q396 323 382 341T344 370T288 381Q251 381 221 367T174 327T156 271ZM363 556Q332 556 319 565T303 590T300 620Q300 636
303 650T319 674T364 683Q396 683 409 674T424 650T427 619Q427 604 425 590T409 566T363 556ZM183 556Q151 556 138 565T122 590T119 620Q120 636 122 650T138 674T183 683Q215 683 228 674T243 650T246 619Q246 604 244 590T228 566T183 556Z" />
<glyph unicode="&#xec;" horiz-adv-x="212" d="M106 -10Q78 -10 66 -2T50 20T47 51V423Q47 439 50 452T66 474T107 482Q135 482 147 474T162 452T166 421V50Q166 33 163 20T147 -2T106 -10ZM391 538L238 589Q213 598 208 612T210 653Q219 682 231 689T269 689L422
639Q447 630 452 616T449 574Q440 545 428 539T391 538Z" />
<glyph unicode="&#xed;" horiz-adv-x="212" d="M106 -10Q78 -10 66 -2T50 20T47 51V423Q47 439 50 452T66 474T107 482Q135 482 147 474T162 452T166 421V50Q166 33 163 20T147 -2T106 -10ZM330 790Q314 787 304 796T286 828Q277 856 282 870T313 893L481 946Q497
949 507 940T524 907Q534 880 528 866T497 843L330 790Z" />
<glyph unicode="&#xee;" horiz-adv-x="212" d="M106 -10Q78 -10 66 -2T50 20T47 51V423Q47 439 50 452T66 474T107 482Q135 482 147 474T162 452T166 421V50Q166 33 163 20T147 -2T106 -10ZM362 691Q368 691 372 690T380 687L494 640Q519 631 524 614T518 574Q507
553 495 544T469 540L362 589L255 541Q241 535 229 545T205 575Q193 598 198 614T228 640L343 687Q346 689 351 690T362 691Z" />
<glyph unicode="&#xef;" horiz-adv-x="212" d="M106 -10Q78 -10 66 -2T50 20T47 51V423Q47 439 50 452T66 474T107 482Q135 482 147 474T162 452T166 421V50Q166 33 163 20T147 -2T106 -10ZM456 556Q425 556 412 565T396 590T393 620Q393 636 396 650T412 674T457
683Q489 683 502 674T517 650T520 619Q520 604 518 590T502 566T456 556ZM276 556Q244 556 231 565T215 590T212 620Q213 636 215 650T231 674T276 683Q308 683 321 674T336 650T339 619Q339 604 337 590T321 566T276 556Z" />
<glyph unicode="&#xf0;" horiz-adv-x="575" d="M355 735Q369 726 373 718T376 701T366 680L344 652Q393 620 429 577T488 481T521 364T529 228Q528 178 508 134T455 57T377 5T282 -14Q235 -14 191 4T113 55T58 135T38 236Q38 290 58 335T111 413T187 464T275 482Q317
482 350 470T405 437Q387 485 358 519T286 575L254 531Q245 519 237 515T221 512T201 521Q186 531 181 539T177 556T188 576L212 607Q194 615 183 621T164 638Q157 644 157 654T164 679Q172 696 183 702T210 708Q221 707 232 704T253 697T273 689L300 725Q309 737
316 742T333 746T355 735ZM286 102Q319 102 347 118T394 164T413 236Q413 275 397 305T352 353T286 371Q249 371 219 353T172 305T155 235Q155 193 173 164T222 118T286 102Z" />
<glyph unicode="&#xf1;" horiz-adv-x="560" d="M111 -9Q84 -9 72 -1T56 21T53 52V426Q53 442 56 455T72 475T112 483Q136 483 148 477T164 462T168 444T170 430L166 398Q172 414 186 429T220 456T263 476T312 484Q359 484 396 467T459 419T500 346T514 250V51Q514
34 511 21T495 -1T454 -9Q426 -9 413 -1T397 21T394 52V251Q394 287 382 313T346 353T286 367Q251 367 225 353T185 312T171 251V51Q171 34 168 21T153 -1T111 -9ZM228 691Q253 691 269 679T297 656T322 644Q333 644 341 652T358 669T378 682Q385 687 395 687T416
679Q436 666 442 653T439 623Q433 604 416 586T377 558T330 547Q308 547 292 558T262 582T234 594Q215 594 202 585T183 566Q176 556 166 553T137 562Q117 577 113 591T121 623Q131 641 149 656T188 681T228 691Z" />
<glyph unicode="&#xf2;" horiz-adv-x="559" d="M282 -16Q234 -16 189 2T107 55T49 135T27 236Q27 289 47 335T102 416T182 470T280 490Q350 490 407 457T498 366T532 237Q532 180 511 134T454 54T374 2T282 -16ZM280 102Q313 102 343 118T393 166T413 239Q413
278 396 308T348 355T279 372Q242 372 212 355T165 307T147 238Q147 196 166 166T215 119T280 102ZM309 538L156 589Q131 598 126 612T128 653Q137 682 149 689T187 689L340 639Q365 630 370 616T367 574Q358 545 346 539T309 538Z" />
<glyph unicode="&#xf3;" horiz-adv-x="559" d="M282 -16Q234 -16 189 2T107 55T49 135T27 236Q27 289 47 335T102 416T182 470T280 490Q350 490 407 457T498 366T532 237Q532 180 511 134T454 54T374 2T282 -16ZM280 102Q313 102 343 118T393 166T413 239Q413
278 396 308T348 355T279 372Q242 372 212 355T165 307T147 238Q147 196 166 166T215 119T280 102ZM248 790Q232 787 222 796T204 828Q195 856 200 870T231 893L399 946Q415 949 425 940T442 907Q452 880 446 866T415 843L248 790Z" />
<glyph unicode="&#xf4;" horiz-adv-x="559" d="M282 -16Q234 -16 189 2T107 55T49 135T27 236Q27 289 47 335T102 416T182 470T280 490Q350 490 407 457T498 366T532 237Q532 180 511 134T454 54T374 2T282 -16ZM280 102Q313 102 343 118T393 166T413 239Q413
278 396 308T348 355T279 372Q242 372 212 355T165 307T147 238Q147 196 166 166T215 119T280 102ZM280 691Q286 691 290 690T298 687L412 640Q437 631 442 614T436 574Q425 553 413 544T387 540L280 589L173 541Q159 535 147 545T123 575Q111 598 116 614T146
640L261 687Q264 689 269 690T280 691Z" />
<glyph unicode="&#xf5;" horiz-adv-x="559" d="M282 -16Q234 -16 189 2T107 55T49 135T27 236Q27 289 47 335T102 416T182 470T280 490Q350 490 407 457T498 366T532 237Q532 180 511 134T454 54T374 2T282 -16ZM280 102Q313 102 343 118T393 166T413 239Q413
278 396 308T348 355T279 372Q242 372 212 355T165 307T147 238Q147 196 166 166T215 119T280 102ZM223 691Q248 691 264 679T292 656T317 644Q328 644 336 652T353 669T373 682Q380 687 390 687T411 679Q431 666 437 653T434 623Q428 604 411 586T372 558T325
547Q303 547 287 558T257 582T229 594Q210 594 197 585T178 566Q171 556 161 553T132 562Q112 577 108 591T116 623Q126 641 144 656T183 681T223 691Z" />
<glyph unicode="&#xf6;" horiz-adv-x="559" d="M282 -16Q234 -16 189 2T107 55T49 135T27 236Q27 289 47 335T102 416T182 470T280 490Q350 490 407 457T498 366T532 237Q532 180 511 134T454 54T374 2T282 -16ZM280 102Q313 102 343 118T393 166T413 239Q413
278 396 308T348 355T279 372Q242 372 212 355T165 307T147 238Q147 196 166 166T215 119T280 102ZM373 556Q342 556 329 565T313 590T310 620Q310 636 313 650T329 674T374 683Q406 683 419 674T434 650T437 619Q437 604 435 590T419 566T373 556ZM193 556Q161
556 148 565T132 590T129 620Q130 636 132 650T148 674T193 683Q225 683 238 674T253 650T256 619Q256 604 254 590T238 566T193 556Z" />
<glyph unicode="&#xf7;" horiz-adv-x="465" d="M82 208Q69 208 57 211T38 225T30 261Q30 286 37 297T57 311T83 314H383Q397 314 409 311T428 297T436 260Q436 236 429 225T409 211T382 208H82ZM231 23Q196 23 183 36T169 84Q169 120 182 133T231 147Q266 147
279 134T293 85Q293 50 279 37T231 23ZM231 374Q196 374 183 387T169 434Q169 470 182 484T231 498Q266 498 279 484T293 435Q293 401 279 388T231 374Z" />
<glyph unicode="&#xf8;" horiz-adv-x="559" d="M433 414L329 464L382 569Q396 597 411 601T458 592Q479 582 487 572T494 549T484 516L433 414ZM106 -115Q79 -101 72 -85T79 -41L131 64L232 9L183 -90Q169 -119 153 -124T106 -115ZM282 -16Q234 -16 189 2T107
55T49 135T27 236Q27 289 47 335T102 416T182 470T280 490Q350 490 407 457T498 366T532 237Q532 180 511 134T454 54T374 2T282 -16ZM280 102Q313 102 343 118T393 166T413 239Q413 278 396 308T348 355T279 372Q242 372 212 355T165 307T147 238Q147 196 166
166T215 119T280 102Z" />
<glyph unicode="&#xf9;" horiz-adv-x="551" d="M256 -9Q210 -9 172 7T104 55T59 129T43 224V423Q43 440 46 453T62 475T102 483Q131 483 143 475T159 453T162 422V224Q162 188 174 162T211 122T270 107Q306 107 331 121T371 162T385 224V424Q385 441 388 454T404
475T445 483Q473 483 485 475T500 453T504 423V48Q504 33 501 20T485 -1T444 -9Q424 -9 413 -5T396 7T389 23T387 39L395 66Q389 57 377 45T348 20T307 -1T256 -9ZM304 538L151 589Q126 598 121 612T123 653Q132 682 144 689T182 689L335 639Q360 630 365 616T362
574Q353 545 341 539T304 538Z" />
<glyph unicode="&#xfa;" horiz-adv-x="551" d="M256 -9Q210 -9 172 7T104 55T59 129T43 224V423Q43 440 46 453T62 475T102 483Q131 483 143 475T159 453T162 422V224Q162 188 174 162T211 122T270 107Q306 107 331 121T371 162T385 224V424Q385 441 388 454T404
475T445 483Q473 483 485 475T500 453T504 423V48Q504 33 501 20T485 -1T444 -9Q424 -9 413 -5T396 7T389 23T387 39L395 66Q389 57 377 45T348 20T307 -1T256 -9ZM243 790Q227 787 217 796T199 828Q190 856 195 870T226 893L394 946Q410 949 420 940T437 907Q447
880 441 866T410 843L243 790Z" />
<glyph unicode="&#xfb;" horiz-adv-x="551" d="M256 -9Q210 -9 172 7T104 55T59 129T43 224V423Q43 440 46 453T62 475T102 483Q131 483 143 475T159 453T162 422V224Q162 188 174 162T211 122T270 107Q306 107 331 121T371 162T385 224V424Q385 441 388 454T404
475T445 483Q473 483 485 475T500 453T504 423V48Q504 33 501 20T485 -1T444 -9Q424 -9 413 -5T396 7T389 23T387 39L395 66Q389 57 377 45T348 20T307 -1T256 -9ZM275 691Q281 691 285 690T293 687L407 640Q432 631 437 614T431 574Q420 553 408 544T382 540L275
589L168 541Q154 535 142 545T118 575Q106 598 111 614T141 640L256 687Q259 689 264 690T275 691Z" />
<glyph unicode="&#xfc;" horiz-adv-x="551" d="M256 -9Q210 -9 172 7T104 55T59 129T43 224V423Q43 440 46 453T62 475T102 483Q131 483 143 475T159 453T162 422V224Q162 188 174 162T211 122T270 107Q306 107 331 121T371 162T385 224V424Q385 441 388 454T404
475T445 483Q473 483 485 475T500 453T504 423V48Q504 33 501 20T485 -1T444 -9Q424 -9 413 -5T396 7T389 23T387 39L395 66Q389 57 377 45T348 20T307 -1T256 -9ZM369 556Q338 556 325 565T309 590T306 620Q306 636 309 650T325 674T370 683Q402 683 415 674T430
650T433 619Q433 604 431 590T415 566T369 556ZM189 556Q157 556 144 565T128 590T125 620Q126 636 128 650T144 674T189 683Q221 683 234 674T249 650T252 619Q252 604 250 590T234 566T189 556Z" />
<glyph unicode="&#xfd;" horiz-adv-x="543" d="M176 -207Q144 -193 139 -176T148 -129L406 449Q420 481 436 487T485 480Q516 466 521 449T514 403L254 -178Q241 -210 225 -215T176 -207ZM269 38L38 393Q20 420 23 438T55 473Q86 492 103 488T139 456L322 171L269
38ZM243 790Q227 787 217 796T199 828Q190 856 195 870T226 893L394 946Q410 949 420 940T437 907Q447 880 441 866T410 843L243 790Z" />
<glyph unicode="&#xfe;" horiz-adv-x="560" d="M304 -3Q255 -3 217 15T152 67T111 145T98 240Q98 291 112 335T152 413T217 465T304 484Q349 484 390 465T462 412T512 334T530 238Q530 186 512 142T463 66T391 15T304 -3ZM104 -210Q77 -210 65 -202T50 -181T47
-150V654Q47 671 50 684T65 706T104 714Q130 714 142 706T157 685T161 654V-151Q161 -167 158 -180T143 -202T104 -210ZM287 109Q322 109 350 125T394 171T411 238Q411 276 395 305T351 350T288 367Q253 367 225 350T181 305T165 238Q165 201 181 172T225 126T287
109Z" />
<glyph unicode="&#xff;" horiz-adv-x="543" d="M176 -207Q144 -193 139 -176T148 -129L406 449Q420 481 436 487T485 480Q516 466 521 449T514 403L254 -178Q241 -210 225 -215T176 -207ZM269 38L38 393Q20 420 23 438T55 473Q86 492 103 488T139 456L322 171L269
38ZM369 556Q338 556 325 565T309 590T306 620Q306 636 309 650T325 674T370 683Q402 683 415 674T430 650T433 619Q433 604 431 590T415 566T369 556ZM189 556Q157 556 144 565T128 590T125 620Q126 636 128 650T144 674T189 683Q221 683 234 674T249 650T252
619Q252 604 250 590T234 566T189 556Z" />
<glyph unicode="&#x2013;" horiz-adv-x="552" d="M63 198Q50 198 38 201T18 217T10 256Q10 283 18 294T38 309T64 313H454Q468 313 480 310T499 294T507 255Q507 229 500 217T480 202T452 198H63Z" />
<glyph unicode="&#x2014;" horiz-adv-x="679" d="M63 198Q50 198 38 201T18 217T10 256Q10 283 18 294T38 309T64 313H581Q595 313 607 310T626 294T634 255Q634 229 627 217T607 202T579 198H63Z" />
<glyph unicode="&#x2018;" horiz-adv-x="184" d="M140 690Q140 690 144 689T152 682T156 661Q156 642 150 637T142 630Q141 629 129 619T113 583Q123 581 130 578T144 568Q153 559 155 545T157 516Q157 500 154 485T137 460T89 450Q51 450 35 466Q26 475 24 489T22
518Q22 525 22 532T24 545Q28 585 44 618T86 670T140 690Z" />
<glyph unicode="&#x2019;" horiz-adv-x="178" d="M40 401Q40 401 36 402T28 409T24 430Q24 449 30 455T38 461Q39 462 52 472T67 508Q57 510 50 513T36 523Q27 532 25 546T23 575Q24 591 26 606T43 631T91 641Q129 641 145 625Q154 616 156 602T158 573Q158 566
158 559T156 546Q152 506 136 473T95 421T40 401Z" />
<glyph unicode="&#x201a;" horiz-adv-x="186" d="M298 -112Q298 -112 294 -111T286 -104T282 -83Q282 -64 288 -58T296 -52Q297 -51 310 -41T325 -5Q315 -3 308 0T294 10Q285 19 283 33T281 62Q282 78 284 93T301 118T349 128Q387 128 403 112Q412 103 414 89T416
60Q416 53 416 46T414 33Q410 -7 394 -40T353 -92T298 -112Z" />
<glyph unicode="&#x201c;" horiz-adv-x="345" d="M295 690Q295 690 299 689T307 682T311 661Q311 642 305 637T297 630Q296 629 284 619T268 583Q278 581 285 578T299 568Q308 559 310 545T312 516Q312 500 309 485T292 460T244 450Q206 450 190 466Q181 475 179
489T177 518Q177 525 177 532T179 545Q183 585 199 618T241 670T295 690ZM146 690Q146 690 150 689T159 682T163 661Q163 642 157 637T148 630Q147 629 135 619T119 583Q129 581 136 578T150 568Q160 559 161 545T163 516Q163 500 160 485T143 460T95 450Q57 450
42 466Q32 475 31 489T29 518Q29 525 29 532T31 545Q35 585 51 618T92 670T146 690Z" />
<glyph unicode="&#x201d;" horiz-adv-x="345" d="M45 451Q45 451 41 452T33 459T29 480Q29 499 35 505T43 511Q44 512 57 522T72 558Q62 560 55 563T41 573Q32 582 30 596T28 625Q29 641 31 656T48 681T96 691Q134 691 150 675Q159 666 161 652T163 623Q163 616
163 609T161 596Q157 556 141 523T100 471T45 451ZM198 451Q198 451 194 452T186 459T182 480Q182 499 188 505T196 511Q197 512 210 522T225 558Q215 560 208 563T194 573Q185 582 183 596T181 625Q182 641 184 656T201 681T249 691Q287 691 303 675Q312 666 314
652T316 623Q316 616 316 609T314 596Q310 556 294 523T253 471T198 451Z" />
<glyph unicode="&#x201e;" horiz-adv-x="345" d="M305 -112Q305 -112 301 -111T293 -104T289 -83Q289 -64 295 -58T303 -52Q304 -51 317 -41T332 -5Q322 -3 315 0T301 10Q292 19 290 33T288 62Q289 78 291 93T308 118T356 128Q394 128 410 112Q419 103 421 89T423
60Q423 53 423 46T421 33Q417 -7 401 -40T360 -92T305 -112ZM201 -112Q201 -112 197 -111T189 -104T185 -83Q185 -64 191 -58T199 -52Q200 -51 213 -41T228 -5Q218 -3 211 0T197 10Q188 19 186 33T184 62Q185 78 187 93T204 118T252 128Q290 128 306 112Q315 103
317 89T319 60Q319 53 319 46T317 33Q313 -7 297 -40T256 -92T201 -112Z" />
<glyph unicode="&#x2022;" horiz-adv-x="263" d="M132 192Q98 192 76 203T42 237T30 294Q30 328 41 350T75 384T132 396Q166 396 188 385T222 351T234 294Q234 261 223 238T189 204T132 192Z" />
<glyph unicode="&#x2039;" horiz-adv-x="353" d="M310 8Q295 -8 283 -13T258 -14T231 5L43 192Q33 202 29 212T24 232Q24 243 28 252T43 272L232 460Q247 475 259 479T283 478T310 457Q327 441 329 429T325 405T303 378L157 232L303 86Q318 71 325 60T330 36T310 8Z" />
<glyph unicode="&#x203a;" horiz-adv-x="341" d="M38 8Q22 24 19 36T22 59T45 86L191 232L45 378Q31 393 24 404T19 428T38 457Q53 472 65 477T89 479T116 460L305 272Q315 262 319 253T324 232Q324 222 320 212T305 192L117 5Q103 -9 91 -14T67 -14T38 8Z" />
</font>
</defs>
</svg>
