<?xml version="1.0" standalone="no"?>
<!DOCTYPE svg PUBLIC "-//W3C//DTD SVG 1.1//EN" "http://www.w3.org/Graphics/SVG/1.1/DTD/svg11.dtd">
<svg xmlns="http://www.w3.org/2000/svg">
<defs >
<font id="Fredoka" horiz-adv-x="535" ><font-face
    font-family="Fredoka Light Light"
    units-per-em="1000"
    panose-1="0 0 0 0 0 0 0 0 0 0"
    ascent="974"
    descent="-236"
    alphabetic="0" />
<glyph unicode=" " horiz-adv-x="260" />
<glyph unicode="!" horiz-adv-x="225" d="M113 170Q102 170 96 172T87 181T84 199V657Q84 668 86 674T95 684T112 687Q123 687 129 685T138 676T141 658V201Q141 190 139 183T130 173T113 170ZM113 -11Q91 -11 83 -3T75 26Q75 41 78 49T90 62T112 66Q134 66 142
58T150 29Q150 14 147 6T135 -7T113 -11Z" />
<glyph unicode="&quot;" horiz-adv-x="313" d="M213 477Q206 477 201 485T191 508T185 543T181 588T179 638Q179 648 180 657T189 672T214 679Q231 679 237 673T245 657T247 638Q247 612 246 588T242 544T235 508T226 485T213 477ZM99 477Q92 477 87 485T78 508T71
543T67 588T66 638Q66 648 67 657T76 672T100 679Q117 679 123 673T131 657T133 638Q133 612 132 588T128 544T121 508T112 485T99 477Z" />
<glyph unicode="#" horiz-adv-x="829" d="M206 -17Q193 -17 191 -7T192 29L215 167H86Q80 167 78 171T75 186Q75 199 78 206T90 217T112 221H223L259 437H130Q124 437 122 441T119 455Q119 468 123 475T135 486T156 490H267L295 661Q299 683 306 691T323 700T348
702Q364 702 364 691T360 651L333 490H564L590 656Q594 678 599 687T614 699T638 702Q655 702 657 692T656 657L630 490H741Q751 490 753 484T751 466Q747 454 742 448T731 439T716 437H619L586 221H696Q705 221 706 214T707 203Q703 188 699 181T689 170T671 167H575L553
29Q551 12 545 2T529 -12T501 -17Q490 -17 487 -7T488 30L509 167H280L258 31Q255 13 249 3T233 -12T206 -17ZM288 221H520L554 437H326L288 221Z" />
<glyph unicode="$" horiz-adv-x="475" d="M407 195Q407 163 396 136T362 89T310 57T243 40V-42Q243 -53 241 -59T232 -68T214 -71Q204 -71 198 -68T189 -59T186 -41V41Q157 45 130 56T81 85T46 124Q39 137 37 147T49 169Q62 178 71 177T87 169T100 151Q116 126
146 112T212 97Q255 97 285 108T332 141T348 193Q348 229 329 250T279 285T213 311Q183 321 154 333T102 362T64 404T50 468Q50 497 59 521T87 563T130 594T186 610V688Q186 699 188 705T197 715T214 718Q225 718 231 716T240 707T243 689V610Q286 605 318 586T367
549Q379 537 379 528T369 507Q363 500 356 498T342 497T327 508Q314 522 295 532T256 548T215 554Q190 554 170 548T137 531T116 503T108 467Q108 438 126 420T172 389T234 364Q264 353 294 341T350 310T391 264T407 195Z" />
<glyph unicode="%" horiz-adv-x="838" d="M216 -50Q207 -45 204 -39T202 -22T213 4L570 679Q578 694 584 701T599 709T616 705Q625 700 628 694T629 677T618 651L260 -24Q253 -38 246 -45T232 -54T216 -50ZM213 313Q131 313 81 364T31 500Q31 584 81 635T213 687Q293
687 342 636T391 501Q391 416 342 365T213 313ZM213 367Q268 367 301 404T335 503Q335 562 302 597T213 633Q156 633 122 597T87 502Q87 441 121 404T213 367ZM634 -11Q552 -11 502 40T452 176Q452 260 502 311T634 363Q714 363 763 312T812 177Q812 92 763 41T634
-11ZM634 43Q689 43 722 80T756 179Q756 238 723 273T634 309Q577 309 543 273T508 178Q508 117 542 80T634 43Z" />
<glyph unicode="&amp;" horiz-adv-x="718" d="M243 -11Q179 -11 134 10T64 71T39 168Q39 198 55 231T101 298T174 364Q158 394 146 425T127 486T120 544Q120 591 142 626T204 680T298 700Q344 700 378 683T431 634T450 560Q450 542 436 519T395 469T332 411T252
345Q282 299 315 258T382 185T448 130Q497 167 514 198T538 260Q540 268 547 275T576 283Q585 283 591 279T600 269T603 254Q601 215 573 176T495 95Q515 88 531 83T568 76T622 73Q639 73 644 68T650 44Q650 22 644 15T621 8Q592 8 562 12T502 26T440 55Q413 35
381 20T313 -3T243 -11ZM241 51Q284 51 323 62T390 93Q370 111 346 134T297 186T248 246T201 311Q174 287 155 268T125 234T108 202T103 168Q103 132 120 106T168 65T241 51ZM224 394Q261 422 291 446T343 492T377 531T389 562Q389 601 364 625T298 650Q262 650
235 637T193 602T178 548Q178 528 183 507T198 458T224 394Z" />
<glyph unicode="&apos;" horiz-adv-x="177" d="M88 477Q81 477 76 485T67 508T60 543T56 588T55 638Q55 648 56 657T65 672T89 679Q106 679 112 673T120 657T122 638Q122 612 121 588T117 544T110 508T101 485T88 477Z" />
<glyph unicode="(" horiz-adv-x="384" d="M283 -160Q244 -160 211 -139T151 -78T105 18T76 146T66 299Q66 382 76 453T105 582T150 679T211 740T284 762Q296 762 302 759T312 750T315 732Q315 721 313 715T304 705T288 702H283Q237 702 203 653T149 515T130 301Q130
208 141 134T172 8T221 -72T284 -100Q296 -100 302 -103T312 -112T315 -131Q315 -142 312 -148T302 -157T283 -160Z" />
<glyph unicode=")" horiz-adv-x="384" d="M98 -160Q86 -160 79 -158T69 -149T66 -131Q66 -119 69 -113T79 -103T97 -100Q132 -100 160 -72T208 8T240 134T251 301Q251 425 232 514T179 653T98 702H93Q83 702 77 705T69 714T66 732Q66 743 69 749T79 759T97 762Q136
762 170 741T230 679T276 582T305 454T315 299Q315 217 305 146T276 19T231 -78T171 -139T98 -160Z" />
<glyph unicode="*" horiz-adv-x="503" d="M234 638Q246 638 251 633T256 617V500L382 540Q390 543 395 540T405 526Q409 515 407 509T396 500L268 461L349 348Q354 341 352 335T341 322Q333 316 326 316T313 325L233 433L155 327Q149 318 142 318T126 325Q118
331 117 337T122 352L199 461L69 499Q62 502 61 508T62 524Q66 535 70 539T82 540L213 499V617Q213 628 218 633T234 638Z" />
<glyph unicode="+" horiz-adv-x="552" d="M277 25Q266 25 259 27T249 36T246 53V459Q246 470 249 476T259 484T277 487Q288 487 294 484T303 475T306 457V55Q306 44 304 38T295 28T277 25ZM75 226Q64 226 58 228T48 237T45 255Q45 267 47 273T56 283T73 286H479Q490
286 496 283T504 274T507 255Q507 244 504 238T495 229T477 226H75Z" />
<glyph unicode="," horiz-adv-x="226" d="M80 -68Q80 -68 79 -68T75 -64T73 -53Q73 -41 76 -39T80 -36Q80 -36 89 -29T100 -3Q93 -2 89 0T80 6Q75 11 74 19T73 35Q73 45 74 53T84 67T111 73Q133 73 142 64Q147 59 148 51T149 34Q149 30 149 26T148 18Q146 -4 137
-24T113 -56T80 -68Z" />
<glyph unicode="-" horiz-adv-x="433" d="M35 226Q24 226 18 228T8 237T5 255Q5 267 7 273T16 283T33 286H309Q320 286 326 283T334 274T337 255Q337 244 334 238T325 229T307 226H35Z" />
<glyph unicode="." horiz-adv-x="208" d="M104 -11Q82 -11 74 -3T65 27Q65 42 68 50T81 63T104 67Q126 67 134 59T143 28Q143 13 140 5T128 -7T104 -11Z" />
<glyph unicode="/" horiz-adv-x="526" d="M46 -50Q33 -42 32 -31T43 4L400 679Q408 694 414 701T429 709T446 705Q455 700 458 694T459 677T448 651L90 -24Q79 -46 70 -51T46 -50Z" />
<glyph unicode="0" horiz-adv-x="594" d="M301 -13Q253 -13 214 1T145 45T95 117T65 216T55 341Q55 409 65 464T95 562T144 634T213 679T299 694Q345 694 383 679T450 635T499 562T529 464T539 340Q539 272 529 217T500 118T451 46T385 2T301 -13ZM296 47Q351
47 385 70T439 129T467 205T478 280T480 335V341Q480 434 460 500T399 600T298 635Q237 635 196 601T135 501T114 340Q114 247 134 182T195 82T296 47Z" />
<glyph unicode="1" horiz-adv-x="396" d="M312 -11Q296 -11 290 -4T284 19V658Q284 675 290 681T313 687Q329 687 335 680T341 656V18Q341 2 335 -4T312 -11ZM105 446Q92 435 84 435T64 448Q54 460 55 469T69 489L284 676Q296 687 305 686T325 673Q336 662 335
653T320 632L105 446Z" />
<glyph unicode="2" horiz-adv-x="608" d="M85 0Q75 0 66 9T56 31Q56 44 56 57T60 83T84 108Q149 151 206 188T311 259T391 328T443 400T461 480Q461 531 441 565T382 617T289 635Q248 635 216 623T162 588T127 531T115 455Q115 442 113 435T105 426T85 423Q70
423 64 428T57 442T56 463Q56 517 71 560T117 633T190 678T288 694Q361 694 413 670T493 597T521 473Q521 444 513 416T488 361T445 305T384 247T302 185T200 116L113 60H524Q535 60 541 57T550 48T553 29Q553 18 550 12T541 3T522 0H85Z" />
<glyph unicode="3" horiz-adv-x="594" d="M297 -12Q245 -12 203 3T128 44T78 103T55 172Q55 198 85 198Q98 198 103 195T111 182T117 158Q131 118 158 93T221 55T298 42Q352 42 393 62T457 117T480 196Q480 238 457 270T395 321T307 340Q291 340 283 343T271 352T268
370Q268 381 271 387T282 396T308 399Q355 399 387 415T435 456T452 508Q452 547 434 577T382 625T305 642Q271 642 243 633T192 606T147 557Q135 541 128 540T103 549Q96 554 92 559T91 572Q98 586 109 602T138 635T179 665T233 687T303 696Q351 696 390 682T456
642T497 584T512 513Q512 482 499 454T464 404T416 370Q449 359 472 339T510 293T532 243T539 198Q539 139 509 91T424 16T297 -12Z" />
<glyph unicode="4" horiz-adv-x="542" d="M456 -11Q445 -11 439 -8T430 1T427 19V219H85Q75 219 68 222T58 232T55 249Q55 254 56 258T58 268L178 666Q184 687 191 690T213 692Q229 690 235 681T237 656L122 273H427V663Q427 672 430 677T440 684T458 687Q469
687 475 684T484 675T487 657V17Q487 7 484 1T475 -8T456 -11Z" />
<glyph unicode="5" horiz-adv-x="524" d="M258 -13Q228 -13 203 -9T156 2T114 21T74 47Q65 54 60 58T55 70Q55 74 57 79T65 93Q72 103 78 106T88 110Q91 110 96 108T112 97Q128 84 145 73T188 54T251 47Q298 47 333 66T389 121T409 206Q409 253 389 289T333 345T255
366Q236 366 217 362T182 349T152 327Q146 321 144 319T137 314Q130 310 123 310T101 315Q88 320 81 325T74 342L119 655Q121 665 123 672T132 683T149 687H419Q429 687 434 684T442 675T445 657Q445 647 443 641T435 633T419 630H176L140 384Q156 397 175 405T215
419T255 424H263Q304 424 341 408T406 362T452 295T469 214Q469 147 441 96T366 16T258 -13Z" />
<glyph unicode="6" horiz-adv-x="541" d="M278 -11Q208 -11 158 19T82 111T55 262Q55 340 72 406T123 525T204 615T310 672T438 692Q448 692 453 689T460 680T463 662Q463 651 460 645T451 636T433 633Q379 633 332 620T246 580T179 514T135 424T118 311L101 289Q113
322 139 348T203 389T287 404Q350 404 394 379T462 308T486 202Q486 138 462 90T391 16T278 -11ZM274 43Q323 43 358 62T411 116T430 196Q430 241 413 275T362 328T281 348Q231 348 195 329T139 277T120 199Q120 153 138 118T191 63T274 43Z" />
<glyph unicode="7" horiz-adv-x="564" d="M201 -11Q190 -11 184 -10T174 -5T171 5Q171 68 192 130T246 252T316 367T384 470T434 559T447 629H84Q73 629 67 632T58 641T55 659Q55 670 57 676T64 684T78 687H480Q491 687 497 682T506 669T509 647Q509 602 489 555T438
457T370 353T303 243T251 127T231 3Q231 -2 228 -5T219 -9T201 -11Z" />
<glyph unicode="8" horiz-adv-x="565" d="M286 -13Q217 -13 165 12T84 82T55 188Q55 211 60 233T76 276T100 314T133 345T172 368Q151 379 134 395T105 432T86 474T79 518Q79 572 105 612T177 675T286 698Q346 698 391 676T461 613T486 518Q486 500 482 483T471
448T452 417T428 390T398 368Q418 359 435 345T466 314T490 276T505 233T510 188Q510 143 494 106T449 43T378 2T286 -13ZM284 36Q334 36 371 55T430 108T451 188Q451 235 430 269T371 323T282 343Q232 343 194 324T135 270T114 188Q114 143 135 109T194 55T284
36ZM284 385Q327 385 359 401T409 448T427 518Q427 557 409 586T359 631T283 647Q240 647 208 631T158 586T140 518Q140 478 158 448T208 402T284 385Z" />
<glyph unicode="9" horiz-adv-x="541" d="M103 -9Q94 -9 89 -6T81 3T78 21Q78 32 81 38T90 47T108 50Q162 50 209 63T295 103T362 169T406 259T423 372L440 394Q428 362 402 336T339 296T254 281Q192 281 147 306T79 376T55 481Q55 545 79 593T151 667T263 694Q333
694 383 663T459 572T486 421Q486 343 469 277T418 158T337 68T231 11T103 -9ZM260 335Q311 335 347 354T402 407T421 484Q421 530 403 565T350 620T267 640Q218 640 183 621T130 567T111 487Q111 443 128 409T179 355T260 335Z" />
<glyph unicode=":" horiz-adv-x="238" d="M110 357Q88 357 80 365T71 395Q71 410 74 419T87 431T110 435Q132 435 140 427T149 396Q149 382 146 373T134 361T110 357ZM110 -11Q88 -11 80 -3T71 27Q71 42 74 50T87 63T110 67Q132 67 140 59T149 28Q149 13 146 5T134
-7T110 -11Z" />
<glyph unicode=";" horiz-adv-x="211" d="M75 -68Q75 -68 74 -68T70 -64T68 -53Q68 -41 71 -39T75 -36Q75 -36 84 -29T95 -3Q88 -2 84 0T75 6Q70 11 69 19T68 35Q68 45 69 53T79 67T106 73Q128 73 137 64Q142 59 143 51T144 34Q144 30 144 26T143 18Q141 -4 132
-24T108 -56T75 -68ZM104 355Q82 355 74 363T65 393Q65 408 68 417T81 429T104 433Q126 433 134 425T143 394Q143 380 140 371T128 359T104 355Z" />
<glyph unicode="&lt;" horiz-adv-x="490" d="M401 -3L47 239Q40 244 38 250T35 262Q35 268 37 274T47 285L401 527Q410 533 416 536T428 537T443 525Q451 516 453 509T454 496T442 483L108 262L442 41Q451 35 453 29T453 16T443 -1Q436 -9 430 -11T418 -12T401 -3Z" />
<glyph unicode="=" horiz-adv-x="472" d="M75 326Q64 326 58 328T48 337T45 355Q45 367 47 373T56 383T73 386H399Q410 386 416 383T424 374T427 355Q427 344 424 338T415 329T397 326H75ZM75 126Q64 126 58 128T48 137T45 155Q45 167 47 173T56 183T73 186H399Q410
186 416 183T424 174T427 155Q427 144 424 138T415 129T397 126H75Z" />
<glyph unicode="&gt;" horiz-adv-x="490" d="M89 -3Q80 -9 73 -11T60 -12T47 -1Q40 8 37 15T36 29T48 41L382 262L48 483Q39 489 37 495T37 509T47 525Q55 535 61 537T74 536T89 527L443 285Q450 281 452 275T455 262Q455 256 453 250T443 239L89 -3Z" />
<glyph unicode="?" horiz-adv-x="496" d="M251 170Q241 170 235 172T227 181T225 199V323Q225 339 236 348T266 364T305 381T343 406T373 448T385 516Q385 580 350 615T248 651Q216 651 189 640T143 610T113 562Q111 555 107 552T97 548T79 550Q70 553 66 556T60
566T61 580Q66 603 78 622T107 656T146 681T194 696T248 702Q310 702 353 680T419 617T442 518Q442 490 436 465T416 416T382 374T335 339T274 314L280 324V199Q280 188 278 182T269 173T251 170ZM253 -11Q229 -11 222 -1T214 28Q214 37 215 46T225 61T253 67Q279
67 285 58T292 28Q292 19 291 10T281 -5T253 -11Z" />
<glyph unicode="@" horiz-adv-x="824" d="M383 -145Q279 -145 203 -100T86 28T44 221Q44 303 70 370T146 485T262 560T412 586Q501 586 569 561T685 489T756 374T780 224Q780 163 766 112T724 23T661 -35T580 -56Q527 -56 497 -26T471 53Q473 71 475 89T478 125Q468
110 453 98T416 78T363 71Q337 71 313 81T271 109T242 155T232 216Q232 224 232 229T233 235Q236 275 250 306T287 360T336 393T394 405Q427 405 450 395T487 372T507 348L513 389Q515 401 523 403T546 406Q556 406 562 399T567 378L526 59Q525 32 539 16T585 -1Q616
-1 641 15T686 62T715 135T726 230Q726 299 708 354T653 449T557 510T420 532Q326 532 254 494T141 388T100 228Q100 133 134 62T232 -49T383 -89Q394 -89 400 -92T409 -102T412 -117Q412 -125 409 -131T399 -141T383 -145ZM381 129Q402 129 420 136T453 156T476
190T489 235V244Q489 269 483 288T464 320T435 340T398 347Q376 347 358 340T325 319T302 285T290 239V230Q290 198 301 176T332 141T381 129Z" />
<glyph unicode="A" horiz-adv-x="701" d="M681 32Q686 23 686 16T683 3T668 -8Q652 -15 643 -10T626 10L350 604L75 12Q68 -3 59 -8T32 -7Q22 -3 18 3T16 20T24 43L323 669Q327 677 334 682T351 687Q357 687 362 685T371 679T378 668L681 32ZM152 207L172 257H530L549
207H152Z" />
<glyph unicode="B" horiz-adv-x="648" d="M91 -11Q83 -11 77 -7T67 7T64 29V649Q64 662 67 670T77 682T92 687H386Q441 687 481 663T544 599T566 509Q567 480 559 453T536 404T497 368Q527 353 548 325T581 262T593 187Q592 145 578 109T537 46T474 4T396 -11H91ZM123
43H386Q436 43 469 62T519 116T536 198Q536 241 524 267T491 307T446 326T400 332T362 333H284Q271 333 265 340T258 363Q258 377 265 383T284 390H362Q380 390 405 391T454 400T495 432T511 499Q511 566 475 599T356 632H123V43Z" />
<glyph unicode="C" horiz-adv-x="679" d="M407 -10Q348 -10 296 7T201 55T127 131T79 230T62 347Q62 408 79 461T127 556T201 628T296 675T407 693Q457 693 492 684T549 663T580 646Q592 639 603 630T617 609Q619 599 617 594T611 584Q607 577 601 574T588 571Q579
571 572 577T554 590Q548 594 528 604T477 623T403 632Q343 632 292 611T202 552T143 460T122 342Q122 277 143 224T202 132T291 72T403 51Q445 51 476 60T528 79T554 93Q565 99 572 105T588 111Q595 111 601 109T611 99Q614 95 616 89T617 73Q615 62 604 53T580
36Q571 31 549 20T491 -1T407 -10Z" />
<glyph unicode="D" horiz-adv-x="704" d="M106 -11Q97 -11 91 -7T81 4T77 20V658Q77 668 80 674T91 684T107 688L312 687Q387 687 446 664T547 596T610 487T632 342Q632 259 610 194T547 83T445 13T309 -11H106ZM136 49H312Q394 49 452 83T541 182T572 337Q572
428 541 493T452 592T311 627H136V49Z" />
<glyph unicode="E" horiz-adv-x="630" d="M118 -11Q107 -11 101 -8T92 2T89 20V657Q89 674 96 680T121 687H535Q546 687 552 684T561 675T564 656Q564 645 561 639T552 630T534 627H148V380H419Q430 380 436 377T446 368T449 349Q449 338 446 332T436 323T417
320H148V49H535Q546 49 552 46T561 37T564 19Q564 8 561 2T552 -8T534 -11H118Z" />
<glyph unicode="F" horiz-adv-x="637" d="M118 -11Q107 -11 101 -8T92 2T89 20V657Q89 674 96 680T121 687H535Q546 687 552 684T560 675T563 656Q563 645 560 639T551 630T533 627H148V380H418Q429 380 435 377T445 368T448 349Q448 338 445 332T436 323T417
320H148V19Q148 8 145 2T136 -8T118 -11Z" />
<glyph unicode="G" horiz-adv-x="704" d="M397 -10Q318 -10 256 14T151 85T86 198T63 350Q63 429 86 492T154 599T263 667T408 693Q439 693 470 688T529 672T581 646Q597 636 607 627T618 609Q620 604 618 597T612 584Q608 578 602 575T589 571Q587 571 578 576T555
590Q535 603 511 612T459 627T404 632Q317 632 254 598T158 500T123 346Q124 253 157 187T253 86T401 50Q429 50 458 55T515 69T568 91V320H359Q348 320 341 322T331 331T328 349Q328 361 331 367T340 377T358 380H590Q603 380 611 376T623 363T628 342V82Q628
70 613 57T569 30Q547 19 519 10T460 -4T397 -10Z" />
<glyph unicode="H" horiz-adv-x="699" d="M581 -11Q570 -11 564 -8T555 2T552 20V657Q552 668 555 674T564 684T582 687Q593 687 599 684T608 675T611 656V19Q611 8 608 2T599 -8T581 -11ZM117 -11Q106 -11 100 -8T91 2T88 20V657Q88 668 91 674T100 684T118 687Q129
687 135 684T144 675T147 656V19Q147 8 144 2T135 -8T117 -11ZM98 320V380H568L567 320H98Z" />
<glyph unicode="I" horiz-adv-x="209" d="M104 -11Q93 -11 87 -8T78 2T75 20V657Q75 668 78 674T87 684T105 687Q116 687 122 684T131 675T134 656V19Q134 8 131 2T122 -8T104 -11Z" />
<glyph unicode="J" horiz-adv-x="549" d="M249 -11Q224 -11 199 -6T151 8T108 31T72 61Q62 71 56 78T50 90Q50 96 55 103T63 113Q72 122 76 124T86 126Q97 126 103 118T128 93Q140 84 159 73T202 53T253 45Q292 45 319 59T364 98T390 158T399 233V649Q399 663
402 671T412 683T431 687Q441 687 447 684T455 675T458 656V225Q458 172 446 129T408 54T343 6T249 -11Z" />
<glyph unicode="K" horiz-adv-x="589" d="M108 -11Q97 -11 91 -8T82 1T79 19V658Q79 669 82 675T91 684T109 687Q120 687 126 684T136 675T139 657V381L474 678Q483 686 489 688T502 687T516 676Q528 663 527 654T513 634L181 340L518 41Q531 30 532 21T521 -1Q514
-9 508 -12T495 -13T479 -3L139 298V18Q139 7 136 1T127 -8T108 -11Z" />
<glyph unicode="L" horiz-adv-x="554" d="M102 -11Q90 -11 83 -8T73 1T70 19V656Q70 668 72 674T81 684T99 687Q110 687 116 684T126 675T129 657V49H494Q505 49 511 47T521 38T524 20Q524 9 522 2T513 -8T496 -11H102Z" />
<glyph unicode="M" horiz-adv-x="830" d="M112 -11Q103 -11 97 -8T87 3T83 20V658Q83 668 86 674T97 683T114 687Q124 687 131 686T143 682T154 673L434 257H394L678 677Q682 682 687 684T700 686T717 687Q727 687 733 684T743 673T747 656V18Q747 9 744 3T733
-7T716 -11Q707 -11 701 -8T691 3T687 20V594L441 227Q438 223 434 220T425 216T414 214Q408 214 404 215T397 220T387 229L142 594V18Q142 9 139 3T129 -7T112 -11Z" />
<glyph unicode="N" horiz-adv-x="720" d="M105 -10Q96 -10 90 -7T81 4T77 21V661Q77 670 81 675T92 684T110 687Q125 687 132 686T146 676L564 79V661Q564 670 567 675T578 684T595 687Q604 687 610 684T620 673T623 656V20Q623 10 619 4T606 -6T588 -10Q578 -10
570 -7T554 6L136 596V20Q136 10 133 4T122 -6T105 -10Z" />
<glyph unicode="O" horiz-adv-x="735" d="M373 -16Q302 -16 240 11T131 86T57 197T30 332Q30 406 56 471T128 585T234 662T364 690Q435 690 497 663T605 588T678 475T705 336Q705 264 679 201T607 88T501 12T373 -16ZM367 44Q425 44 475 66T564 129T623 223T645
337Q645 397 624 450T564 543T475 607T368 630Q311 630 261 607T172 544T112 451T90 336Q90 276 112 223T172 130T260 67T367 44Z" />
<glyph unicode="P" horiz-adv-x="603" d="M109 -11Q98 -11 92 -8T83 2T80 20V657Q80 667 83 673T94 683T110 687H335Q386 687 425 673T492 630T534 561T549 470Q549 419 535 380T492 312T425 270T334 255H140V19Q140 8 137 2T128 -8T109 -11ZM140 315H335Q384
315 418 333T471 387T490 472Q490 521 472 555T418 608T334 627H140V315Z" />
<glyph unicode="Q" horiz-adv-x="820" d="M773 54Q787 44 788 36T781 13Q775 4 769 1T756 -2T740 6L612 93Q566 43 505 14T373 -16Q302 -16 240 11T131 86T57 197T30 332Q30 406 56 471T128 585T234 662T364 690Q435 690 497 663T605 588T678 475T705 336Q705
282 690 232T647 140L773 54ZM367 44Q425 44 475 66T564 129T623 223T645 337Q645 397 624 450T564 543T475 607T368 630Q311 630 261 607T172 544T112 451T90 336Q90 276 112 223T172 130T260 67T367 44Z" />
<glyph unicode="R" horiz-adv-x="631" d="M118 -11Q107 -11 101 -8T92 2T89 20V658Q89 668 92 674T102 683T119 687H346Q399 687 438 673T505 632T545 565T559 471Q559 440 549 403T518 333T463 279T378 258H148V19Q148 8 145 2T136 -8T118 -11ZM550 -4Q537 -11
527 -7T509 10L357 268L419 279L562 41Q569 30 570 22T566 8T550 -4ZM148 315H376Q403 315 425 325T464 355T490 404T500 472Q500 523 483 557T431 609T344 627H148V315Z" />
<glyph unicode="S" horiz-adv-x="558" d="M271 -20Q241 -20 211 -13T152 7T101 40T62 85Q55 97 52 104T51 119T65 133Q78 142 87 141T103 131T118 111Q143 74 185 57T267 39Q318 39 359 53T424 95T449 169Q449 206 434 232T391 276T332 306T264 330Q235 339 207
350T153 375T109 409T79 456T68 520Q68 573 93 612T165 674T272 697Q305 697 335 690T389 672T432 647T462 619Q475 604 477 594T465 572Q453 562 443 562T422 575Q399 602 375 615T325 633T271 638Q240 638 214 631T168 608T138 570T127 519Q127 489 140 468T177
431T230 403T292 381Q331 369 369 353T439 314T489 257T508 172Q508 127 491 91T441 31T365 -7T271 -20Z" />
<glyph unicode="T" horiz-adv-x="672" d="M599 687Q610 687 616 684T624 675T627 656Q627 645 624 639T615 630T597 627H367V19Q367 8 364 2T355 -8T337 -11Q326 -11 320 -8T311 2T308 20V627H75Q64 627 58 629T48 638T45 656Q45 668 47 674T56 684T73 687H599Z" />
<glyph unicode="U" horiz-adv-x="726" d="M361 -11Q297 -11 246 10T160 71T106 169T87 300V657Q87 668 90 674T99 684T117 687Q129 687 135 684T145 675T148 656V300Q148 222 173 166T247 79T364 48Q432 48 480 78T553 165T579 301V663Q579 672 582 677T592 684T610
687Q621 687 627 684T636 675T639 656V298Q639 225 621 168T566 71T479 10T361 -11Z" />
<glyph unicode="V" horiz-adv-x="723" d="M361 -11Q348 -11 340 -8T328 5L69 655Q62 672 68 677T87 689Q95 693 102 693T114 690T124 676L361 72L596 665Q600 675 604 683T617 693T640 688Q661 678 659 666T651 643L395 6Q391 -3 383 -7T361 -11Z" />
<glyph unicode="W" horiz-adv-x="971" d="M278 -6Q269 -6 264 -4T255 2T250 15L38 647Q33 662 36 670T56 684Q67 688 74 688T86 682T94 667L279 98L454 664Q457 673 460 678T470 685T484 687Q494 687 500 685T509 680T514 669L691 95L876 665Q880 677 885 682T898
689T917 686Q927 683 931 679T936 667T932 647L720 14Q718 7 715 3T706 -4T692 -6Q684 -6 679 -4T670 3T663 17L485 588L307 17Q304 9 301 4T292 -4T278 -6Z" />
<glyph unicode="X" horiz-adv-x="696" d="M603 -13Q594 -19 588 -21T575 -19T562 -6L88 641Q78 655 79 664T93 683Q102 690 108 691T121 690T134 677L608 28Q619 15 618 6T603 -13ZM93 -13Q80 -4 79 5T88 28L562 677Q569 686 575 689T588 692T603 683Q617 673
618 664T608 641L134 -6Q127 -15 121 -19T109 -21T93 -13Z" />
<glyph unicode="Y" horiz-adv-x="638" d="M588 688Q601 678 603 670T597 650L350 274V19Q350 8 347 2T338 -8T320 -11Q309 -11 303 -8T293 2T290 21V275L41 648Q34 659 36 667T52 686Q62 693 68 695T81 694T92 682L320 326L547 682Q552 690 557 693T570 695T588 688Z" />
<glyph unicode="Z" horiz-adv-x="567" d="M63 -11Q50 -11 43 -5T35 18Q35 22 36 27T40 36L438 630H69Q57 630 50 632T39 641T35 656Q35 668 38 674T48 684T66 687H488Q503 687 509 678T516 661Q516 651 513 643T506 630L116 45H503Q514 45 520 43T529 34T532 18Q532
7 529 1T520 -8T501 -11H63Z" />
<glyph unicode="[" horiz-adv-x="348" d="M81 -156Q69 -156 62 -153T52 -144T49 -126V727Q49 738 52 744T62 754T81 757H255Q266 757 272 755T280 746T283 727Q283 716 280 710T271 701T253 698H108V-97H253Q264 -97 270 -99T280 -108T283 -126Q283 -137 281 -144T272
-153T255 -156H81Z" />
<glyph unicode="\" horiz-adv-x="528" d="M431 -48Q422 -52 415 -51T402 -43T388 -21L49 664Q37 688 38 699T53 718Q67 726 77 720T98 691L436 6Q448 -18 447 -29T431 -48Z" />
<glyph unicode="]" horiz-adv-x="348" d="M77 -156Q67 -156 61 -154T52 -144T49 -126Q49 -115 52 -109T61 -100T79 -97H224V698H79Q68 698 62 700T52 709T49 727Q49 739 51 745T60 754T77 757H251Q263 757 270 754T280 745T283 727V-126Q283 -137 280 -143T270
-153T251 -156H77Z" />
<glyph unicode="^" horiz-adv-x="516" d="M258 518Q263 518 268 515T278 507L473 312Q481 305 483 298T482 285T471 270Q463 262 457 260T444 260T429 271L258 442L87 271Q79 263 73 260T60 259T45 270Q37 278 34 284T33 298T43 312L238 507Q243 512 248 515T258 518Z" />
<glyph unicode="_" horiz-adv-x="826" d="M88 -117Q77 -117 71 -115T61 -106T58 -88Q58 -76 60 -70T69 -60T86 -57H742Q753 -57 759 -60T767 -69T770 -88Q770 -99 767 -105T758 -114T740 -117H88Z" />
<glyph unicode="`" horiz-adv-x="296" d="M213 551L64 603Q51 608 47 615T47 637Q52 652 60 656T81 655L233 602Q247 597 250 589T248 567Q243 552 236 549T213 551Z" />
<glyph unicode="a" horiz-adv-x="580" d="M488 -10Q474 -10 468 -3T460 23V90Q449 71 426 48T365 7T274 -11Q225 -11 184 7T111 59T63 135T45 230Q45 279 62 321T111 396T184 447T274 466Q321 466 354 454T413 421T460 372V429Q460 449 466 457T489 466Q499 466
504 463T512 451T515 429V23Q515 11 513 4T504 -7T488 -10ZM285 41Q333 41 372 65T434 132T457 228Q457 285 433 327T370 392T283 416Q228 416 187 391T123 324T100 226Q100 173 123 131T188 65T285 41Z" />
<glyph unicode="b" horiz-adv-x="591" d="M310 -11Q261 -11 220 6T149 54T103 129T86 227Q86 281 102 325T149 401T220 450T310 467Q357 467 397 450T467 402T514 327T531 230Q531 176 514 132T467 55T397 6T310 -11ZM301 42Q351 42 390 65T453 130T476 227Q476
283 453 325T391 390T301 414Q252 414 213 391T150 325T127 227Q127 172 150 131T212 66T301 42ZM96 -12Q86 -12 80 -9T70 0T67 18V655Q67 667 69 673T78 683T95 686Q106 686 112 683T121 674T124 656V19Q124 2 118 -5T96 -12Z" />
<glyph unicode="c" horiz-adv-x="510" d="M292 -11Q237 -11 192 6T113 54T63 129T45 227Q45 281 62 324T112 400T190 449T290 466Q323 466 357 455T420 425T460 383Q467 370 467 364T462 352Q456 345 449 341T435 337Q423 337 412 351Q402 365 388 376T358 395T324
407T290 412Q234 412 192 389T127 325T104 227Q104 172 127 131T191 66T288 43Q311 43 334 49T378 66T414 93Q422 100 427 104T441 109Q447 109 452 105T464 92Q468 88 469 83T469 71T462 60Q441 39 412 23T351 -2T292 -11Z" />
<glyph unicode="d" horiz-adv-x="596" d="M281 -11Q235 -11 195 6T124 55T77 131T60 230Q60 283 77 326T124 401T194 450T281 467Q330 467 371 450T442 401T488 325T505 227Q505 173 489 130T442 55T371 6T281 -11ZM290 42Q340 42 379 65T441 130T464 227Q464
283 441 325T379 390T290 414Q241 414 201 391T138 325T115 227Q115 172 138 131T201 66T290 42ZM496 -11Q480 -11 474 -4T467 19V656Q467 668 469 674T478 684T495 687Q506 687 512 684T521 675T524 657V20Q524 9 522 2T513 -8T496 -11Z" />
<glyph unicode="e" horiz-adv-x="542" d="M292 -13Q237 -13 192 5T114 56T63 134T45 234Q45 299 76 351T162 433T288 464Q334 464 372 450T438 412T481 357T497 293Q497 244 475 227T420 209H105Q103 156 131 118T203 60T291 39Q320 39 341 42T378 50T405 61T425
72T442 81Q447 83 453 83T463 77Q468 70 470 65T472 52Q472 43 448 28T383 0T292 -13ZM105 257H403Q423 257 434 261T445 291Q445 324 425 351T369 396T289 413Q239 413 197 393T129 338T105 257Z" />
<glyph unicode="f" horiz-adv-x="364" d="M156 -11Q146 -11 140 -8T132 2T129 20V540Q129 582 137 610T164 656T213 681T289 689Q300 689 306 687T316 678T319 661Q319 651 316 645T307 636T288 633Q260 633 240 631T209 620T192 593T186 542V17Q186 7 183 1T174
-8T156 -11ZM68 453L157 451L296 453Q307 453 313 451T323 442T326 426Q326 415 324 409T315 400T298 397L157 399L66 397Q50 397 44 403T38 426Q38 441 45 447T68 453Z" />
<glyph unicode="g" horiz-adv-x="571" d="M268 -201Q232 -201 202 -194T150 -174T116 -149T104 -124Q104 -117 105 -114T110 -107Q118 -99 121 -97T133 -95Q141 -95 150 -104T175 -124T214 -145T271 -154Q309 -154 339 -143T392 -108T425 -53T437 22L435 439Q435
455 442 461T465 467Q475 467 480 465T488 456T491 439V15Q491 -36 476 -76T431 -144T361 -186T268 -201ZM272 -1Q222 -1 182 15T112 63T66 136T50 231Q50 284 66 326T111 400T180 447T270 464Q315 464 353 448T420 400T463 327T479 232Q479 162 452 110T379 28T272
-1ZM270 50Q318 50 355 73T415 137T437 234Q437 288 415 328T355 391T269 414Q220 414 183 392T126 329T105 233Q105 178 126 137T184 73T270 50Z" />
<glyph unicode="h" horiz-adv-x="526" d="M94 -11Q83 -11 77 -8T68 2T65 20V657Q65 668 68 674T77 684T95 687Q106 687 112 684T121 675T124 656V387Q150 419 187 443T281 468Q338 468 383 443T454 370T481 254V19Q481 8 479 2T470 -7T453 -10Q442 -10 436 -7T427
2T424 20V255Q424 304 408 340T360 396T279 416Q212 416 171 378T124 276V19Q124 8 121 2T112 -8T94 -11Z" />
<glyph unicode="i" horiz-adv-x="215" d="M107 -11Q97 -11 91 -8T82 1T79 19V437Q79 448 81 454T90 463T108 466Q119 466 125 463T133 454T136 435V18Q136 7 134 1T125 -8T107 -11ZM107 610Q93 610 85 614T74 627T70 650Q70 664 73 672T85 683T108 687Q122 687
130 683T141 671T145 647Q145 634 142 626T130 614T107 610Z" />
<glyph unicode="j" horiz-adv-x="242" d="M-40 -200Q-50 -200 -57 -197T-67 -188T-70 -172Q-70 -162 -67 -156T-57 -147T-39 -144Q-11 -144 13 -140T56 -122T84 -82T94 -14V438Q94 448 97 454T106 463T123 466Q133 466 139 463T148 453T151 435V-12Q151 -62 138
-98T99 -156T39 -189T-40 -200ZM121 610Q100 610 92 619T84 650Q84 671 92 679T122 687Q143 687 151 678T159 647Q159 627 151 619T121 610Z" />
<glyph unicode="k" horiz-adv-x="481" d="M425 39Q439 29 440 21T432 -1Q425 -10 419 -13T405 -15T389 -6L129 201V19Q129 8 126 2T117 -8T100 -11Q90 -11 84 -8T75 2T72 20V657Q72 668 75 674T84 684T101 687Q112 687 118 684T126 675T129 656V276L321 460Q328
467 335 470T349 472T363 461Q374 448 374 439T361 419L172 239L425 39Z" />
<glyph unicode="l" horiz-adv-x="271" d="M206 -11Q178 -11 156 -5T116 13T88 43T71 85T65 138V658Q65 670 67 676T76 686T93 689Q104 689 110 687T120 678T123 661V136Q123 114 128 98T143 70T169 53T205 47Q217 47 223 45T233 36T236 18Q236 7 233 1T224 -8T206 -11Z" />
<glyph unicode="m" horiz-adv-x="837" d="M102 -10Q92 -10 86 -7T78 2T75 20V440Q75 450 77 455T86 463T103 466Q117 466 123 460T129 440V380Q138 401 154 417T192 444T235 462T279 468Q315 468 343 454T394 415T431 352Q454 392 477 417T530 455T597 468Q654
468 691 440T748 362T767 244V19Q767 8 765 2T756 -7T739 -10Q728 -10 722 -7T713 2T710 20V245Q710 296 698 334T660 394T595 416Q553 416 520 395T468 335T449 245V18Q449 5 443 -2T427 -11T409 -9Q403 -7 399 -4T394 6T392 20V245Q392 296 380 334T342 394T277
416Q235 416 202 395T150 335T131 245V19Q131 8 129 2T120 -7T102 -10Z" />
<glyph unicode="n" horiz-adv-x="554" d="M102 -10Q92 -10 86 -7T78 2T75 20V440Q75 450 77 455T86 463T103 466Q110 466 115 465T123 460T127 452T129 440V381Q142 398 158 413T193 441T236 461T289 468Q332 468 368 454T432 412T474 345T489 254V19Q489 8 487
2T478 -7T461 -10Q450 -10 444 -7T435 2T432 20V255Q432 304 416 340T368 396T287 416Q239 416 204 396T150 340T131 255V19Q131 8 129 2T120 -7T102 -10Z" />
<glyph unicode="o" horiz-adv-x="560" d="M283 -15Q233 -15 189 4T112 56T59 133T40 227Q40 278 58 321T110 398T187 450T281 469Q348 469 402 438T488 352T520 228Q520 176 502 132T451 55T375 4T283 -15ZM281 39Q332 39 373 64T439 133T464 230Q464 284 440
326T375 391T280 415Q228 415 187 391T121 324T96 229Q96 175 120 132T187 64T281 39Z" />
<glyph unicode="p" horiz-adv-x="585" d="M310 -9Q261 -9 220 8T149 57T103 133T86 231Q86 285 102 328T149 403T220 452T310 469Q357 469 397 452T467 403T514 327T531 228Q531 175 514 132T467 57T397 8T310 -9ZM95 -202Q84 -202 78 -199T68 -190T65 -172V435Q65
447 67 453T76 463T94 466Q111 466 117 460T124 436V-171Q124 -182 122 -189T113 -199T95 -202ZM301 44Q351 44 390 67T453 133T476 231Q476 287 453 328T391 393T301 416Q252 416 213 393T150 328T127 231Q127 176 150 134T212 68T301 44Z" />
<glyph unicode="q" horiz-adv-x="576" d="M266 -9Q220 -9 180 8T109 56T62 131T45 228Q45 282 62 326T109 403T179 452T266 469Q315 469 356 452T427 404T473 329T490 231Q490 177 474 133T427 57T356 8T266 -9ZM275 44Q324 44 363 67T426 133T449 231Q449 286
426 327T364 392T275 416Q226 416 186 393T123 328T100 231Q100 176 123 134T186 68T275 44ZM481 -202Q470 -202 464 -199T455 -189T452 -171V436Q452 447 455 453T464 463T482 466Q493 466 499 463T508 454T511 435V-172Q511 -183 508 -189T499 -199T481 -202Z"
/>
<glyph unicode="r" horiz-adv-x="397" d="M102 -11Q92 -11 86 -8T78 2T75 20V437Q75 449 77 455T86 464T103 466Q113 466 119 464T129 456T132 437V395Q142 412 152 426T176 450T210 467T262 473Q278 473 291 470T316 462T336 451T348 439T352 427Q352 414 341
405T321 396Q310 396 305 399T293 408T275 416T238 420Q223 420 205 414T171 394T143 360T132 310V18Q132 7 130 1T121 -8T102 -11Z" />
<glyph unicode="s" horiz-adv-x="460" d="M226 -14Q203 -14 180 -10T135 3T95 23T66 49Q59 59 56 66T55 79T65 90Q76 102 86 100T112 81Q121 71 135 63T165 48T197 39T227 36Q282 36 316 57T350 116Q350 135 343 149T324 174T297 191T263 204T225 215Q197 222
170 230T120 252T85 286T71 340Q71 378 90 406T145 450T226 466Q249 466 269 463T306 452T339 436T368 413Q380 402 381 393T374 374Q365 364 355 363T334 372Q318 388 301 397T265 412T226 417Q197 417 174 408T139 381T126 340Q126 323 134 312T157 292T190 278T230
266Q260 258 291 249T347 224T389 183T405 118Q405 58 355 22T226 -14Z" />
<glyph unicode="t" horiz-adv-x="358" d="M287 -11Q242 -11 212 -3T162 22T135 67T127 138V598Q127 610 129 616T138 626T154 629Q165 629 171 627T181 618T184 601V136Q184 105 189 87T206 59T238 48T286 45Q298 45 304 43T314 34T317 17Q317 6 314 0T305 -8T287
-11ZM65 453L154 451L293 453Q304 453 310 451T320 442T323 426Q323 415 321 409T312 400T295 397L154 399L63 397Q47 397 41 403T35 426Q35 441 42 447T65 453Z" />
<glyph unicode="u" horiz-adv-x="534" d="M254 -12Q211 -12 175 2T112 44T70 111T55 202V437Q55 448 57 454T66 463T83 466Q94 466 100 463T109 454T112 436V201Q112 153 128 117T176 60T256 40Q305 40 340 60T394 116T413 201V437Q413 448 415 454T424 463T442
466Q452 466 458 463T466 454T469 436V16Q469 7 467 1T458 -7T441 -10Q434 -10 429 -9T421 -4T417 4T415 16V75Q402 58 386 43T351 15T307 -5T254 -12Z" />
<glyph unicode="v" horiz-adv-x="524" d="M261 -11Q248 -11 241 -8T228 5L40 430Q33 447 38 454T57 468Q69 474 78 472T94 455L261 54L425 442Q431 456 439 467T470 467Q491 457 489 445T481 422L295 6Q291 -3 283 -7T261 -11Z" />
<glyph unicode="w" horiz-adv-x="772" d="M229 -6Q220 -6 215 -4T206 2T201 15L39 431Q35 442 35 448T41 460T57 468Q74 473 81 470T95 451L230 95L355 448Q358 456 361 461T371 468T386 471Q396 471 401 469T411 462T417 450L542 92L677 449Q684 467 692 471T718
470Q732 466 736 458T733 431L571 14Q569 7 566 3T557 -4T543 -6Q535 -6 530 -4T521 3T514 17L386 387L258 17Q255 9 252 4T243 -4T229 -6Z" />
<glyph unicode="x" horiz-adv-x="479" d="M417 466Q428 459 432 453T434 439T420 416L105 5Q95 -8 88 -12T75 -16T61 -9Q52 -2 48 3T47 17T61 40L376 451Q390 469 397 471T417 466ZM63 466Q72 471 78 472T89 468T104 451L419 40Q430 26 433 18T433 4T419 -9Q411
-14 405 -15T392 -13T375 5L60 416Q50 430 47 439T48 454T63 466Z" />
<glyph unicode="y" horiz-adv-x="509" d="M163 -201Q148 -195 146 -187T150 -162L423 450Q430 466 438 470T462 467Q477 460 479 451T474 427L200 -187Q193 -203 186 -205T163 -201ZM268 70L43 420Q34 434 36 443T51 460Q65 469 74 467T93 451L298 126L268 70Z" />
<glyph unicode="z" horiz-adv-x="526" d="M73 -11Q57 -11 51 -5T45 16Q45 25 47 31T55 42L384 408H98Q87 408 81 410T71 419T68 437Q68 448 71 454T80 463T98 466H440Q456 466 462 460T468 439Q468 432 467 427T462 419L133 47H453Q464 47 470 44T479 35T482 17Q482
7 479 1T470 -8T452 -11H73Z" />
<glyph unicode="{" horiz-adv-x="381" d="M273 -156Q241 -156 219 -150T184 -128T165 -88T159 -27V189Q159 212 154 227T138 252T109 266T64 271H49Q39 271 36 277T32 300Q32 311 33 317T38 327T48 330H61Q88 330 106 334T136 348T153 374T158 413L159 633Q159
668 165 692T184 730T219 751T272 758Q284 758 290 756T300 747T303 729Q303 718 300 712T291 702T272 699Q251 699 240 692T223 669T218 625V437Q218 415 214 394T199 354T173 321T135 300Q157 294 173 279T199 242T213 197T218 151V-37Q218 -59 223 -72T239 -92T272
-98Q284 -98 290 -100T300 -109T303 -127Q303 -138 300 -144T291 -153T273 -156Z" />
<glyph unicode="|" horiz-adv-x="217" d="M112 -203Q102 -203 96 -200T87 -191T84 -173V658Q84 669 86 675T95 684T113 687Q124 687 130 684T138 675T141 656V-174Q141 -185 139 -191T130 -200T112 -203Z" />
<glyph unicode="}" horiz-adv-x="381" d="M62 -156Q51 -156 45 -154T35 -145T32 -127Q32 -116 35 -110T45 -101T63 -98Q84 -98 96 -92T112 -73T117 -37V151Q117 173 121 197T136 242T162 278T200 300Q178 307 162 321T136 353T122 393T117 437V625Q117 653 112
669T96 692T63 699Q52 699 45 702T35 711T32 729Q32 740 35 746T45 755T63 758Q95 758 116 752T151 731T170 692T176 633L177 413Q177 390 182 374T198 349T228 335T274 330H287Q293 330 296 327T301 318T303 300Q303 284 300 278T286 271H271Q245 271 227 267T197
253T181 228T176 189V-27Q176 -63 170 -87T151 -127T116 -149T62 -156Z" />
<glyph unicode="~" horiz-adv-x="551" d="M190 345Q213 345 232 337T269 318T302 295T334 275T366 267Q376 267 386 272T406 285T424 303T437 323Q442 334 455 337T480 334Q488 330 491 324T494 307Q494 293 483 276T454 243T412 217T365 207Q339 207 320 214T284
233T254 256T224 275T190 283Q180 283 168 279T145 268T126 251T112 232Q109 226 103 223T89 220T73 225Q63 230 59 240T59 260Q66 277 80 292T113 319T151 338T190 345Z" />
<glyph unicode="&#xa0;" horiz-adv-x="260" />
<glyph unicode="&#xa1;" horiz-adv-x="225" d="M113 326Q124 326 130 323T138 314T141 295V-162Q141 -173 139 -179T130 -188T112 -191Q102 -191 96 -188T87 -179T84 -161V297Q84 308 86 314T95 323T113 326ZM113 507Q127 507 135 503T146 491T150 467Q150 447
142 439T112 430Q98 430 90 434T79 447T75 470Q75 491 83 499T113 507Z" />
<glyph unicode="&#xa2;" horiz-adv-x="434" d="M234 -71Q224 -71 218 -68T209 -59T206 -41V41Q147 48 106 78T44 154T22 257Q22 314 43 360T106 437T206 474V561Q206 572 208 578T217 587T235 590Q246 590 252 587T260 578T263 559V475Q295 472 321 461T366 435T397
403Q405 391 405 385T399 372Q393 365 386 361T372 357Q360 357 349 371Q335 390 318 401T280 417T237 422Q186 422 151 400T99 340T81 257Q81 212 98 175T150 116T235 93Q258 93 278 96T317 109T351 133Q359 140 364 144T378 149Q384 149 389 145T401 132Q406
126 406 117T399 100Q381 82 359 69T313 49T263 40V-42Q263 -53 261 -59T252 -68T234 -71Z" />
<glyph unicode="&#xa3;" horiz-adv-x="675" d="M124 -11Q107 -11 101 -3T95 23Q95 55 105 73T128 106T151 144T161 210Q161 222 159 249T144 305H62Q51 305 45 307T35 316T32 334Q32 346 34 352T43 362T60 365H132V447Q132 484 138 508T159 560Q179 599 212 630T292
679T402 697Q433 697 462 689T518 668T565 637T602 602Q616 586 616 575T605 553Q589 539 579 538T557 550Q540 571 518 589T468 620T401 632Q341 632 296 609T225 543T200 443V365H367Q378 365 384 362T392 353T395 334Q395 323 392 317T383 308T365 305H213Q221
279 223 253T226 210Q226 186 219 158T199 102T171 57H599Q612 57 619 54T629 43T633 21Q633 9 630 2T619 -8T598 -11H124Z" />
<glyph unicode="&#xa4;" horiz-adv-x="677" d="M64 -11Q54 -6 51 0T50 13Q59 41 79 65T127 108T180 134Q150 153 125 182T84 251T69 337Q69 399 98 459T185 556Q130 574 101 601T58 658Q51 673 52 681T66 697Q77 703 84 701T100 685Q107 675 114 666T128 647Q147
622 183 610T259 595T332 591H346Q383 591 423 595T497 611T546 647Q552 656 558 665T571 684Q579 695 585 697T604 695Q618 689 619 682T614 660Q600 625 567 598T475 554Q538 525 569 466T600 340Q600 301 586 261T548 187T490 134Q519 127 544 110T588 70T614
22Q618 9 617 2T603 -11Q592 -17 585 -15T571 1Q564 15 558 25T544 47Q532 64 507 74T440 88T339 93H317Q272 93 241 90T189 81T155 67T131 47Q115 29 109 17T99 -3Q92 -15 85 -16T64 -11ZM329 138Q394 138 442 163T517 234T544 341Q544 402 518 447T445 517T335
543Q273 543 227 518T154 448T128 342Q128 281 153 235T223 164T329 138Z" />
<glyph unicode="&#xa5;" horiz-adv-x="677" d="M611 688Q624 678 626 670T620 650L373 274V19Q373 8 370 2T361 -8T343 -11Q332 -11 326 -8T316 2T313 21V274L64 648Q57 659 59 667T75 686Q89 697 98 696T115 682L343 325L570 682Q578 694 587 695T611 688ZM200
159Q189 159 183 161T173 170T170 188Q170 200 172 206T181 216T198 219H474Q485 219 491 216T499 207T502 188Q502 177 499 171T490 162T472 159H200ZM200 269Q189 269 183 271T173 280T170 298Q170 315 176 322T198 329H474Q490 329 496 322T502 298Q502 287
499 281T490 272T472 269H200Z" />
<glyph unicode="&#xa6;" horiz-adv-x="215" d="M112 297Q102 297 96 300T87 309T84 327V658Q84 669 86 675T95 684T113 687Q124 687 130 684T138 675T141 656V326Q141 315 139 309T130 300T112 297ZM112 -203Q102 -203 96 -200T87 -191T84 -173V158Q84 169 86
175T95 184T113 187Q124 187 130 184T138 175T141 156V-174Q141 -185 139 -191T130 -200T112 -203Z" />
<glyph unicode="&#xa7;" horiz-adv-x="560" d="M283 -226Q253 -226 222 -218T160 -195T106 -160T66 -114Q56 -97 55 -87T69 -66Q89 -53 99 -61T122 -88Q139 -112 166 -130T223 -157T279 -167Q330 -167 368 -154T427 -115T449 -48Q449 -12 427 11T369 50T290 77T206
105Q169 119 138 137T87 184T68 253Q68 291 82 321T123 372T184 404Q137 424 103 458T68 547Q68 600 93 635T165 689T272 707Q316 707 353 695T417 665T460 629Q473 614 473 606T463 585Q453 574 442 574T420 586Q404 604 379 618T326 640T271 648Q229 648 197
639T146 607T127 546Q127 515 147 494T202 458T277 430T358 403T433 369T487 322T508 252Q508 194 476 156T394 96Q441 75 474 43T508 -45Q508 -87 492 -120T447 -177T376 -213T283 -226ZM312 127Q352 132 382 146T431 185T449 249Q449 274 437 293T400 327T340
354T260 378Q197 368 162 339T127 252Q127 231 137 215T165 186T206 164T257 145T312 127Z" />
<glyph unicode="&#xa8;" horiz-adv-x="270" d="M190 568Q173 568 166 573T158 586T156 603Q156 612 157 619T166 632T190 637Q208 637 215 632T223 619T225 603Q225 595 224 587T215 573T190 568ZM80 568Q62 568 55 573T47 586T45 603Q45 612 46 619T55 632T80
637Q97 637 104 632T112 619T114 603Q114 595 113 587T104 573T80 568Z" />
<glyph unicode="&#xa9;" horiz-adv-x="650" d="M329 123Q256 123 204 138T119 187T71 273T55 401Q55 478 70 532T117 620T199 671T322 687Q395 687 447 671T531 621T579 534T595 404Q595 329 580 276T533 188T451 139T329 123ZM335 223Q284 223 244 247T180 312T157
407Q157 459 180 499T243 562T335 586Q361 586 379 582T408 571T424 562Q439 552 446 542T443 516Q436 507 429 506T416 509T401 517Q397 520 379 528T333 536Q296 536 268 519T223 473T206 405Q206 366 222 336T267 289T333 272Q352 272 366 276T389 286T401 292Q415
298 424 302T443 292Q454 276 446 265T424 246Q420 244 409 238T379 228T335 223ZM324 171Q384 171 426 184T495 225T534 297T547 405Q547 468 535 512T496 585T427 626T325 639Q265 639 223 626T155 585T116 512T103 404Q103 342 115 298T154 225T223 184T324
171Z" />
<glyph unicode="&#xaa;" horiz-adv-x="445" d="M369 687Q379 687 384 684T392 672T395 650V344Q395 332 393 325T384 314T368 311Q354 311 348 318T340 344V384Q329 362 310 345T264 319T204 310Q154 310 114 334T49 401T25 501Q25 557 49 599T113 664T204 687Q233
687 258 679T304 655T340 620V650Q340 670 346 678T369 687ZM215 362Q252 362 279 379T321 427T337 499Q337 541 322 572T278 620T213 637Q153 637 117 599T80 497Q80 457 97 427T144 379T215 362Z" />
<glyph unicode="&#xab;" horiz-adv-x="500" d="M539 -13Q531 -21 525 -24T512 -25T497 -15L282 200Q277 205 274 210T271 220Q271 225 274 230T282 240L497 455Q505 463 511 465T524 464T539 453Q547 445 549 439T549 426T538 411L347 220L538 29Q546 21 549 15T550
2T539 -13ZM473 -13Q465 -21 459 -24T446 -25T431 -15L216 200Q211 205 208 210T205 220Q205 225 208 230T216 240L431 455Q439 463 445 465T458 464T473 453Q481 445 483 439T483 426T472 411L281 220L472 29Q480 21 483 15T484 2T473 -13Z" />
<glyph unicode="&#xac;" horiz-adv-x="526" d="M453 133Q442 133 435 135T425 144T422 161V286H80Q69 286 63 288T53 297T50 315Q50 327 52 333T61 343T78 346H454Q470 346 476 339T482 315V163Q482 152 480 146T471 136T453 133Z" />
<glyph unicode="&#xae;" horiz-adv-x="650" d="M322 687Q395 687 447 671T531 621T579 534T595 404Q595 329 580 276T533 188T451 139T329 123Q256 123 204 138T119 187T71 273T55 401Q55 478 70 532T117 620T199 671T322 687ZM324 171Q384 171 426 184T495 225T534
297T547 405Q547 468 535 512T496 585T427 626T325 639Q265 639 223 626T155 585T116 512T103 404Q103 342 115 298T154 225T223 184T324 171ZM398 365L460 263Q465 256 465 250T462 238T450 228Q440 224 433 227T419 240L350 358H255V247Q255 240 253 235T245
227T232 224Q225 224 220 226T213 234T210 247V565Q210 572 212 577T220 584T233 587H346Q383 587 408 574T446 535T459 471Q459 445 445 413T398 365ZM255 541V402H360Q386 402 400 421T415 472Q415 507 398 524T345 541H255Z" />
<glyph unicode="&#xb0;" horiz-adv-x="314" d="M157 411Q120 411 89 430T38 480T19 549Q19 587 38 618T88 669T156 688Q195 688 226 670T276 620T295 550Q295 512 277 480T227 430T157 411ZM157 462Q194 462 219 488T244 551Q244 588 219 612T156 637Q120 637
95 612T69 550Q69 513 94 488T157 462Z" />
<glyph unicode="&#xb1;" horiz-adv-x="512" d="M55 226Q44 226 38 228T28 237T25 255Q25 267 27 273T36 283T53 286H459Q470 286 476 283T484 274T487 255Q487 244 484 238T475 229T457 226H55ZM257 105Q246 105 239 107T229 116T226 133V379Q226 390 229 396T239
404T257 407Q268 407 274 404T283 395T286 377V135Q286 124 284 118T275 108T257 105ZM55 -11Q44 -11 38 -9T28 0T25 18Q25 30 27 36T36 46T53 49H459Q470 49 476 46T484 37T487 18Q487 7 484 1T475 -8T457 -11H55Z" />
<glyph unicode="&#xb2;" horiz-adv-x="455" d="M61 194Q54 194 47 198T36 210T32 224Q32 233 31 243T35 264T56 286Q114 325 162 356T246 417T301 478T321 545Q321 578 308 601T269 636T206 648Q169 648 143 634T104 593T90 527Q90 515 88 509T79 499T61 496Q46
496 40 501T33 515T32 533Q32 587 53 625T113 684T206 705Q262 705 300 686T359 630T380 540Q380 515 373 492T349 445T305 396T239 341T147 278L107 252H374Q384 252 390 249T399 240T402 222Q402 213 399 207T390 197T373 194H61Z" />
<glyph unicode="&#xb3;" horiz-adv-x="457" d="M210 182Q163 182 124 200T59 249T30 320Q30 329 33 335T44 345T61 349Q81 349 84 339T92 313Q100 290 116 273T157 248T211 239Q246 239 273 251T315 286T330 338Q330 378 299 404T218 430Q204 430 196 433T185
443T181 461Q181 472 184 478T196 488T218 491Q258 491 284 510T310 558Q310 596 284 620T216 644Q191 644 172 638T138 620T113 589Q110 582 104 577T91 571Q84 571 79 573T67 580Q50 592 56 607Q65 628 81 645T118 675T163 694T215 701Q261 701 296 683T351 634T372
562Q372 533 357 506T315 462Q337 450 354 431T380 388T390 340Q390 295 367 259T303 203T210 182Z" />
<glyph unicode="&#xb4;" horiz-adv-x="296" d="M83 551Q68 546 61 549T48 567Q43 581 46 589T63 602L215 655Q229 660 237 656T249 637Q254 623 250 616T232 603L83 551Z" />
<glyph unicode="&#xb5;" horiz-adv-x="601" d="M102 -207Q93 -207 87 -204T78 -194T74 -178V438Q74 450 78 456T88 464T103 466Q114 466 120 463T129 454T132 436V201Q132 153 148 117T196 60T276 40Q325 40 360 60T414 116T433 201V437Q433 448 435 454T444 463T462
466Q472 466 478 463T486 454T489 436V16Q489 7 487 1T478 -7T461 -10Q454 -10 449 -9T441 -4T437 4T435 16V75Q422 58 406 43T371 15T327 -5T274 -12Q231 -12 195 2T131 45V-179Q131 -188 128 -194T118 -203T102 -207Z" />
<glyph unicode="&#xb6;" horiz-adv-x="466" d="M264 -252Q253 -252 247 -247T237 -231T234 -201V308Q160 306 116 319T53 366T34 457Q34 499 42 527T67 573T114 598T186 606H383Q394 606 400 601T408 586T411 556V-203Q411 -221 409 -231T400 -247T382 -252Q371
-252 365 -247T356 -231T353 -201V546H293V-203Q293 -221 291 -231T282 -247T264 -252Z" />
<glyph unicode="&#xb7;" horiz-adv-x="168" d="M84 248Q59 248 52 258T45 287Q45 301 50 313T84 326Q109 326 116 317T123 288Q123 273 118 261T84 248Z" />
<glyph unicode="&#xb8;" horiz-adv-x="246" d="M108 -173Q88 -173 67 -164T45 -145Q44 -137 51 -127Q59 -117 63 -115T71 -112Q75 -112 87 -118T109 -125Q127 -125 140 -113T153 -82Q153 -64 141 -51T109 -38Q92 -38 82 -45T69 -53Q66 -53 62 -50T51 -36Q47 -29
46 -25T45 -18Q47 -12 57 -6T81 5T109 10Q135 10 155 -2T188 -35T201 -81Q201 -106 189 -127T156 -160T108 -173Z" />
<glyph unicode="&#xb9;" horiz-adv-x="321" d="M202 189Q192 189 186 192T177 201T174 219V606Q155 591 135 577T95 547Q82 537 74 537T54 549Q44 561 45 570T59 590L174 677Q182 682 188 684T203 687Q219 687 225 680T231 656V218Q231 207 229 201T220 192T202 189Z" />
<glyph unicode="&#xba;" horiz-adv-x="439" d="M233 311Q179 311 138 334T74 400T51 498Q51 554 74 596T138 661T233 685Q287 685 327 662T389 597T411 499Q411 443 389 401T327 335T233 311ZM233 365Q288 365 321 402T355 501Q355 560 322 595T233 631Q176 631
142 595T107 500Q107 439 141 402T233 365Z" />
<glyph unicode="&#xbb;" horiz-adv-x="486" d="M269 -13Q261 -5 259 1T259 14T270 29L461 220L270 411Q262 419 259 425T258 438T269 453Q277 461 283 464T297 465T311 455L526 240Q531 235 534 230T537 220Q537 216 534 211T526 200L311 -15Q304 -22 297 -24T284
-24T269 -13ZM203 -13Q195 -5 193 1T193 14T204 29L395 220L204 411Q196 419 193 425T192 438T203 453Q211 461 217 464T231 465T245 455L460 240Q465 235 468 230T471 220Q471 216 468 211T460 200L245 -15Q238 -22 231 -24T218 -24T203 -13Z" />
<glyph unicode="&#xbc;" horiz-adv-x="786" d="M152 -27Q143 -22 140 -16T138 1T149 27L506 702Q514 717 520 724T535 732T552 728Q561 723 564 717T565 700T554 674L196 -1Q189 -15 182 -22T168 -31T152 -27ZM678 -11Q667 -11 661 -8T652 1T649 19V104H465Q449
104 442 111T435 134Q435 139 436 143T438 153L511 391Q518 413 524 416T546 417Q557 416 563 411T570 399T569 381L502 158H649V388Q649 397 652 402T662 410T680 412Q691 412 697 409T706 400T709 382V17Q709 7 706 1T697 -8T678 -11ZM193 339Q183 339 177 342T168
351T165 369V632Q153 622 141 612T116 591Q103 580 95 580T75 593Q65 605 66 614T80 634L165 706Q173 713 178 715T194 717Q210 717 216 710T222 686V368Q222 357 220 351T211 342T193 339Z" />
<glyph unicode="&#xbd;" horiz-adv-x="804" d="M162 -27Q153 -22 150 -16T148 1T159 27L516 702Q524 717 530 724T545 732T562 728Q571 723 574 717T575 700T564 674L206 -1Q199 -15 192 -22T178 -31T162 -27ZM223 339Q213 339 207 342T198 351T195 369V632Q183
622 171 612T146 591Q133 581 125 581T105 593Q95 605 96 614T110 634L195 706Q203 713 208 715T224 717Q240 717 246 710T252 686V368Q252 357 250 351T241 342T223 339ZM483 -11Q477 -11 472 -7T463 5T459 18Q459 26 458 34T461 52T479 71Q527 103 566 129T635
179T681 228T697 284Q697 307 687 323T656 347T604 356Q573 356 552 345T521 313T510 259Q510 249 508 244T500 236T483 233Q469 233 463 237T457 249T456 264Q456 309 474 342T525 392T604 410Q650 410 683 394T734 348T752 279Q752 253 742 229T710 179T650 126T556
62L527 44H744Q752 44 757 41T764 31T767 14Q767 6 765 1T757 -8T743 -11H483Z" />
<glyph unicode="&#xbe;" horiz-adv-x="842" d="M218 -27Q209 -22 206 -16T204 1T215 27L572 702Q580 717 586 724T601 732T618 728Q627 723 630 717T631 700T620 674L262 -1Q255 -15 248 -22T234 -31T218 -27ZM217 337Q183 337 154 350T106 387T85 439Q85 447
88 452T97 460T111 463Q128 463 131 455T137 436Q143 420 154 409T181 391T218 385Q253 385 276 404T299 452Q299 478 278 495T223 513Q207 513 200 519T192 539Q192 553 199 559T223 565Q250 565 267 577T284 608Q284 634 267 649T221 665Q205 665 192 662T170
650T152 630Q149 623 144 618T132 613Q121 613 110 623T104 645Q113 666 130 681T171 705T220 714Q254 714 280 701T321 664T336 611Q336 592 326 573T299 540Q322 527 335 503T349 453Q349 420 332 394T285 352T217 337ZM728 -11Q717 -11 711 -8T702 1T699 19V104H515Q499
104 492 111T485 134Q485 139 486 143T488 153L561 391Q568 413 574 416T596 417Q607 416 613 411T620 399T619 381L552 158H699V388Q699 397 702 402T712 410T730 412Q741 412 747 409T756 400T759 382V17Q759 7 756 1T747 -8T728 -11Z" />
<glyph unicode="&#xbf;" horiz-adv-x="474" d="M241 311Q252 311 257 309T265 300T267 282V158Q267 142 256 133T226 117T187 100T149 75T119 33T107 -35Q107 -99 142 -134T244 -170Q277 -170 303 -159T349 -128T379 -81Q382 -74 385 -71T396 -67T413 -69Q422
-71 426 -75T432 -84T431 -99Q426 -122 414 -141T385 -175T346 -200T299 -215T244 -221Q182 -221 139 -199T73 -136T50 -37Q50 -9 56 16T76 65T110 107T157 142T218 167L212 157V282Q212 293 214 299T223 308T241 311ZM239 492Q263 492 270 483T278 453Q278 444
277 435T267 420T239 414Q214 414 207 423T200 453Q200 463 201 471T211 486T239 492Z" />
<glyph unicode="&#xc0;" horiz-adv-x="701" d="M681 32Q686 23 686 16T683 3T668 -8Q652 -15 643 -10T626 10L350 604L75 12Q68 -3 59 -8T32 -7Q22 -3 18 3T16 20T24 43L323 669Q327 677 334 682T351 687Q357 687 362 685T371 679T378 668L681 32ZM152 207L172
257H530L549 207H152ZM362 751L213 803Q200 808 196 815T196 837Q201 852 209 856T230 855L382 802Q396 797 399 789T397 767Q392 752 385 749T362 751Z" />
<glyph unicode="&#xc1;" horiz-adv-x="701" d="M681 32Q686 23 686 16T683 3T668 -8Q652 -15 643 -10T626 10L350 604L75 12Q68 -3 59 -8T32 -7Q22 -3 18 3T16 20T24 43L323 669Q327 677 334 682T351 687Q357 687 362 685T371 679T378 668L681 32ZM152 207L172
257H530L549 207H152ZM322 741Q307 736 300 739T287 757Q282 771 285 779T302 792L454 845Q468 850 476 846T488 827Q493 813 489 806T471 793L322 741Z" />
<glyph unicode="&#xc2;" horiz-adv-x="701" d="M681 32Q686 23 686 16T683 3T668 -8Q652 -15 643 -10T626 10L350 604L75 12Q68 -3 59 -8T32 -7Q22 -3 18 3T16 20T24 43L323 669Q327 677 334 682T351 687Q357 687 362 685T371 679T378 668L681 32ZM152 207L172
257H530L549 207H152ZM347 854Q351 854 353 854T360 851L459 799Q476 792 480 784T476 761Q468 747 460 745T442 748L347 801L252 748Q243 743 235 745T218 763Q211 777 215 784T235 799L334 851Q338 853 340 853T347 854Z" />
<glyph unicode="&#xc3;" horiz-adv-x="701" d="M681 32Q686 23 686 16T683 3T668 -8Q652 -15 643 -10T626 10L350 604L75 12Q68 -3 59 -8T32 -7Q22 -3 18 3T16 20T24 43L323 669Q327 677 334 682T351 687Q357 687 362 685T371 679T378 668L681 32ZM152 207L172
257H530L549 207H152ZM290 833Q315 833 333 822T366 799T396 788Q403 788 410 792T424 802T434 815Q438 825 449 828T470 825Q476 822 481 817T486 806Q486 787 474 771T441 744T396 734Q378 734 360 745T324 767T290 779Q279 779 267 772T249 753Q245 746 235
744T214 745Q206 750 203 759T203 777Q210 792 224 805T255 825T290 833Z" />
<glyph unicode="&#xc4;" horiz-adv-x="701" d="M681 32Q686 23 686 16T683 3T668 -8Q652 -15 643 -10T626 10L350 604L75 12Q68 -3 59 -8T32 -7Q22 -3 18 3T16 20T24 43L323 669Q327 677 334 682T351 687Q357 687 362 685T371 679T378 668L681 32ZM152 207L172
257H530L549 207H152ZM405 768Q388 768 381 773T373 786T371 803Q371 812 372 819T381 832T405 837Q423 837 430 832T438 819T440 803Q440 795 439 787T430 773T405 768ZM295 768Q277 768 270 773T262 786T260 803Q260 812 261 819T270 832T295 837Q312 837 319
832T327 819T329 803Q329 795 328 787T319 773T295 768Z" />
<glyph unicode="&#xc5;" horiz-adv-x="701" d="M681 32Q686 23 686 16T683 3T668 -8Q652 -15 643 -10T626 10L350 604L75 12Q68 -3 59 -8T32 -7Q22 -3 18 3T16 20T24 43L323 669Q327 677 334 682T351 687Q357 687 362 685T371 679T378 668L681 32ZM152 207L172
257H530L549 207H152ZM347 744Q319 744 296 758T259 795T244 847Q244 875 258 898T295 936T346 950Q375 950 398 937T436 900T450 848Q450 819 436 796T399 758T347 744ZM347 789Q371 789 387 806T404 849Q404 873 388 889T346 905Q322 905 306 888T289 848Q289
823 305 806T347 789Z" />
<glyph unicode="&#xc6;" horiz-adv-x="1148" d="M644 -11Q637 -11 630 -7T619 5T614 21V634L92 -3Q86 -12 80 -14T66 -13T51 -1Q42 9 41 15T42 28T53 43L578 677Q583 684 589 685T607 687H1059Q1070 687 1076 684T1085 675T1088 657Q1088 646 1086 640T1079 630T1064
627H675V371H943Q954 371 960 368T969 359T972 341Q972 330 969 324T960 314T942 311H675V49H1065Q1074 49 1079 46T1086 37T1088 19Q1088 8 1085 2T1076 -8T1058 -11H644ZM222 205L250 254H636V205H222Z" />
<glyph unicode="&#xc7;" horiz-adv-x="679" d="M407 -10Q348 -10 296 7T201 55T127 131T79 230T62 347Q62 408 79 461T127 556T201 628T296 675T407 693Q457 693 492 684T549 663T580 646Q592 639 603 630T617 609Q619 599 617 594T611 584Q607 577 601 574T588
571Q579 571 572 577T554 590Q548 594 528 604T477 623T403 632Q343 632 292 611T202 552T143 460T122 342Q122 277 143 224T202 132T291 72T403 51Q445 51 476 60T528 79T554 93Q565 99 572 105T588 111Q595 111 601 109T611 99Q614 95 616 89T617 73Q615 62 604
53T580 36Q571 31 549 20T491 -1T407 -10ZM374 -157Q354 -157 333 -148T311 -129Q310 -121 317 -111Q325 -101 329 -99T337 -96Q341 -96 353 -102T375 -109Q393 -109 406 -97T419 -66Q419 -48 407 -35T375 -22Q358 -22 348 -29T335 -37Q332 -37 328 -34T317 -20Q313
-13 312 -9T311 -2Q313 4 323 10T347 21T375 26Q401 26 421 14T454 -19T467 -65Q467 -90 455 -111T422 -144T374 -157Z" />
<glyph unicode="&#xc8;" horiz-adv-x="630" d="M118 -11Q107 -11 101 -8T92 2T89 20V657Q89 674 96 680T121 687H535Q546 687 552 684T561 675T564 656Q564 645 561 639T552 630T534 627H148V380H419Q430 380 436 377T446 368T449 349Q449 338 446 332T436 323T417
320H148V49H535Q546 49 552 46T561 37T564 19Q564 8 561 2T552 -8T534 -11H118ZM323 751L174 803Q161 808 157 815T157 837Q162 852 170 856T191 855L343 802Q357 797 360 789T358 767Q353 752 346 749T323 751Z" />
<glyph unicode="&#xc9;" horiz-adv-x="630" d="M118 -11Q107 -11 101 -8T92 2T89 20V657Q89 674 96 680T121 687H535Q546 687 552 684T561 675T564 656Q564 645 561 639T552 630T534 627H148V380H419Q430 380 436 377T446 368T449 349Q449 338 446 332T436 323T417
320H148V49H535Q546 49 552 46T561 37T564 19Q564 8 561 2T552 -8T534 -11H118ZM301 747Q286 742 279 745T266 763Q261 777 264 785T281 798L433 851Q447 856 455 852T467 833Q472 819 468 812T450 799L301 747Z" />
<glyph unicode="&#xca;" horiz-adv-x="630" d="M118 -11Q107 -11 101 -8T92 2T89 20V657Q89 674 96 680T121 687H535Q546 687 552 684T561 675T564 656Q564 645 561 639T552 630T534 627H148V380H419Q430 380 436 377T446 368T449 349Q449 338 446 332T436 323T417
320H148V49H535Q546 49 552 46T561 37T564 19Q564 8 561 2T552 -8T534 -11H118ZM319 854Q323 854 325 854T332 851L431 799Q448 792 452 784T448 761Q440 747 432 745T414 748L319 801L224 748Q215 743 207 745T190 763Q183 777 187 784T207 799L306 851Q310 853
312 853T319 854Z" />
<glyph unicode="&#xcb;" horiz-adv-x="630" d="M118 -11Q107 -11 101 -8T92 2T89 20V657Q89 674 96 680T121 687H535Q546 687 552 684T561 675T564 656Q564 645 561 639T552 630T534 627H148V380H419Q430 380 436 377T446 368T449 349Q449 338 446 332T436 323T417
320H148V49H535Q546 49 552 46T561 37T564 19Q564 8 561 2T552 -8T534 -11H118ZM377 768Q360 768 353 773T345 786T343 803Q343 812 344 819T353 832T377 837Q395 837 402 832T410 819T412 803Q412 795 411 787T402 773T377 768ZM267 768Q249 768 242 773T234 786T232
803Q232 812 233 819T242 832T267 837Q284 837 291 832T299 819T301 803Q301 795 300 787T291 773T267 768Z" />
<glyph unicode="&#xcc;" horiz-adv-x="209" d="M104 -11Q93 -11 87 -8T78 2T75 20V657Q75 668 78 674T87 684T105 687Q116 687 122 684T131 675T134 656V19Q134 8 131 2T122 -8T104 -11ZM104 751L-45 803Q-58 808 -62 815T-62 837Q-57 852 -49 856T-28 855L124
802Q138 797 141 789T139 767Q134 752 127 749T104 751Z" />
<glyph unicode="&#xcd;" horiz-adv-x="209" d="M104 -11Q93 -11 87 -8T78 2T75 20V657Q75 668 78 674T87 684T105 687Q116 687 122 684T131 675T134 656V19Q134 8 131 2T122 -8T104 -11ZM75 741Q60 736 53 739T40 757Q35 771 38 779T55 792L207 845Q221 850 229
846T241 827Q246 813 242 806T224 793L75 741Z" />
<glyph unicode="&#xce;" horiz-adv-x="209" d="M104 -11Q93 -11 87 -8T78 2T75 20V657Q75 668 78 674T87 684T105 687Q116 687 122 684T131 675T134 656V19Q134 8 131 2T122 -8T104 -11ZM100 854Q104 854 106 854T113 851L212 799Q229 792 233 784T229 761Q221
747 213 745T195 748L100 801L5 748Q-4 743 -12 745T-29 763Q-36 777 -32 784T-12 799L87 851Q91 853 93 853T100 854Z" />
<glyph unicode="&#xcf;" horiz-adv-x="209" d="M104 -11Q93 -11 87 -8T78 2T75 20V657Q75 668 78 674T87 684T105 687Q116 687 122 684T131 675T134 656V19Q134 8 131 2T122 -8T104 -11ZM158 768Q141 768 134 773T126 786T124 803Q124 812 125 819T134 832T158
837Q176 837 183 832T191 819T193 803Q193 795 192 787T183 773T158 768ZM48 768Q30 768 23 773T15 786T13 803Q13 812 14 819T23 832T48 837Q65 837 72 832T80 819T82 803Q82 795 81 787T72 773T48 768Z" />
<glyph unicode="&#xd0;" horiz-adv-x="734" d="M146 -11Q137 -11 131 -7T121 4T117 20V658Q117 668 120 674T131 684T147 688L352 687Q427 687 486 664T587 596T650 487T672 342Q672 259 650 194T587 83T485 13T349 -11H146ZM176 49H352Q434 49 492 83T581 182T612
337Q612 428 581 493T492 592T351 627H176V49ZM55 316Q44 316 38 318T28 327T25 345Q25 357 27 363T36 373T53 376H329Q340 376 346 373T354 364T357 345Q357 334 354 328T345 319T327 316H55Z" />
<glyph unicode="&#xd1;" horiz-adv-x="720" d="M105 -10Q96 -10 90 -7T81 4T77 21V661Q77 670 81 675T92 684T110 687Q125 687 132 686T146 676L564 79V661Q564 670 567 675T578 684T595 687Q604 687 610 684T620 673T623 656V20Q623 10 619 4T606 -6T588 -10Q578
-10 570 -7T554 6L136 596V20Q136 10 133 4T122 -6T105 -10ZM303 833Q328 833 346 822T379 799T409 788Q416 788 423 792T437 802T447 815Q451 825 462 828T483 825Q489 822 494 817T499 806Q499 787 487 771T454 744T409 734Q391 734 373 745T337 767T303 779Q292
779 280 772T262 753Q258 746 248 744T227 745Q219 750 216 759T216 777Q223 792 237 805T268 825T303 833Z" />
<glyph unicode="&#xd2;" horiz-adv-x="735" d="M373 -16Q302 -16 240 11T131 86T57 197T30 332Q30 406 56 471T128 585T234 662T364 690Q435 690 497 663T605 588T678 475T705 336Q705 264 679 201T607 88T501 12T373 -16ZM367 44Q425 44 475 66T564 129T623 223T645
337Q645 397 624 450T564 543T475 607T368 630Q311 630 261 607T172 544T112 451T90 336Q90 276 112 223T172 130T260 67T367 44ZM372 751L223 803Q210 808 206 815T206 837Q211 852 219 856T240 855L392 802Q406 797 409 789T407 767Q402 752 395 749T372 751Z"
/>
<glyph unicode="&#xd3;" horiz-adv-x="735" d="M373 -16Q302 -16 240 11T131 86T57 197T30 332Q30 406 56 471T128 585T234 662T364 690Q435 690 497 663T605 588T678 475T705 336Q705 264 679 201T607 88T501 12T373 -16ZM367 44Q425 44 475 66T564 129T623 223T645
337Q645 397 624 450T564 543T475 607T368 630Q311 630 261 607T172 544T112 451T90 336Q90 276 112 223T172 130T260 67T367 44ZM343 741Q328 736 321 739T308 757Q303 771 306 779T323 792L475 845Q489 850 497 846T509 827Q514 813 510 806T492 793L343 741Z"
/>
<glyph unicode="&#xd4;" horiz-adv-x="735" d="M373 -16Q302 -16 240 11T131 86T57 197T30 332Q30 406 56 471T128 585T234 662T364 690Q435 690 497 663T605 588T678 475T705 336Q705 264 679 201T607 88T501 12T373 -16ZM367 44Q425 44 475 66T564 129T623 223T645
337Q645 397 624 450T564 543T475 607T368 630Q311 630 261 607T172 544T112 451T90 336Q90 276 112 223T172 130T260 67T367 44ZM368 854Q372 854 374 854T381 851L480 799Q497 792 501 784T497 761Q489 747 481 745T463 748L368 801L273 748Q264 743 256 745T239
763Q232 777 236 784T256 799L355 851Q359 853 361 853T368 854Z" />
<glyph unicode="&#xd5;" horiz-adv-x="735" d="M373 -16Q302 -16 240 11T131 86T57 197T30 332Q30 406 56 471T128 585T234 662T364 690Q435 690 497 663T605 588T678 475T705 336Q705 264 679 201T607 88T501 12T373 -16ZM367 44Q425 44 475 66T564 129T623 223T645
337Q645 397 624 450T564 543T475 607T368 630Q311 630 261 607T172 544T112 451T90 336Q90 276 112 223T172 130T260 67T367 44ZM311 833Q336 833 354 822T387 799T417 788Q424 788 431 792T445 802T455 815Q459 825 470 828T491 825Q497 822 502 817T507 806Q507
787 495 771T462 744T417 734Q399 734 381 745T345 767T311 779Q300 779 288 772T270 753Q266 746 256 744T235 745Q227 750 224 759T224 777Q231 792 245 805T276 825T311 833Z" />
<glyph unicode="&#xd6;" horiz-adv-x="735" d="M373 -16Q302 -16 240 11T131 86T57 197T30 332Q30 406 56 471T128 585T234 662T364 690Q435 690 497 663T605 588T678 475T705 336Q705 264 679 201T607 88T501 12T373 -16ZM367 44Q425 44 475 66T564 129T623 223T645
337Q645 397 624 450T564 543T475 607T368 630Q311 630 261 607T172 544T112 451T90 336Q90 276 112 223T172 130T260 67T367 44ZM426 768Q409 768 402 773T394 786T392 803Q392 812 393 819T402 832T426 837Q444 837 451 832T459 819T461 803Q461 795 460 787T451
773T426 768ZM316 768Q298 768 291 773T283 786T281 803Q281 812 282 819T291 832T316 837Q333 837 340 832T348 819T350 803Q350 795 349 787T340 773T316 768Z" />
<glyph unicode="&#xd7;" horiz-adv-x="442" d="M263 256L384 135Q392 128 395 121T396 108T385 93Q377 85 371 82T358 81T343 91L221 214L100 93Q93 85 86 82T73 81T58 92Q50 100 47 106T46 120T56 134L178 256L56 378Q49 386 47 392T47 405T58 420Q66 428 72
430T86 430T100 419L221 299L343 421Q351 429 357 431T370 430T385 419Q393 411 395 405T395 392T384 377L263 256Z" />
<glyph unicode="&#xd8;" horiz-adv-x="735" d="M373 -16Q302 -16 240 11T131 86T57 197T30 332Q30 406 56 471T128 585T234 662T364 690Q435 690 497 663T605 588T678 475T705 336Q705 264 679 201T607 88T501 12T373 -16ZM367 44Q425 44 475 66T564 129T623 223T645
337Q645 397 624 450T564 543T475 607T368 630Q311 630 261 607T172 544T112 451T90 336Q90 276 112 223T172 130T260 67T367 44ZM192 -26Q178 -19 176 -10T180 14L499 687Q507 702 515 705T539 701Q553 694 555 685T551 661L233 -12Q226 -27 217 -30T192 -26Z"
/>
<glyph unicode="&#xd9;" horiz-adv-x="726" d="M361 -11Q297 -11 246 10T160 71T106 169T87 300V657Q87 668 90 674T99 684T117 687Q129 687 135 684T145 675T148 656V300Q148 222 173 166T247 79T364 48Q432 48 480 78T553 165T579 301V663Q579 672 582 677T592
684T610 687Q621 687 627 684T636 675T639 656V298Q639 225 621 168T566 71T479 10T361 -11ZM365 751L216 803Q203 808 199 815T199 837Q204 852 212 856T233 855L385 802Q399 797 402 789T400 767Q395 752 388 749T365 751Z" />
<glyph unicode="&#xda;" horiz-adv-x="726" d="M361 -11Q297 -11 246 10T160 71T106 169T87 300V657Q87 668 90 674T99 684T117 687Q129 687 135 684T145 675T148 656V300Q148 222 173 166T247 79T364 48Q432 48 480 78T553 165T579 301V663Q579 672 582 677T592
684T610 687Q621 687 627 684T636 675T639 656V298Q639 225 621 168T566 71T479 10T361 -11ZM336 741Q321 736 314 739T301 757Q296 771 299 779T316 792L468 845Q482 850 490 846T502 827Q507 813 503 806T485 793L336 741Z" />
<glyph unicode="&#xdb;" horiz-adv-x="726" d="M361 -11Q297 -11 246 10T160 71T106 169T87 300V657Q87 668 90 674T99 684T117 687Q129 687 135 684T145 675T148 656V300Q148 222 173 166T247 79T364 48Q432 48 480 78T553 165T579 301V663Q579 672 582 677T592
684T610 687Q621 687 627 684T636 675T639 656V298Q639 225 621 168T566 71T479 10T361 -11ZM361 854Q365 854 367 854T374 851L473 799Q490 792 494 784T490 761Q482 747 474 745T456 748L361 801L266 748Q257 743 249 745T232 763Q225 777 229 784T249 799L348
851Q352 853 354 853T361 854Z" />
<glyph unicode="&#xdc;" horiz-adv-x="726" d="M361 -11Q297 -11 246 10T160 71T106 169T87 300V657Q87 668 90 674T99 684T117 687Q129 687 135 684T145 675T148 656V300Q148 222 173 166T247 79T364 48Q432 48 480 78T553 165T579 301V663Q579 672 582 677T592
684T610 687Q621 687 627 684T636 675T639 656V298Q639 225 621 168T566 71T479 10T361 -11ZM419 768Q402 768 395 773T387 786T385 803Q385 812 386 819T395 832T419 837Q437 837 444 832T452 819T454 803Q454 795 453 787T444 773T419 768ZM309 768Q291 768 284
773T276 786T274 803Q274 812 275 819T284 832T309 837Q326 837 333 832T341 819T343 803Q343 795 342 787T333 773T309 768Z" />
<glyph unicode="&#xdd;" horiz-adv-x="638" d="M588 688Q601 678 603 670T597 650L350 274V19Q350 8 347 2T338 -8T320 -11Q309 -11 303 -8T293 2T290 21V275L41 648Q34 659 36 667T52 686Q62 693 68 695T81 694T92 682L320 326L547 682Q552 690 557 693T570 695T588
688ZM294 741Q279 736 272 739T259 757Q254 771 257 779T274 792L426 845Q440 850 448 846T460 827Q465 813 461 806T443 793L294 741Z" />
<glyph unicode="&#xde;" horiz-adv-x="588" d="M104 -11Q93 -11 87 -8T78 2T75 20V657Q75 668 78 674T87 684T105 687Q116 687 122 684T132 675T135 656V558H330Q374 558 412 541T480 495T527 426T544 341Q544 296 527 257T481 189T412 143T329 126H135V19Q135
8 132 2T123 -8T104 -11ZM135 186H330Q373 186 408 207T464 263T485 342Q485 386 464 421T408 477T329 498H135V186Z" />
<glyph unicode="&#xdf;" horiz-adv-x="582" d="M103 -21Q93 -21 87 -19T78 -10T75 8V467Q75 534 98 581T167 653T279 678Q332 678 366 657T416 606T433 548Q433 509 421 485T394 443T366 407T354 363Q354 338 371 324T415 298T466 270T509 228T527 155Q527 121
514 93T478 44T424 12T357 0Q320 0 288 9T231 36Q220 44 222 52T229 72Q233 82 239 85T252 89T266 83Q276 78 287 71T314 58T351 53Q382 53 409 63T454 95T471 154Q471 189 453 209T409 243T357 270T313 303T295 353Q295 389 307 410T335 449T363 488T375 548Q375
569 364 586T332 614T279 625Q233 625 205 613T160 581T138 533T132 476V6Q132 -4 129 -10T120 -18T103 -21Z" />
<glyph unicode="&#xe0;" horiz-adv-x="580" d="M488 -10Q474 -10 468 -3T460 23V90Q449 71 426 48T365 7T274 -11Q225 -11 184 7T111 59T63 135T45 230Q45 279 62 321T111 396T184 447T274 466Q321 466 354 454T413 421T460 372V429Q460 449 466 457T489 466Q499
466 504 463T512 451T515 429V23Q515 11 513 4T504 -7T488 -10ZM285 41Q333 41 372 65T434 132T457 228Q457 285 433 327T370 392T283 416Q228 416 187 391T123 324T100 226Q100 173 123 131T188 65T285 41ZM299 551L150 603Q137 608 133 615T133 637Q138 652 146
656T167 655L319 602Q333 597 336 589T334 567Q329 552 322 549T299 551Z" />
<glyph unicode="&#xe1;" horiz-adv-x="580" d="M488 -10Q474 -10 468 -3T460 23V90Q449 71 426 48T365 7T274 -11Q225 -11 184 7T111 59T63 135T45 230Q45 279 62 321T111 396T184 447T274 466Q321 466 354 454T413 421T460 372V429Q460 449 466 457T489 466Q499
466 504 463T512 451T515 429V23Q515 11 513 4T504 -7T488 -10ZM285 41Q333 41 372 65T434 132T457 228Q457 285 433 327T370 392T283 416Q228 416 187 391T123 324T100 226Q100 173 123 131T188 65T285 41ZM266 547Q251 542 244 545T231 563Q226 577 229 585T246
598L398 651Q412 656 420 652T432 633Q437 619 433 612T415 599L266 547Z" />
<glyph unicode="&#xe2;" horiz-adv-x="580" d="M488 -10Q474 -10 468 -3T460 23V90Q449 71 426 48T365 7T274 -11Q225 -11 184 7T111 59T63 135T45 230Q45 279 62 321T111 396T184 447T274 466Q321 466 354 454T413 421T460 372V429Q460 449 466 457T489 466Q499
466 504 463T512 451T515 429V23Q515 11 513 4T504 -7T488 -10ZM285 41Q333 41 372 65T434 132T457 228Q457 285 433 327T370 392T283 416Q228 416 187 391T123 324T100 226Q100 173 123 131T188 65T285 41ZM283 654Q287 654 289 654T296 651L395 599Q412 592 416
584T412 561Q404 547 396 545T378 548L283 601L188 548Q179 543 171 545T154 563Q147 577 151 584T171 599L270 651Q274 653 276 653T283 654Z" />
<glyph unicode="&#xe3;" horiz-adv-x="580" d="M488 -10Q474 -10 468 -3T460 23V90Q449 71 426 48T365 7T274 -11Q225 -11 184 7T111 59T63 135T45 230Q45 279 62 321T111 396T184 447T274 466Q321 466 354 454T413 421T460 372V429Q460 449 466 457T489 466Q499
466 504 463T512 451T515 429V23Q515 11 513 4T504 -7T488 -10ZM285 41Q333 41 372 65T434 132T457 228Q457 285 433 327T370 392T283 416Q228 416 187 391T123 324T100 226Q100 173 123 131T188 65T285 41ZM220 653Q245 653 263 642T296 619T326 608Q333 608 340
612T354 622T364 635Q368 645 379 648T400 645Q406 642 411 637T416 626Q416 607 404 591T371 564T326 554Q308 554 290 565T254 587T220 599Q209 599 197 592T179 573Q175 566 165 564T144 565Q136 570 133 579T133 597Q140 612 154 625T185 645T220 653Z" />
<glyph unicode="&#xe4;" horiz-adv-x="580" d="M488 -10Q474 -10 468 -3T460 23V90Q449 71 426 48T365 7T274 -11Q225 -11 184 7T111 59T63 135T45 230Q45 279 62 321T111 396T184 447T274 466Q321 466 354 454T413 421T460 372V429Q460 449 466 457T489 466Q499
466 504 463T512 451T515 429V23Q515 11 513 4T504 -7T488 -10ZM285 41Q333 41 372 65T434 132T457 228Q457 285 433 327T370 392T283 416Q228 416 187 391T123 324T100 226Q100 173 123 131T188 65T285 41ZM342 568Q325 568 318 573T310 586T308 603Q308 612 309
619T318 632T342 637Q360 637 367 632T375 619T377 603Q377 595 376 587T367 573T342 568ZM232 568Q214 568 207 573T199 586T197 603Q197 612 198 619T207 632T232 637Q249 637 256 632T264 619T266 603Q266 595 265 587T256 573T232 568Z" />
<glyph unicode="&#xe5;" horiz-adv-x="580" d="M488 -10Q474 -10 468 -3T460 23V90Q449 71 426 48T365 7T274 -11Q225 -11 184 7T111 59T63 135T45 230Q45 279 62 321T111 396T184 447T274 466Q321 466 354 454T413 421T460 372V429Q460 449 466 457T489 466Q499
466 504 463T512 451T515 429V23Q515 11 513 4T504 -7T488 -10ZM285 41Q333 41 372 65T434 132T457 228Q457 285 433 327T370 392T283 416Q228 416 187 391T123 324T100 226Q100 173 123 131T188 65T285 41ZM284 519Q256 519 233 533T196 570T181 622Q181 650 195
673T232 711T283 725Q312 725 335 712T373 675T387 623Q387 594 373 571T336 533T284 519ZM284 564Q308 564 324 581T341 624Q341 648 325 664T283 680Q259 680 243 663T226 623Q226 598 242 581T284 564Z" />
<glyph unicode="&#xe6;" horiz-adv-x="897" d="M260 463Q296 463 330 452T393 415T440 350Q461 385 492 410T565 450T653 464Q699 464 737 450T803 412T846 357T862 293Q862 244 840 227T785 209H470Q469 169 485 138T528 84T589 51T656 39Q692 39 716 44T757
56T785 70T807 81Q812 83 818 83T828 77Q833 70 835 65T837 52Q837 43 813 28T748 0T657 -13Q607 -13 566 1T492 43T440 108Q424 75 396 48T321 4T203 -13Q129 -13 82 21T35 110Q35 150 56 180T119 227T216 245Q237 245 259 243T302 238T342 229T379 219T409 207Q409
270 396 316T352 387T264 412Q245 412 224 409T183 399T145 383T117 362Q101 345 90 344T68 355Q58 366 61 376T82 401Q110 424 137 437T194 457T260 463ZM470 257H768Q788 257 799 261T810 291Q810 324 790 351T734 396T654 413Q604 413 562 393T494 338T470 257ZM223
35Q255 35 286 43T344 68T388 106T411 156Q393 167 364 176T301 192T236 198Q181 198 149 187T104 158T90 116Q90 79 121 57T223 35Z" />
<glyph unicode="&#xe7;" horiz-adv-x="524" d="M292 -11Q237 -11 192 6T113 54T63 129T45 227Q45 281 62 324T112 400T190 449T290 466Q323 466 357 455T420 425T460 383Q467 370 467 364T462 352Q456 345 449 341T435 337Q423 337 412 351Q402 365 388 376T358
395T324 407T290 412Q234 412 192 389T127 325T104 227Q104 172 127 131T191 66T288 43Q311 43 334 49T378 66T414 93Q422 100 427 104T441 109Q447 109 452 105T464 92Q468 88 469 83T469 71T462 60Q441 39 412 23T351 -2T292 -11ZM278 -173Q258 -173 237 -164T215
-145Q214 -137 221 -127Q229 -117 233 -115T241 -112Q245 -112 257 -118T279 -125Q297 -125 310 -113T323 -82Q323 -64 311 -51T279 -38Q262 -38 252 -45T239 -53Q236 -53 232 -50T221 -36Q217 -29 216 -25T215 -18Q217 -12 227 -6T251 5T279 10Q305 10 325 -2T358
-35T371 -81Q371 -106 359 -127T326 -160T278 -173Z" />
<glyph unicode="&#xe8;" horiz-adv-x="542" d="M292 -13Q237 -13 192 5T114 56T63 134T45 234Q45 299 76 351T162 433T288 464Q334 464 372 450T438 412T481 357T497 293Q497 244 475 227T420 209H105Q103 156 131 118T203 60T291 39Q320 39 341 42T378 50T405
61T425 72T442 81Q447 83 453 83T463 77Q468 70 470 65T472 52Q472 43 448 28T383 0T292 -13ZM105 257H403Q423 257 434 261T445 291Q445 324 425 351T369 396T289 413Q239 413 197 393T129 338T105 257ZM286 551L137 603Q124 608 120 615T120 637Q125 652 133
656T154 655L306 602Q320 597 323 589T321 567Q316 552 309 549T286 551Z" />
<glyph unicode="&#xe9;" horiz-adv-x="542" d="M292 -13Q237 -13 192 5T114 56T63 134T45 234Q45 299 76 351T162 433T288 464Q334 464 372 450T438 412T481 357T497 293Q497 244 475 227T420 209H105Q103 156 131 118T203 60T291 39Q320 39 341 42T378 50T405
61T425 72T442 81Q447 83 453 83T463 77Q468 70 470 65T472 52Q472 43 448 28T383 0T292 -13ZM105 257H403Q423 257 434 261T445 291Q445 324 425 351T369 396T289 413Q239 413 197 393T129 338T105 257ZM253 547Q238 542 231 545T218 563Q213 577 216 585T233
598L385 651Q399 656 407 652T419 633Q424 619 420 612T402 599L253 547Z" />
<glyph unicode="&#xea;" horiz-adv-x="542" d="M292 -13Q237 -13 192 5T114 56T63 134T45 234Q45 299 76 351T162 433T288 464Q334 464 372 450T438 412T481 357T497 293Q497 244 475 227T420 209H105Q103 156 131 118T203 60T291 39Q320 39 341 42T378 50T405
61T425 72T442 81Q447 83 453 83T463 77Q468 70 470 65T472 52Q472 43 448 28T383 0T292 -13ZM105 257H403Q423 257 434 261T445 291Q445 324 425 351T369 396T289 413Q239 413 197 393T129 338T105 257ZM270 654Q274 654 276 654T283 651L382 599Q399 592 403
584T399 561Q391 547 383 545T365 548L270 601L175 548Q166 543 158 545T141 563Q134 577 138 584T158 599L257 651Q261 653 263 653T270 654Z" />
<glyph unicode="&#xeb;" horiz-adv-x="542" d="M292 -13Q237 -13 192 5T114 56T63 134T45 234Q45 299 76 351T162 433T288 464Q334 464 372 450T438 412T481 357T497 293Q497 244 475 227T420 209H105Q103 156 131 118T203 60T291 39Q320 39 341 42T378 50T405
61T425 72T442 81Q447 83 453 83T463 77Q468 70 470 65T472 52Q472 43 448 28T383 0T292 -13ZM105 257H403Q423 257 434 261T445 291Q445 324 425 351T369 396T289 413Q239 413 197 393T129 338T105 257ZM329 568Q312 568 305 573T297 586T295 603Q295 612 296
619T305 632T329 637Q347 637 354 632T362 619T364 603Q364 595 363 587T354 573T329 568ZM219 568Q201 568 194 573T186 586T184 603Q184 612 185 619T194 632T219 637Q236 637 243 632T251 619T253 603Q253 595 252 587T243 573T219 568Z" />
<glyph unicode="&#xec;" horiz-adv-x="187" d="M93 -11Q83 -11 77 -8T68 1T65 19V437Q65 448 67 454T76 463T94 466Q105 466 111 463T119 454T122 435V18Q122 7 120 1T111 -8T93 -11ZM365 551L216 603Q203 608 199 615T199 637Q204 652 212 656T233 655L385 602Q399
597 402 589T400 567Q395 552 388 549T365 551Z" />
<glyph unicode="&#xed;" horiz-adv-x="187" d="M93 -11Q83 -11 77 -8T68 1T65 19V437Q65 448 67 454T76 463T94 466Q105 466 111 463T119 454T122 435V18Q122 7 120 1T111 -8T93 -11ZM332 803Q317 798 310 801T297 819Q292 833 295 841T312 854L464 907Q478 912
486 908T498 889Q503 875 499 868T481 855L332 803Z" />
<glyph unicode="&#xee;" horiz-adv-x="187" d="M93 -11Q83 -11 77 -8T68 1T65 19V437Q65 448 67 454T76 463T94 466Q105 466 111 463T119 454T122 435V18Q122 7 120 1T111 -8T93 -11ZM349 654Q353 654 355 654T362 651L461 599Q478 592 482 584T478 561Q470 547
462 545T444 548L349 601L254 548Q245 543 237 545T220 563Q213 577 217 584T237 599L336 651Q340 653 342 653T349 654Z" />
<glyph unicode="&#xef;" horiz-adv-x="187" d="M93 -11Q83 -11 77 -8T68 1T65 19V437Q65 448 67 454T76 463T94 466Q105 466 111 463T119 454T122 435V18Q122 7 120 1T111 -8T93 -11ZM408 568Q391 568 384 573T376 586T374 603Q374 612 375 619T384 632T408 637Q426
637 433 632T441 619T443 603Q443 595 442 587T433 573T408 568ZM298 568Q280 568 273 573T265 586T263 603Q263 612 264 619T273 632T298 637Q315 637 322 632T330 619T332 603Q332 595 331 587T322 573T298 568Z" />
<glyph unicode="&#xf0;" horiz-adv-x="585" d="M351 722Q360 716 362 710T364 697T355 681L328 647Q376 621 412 583T472 493T508 376T520 231Q520 179 502 135T452 58T377 7T282 -11Q233 -11 191 7T117 59T69 137T51 234Q51 286 68 330T117 408T190 459T282 477Q335
477 378 458T449 405Q430 477 393 525T295 604L250 545Q244 537 238 534T225 531T209 539Q200 546 196 552T193 565T201 580L237 626Q224 631 211 634T183 640Q168 643 166 653T168 677Q173 689 181 691T203 691Q215 689 227 686T250 679T272 672L309 719Q316 728
322 730T335 731T351 722ZM291 42Q341 42 380 67T442 134T465 231Q465 286 442 329T380 398T291 424Q238 424 196 399T130 330T106 231Q106 177 130 135T196 67T291 42Z" />
<glyph unicode="&#xf1;" horiz-adv-x="554" d="M102 -10Q92 -10 86 -7T78 2T75 20V440Q75 450 77 455T86 463T103 466Q110 466 115 465T123 460T127 452T129 440V381Q142 398 158 413T193 441T236 461T289 468Q332 468 368 454T432 412T474 345T489 254V19Q489
8 487 2T478 -7T461 -10Q450 -10 444 -7T435 2T432 20V255Q432 304 416 340T368 396T287 416Q239 416 204 396T150 340T131 255V19Q131 8 129 2T120 -7T102 -10ZM223 653Q248 653 266 642T299 619T329 608Q336 608 343 612T357 622T367 635Q371 645 382 648T403
645Q409 642 414 637T419 626Q419 607 407 591T374 564T329 554Q311 554 293 565T257 587T223 599Q212 599 200 592T182 573Q178 566 168 564T147 565Q139 570 136 579T136 597Q143 612 157 625T188 645T223 653Z" />
<glyph unicode="&#xf2;" horiz-adv-x="560" d="M283 -15Q233 -15 189 4T112 56T59 133T40 227Q40 278 58 321T110 398T187 450T281 469Q348 469 402 438T488 352T520 228Q520 176 502 132T451 55T375 4T283 -15ZM281 39Q332 39 373 64T439 133T464 230Q464 284
440 326T375 391T280 415Q228 415 187 391T121 324T96 229Q96 175 120 132T187 64T281 39ZM296 551L147 603Q134 608 130 615T130 637Q135 652 143 656T164 655L316 602Q330 597 333 589T331 567Q326 552 319 549T296 551Z" />
<glyph unicode="&#xf3;" horiz-adv-x="560" d="M283 -15Q233 -15 189 4T112 56T59 133T40 227Q40 278 58 321T110 398T187 450T281 469Q348 469 402 438T488 352T520 228Q520 176 502 132T451 55T375 4T283 -15ZM281 39Q332 39 373 64T439 133T464 230Q464 284
440 326T375 391T280 415Q228 415 187 391T121 324T96 229Q96 175 120 132T187 64T281 39ZM263 547Q248 542 241 545T228 563Q223 577 226 585T243 598L395 651Q409 656 417 652T429 633Q434 619 430 612T412 599L263 547Z" />
<glyph unicode="&#xf4;" horiz-adv-x="560" d="M283 -15Q233 -15 189 4T112 56T59 133T40 227Q40 278 58 321T110 398T187 450T281 469Q348 469 402 438T488 352T520 228Q520 176 502 132T451 55T375 4T283 -15ZM281 39Q332 39 373 64T439 133T464 230Q464 284
440 326T375 391T280 415Q228 415 187 391T121 324T96 229Q96 175 120 132T187 64T281 39ZM280 654Q284 654 286 654T293 651L392 599Q409 592 413 584T409 561Q401 547 393 545T375 548L280 601L185 548Q176 543 168 545T151 563Q144 577 148 584T168 599L267
651Q271 653 273 653T280 654Z" />
<glyph unicode="&#xf5;" horiz-adv-x="560" d="M283 -15Q233 -15 189 4T112 56T59 133T40 227Q40 278 58 321T110 398T187 450T281 469Q348 469 402 438T488 352T520 228Q520 176 502 132T451 55T375 4T283 -15ZM281 39Q332 39 373 64T439 133T464 230Q464 284
440 326T375 391T280 415Q228 415 187 391T121 324T96 229Q96 175 120 132T187 64T281 39ZM217 653Q242 653 260 642T293 619T323 608Q330 608 337 612T351 622T361 635Q365 645 376 648T397 645Q403 642 408 637T413 626Q413 607 401 591T368 564T323 554Q305
554 287 565T251 587T217 599Q206 599 194 592T176 573Q172 566 162 564T141 565Q133 570 130 579T130 597Q137 612 151 625T182 645T217 653Z" />
<glyph unicode="&#xf6;" horiz-adv-x="560" d="M283 -15Q233 -15 189 4T112 56T59 133T40 227Q40 278 58 321T110 398T187 450T281 469Q348 469 402 438T488 352T520 228Q520 176 502 132T451 55T375 4T283 -15ZM281 39Q332 39 373 64T439 133T464 230Q464 284
440 326T375 391T280 415Q228 415 187 391T121 324T96 229Q96 175 120 132T187 64T281 39ZM339 568Q322 568 315 573T307 586T305 603Q305 612 306 619T315 632T339 637Q357 637 364 632T372 619T374 603Q374 595 373 587T364 573T339 568ZM229 568Q211 568 204
573T196 586T194 603Q194 612 195 619T204 632T229 637Q246 637 253 632T261 619T263 603Q263 595 262 587T253 573T229 568Z" />
<glyph unicode="&#xf7;" horiz-adv-x="462" d="M75 226Q64 226 58 228T48 237T45 255Q45 267 47 273T56 283T73 286H389Q400 286 406 283T414 274T417 255Q417 244 414 238T405 229T387 226H75ZM228 53Q206 53 198 61T189 91Q189 114 197 122T228 131Q250 131
258 123T267 92Q267 70 259 62T228 53ZM228 380Q206 380 198 388T189 418Q189 441 197 449T228 458Q250 458 258 450T267 419Q267 397 259 389T228 380Z" />
<glyph unicode="&#xf8;" horiz-adv-x="560" d="M408 408L356 434L412 543Q420 557 428 559T452 554Q462 550 466 545T469 532T463 515L408 408ZM116 -92Q103 -84 101 -75T106 -52L161 56L209 20L158 -78Q151 -94 141 -97T116 -92ZM283 -15Q233 -15 189 4T112 56T59
133T40 227Q40 278 58 321T110 398T187 450T281 469Q348 469 402 438T488 352T520 228Q520 176 502 132T451 55T375 4T283 -15ZM281 39Q332 39 373 64T439 133T464 230Q464 284 440 326T375 391T280 415Q228 415 187 391T121 324T96 229Q96 175 120 132T187 64T281
39Z" />
<glyph unicode="&#xf9;" horiz-adv-x="534" d="M254 -12Q211 -12 175 2T112 44T70 111T55 202V437Q55 448 57 454T66 463T83 466Q94 466 100 463T109 454T112 436V201Q112 153 128 117T176 60T256 40Q305 40 340 60T394 116T413 201V437Q413 448 415 454T424 463T442
466Q452 466 458 463T466 454T469 436V16Q469 7 467 1T458 -7T441 -10Q434 -10 429 -9T421 -4T417 4T415 16V75Q402 58 386 43T351 15T307 -5T254 -12ZM282 551L133 603Q120 608 116 615T116 637Q121 652 129 656T150 655L302 602Q316 597 319 589T317 567Q312
552 305 549T282 551Z" />
<glyph unicode="&#xfa;" horiz-adv-x="534" d="M254 -12Q211 -12 175 2T112 44T70 111T55 202V437Q55 448 57 454T66 463T83 466Q94 466 100 463T109 454T112 436V201Q112 153 128 117T176 60T256 40Q305 40 340 60T394 116T413 201V437Q413 448 415 454T424 463T442
466Q452 466 458 463T466 454T469 436V16Q469 7 467 1T458 -7T441 -10Q434 -10 429 -9T421 -4T417 4T415 16V75Q402 58 386 43T351 15T307 -5T254 -12ZM249 547Q234 542 227 545T214 563Q209 577 212 585T229 598L381 651Q395 656 403 652T415 633Q420 619 416
612T398 599L249 547Z" />
<glyph unicode="&#xfb;" horiz-adv-x="534" d="M254 -12Q211 -12 175 2T112 44T70 111T55 202V437Q55 448 57 454T66 463T83 466Q94 466 100 463T109 454T112 436V201Q112 153 128 117T176 60T256 40Q305 40 340 60T394 116T413 201V437Q413 448 415 454T424 463T442
466Q452 466 458 463T466 454T469 436V16Q469 7 467 1T458 -7T441 -10Q434 -10 429 -9T421 -4T417 4T415 16V75Q402 58 386 43T351 15T307 -5T254 -12ZM266 654Q270 654 272 654T279 651L378 599Q395 592 399 584T395 561Q387 547 379 545T361 548L266 601L171
548Q162 543 154 545T137 563Q130 577 134 584T154 599L253 651Q257 653 259 653T266 654Z" />
<glyph unicode="&#xfc;" horiz-adv-x="534" d="M254 -12Q211 -12 175 2T112 44T70 111T55 202V437Q55 448 57 454T66 463T83 466Q94 466 100 463T109 454T112 436V201Q112 153 128 117T176 60T256 40Q305 40 340 60T394 116T413 201V437Q413 448 415 454T424 463T442
466Q452 466 458 463T466 454T469 436V16Q469 7 467 1T458 -7T441 -10Q434 -10 429 -9T421 -4T417 4T415 16V75Q402 58 386 43T351 15T307 -5T254 -12ZM325 568Q308 568 301 573T293 586T291 603Q291 612 292 619T301 632T325 637Q343 637 350 632T358 619T360
603Q360 595 359 587T350 573T325 568ZM215 568Q197 568 190 573T182 586T180 603Q180 612 181 619T190 632T215 637Q232 637 239 632T247 619T249 603Q249 595 248 587T239 573T215 568Z" />
<glyph unicode="&#xfd;" horiz-adv-x="509" d="M163 -201Q148 -195 146 -187T150 -162L423 450Q430 466 438 470T462 467Q477 460 479 451T474 427L200 -187Q193 -203 186 -205T163 -201ZM268 70L43 420Q34 434 36 443T51 460Q65 469 74 467T93 451L298 126L268
70ZM242 547Q227 542 220 545T207 563Q202 577 205 585T222 598L374 651Q388 656 396 652T408 633Q413 619 409 612T391 599L242 547Z" />
<glyph unicode="&#xfe;" horiz-adv-x="580" d="M310 -9Q261 -9 220 8T149 57T103 133T86 231Q86 285 102 328T149 403T220 452T310 469Q357 469 397 452T467 403T514 327T531 228Q531 175 514 132T467 57T397 8T310 -9ZM95 -202Q84 -202 78 -199T68 -190T65 -172V656Q65
668 67 674T76 684T94 687Q105 687 111 684T121 675T124 657V-171Q124 -182 122 -189T113 -199T95 -202ZM301 44Q351 44 390 67T453 133T476 231Q476 287 453 328T391 393T301 416Q252 416 213 393T150 328T127 231Q127 176 150 134T212 68T301 44Z" />
<glyph unicode="&#xff;" horiz-adv-x="509" d="M163 -201Q148 -195 146 -187T150 -162L423 450Q430 466 438 470T462 467Q477 460 479 451T474 427L200 -187Q193 -203 186 -205T163 -201ZM268 70L43 420Q34 434 36 443T51 460Q65 469 74 467T93 451L298 126L268
70ZM318 568Q301 568 294 573T286 586T284 603Q284 612 285 619T294 632T318 637Q336 637 343 632T351 619T353 603Q353 595 352 587T343 573T318 568ZM208 568Q190 568 183 573T175 586T173 603Q173 612 174 619T183 632T208 637Q225 637 232 632T240 619T242
603Q242 595 241 587T232 573T208 568Z" />
<glyph unicode="&#x2013;" horiz-adv-x="561" d="M35 226Q24 226 18 228T8 237T5 255Q5 267 7 273T16 283T33 286H459Q470 286 476 283T484 274T487 255Q487 244 484 238T475 229T457 226H35Z" />
<glyph unicode="&#x2014;" horiz-adv-x="693" d="M35 226Q24 226 18 228T8 237T5 255Q5 267 7 273T16 283T33 286H589Q600 286 606 283T614 274T617 255Q617 244 614 238T605 229T587 226H35Z" />
<glyph unicode="&#x2018;" horiz-adv-x="148" d="M100 688Q100 688 102 688T105 684T107 673Q107 661 104 659T100 656Q100 656 91 649T80 623Q87 622 91 620T100 614Q105 609 106 601T107 585Q107 575 106 567T96 553T69 547Q47 547 38 556Q33 561 32 569T31
586Q31 590 31 594T32 602Q34 625 43 644T67 676T100 688Z" />
<glyph unicode="&#x2019;" horiz-adv-x="136" d="M42 449Q42 449 41 449T37 453T35 464Q35 476 38 478T42 481Q42 481 51 488T62 514Q55 515 51 517T42 523Q37 528 36 536T35 552Q35 562 36 570T46 584T73 590Q95 590 104 581Q109 576 110 568T111 551Q111 547
111 543T110 535Q108 513 99 493T75 461T42 449Z" />
<glyph unicode="&#x201a;" horiz-adv-x="148" d="M296 -68Q296 -68 295 -68T291 -64T289 -53Q289 -41 292 -39T296 -36Q296 -36 305 -29T316 -3Q309 -2 305 0T296 6Q291 11 290 19T289 35Q289 45 290 53T300 67T327 73Q349 73 358 64Q363 59 364 51T365 34Q365
30 365 26T364 18Q362 -4 353 -24T329 -56T296 -68Z" />
<glyph unicode="&#x201c;" horiz-adv-x="242" d="M193 688Q193 688 195 688T198 684T200 673Q200 661 197 659T193 656Q193 656 184 649T173 623Q180 622 184 620T193 614Q198 609 199 601T200 585Q200 575 199 567T189 553T162 547Q140 547 131 556Q126 561 125
569T124 586Q124 590 124 594T125 602Q127 625 136 644T160 676T193 688ZM107 688Q107 688 109 688T112 684T114 673Q114 661 111 659T107 656Q107 656 98 649T87 623Q94 622 98 620T107 614Q112 609 113 601T114 585Q114 575 113 567T103 553T76 547Q54 547 45
556Q40 561 39 569T38 586Q38 590 38 594T39 602Q41 625 50 644T74 676T107 688Z" />
<glyph unicode="&#x201d;" horiz-adv-x="241" d="M41 549Q41 549 40 549T36 553T34 564Q34 576 37 578T41 581Q41 581 50 588T61 614Q54 615 50 617T41 623Q36 628 35 636T34 652Q34 662 35 670T45 684T72 690Q94 690 103 681Q108 676 109 668T110 651Q110 647
110 643T109 635Q107 613 98 593T74 561T41 549ZM136 549Q136 549 135 549T131 553T129 564Q129 576 132 578T136 581Q136 581 145 588T156 614Q149 615 145 617T136 623Q131 628 130 636T129 652Q129 662 130 670T140 684T167 690Q189 690 198 681Q203 676 204
668T205 651Q205 647 205 643T204 635Q202 613 193 593T169 561T136 549Z" />
<glyph unicode="&#x201e;" horiz-adv-x="242" d="M304 -68Q304 -68 303 -68T299 -64T297 -53Q297 -41 300 -39T304 -36Q304 -36 313 -29T324 -3Q317 -2 313 0T304 6Q299 11 298 19T297 35Q297 45 298 53T308 67T335 73Q357 73 366 64Q371 59 372 51T373 34Q373
30 373 26T372 18Q370 -4 361 -24T337 -56T304 -68ZM138 -68Q138 -68 137 -68T133 -64T131 -53Q131 -41 134 -39T138 -36Q138 -36 147 -29T158 -3Q151 -2 147 0T138 6Q133 11 132 19T131 35Q131 45 132 53T142 67T169 73Q191 73 200 64Q205 59 206 51T207 34Q207
30 207 26T206 18Q204 -4 195 -24T171 -56T138 -68Z" />
<glyph unicode="&#x2022;" horiz-adv-x="208" d="M104 235Q85 235 72 241T52 261T45 294Q45 314 51 327T71 346T104 353Q124 353 137 347T156 327T163 294Q163 275 157 262T137 242T104 235Z" />
<glyph unicode="&#x2039;" horiz-adv-x="350" d="M303 -13Q295 -21 289 -24T276 -25T261 -15L46 200Q41 205 38 210T35 220Q35 225 38 230T46 240L261 455Q269 463 275 465T288 464T303 453Q311 445 313 439T313 426T302 411L111 220L302 29Q310 21 313 15T314
2T303 -13Z" />
<glyph unicode="&#x203a;" horiz-adv-x="322" d="M33 -13Q25 -5 23 1T23 14T34 29L225 220L34 411Q26 419 23 425T22 438T33 453Q41 461 47 464T61 465T75 455L290 240Q295 235 298 230T301 220Q301 216 298 211T290 200L75 -15Q68 -22 61 -24T48 -24T33 -13Z" />
</font>
</defs>
</svg>
