<?xml version="1.0" standalone="no"?>
<!DOCTYPE svg PUBLIC "-//W3C//DTD SVG 1.1//EN" "http://www.w3.org/Graphics/SVG/1.1/DTD/svg11.dtd">
<svg xmlns="http://www.w3.org/2000/svg">
<defs >
<font id="Fredoka" horiz-adv-x="535" ><font-face
    font-family="Fredoka Light"
    units-per-em="1000"
    panose-1="0 0 0 0 0 0 0 0 0 0"
    ascent="974"
    descent="-236"
    alphabetic="0" />
<glyph unicode=" " horiz-adv-x="235" />
<glyph unicode="!" horiz-adv-x="248" d="M124 236Q79 236 60 248T37 278T33 317V612Q33 632 37 651T60 682T125 695Q171 695 189 683T212 651T216 611V316Q216 296 212 278T189 248T124 236ZM124 -10Q66 -10 47 12T28 87Q28 109 32 131T57 167T125 182Q184 182
202 160T220 85Q220 63 216 41T192 5T124 -10Z" />
<glyph unicode="&quot;" horiz-adv-x="399" d="M301 345Q284 345 271 363T248 411T232 475T222 540T219 591Q219 615 222 638T243 676T303 691Q344 691 361 676T381 637T385 591Q385 571 382 540T373 475T356 412T333 364T301 345ZM96 345Q79 345 66 363T43 411T27
475T17 540T14 591Q14 615 17 638T38 676T97 691Q138 691 155 676T175 637T179 591Q179 571 176 540T167 475T150 412T127 364T96 345Z" />
<glyph unicode="#" horiz-adv-x="697" d="M163 -6Q129 -6 111 5T97 38L114 147H63Q25 147 12 163T7 220Q13 254 25 268T53 285T85 288H137L151 372H100Q63 372 50 388T44 444Q50 478 62 492T90 509T122 512H174L189 600Q193 622 196 642T215 675T276 689Q312 689
331 677T347 639L326 512H446L460 600Q464 622 467 642T487 675T548 689Q584 689 603 677T618 641L598 512H634Q672 512 684 496T690 440Q685 406 673 392T645 375T613 372H574L561 288H597Q635 288 648 272T653 216Q647 182 635 168T607 150T576 147H537L525 73Q522
53 516 35T492 6T434 -6Q401 -6 383 5T368 38L385 147H266L254 73Q251 53 245 35T221 6T163 -6ZM289 288H409L422 372H304L289 288Z" />
<glyph unicode="$" horiz-adv-x="442" d="M428 226Q428 189 418 160T390 108T345 70T285 47V-7Q285 -26 282 -44T266 -73T220 -85Q189 -85 176 -73T160 -43T157 -7V47Q132 53 110 64T69 90T35 124Q12 156 15 177T49 229Q68 246 86 248T122 242T154 214Q171 194
185 186T218 177Q239 177 252 182T271 197T277 224Q277 242 253 249T191 265T118 290Q99 299 82 312T52 343T32 386T24 444Q24 477 33 504T59 551T101 586T157 607V653Q157 672 159 689T175 718T221 730Q252 730 265 718T282 689T285 652V609Q308 605 326 596T367
567Q395 543 397 526T377 475Q362 451 346 441T312 434T275 450Q268 455 262 461T245 471T213 475Q205 475 198 473T186 466T177 455T173 443Q173 425 188 416T229 402T284 391Q310 385 335 375T382 347T415 300T428 226Z" />
<glyph unicode="%" horiz-adv-x="779" d="M194 -27Q180 -19 172 -11T162 9T169 33L529 712Q537 726 546 732T567 738T594 728Q610 719 618 710T626 691T618 669L256 -14Q249 -28 241 -33T221 -36T194 -27ZM194 328Q119 328 74 378T28 510Q28 594 72 644T193 694Q272
694 316 646T360 511Q360 424 317 376T194 328ZM193 458Q218 458 229 471T240 512Q240 541 230 552T193 564Q168 564 158 553T147 512Q147 483 157 471T193 458ZM586 -11Q511 -11 465 39T419 171Q419 256 464 305T585 355Q664 355 707 307T751 172Q751 84 709 37T586
-11ZM585 119Q611 119 621 131T632 173Q632 202 622 213T585 225Q560 225 550 213T539 172Q539 143 549 131T585 119Z" />
<glyph unicode="&amp;" horiz-adv-x="696" d="M262 -17Q181 -17 126 6T42 76T14 192Q14 228 25 260T60 324T119 386Q108 413 100 438T88 487T84 533Q84 596 109 638T183 702T303 724Q364 724 407 703T474 643T498 549Q498 514 485 485T448 431T397 385T340 343Q356
323 372 304T407 268T443 236Q454 253 461 270T473 306Q478 331 501 342T565 354Q604 354 620 344T640 321T643 296Q641 263 628 230T592 163Q594 163 595 163T599 163T602 163Q643 163 663 142T684 80Q684 28 666 9T601 -10Q574 -10 547 -6T494 8T441 30Q412 15
382 5T322 -11T262 -17ZM269 140Q275 140 280 140T290 140Q280 150 270 161T249 184T228 208T208 233Q205 228 203 223T200 213T197 203T196 193Q196 176 204 164T229 146T269 140ZM261 483Q281 496 295 506T317 524T330 538T334 551Q334 566 325 574T298 582Q281
582 270 578T254 566T249 544Q249 535 250 525T254 505T261 483Z" />
<glyph unicode="&apos;" horiz-adv-x="193" d="M96 345Q79 345 66 363T43 411T27 475T17 540T14 591Q14 615 17 638T38 676T97 691Q138 691 155 676T175 637T179 591Q179 571 176 540T167 475T150 412T127 364T96 345Z" />
<glyph unicode="(" horiz-adv-x="357" d="M283 -175Q228 -175 185 -146T110 -66T59 45T29 173T19 299Q19 357 28 423T57 551T108 665T182 746T284 777Q301 777 316 773T342 755T352 707Q352 673 343 659T319 641T288 638H283Q264 638 239 603T196 494T177 301Q177
230 185 169T208 62T242 -10T284 -36Q301 -36 316 -39T342 -56T352 -106Q352 -140 342 -154T315 -172T283 -175Z" />
<glyph unicode=")" horiz-adv-x="357" d="M74 -175Q58 -175 42 -172T16 -155T5 -106Q5 -71 15 -57T41 -39T73 -36Q95 -36 114 -10T148 62T171 169T180 301Q180 420 162 494T119 603T74 638H69Q54 638 39 641T15 658T5 707Q5 740 15 754T41 773T73 777Q131 777
174 747T249 665T300 552T329 424T339 299Q339 239 329 173T299 46T248 -66T173 -145T74 -175Z" />
<glyph unicode="*" horiz-adv-x="468" d="M234 701Q281 701 300 683T319 617V586L367 601Q402 610 422 597T455 541Q470 496 457 473T397 433L370 425L401 381Q419 351 412 329T369 280Q331 252 306 256T254 299L234 326L206 287Q184 258 159 257T96 283Q59 309
54 333T74 392L97 425L60 436Q19 445 8 468T12 538Q28 585 50 598T112 597L150 585V621Q150 665 169 683T234 701Z" />
<glyph unicode="+" horiz-adv-x="490" d="M245 24Q204 24 187 36T167 68T163 107V404Q163 424 166 442T187 473T246 485Q287 485 304 473T324 442T328 403V106Q328 86 325 67T304 36T245 24ZM91 172Q73 172 55 175T26 196T14 255Q14 297 26 314T58 334T98 338H394Q414
338 433 335T464 314T476 254Q476 213 465 196T436 176T399 172H91Z" />
<glyph unicode="," horiz-adv-x="223" d="M42 -157Q42 -157 36 -155T23 -144T16 -113Q16 -87 24 -78T38 -68Q40 -66 56 -53T76 -8Q63 -5 53 0T34 13Q20 27 18 48T15 88Q16 110 20 131T44 167T113 182Q167 182 189 160Q203 146 205 126T208 85Q208 75 208 66T205
47Q200 -10 177 -56T118 -129T42 -157Z" />
<glyph unicode="-" horiz-adv-x="403" d="M90 174Q75 174 57 177T27 198T14 258Q14 299 27 315T58 335T91 339H312Q328 339 346 336T376 315T389 257Q389 216 377 199T348 178T312 174H90Z" />
<glyph unicode="." horiz-adv-x="220" d="M110 -10Q57 -10 36 11T14 84Q14 121 23 142T54 172T111 182Q164 182 185 161T206 85Q206 50 197 29T167 -1T110 -10Z" />
<glyph unicode="/" horiz-adv-x="489" d="M60 -46Q14 -24 6 -3T16 60L316 687Q330 715 344 727T379 737T429 721Q462 705 475 691T487 658T471 610L172 -11Q153 -54 130 -59T60 -46Z" />
<glyph unicode="0" horiz-adv-x="565" d="M286 -22Q216 -22 168 2T89 67T43 155T20 251T14 340Q14 376 20 423T41 518T87 608T165 675T284 701Q352 701 399 676T476 611T522 522T545 425T551 339Q551 299 545 251T522 154T476 66T400 2T286 -22ZM282 162Q308 162
324 174T349 207T362 250T367 296T368 335V340Q368 398 359 437T331 497T283 518Q253 518 234 498T206 438T197 339Q197 282 206 243T235 183T282 162Z" />
<glyph unicode="1" horiz-adv-x="379" d="M259 -11Q209 -11 189 9T169 80V601Q169 651 189 671T260 691Q310 691 330 671T350 599V79Q350 29 330 9T259 -11ZM159 409Q125 379 98 380T38 415Q5 450 7 481T49 547L176 661Q209 691 237 689T297 652Q329 618 327 588T284
521L159 409Z" />
<glyph unicode="2" horiz-adv-x="566" d="M105 -11Q68 -11 41 17T14 82Q14 101 18 118T31 150T50 179Q76 212 114 239T193 290T270 338T328 390T351 452Q351 462 347 477T326 505T275 518Q254 518 239 513T215 497T202 471T197 435Q197 414 193 395T170 363T105
350Q60 350 41 363T18 398T14 442Q14 488 31 534T83 617T165 678T274 701Q347 701 406 666T500 571T535 437Q535 388 519 348T478 277T423 223T367 186T322 164T300 157L310 173H468Q491 173 512 169T546 146T559 80Q559 36 546 17T511 -7T466 -11H105Z" />
<glyph unicode="3" horiz-adv-x="565" d="M281 -21Q227 -21 179 -3T94 46T35 118T14 203Q14 266 114 266Q142 266 156 261T180 244T198 208Q198 208 204 196T229 171T282 158Q309 158 328 165T357 185T368 215Q368 235 358 248T331 267T291 273Q269 273 248 276T214
297T200 360Q200 406 213 423T248 443T292 446Q312 446 325 448T346 458T353 478Q353 493 346 503T324 519T291 525Q267 525 253 519T232 504T219 485Q200 443 169 435T93 450Q50 476 44 505T58 574Q58 573 63 585T84 617T124 655T188 688T281 701Q344 701 391
681T471 629T520 559T537 482Q537 445 525 420T496 380T468 359Q477 353 491 342T518 312T541 271T551 217Q551 148 516 95T420 10T281 -21Z" />
<glyph unicode="4" horiz-adv-x="551" d="M430 -8Q385 -8 366 5T343 40T339 84V188H96Q51 188 32 201T9 236T5 280Q5 291 5 298T8 312L85 623Q98 678 123 689T198 688Q235 678 255 660T270 615L208 360H339V605Q339 627 343 646T366 679T432 692Q477 692 496 679T519
644T523 600V83Q523 60 519 39T495 5T430 -8Z" />
<glyph unicode="5" horiz-adv-x="493" d="M236 -22Q189 -22 153 -12T93 13T56 37T43 48Q28 61 17 75T5 109Q5 125 14 141T42 177Q57 194 72 202T104 211Q119 211 134 204T172 178Q172 178 177 174T195 166T230 162Q251 162 265 169T287 188T295 219Q295 236 287
249T265 269T233 277Q221 277 213 274T200 268T194 263Q184 254 171 247T138 239Q123 239 107 244T73 259Q41 276 29 289T16 318L53 602Q55 617 61 638T86 676T145 693L374 692Q397 692 417 688T451 665T465 598Q465 555 453 537T420 515T379 511H225L218 458Q221
459 224 459T229 459T235 460H240Q287 460 330 442T406 390T459 315T479 226Q479 156 447 100T360 11T236 -22Z" />
<glyph unicode="6" horiz-adv-x="521" d="M267 -21Q188 -21 132 13T45 112T14 266Q14 342 32 407T83 524T164 614T271 671T400 691Q422 691 442 687T475 664T488 599Q488 554 475 535T440 512T396 508Q351 508 320 496T268 466T235 430T219 400T214 388L202 399Q202
399 212 403T239 412T274 416Q337 416 390 387T475 311T507 208Q507 144 475 92T389 10T267 -21ZM263 150Q285 150 299 155T319 173T326 203Q326 218 319 229T299 246T269 252Q249 252 234 246T210 230T202 205Q202 186 208 174T227 156T263 150Z" />
<glyph unicode="7" horiz-adv-x="522" d="M193 -9Q148 -9 129 1T106 29T101 71Q101 123 113 171T146 263T190 345T236 415T274 470T296 507H96Q74 507 53 511T19 535T5 599Q5 644 18 663T50 686T91 690H426Q472 690 490 677T513 642T517 598Q517 559 500 516T457
427T401 335T345 242T302 153T285 69Q285 47 281 29T257 1T193 -9Z" />
<glyph unicode="8" horiz-adv-x="541" d="M273 -22Q200 -22 142 9T49 95T14 219Q14 252 25 279T51 327T78 358T94 372T84 366Q99 356 94 359T74 379T47 422T34 485Q34 547 66 596T152 675T273 705Q338 705 391 676T475 595T507 481Q507 457 499 436T480 398T460
371T450 359T458 366Q446 375 449 373T464 358T491 326T516 279T527 219Q527 162 504 117T444 41T362 -6T273 -22ZM272 153Q295 153 311 160T335 182T344 215Q344 234 336 247T311 268T270 275Q247 275 231 268T206 248T197 215Q197 196 206 182T231 161T272 153ZM272
444Q289 444 300 449T318 463T324 486Q324 499 318 508T300 523T271 528Q255 528 243 523T225 509T219 486Q219 473 225 464T244 449T272 444Z" />
<glyph unicode="9" horiz-adv-x="521" d="M117 -10Q96 -10 77 -6T45 18T32 82Q32 128 45 146T80 169T125 173Q170 173 201 185T253 215T285 251T301 281T306 293L319 282Q319 282 309 278T281 270T246 265Q184 265 131 294T46 370T14 472Q14 537 46 589T132 671T253
702Q332 702 389 668T476 569T507 415Q507 339 489 274T438 156T356 66T248 10T117 -10ZM252 429Q273 429 288 434T311 451T319 476Q319 496 313 508T293 525T257 531Q235 531 221 526T201 509T194 478Q194 464 201 453T222 435T252 429Z" />
<glyph unicode=":" horiz-adv-x="221" d="M111 287Q58 287 37 308T15 381Q15 418 24 439T55 469T112 479Q165 479 186 458T207 382Q207 347 198 326T168 296T111 287ZM110 -10Q57 -10 36 11T14 84Q14 121 23 142T54 172T111 182Q164 182 185 161T206 85Q206 50
197 29T167 -1T110 -10Z" />
<glyph unicode=";" horiz-adv-x="220" d="M41 -158Q41 -158 35 -156T22 -145T15 -113Q15 -87 23 -79T37 -69Q39 -67 55 -53T75 -8Q62 -5 52 0T34 12Q19 26 17 45T14 84Q14 121 22 142T52 172T111 182Q165 182 188 160Q202 146 204 127T206 88Q206 72 206 63T204
47Q199 -10 176 -56T117 -130T41 -158ZM110 286Q55 286 35 308T14 380Q14 417 22 438T51 469T111 479Q168 479 187 458T206 381Q206 359 202 337T178 301T110 286Z" />
<glyph unicode="&lt;" horiz-adv-x="583" d="M442 12L45 248Q32 256 19 275T5 322Q5 359 20 373T46 393L443 629Q461 640 479 646T517 643T558 598Q579 564 577 543T560 508T527 483L252 320L528 157Q546 146 561 133T578 99T558 42Q537 7 517 -2T479 -5T442 12Z" />
<glyph unicode="=" horiz-adv-x="445" d="M87 277Q73 277 56 280T27 300T15 357Q15 396 27 412T56 431T88 435H357Q373 435 390 432T419 412T431 356Q431 316 420 300T391 280T356 277H87ZM87 80Q72 80 55 83T26 103T14 160Q14 199 26 215T56 235T88 238H357Q372
238 389 235T418 215T430 159Q430 119 419 103T390 83T356 80H87Z" />
<glyph unicode="&gt;" horiz-adv-x="583" d="M141 12Q123 1 105 -5T67 -2T25 42Q3 77 5 98T22 133T55 157L331 320L56 483Q38 494 23 507T7 542T25 598Q46 634 65 643T103 646T140 629L537 393Q548 387 563 373T578 322Q578 294 565 275T538 248L141 12Z" />
<glyph unicode="?" horiz-adv-x="476" d="M236 234Q194 234 177 245T156 275T152 312V319Q152 351 162 370T189 400T225 419T260 434T287 453T298 485Q298 514 282 527T230 540Q214 540 203 536T187 527T178 515Q168 485 156 468T124 448T73 456Q39 470 24 483T7
514T14 561Q15 564 21 579T42 616T80 659T141 694T230 708Q296 708 348 679T431 600T462 488Q462 443 448 411T413 357T371 324T334 307T315 302L322 314V304Q322 287 318 271T296 244T236 234ZM233 -10Q175 -10 157 12T138 87Q138 109 142 131T166 167T234 182Q293
182 311 160T330 85Q330 63 326 41T302 5T233 -10Z" />
<glyph unicode="@" horiz-adv-x="844" d="M377 -130Q266 -130 185 -84T59 49T14 251Q14 334 43 403T124 524T249 603T406 631Q503 631 581 604T715 527T800 406T830 246Q830 171 807 116T747 25T665 -29T578 -47Q511 -47 469 -8T426 96Q426 97 426 99T426 101Q419
96 409 91T385 83T354 80Q324 80 297 93T249 130T217 183T205 246Q205 252 205 257T206 269Q210 305 228 338T273 397T332 438T397 453Q418 453 435 447T466 430T487 402L464 396Q466 427 483 440T537 454Q569 454 586 443T600 407L560 98Q560 91 563 89T582 87Q594
87 613 93T651 117T684 168T697 257Q697 313 678 357T621 433T532 480T413 497Q333 497 274 467T182 384T149 257Q149 174 175 118T252 34T378 5Q406 5 420 1T439 -18T445 -63Q445 -96 435 -110T409 -127T377 -130ZM386 217Q396 217 405 221T423 232T436 248T443
267V272Q443 282 440 290T431 304T417 313T400 316Q390 316 380 312T362 301T349 285T342 265V259Q342 248 348 238T364 223T386 217Z" />
<glyph unicode="A" horiz-adv-x="711" d="M690 118Q705 88 706 67T693 30T648 -2Q600 -25 574 -17T525 41L355 389L187 40Q163 -7 137 -15T64 -1Q33 14 19 30T5 67T21 118L272 638Q284 662 307 676T356 691Q374 691 389 685T418 666T439 637L690 118ZM197 136L273
292H438L514 136H197Z" />
<glyph unicode="B" horiz-adv-x="609" d="M121 -8Q76 -8 57 5T34 40T30 85V601Q30 623 34 644T57 678T122 692H356Q417 692 465 663T541 584T569 478Q569 459 566 440T555 402T536 366Q553 345 565 321T583 271T589 219Q588 171 571 130T522 58T451 10T366 -8H121ZM213
175H356Q363 175 375 177T396 191T406 230Q406 244 404 253T396 268T385 276T370 280T351 281H338Q298 281 281 298T264 358Q264 399 282 415T343 432H355Q363 432 369 433T378 438T384 449T386 470Q386 493 376 501T334 509H213V175Z" />
<glyph unicode="C" horiz-adv-x="631" d="M376 -19Q337 -19 289 -7T193 33T104 103T39 206T14 345Q14 421 38 479T103 579T191 647T289 685T379 698Q430 698 469 686T532 660T563 642Q583 629 600 614T618 572Q618 559 613 545T596 516Q576 488 559 475T524 462Q511
462 499 468T470 485Q463 490 452 496T422 508T372 514Q346 514 316 505T258 475T214 421T197 340Q197 292 214 259T259 206T316 176T372 166Q398 166 416 170T448 183T475 199Q486 207 499 213T525 219Q542 219 559 205T595 162Q606 145 611 131T617 104Q617 79
600 64T562 37Q555 33 532 19T470 -7T376 -19Z" />
<glyph unicode="D" horiz-adv-x="655" d="M119 -8Q76 -8 57 5T33 39T28 84V601Q28 623 32 644T55 678T120 691H292Q363 691 426 664T537 590T613 479T641 345Q641 272 614 208T538 96T426 20T289 -8H119ZM211 175H292Q337 175 375 197T435 257T458 341Q458 387
436 425T375 485T291 508H211V175Z" />
<glyph unicode="E" horiz-adv-x="603" d="M129 -9Q84 -9 65 4T42 39T38 83V600Q38 652 58 671T132 691H498Q521 691 541 687T575 664T589 599Q589 554 576 535T541 512T497 508H221V419H406Q429 419 447 416T476 396T487 340Q487 302 476 286T446 266T404 263H221V174H498Q521
174 541 170T575 147T589 82Q589 37 576 18T541 -5T497 -9H129Z" />
<glyph unicode="F" horiz-adv-x="613" d="M129 -9Q84 -9 65 4T42 39T38 83V600Q38 652 58 671T132 691H498Q521 691 541 687T575 664T588 599Q588 554 575 535T540 512T496 508H221V419H405Q428 419 446 416T475 396T486 339Q486 301 475 285T446 266T404 263H221V82Q221
60 217 39T194 5T129 -9Z" />
<glyph unicode="G" horiz-adv-x="719" d="M387 -19Q315 -19 252 10T139 90T63 208T35 351Q35 424 63 487T140 599T255 675T394 703Q426 703 463 697T535 679T597 648Q618 634 635 618T653 578Q653 566 647 552T630 522Q611 494 592 482T556 469Q545 469 534 474T502
492Q496 496 479 502T439 514T389 520Q342 520 303 498T241 436T218 349Q218 300 242 259T305 192T391 166Q409 166 426 167T461 171T491 179V265H417Q399 265 383 268T357 288T347 343Q347 382 358 398T386 417T420 420H595Q635 419 651 406T670 373T674 333V128Q674
100 650 71T585 20Q560 7 529 -1T463 -14T387 -19Z" />
<glyph unicode="H" horiz-adv-x="650" d="M530 -8Q485 -8 466 5T443 40T439 84V600Q439 622 443 643T466 677T531 691Q577 691 595 678T618 643T622 599V83Q622 61 618 40T595 6T530 -8ZM119 -8Q74 -8 55 5T32 40T28 84V600Q28 622 32 643T55 677T120 691Q166
691 184 678T207 643T211 599V83Q211 61 207 40T184 6T119 -8ZM195 263V419H455V263H195Z" />
<glyph unicode="I" horiz-adv-x="239" d="M119 -9Q74 -9 55 4T32 39T28 83V600Q28 622 32 643T55 677T120 691Q166 691 184 678T207 643T211 599V82Q211 60 207 39T184 5T119 -9Z" />
<glyph unicode="J" horiz-adv-x="531" d="M232 -19Q190 -19 156 -7T99 21T63 49T50 61Q37 75 26 89T15 123Q15 139 23 155T50 191Q67 209 83 218T115 227Q135 227 151 215T181 189Q185 186 192 181T210 171T237 166Q253 166 266 171T289 187T304 212T309 245V592Q309
615 313 638T337 676T403 691Q447 691 465 677T488 642T493 598V238Q493 185 473 139T417 57T334 1T232 -19Z" />
<glyph unicode="K" horiz-adv-x="597" d="M131 -9Q86 -9 67 4T44 39T40 83V600Q40 622 44 643T67 677T132 691Q178 691 196 678T219 643T223 599V461L397 660Q420 685 440 695T481 699T527 669Q568 632 569 604T536 540L340 340L537 143Q574 106 572 77T528 13Q498
-11 477 -17T438 -13T398 24L223 223V82Q223 60 219 39T196 5T131 -9Z" />
<glyph unicode="L" horiz-adv-x="569" d="M141 -9Q96 -9 77 4T54 39T50 83V600Q50 622 54 643T77 677T142 691Q188 691 206 678T229 643T233 599V147H477Q496 147 513 144T542 125T554 69Q554 31 542 15T513 -5T476 -9H141Z" />
<glyph unicode="M" horiz-adv-x="809" d="M118 -8Q74 -8 55 5T32 39T28 84V600Q28 622 32 642T55 676T120 690Q151 690 165 686T186 676T200 662L407 396H401L607 661Q617 672 625 678T648 687T690 690Q735 690 754 677T777 642T781 598V82Q781 60 777 39T754
5T689 -8Q644 -8 625 5T602 40T598 84V368L481 209Q477 204 469 194T446 176T404 168Q377 168 362 176T338 193T326 209L210 367V82Q210 60 206 39T183 5T118 -8Z" />
<glyph unicode="N" horiz-adv-x="670" d="M118 -9Q74 -9 55 4T32 39T28 83V602Q28 624 32 644T55 677T120 690Q164 690 180 679T209 651L459 315V602Q459 624 463 644T487 677T551 690Q597 690 615 677T638 642T642 598V82Q642 60 638 39T615 5T550 -9Q516 -9
499 -4T469 18L210 360V82Q210 60 206 39T183 5T118 -9Z" />
<glyph unicode="O" horiz-adv-x="721" d="M365 -20Q292 -20 229 7T117 84T42 197T14 335Q14 411 40 477T114 593T223 671T357 699Q430 699 493 672T605 595T680 481T707 339Q707 265 681 200T607 86T498 8T365 -20ZM360 163Q394 163 424 176T476 213T511 269T524
339Q524 376 511 408T476 464T424 502T361 516Q327 516 298 503T246 465T210 408T197 339Q197 303 210 271T245 215T297 177T360 163Z" />
<glyph unicode="P" horiz-adv-x="595" d="M126 -8Q81 -8 62 5T39 40T35 84V600Q35 622 39 643T62 677T127 691H326Q364 691 408 676T491 628T556 548T581 434Q581 369 556 321T492 242T408 195T325 179H218V83Q218 61 214 40T191 6T126 -8ZM218 362H326Q339 362
356 368T386 391T399 435Q399 456 389 472T363 498T325 508H218V362Z" />
<glyph unicode="Q" horiz-adv-x="782" d="M719 158Q762 130 767 103T741 31Q719 0 701 -11T663 -16T614 8L558 44Q517 14 468 -3T365 -20Q292 -20 229 7T117 84T42 197T14 335Q14 411 40 477T114 593T223 671T357 699Q430 699 493 672T605 595T680 481T707 339Q707
299 699 261T674 188L719 158ZM360 163Q394 163 424 176T476 213T511 269T524 339Q524 376 511 408T476 464T424 502T361 516Q327 516 297 503T245 465T210 408T197 339Q197 302 210 270T245 214T297 177T360 163Z" />
<glyph unicode="R" horiz-adv-x="604" d="M126 -8Q81 -8 62 5T39 40T35 84V600Q35 622 39 643T62 677T127 691H328Q366 691 410 676T493 628T557 548T582 434Q582 388 569 348T529 276T465 219T379 180H218V83Q218 61 214 40T191 6T126 -8ZM545 16Q500 -18 474
-12T418 35L234 285L442 311L566 144Q586 115 591 95T586 57T545 16ZM218 362H328Q337 362 349 365T373 377T391 400T399 435Q399 456 389 472T363 498T326 508H218V362Z" />
<glyph unicode="S" horiz-adv-x="542" d="M271 -19Q210 -19 168 -4T98 31T57 69T40 90Q20 115 16 135T21 175T57 219Q80 241 102 243T145 234T187 199Q211 172 228 163T267 153Q294 153 311 159T336 179T344 214Q344 231 327 240T283 257T221 272T154 295Q134
303 115 315T80 342T51 379T33 428T26 489Q26 550 56 598T140 674T262 702Q311 702 346 694T403 675T438 655T453 642Q486 612 489 591T465 529Q435 486 406 481T339 499Q331 505 323 512T302 525T261 531Q251 531 241 528T224 519T213 505T208 488Q208 467 224
456T266 438T325 426T390 410Q417 401 442 387T486 351T516 297T528 217Q528 152 503 107T439 34T355 -6T271 -19Z" />
<glyph unicode="T" horiz-adv-x="640" d="M549 692Q568 692 585 689T613 670T625 615Q625 577 614 561T585 541T548 538H410V80Q410 58 406 38T384 4T319 -9Q275 -9 256 4T234 38T230 81V538H91Q73 538 56 541T27 561T15 616Q15 654 26 670T56 689T92 692H549Z" />
<glyph unicode="U" horiz-adv-x="675" d="M336 -20Q260 -20 203 10T106 91T48 201T28 320V600Q28 623 32 644T55 678T120 692Q166 692 185 679T208 644T212 599V320Q212 287 223 251T261 190T339 164Q377 164 405 183T448 238T464 321V605Q464 627 468 646T492
679T556 692Q602 692 620 678T643 643T647 599V318Q647 258 627 199T568 90T470 10T336 -20Z" />
<glyph unicode="V" horiz-adv-x="728" d="M366 -8Q333 -8 310 4T276 42L39 563Q20 607 29 632T85 680Q117 698 139 698T178 684T206 638L364 249L522 638Q535 669 551 684T590 698T643 680Q693 656 701 632T689 563L452 42Q442 20 419 6T366 -8Z" />
<glyph unicode="W" horiz-adv-x="947" d="M290 -8Q258 -8 240 5T214 33T204 54L24 570Q9 620 19 644T82 686Q116 697 137 696T172 679T197 629L301 325L383 624Q386 634 393 650T419 678T471 691Q509 691 527 677T553 647T563 623L645 323L749 629Q760 662 773
678T809 697T865 687Q901 674 916 660T931 624T922 570L743 54Q741 48 734 33T708 5T656 -8Q622 -8 603 7T576 39T567 59L473 367L379 60Q378 55 370 39T344 7T290 -8Z" />
<glyph unicode="X" horiz-adv-x="689" d="M641 16Q614 -8 594 -15T554 -14T512 22L42 538Q9 573 9 602T47 667Q74 692 94 699T134 698T176 661L646 144Q680 107 681 80T641 16ZM48 16Q8 52 8 79T43 144L513 661Q536 688 555 697T594 700T642 667Q682 631 681 602T647
538L177 22Q155 -4 136 -13T96 -16T48 16Z" />
<glyph unicode="Y" horiz-adv-x="638" d="M584 676Q628 646 632 619T610 553L411 255V80Q411 58 407 37T384 3T319 -11Q273 -11 254 2T231 37T227 82V255L28 553Q0 592 6 620T55 676Q86 697 108 700T148 692T183 651L316 437L455 651Q474 680 491 692T531 700T584 676Z" />
<glyph unicode="Z" horiz-adv-x="598" d="M105 -11Q67 -11 41 15T14 82Q14 96 17 107T27 127L305 512H109Q87 512 65 515T29 537T14 600Q14 646 27 665T62 688T106 692H480Q518 692 544 665T571 598Q571 584 568 573T558 553L280 168H494Q516 168 536 164T570
142T584 80Q584 35 571 16T536 -7T492 -11H105Z" />
<glyph unicode="[" horiz-adv-x="324" d="M113 -173Q71 -173 53 -160T32 -125T28 -83V685Q28 707 31 727T53 761T113 775H257Q272 775 286 772T309 753T319 698Q319 660 310 644T286 625T256 622H197V-20H257Q272 -20 286 -23T309 -42T319 -98Q319 -135 310 -151T286
-170T256 -173H113Z" />
<glyph unicode="\" horiz-adv-x="491" d="M431 -46Q401 -60 380 -61T344 -49T318 -11L17 618Q-1 654 9 677T62 721Q106 741 131 734T175 687L472 65Q490 22 481 -2T431 -46Z" />
<glyph unicode="]" horiz-adv-x="324" d="M68 -173Q54 -173 39 -170T15 -151T5 -98Q5 -59 14 -43T38 -23T67 -20H126V622H68Q54 622 39 625T15 644T5 698Q5 737 14 753T38 772T67 775H210Q253 775 271 762T292 728T296 685V-83Q296 -104 293 -125T272 -159T211 -173H68Z" />
<glyph unicode="^" horiz-adv-x="489" d="M245 514Q262 514 274 507T297 489L433 352Q445 341 454 328T460 296T431 251Q405 225 386 222T354 228T330 247L245 333L160 247Q150 237 137 228T105 222T59 251Q33 277 30 295T35 327T56 352L193 489Q202 499 214 506T245
514Z" />
<glyph unicode="_" horiz-adv-x="768" d="M71 -221Q56 -221 41 -218T15 -200T5 -148Q5 -111 15 -96T41 -77T72 -74H698Q713 -74 728 -77T754 -95T764 -149Q764 -185 754 -200T728 -218T697 -221H71Z" />
<glyph unicode="`" horiz-adv-x="448" d="M254 525L97 575Q60 588 54 608T59 668Q72 712 89 722T143 722L296 675Q333 663 340 643T335 581Q322 538 306 528T254 525Z" />
<glyph unicode="a" horiz-adv-x="557" d="M436 -7Q391 -7 370 8T349 42H363Q358 35 344 24T305 3T246 -7Q201 -7 160 13T86 70T34 151T15 247Q15 296 34 341T86 421T160 477T246 498Q280 498 303 488T341 466T361 446H350Q349 471 370 485T437 499Q482 499 500
486T523 451T527 408V83Q527 61 523 40T501 6T436 -7ZM271 174Q290 174 305 184T330 210T340 246Q340 266 331 282T305 308T269 318Q249 318 233 308T206 282T196 245Q196 226 206 210T234 184T271 174Z" />
<glyph unicode="b" horiz-adv-x="554" d="M308 -7Q259 -7 223 14T164 72T130 154T120 249Q121 297 132 342T167 422T225 477T308 498Q352 498 393 477T468 421T520 340T539 247Q539 197 520 151T469 70T395 14T308 -7ZM284 173Q304 173 320 183T347 209T357 245Q357
265 348 281T322 307T285 317Q265 317 249 307T223 281T213 245Q213 226 223 210T249 183T284 173ZM120 -8Q75 -8 56 5T34 40T30 83V638Q30 661 34 681T57 715T121 728Q166 728 184 715T205 680T207 637V42Q200 16 181 4T120 -8Z" />
<glyph unicode="c" horiz-adv-x="503" d="M287 -14Q246 -14 201 2T115 51T50 133T25 247Q25 311 50 359T114 440T199 488T285 505Q323 505 351 497T397 480T423 465Q443 453 460 438T478 396Q478 383 473 370T457 339Q421 284 385 284Q369 284 357 289T335 302T314
314T285 320Q265 320 248 310T221 284T211 246Q211 225 221 208T247 181T283 171Q297 171 306 174T321 180T327 184Q341 192 353 199T379 206Q396 206 414 194T454 153Q475 127 477 105T466 63T423 25Q420 23 403 14T356 -5T287 -14Z" />
<glyph unicode="d" horiz-adv-x="554" d="M246 -7Q201 -7 160 13T86 69T34 151T15 247Q15 295 34 340T86 420T160 477T246 498Q294 498 329 478T387 422T421 342T434 249Q435 200 424 155T390 73T332 15T246 -7ZM270 173Q289 173 305 183T331 209T341 245Q341
265 332 281T306 307T269 317Q249 317 233 308T207 282T197 245Q197 226 207 210T234 183T270 173ZM434 -8Q394 -8 374 4T347 42V637Q347 659 349 680T370 714T433 728Q479 728 497 715T520 682T524 638V83Q524 61 520 40T498 6T434 -8Z" />
<glyph unicode="e" d="M288 -20Q213 -20 161 4T77 68T30 154T15 243Q15 322 50 382T147 476T289 510Q351 510 395 490T466 439T507 373T520 308Q520 251 492 221T420 191H207Q211 175 223 164T255 146T296 139Q318 139 335 141T364 148T387 156T406 162T423 165Q441
165 456 153T483 117Q490 104 493 93T496 71Q496 41 472 21T401 -9T288 -20ZM207 285H319Q333 285 339 291T346 309Q346 322 339 331T318 344T287 349Q263 349 245 340T218 316T207 285Z" />
<glyph unicode="f" horiz-adv-x="419" d="M180 -10Q136 -10 117 3T94 38T90 82V533Q90 565 102 599T139 663T204 711T299 730Q321 730 342 726T376 704T390 639Q390 594 376 575T341 553T298 549Q291 549 286 548T278 546T274 541T272 535V80Q272 58 268 38T245
4T180 -10ZM69 493H186L324 498Q346 498 366 494T400 471T414 406Q414 364 401 345T367 321T323 316L196 319H65Q31 321 18 341T5 407Q5 450 21 471T69 493Z" />
<glyph unicode="g" horiz-adv-x="546" d="M265 -220Q230 -220 194 -211T126 -185T76 -151T57 -114Q57 -94 64 -77T87 -44Q103 -27 115 -17T144 -7Q159 -7 170 -14T194 -29T223 -45T268 -52Q283 -52 296 -46T318 -28T334 -1T340 33V445Q344 475 365 488T429 501Q473
501 491 488T512 455T516 412V27Q516 -32 494 -78T434 -155T353 -203T265 -220ZM240 6Q196 6 156 26T83 81T33 160T14 254Q14 301 32 345T83 423T156 478T240 499Q284 499 312 481T357 430T381 352T388 251Q388 175 376 120T331 36T240 6ZM264 182Q283 182 298
192T323 218T333 252Q333 272 324 288T298 313T262 323Q243 323 227 313T202 287T192 252Q192 234 202 218T228 192T264 182Z" />
<glyph unicode="h" horiz-adv-x="563" d="M118 -9Q73 -9 54 4T32 39T28 82V638Q28 661 32 681T55 715T119 728Q164 728 182 715T205 681T209 637V455Q224 469 249 483T309 498Q373 498 424 465T505 374T535 245V81Q535 59 531 39T509 5T444 -9Q400 -9 381 4T357
38T353 83V246Q353 268 345 283T322 308T286 317Q259 317 236 300T209 261V81Q209 59 205 38T183 4T118 -9Z" />
<glyph unicode="i" horiz-adv-x="251" d="M125 -9Q80 -9 61 4T39 39T35 82V408Q35 430 39 450T62 484T126 498Q171 498 189 485T212 450T216 406V81Q216 59 212 38T190 4T125 -9ZM125 547Q80 547 61 560T39 595T35 638Q35 661 39 681T62 715T126 728Q171 728 189
715T212 680T216 637Q216 615 212 594T190 560T125 547Z" />
<glyph unicode="j" horiz-adv-x="234" d="M-44 -219Q-65 -219 -85 -215T-118 -193T-132 -129Q-132 -87 -119 -69T-85 -46T-42 -41Q-34 -41 -22 -39T1 -28T20 -5T28 35V419Q28 439 32 458T55 489T118 502Q162 502 180 489T202 455T206 412V29Q206 -31 183 -77T123
-155T42 -203T-44 -219ZM116 549Q65 549 47 568T28 639Q28 690 47 708T118 727Q169 727 187 709T206 639Q206 587 187 568T116 549Z" />
<glyph unicode="k" horiz-adv-x="512" d="M463 156Q500 123 502 94T469 26Q442 -2 423 -10T384 -11T339 21L216 136V81Q216 59 212 38T190 4T125 -9Q80 -9 61 4T39 39T35 82V639Q35 662 39 682T62 716T126 730Q171 730 189 717T212 682T216 638V362L301 445Q325
468 346 476T387 478T431 445Q470 403 469 377T431 315L350 244L463 156Z" />
<glyph unicode="l" horiz-adv-x="311" d="M242 -9Q196 -9 162 -5T103 11T64 45T42 104T35 196V639Q35 662 39 682T62 716T126 730Q171 730 189 717T212 682T216 638V207Q216 192 216 184T219 171T227 167T243 166Q256 166 270 163T295 142T306 81Q306 36 296 17T270
-5T242 -9Z" />
<glyph unicode="m" horiz-adv-x="791" d="M118 -9Q73 -9 54 4T32 39T28 82V409Q28 432 32 452T55 486T120 499Q165 499 185 482T206 425L189 430Q189 430 196 440T218 465T254 489T302 500Q333 500 359 492T406 468T444 427Q455 440 474 457T519 487T579 500Q638
500 679 470T742 383T764 245V82Q764 60 760 39T737 5T672 -9Q627 -9 608 5T586 40T582 83V246Q582 270 577 285T561 309T534 317Q517 317 507 310T492 288T487 245V82Q487 60 483 39T460 5T395 -9Q350 -9 331 5T309 40T305 83V246Q305 270 300 286T285 309T257
317Q237 317 227 307T214 281T210 246V81Q210 59 206 38T183 4T118 -9Z" />
<glyph unicode="n" horiz-adv-x="566" d="M120 -8Q75 -8 56 5T34 40T30 83V412Q30 434 34 454T57 486T121 499Q162 499 180 489T204 463T209 436T210 420L202 414Q201 429 213 444T246 471T290 491T335 499Q385 499 423 480T486 427T525 346T538 246V82Q538 60
534 39T512 5T447 -8Q401 -8 382 5T359 40T355 83V246Q355 269 347 285T323 309T284 318Q262 318 246 309T220 284T211 246V82Q211 60 207 39T185 5T120 -8Z" />
<glyph unicode="o" horiz-adv-x="558" d="M280 -18Q234 -18 187 0T101 53T38 136T14 245Q14 300 35 348T92 432T176 490T278 511Q352 511 412 476T508 380T544 246Q544 183 520 134T457 51T372 0T280 -18ZM278 165Q293 165 312 172T346 198T361 247Q361 272 351
290T321 318T277 328Q255 328 237 318T208 289T197 246Q197 216 211 198T244 173T278 165Z" />
<glyph unicode="p" horiz-adv-x="541" d="M300 3Q251 3 215 23T156 77T122 156T112 249Q113 297 124 342T159 422T217 477T300 498Q344 498 385 477T460 421T512 340T531 247Q531 197 512 153T461 75T387 22T300 3ZM115 -221Q71 -221 52 -208T30 -175T26 -133V410Q26
432 29 452T51 485T114 499Q149 499 172 490T205 460V-132Q207 -154 203 -174T179 -208T115 -221ZM276 173Q296 173 312 183T339 209T349 245Q349 265 340 281T314 307T277 317Q257 317 241 307T215 281T205 245Q205 226 215 210T241 183T276 173Z" />
<glyph unicode="q" horiz-adv-x="543" d="M241 3Q196 3 155 22T81 74T29 152T10 247Q10 295 29 340T81 420T155 477T241 498Q289 498 324 478T382 422T416 342T429 249Q430 200 419 156T385 78T327 23T241 3ZM265 173Q284 173 300 183T326 209T336 245Q336 265
327 281T301 307T264 317Q244 317 228 308T202 282T192 245Q192 226 202 210T229 183T265 173ZM426 -221Q382 -221 363 -208T339 -175T336 -132V460Q343 474 355 482T385 495T427 499Q471 499 489 486T511 452T515 410V-133Q515 -155 512 -175T490 -208T426 -221Z"
/>
<glyph unicode="r" horiz-adv-x="432" d="M120 -9Q75 -9 56 4T34 39T30 83V409Q30 432 34 452T57 486T121 499Q165 499 183 487T206 461T210 438L194 444Q194 444 202 453T225 474T262 495T311 504Q320 504 333 503T362 497T391 485T413 464T422 432Q422 382 401
347T344 312Q325 312 317 314T306 319T298 324T281 327Q266 327 254 324T232 313T217 297T212 276V81Q212 59 208 38T185 4T120 -9Z" />
<glyph unicode="s" horiz-adv-x="457" d="M219 -18Q191 -18 157 -12T90 7T36 37T15 76Q15 86 19 98T32 126T52 158Q59 168 68 173T91 178Q109 178 126 171T160 154T195 137T235 129Q254 129 263 133T273 145Q273 153 267 158T249 166T222 173T190 180T155 190Q132
197 110 208T71 239T43 285T32 351Q32 403 56 438T127 491T243 509Q260 509 277 507T311 501T346 491T382 476Q419 460 420 432T399 372Q387 353 375 344T349 334Q333 334 314 343T274 361T232 370Q220 370 212 368T199 361T195 350Q195 339 202 333T222 322T251
315T287 309Q313 305 340 297T391 272T428 228T442 155Q442 70 386 26T219 -18Z" />
<glyph unicode="t" horiz-adv-x="429" d="M302 -9Q249 -9 210 3T146 40T108 103T95 192V580Q95 603 99 622T122 654T186 667Q230 667 249 654T272 619T276 576V201Q276 190 277 183T282 171T290 165T303 163Q329 163 349 159T381 138T393 81Q393 36 379 17T344
-5T302 -9ZM74 493H191L329 498Q351 498 371 494T405 471T419 406Q419 364 406 345T372 321T328 316L201 319H70Q36 321 23 341T10 407Q10 450 26 471T74 493Z" />
<glyph unicode="u" horiz-adv-x="568" d="M257 -7Q209 -7 168 12T95 65T47 146T30 246V409Q30 432 34 452T57 486T121 500Q167 500 185 487T208 452T212 408V246Q212 223 220 207T245 183T284 174Q306 174 322 183T347 208T356 246V410Q356 433 360 453T383 487T447
500Q493 500 511 487T534 452T538 409V80Q538 58 534 38T511 5T447 -8Q414 -8 396 -1T369 18T360 41T358 61L375 56Q375 56 367 47T344 25T307 3T257 -7Z" />
<glyph unicode="v" horiz-adv-x="577" d="M288 -14Q260 -14 240 -3T208 30L31 367Q9 410 17 439T71 490Q118 513 145 506T194 449L288 235L382 449Q405 501 432 507T505 490Q552 467 559 438T545 367L368 30Q357 8 337 -3T288 -14Z" />
<glyph unicode="w" horiz-adv-x="737" d="M235 -12Q203 -12 186 1T160 31T147 59L14 386Q6 414 6 433T20 467T63 492Q109 512 138 504T181 455L235 306L282 435Q286 445 294 460T319 487T367 500Q400 500 418 488T445 460T457 434L503 306L551 439Q568 483 595
499T668 495Q710 476 726 450T724 384L590 59Q585 47 577 30T552 1T504 -12Q472 -12 455 -1T430 26T415 59L369 182L323 59Q315 38 308 22T285 -3T235 -12Z" />
<glyph unicode="x" horiz-adv-x="538" d="M491 471Q517 445 524 425T524 386T491 343L172 21Q149 -2 130 -10T92 -11T46 21Q21 47 14 67T15 106T46 148L365 471Q402 506 428 507T491 471ZM46 471Q71 496 90 503T129 503T172 471L491 148Q514 125 523 106T525 67T491
21Q465 -4 446 -11T409 -11T365 21L46 343Q23 366 15 385T13 424T46 471Z" />
<glyph unicode="y" horiz-adv-x="576" d="M189 -214Q140 -192 132 -166T145 -96L388 448Q409 495 433 504T507 493Q555 471 563 446T553 379L308 -170Q288 -217 264 -226T189 -214ZM270 6L32 366Q6 406 11 432T59 486Q106 515 131 509T184 461L346 216L270 6Z" />
<glyph unicode="z" horiz-adv-x="545" d="M104 -9Q67 -9 41 18T14 82Q14 100 20 116T41 146L233 318H126Q104 318 83 322T48 345T34 409Q34 454 48 472T83 495T126 499H429Q466 499 492 473T519 410Q519 391 512 374T493 345L306 173H441Q464 173 484 169T518
146T531 81Q531 36 518 17T484 -5T440 -9H104Z" />
<glyph unicode="{" horiz-adv-x="354" d="M273 -173Q238 -173 209 -160T158 -124T124 -68T112 3L111 189Q111 201 106 208T93 218T78 223T64 224H59Q30 224 18 242T5 300Q5 338 14 354T37 373T58 377H61Q66 377 74 378T91 382T105 393T111 413L112 603Q112 640
124 671T157 726T208 762T272 775Q292 775 309 772T338 752T350 699Q350 663 339 647T310 627T273 622Q270 622 268 620T265 613T264 595V437Q264 401 262 378T253 339T235 312T206 292Q223 282 234 270T252 242T261 204T264 151L263 -7Q263 -11 264 -14T267 -19T272
-21Q291 -21 308 -24T338 -43T350 -97Q350 -135 338 -151T309 -170T273 -173Z" />
<glyph unicode="|" horiz-adv-x="202" d="M100 -225Q64 -225 49 -212T31 -177T28 -134V639Q28 661 31 681T49 715T101 728Q138 728 153 715T171 681T174 638V-136Q174 -157 171 -177T153 -211T100 -225Z" />
<glyph unicode="}" horiz-adv-x="354" d="M82 -173Q65 -173 47 -170T17 -151T5 -97Q5 -59 17 -43T47 -24T83 -21Q86 -21 88 -20T91 -15T92 -7V151Q92 182 94 204T103 242T120 270T149 292Q132 301 121 312T103 338T95 377T92 437V595Q92 607 91 612T87 620T82
622Q64 623 46 627T17 647T5 699Q5 736 16 752T46 771T83 775Q118 775 147 762T198 726T232 672T244 603V413Q244 400 249 393T263 383T280 378T294 377H297Q306 377 318 374T340 354T350 300Q350 261 338 243T296 224H291Q285 224 278 223T262 219T249 208T244
188V3Q244 -35 232 -67T198 -123T147 -160T82 -173Z" />
<glyph unicode="~" horiz-adv-x="556" d="M212 361Q239 361 258 355T291 341T315 325T333 310T349 304Q363 304 371 312T385 332T403 352T434 361Q446 361 458 357T483 342Q508 326 519 311T531 280Q531 257 514 232T469 186T409 152T346 139Q319 139 300 145T266
159T242 176T223 191T206 197Q192 197 185 188T171 168T154 147T122 138Q114 138 105 140T87 149T67 163Q30 194 26 214T44 267Q48 272 59 287T91 319T142 348T212 361Z" />
<glyph unicode="&#xa0;" horiz-adv-x="235" />
<glyph unicode="&#xa1;" horiz-adv-x="249" d="M124 237Q170 237 189 226T212 196T216 157V-138Q216 -158 212 -177T190 -209T125 -222Q79 -222 60 -210T37 -178T33 -139V156Q33 176 37 194T60 225T124 237ZM124 483Q172 483 192 469T216 433T220 388Q220 335
202 313T125 291Q77 291 57 305T33 342T28 386Q28 439 47 461T124 483Z" />
<glyph unicode="&#xa2;" horiz-adv-x="404" d="M227 -85Q196 -85 183 -73T167 -43T164 -7V62Q119 74 85 103T33 174T14 268Q14 320 32 361T85 430T164 469V551Q164 571 166 589T182 618T227 630Q259 630 272 618T287 588T290 551V469Q302 466 312 463T330 456T344
449Q360 440 374 426T389 390Q389 380 385 368T371 342Q341 296 311 296Q295 296 284 303T261 318T230 326Q214 326 200 318T178 297T170 266Q170 249 178 236T199 214T229 206Q246 206 258 213T281 227T307 234Q321 234 336 224T370 191Q380 179 385 168T390 145Q390
129 378 113T343 83Q334 77 326 72T309 65T290 60V-7Q290 -26 288 -44T272 -73T227 -85Z" />
<glyph unicode="&#xa3;" horiz-adv-x="628" d="M150 -9Q112 -9 89 14T65 76Q65 100 74 115T95 143T117 175T126 224Q126 226 124 238T119 261H71Q55 261 40 264T15 283T5 333Q5 369 16 384T43 402T77 405H88V425Q88 462 95 493T116 554Q137 597 174 628T260 676T364
693Q417 693 456 682T522 655T563 628T578 614Q604 583 605 553T576 493Q545 465 512 465T456 494Q454 496 446 503T418 516T367 523Q332 523 308 512T271 478T258 424V405H345Q362 405 377 402T403 384T413 332Q413 298 403 283T378 265T346 261H293Q295 251 296
238T297 220Q297 211 296 201T294 181T289 161H538Q559 161 578 158T610 136T623 75Q623 33 610 16T578 -5T537 -9H150Z" />
<glyph unicode="&#xa4;" horiz-adv-x="630" d="M57 11Q20 31 16 55T30 110Q37 123 45 135T63 160T86 181Q78 192 65 215T43 274T33 357Q33 413 47 460T86 542Q75 552 58 571T30 612Q14 644 18 666T55 710Q93 734 114 726T155 684Q159 677 163 671T171 658Q173
652 193 647T245 639T312 636H324Q362 636 391 639T439 647T460 659Q464 665 467 671T475 683Q496 718 517 723T574 709Q611 687 614 665T600 610Q589 592 576 573T543 540Q569 506 582 460T596 359Q596 324 590 292T573 232T545 180Q553 172 563 159T584 133T599
112Q619 78 615 57T574 13Q537 -12 517 -4T476 38Q472 44 468 50T460 62Q458 69 439 74T388 83T318 86H299Q271 86 249 85T211 80T184 73T169 63Q165 56 162 50T155 37Q133 1 114 -4T57 11ZM310 236Q356 236 384 248T426 288T439 360Q439 404 426 431T386 471T315
484Q272 484 245 471T205 431T192 361Q192 319 205 292T244 250T310 236Z" />
<glyph unicode="&#xa5;" horiz-adv-x="630" d="M584 676Q628 646 632 619T610 553L411 255V80Q411 58 407 37T384 3T319 -11Q273 -11 254 2T231 37T227 82V255L28 553Q0 592 6 620T55 676Q102 708 129 700T183 651L319 433L455 651Q484 695 510 700T584 676ZM164
65Q148 65 131 67T102 83T90 125Q90 154 103 166T134 180T168 183H463Q480 183 497 181T527 166T540 124Q540 95 529 83T500 68T466 65H164ZM164 226Q148 226 131 228T102 244T90 286Q90 321 109 333T164 345H467Q505 345 522 333T540 285Q540 256 529 244T500
229T466 226H164Z" />
<glyph unicode="&#xa6;" horiz-adv-x="200" d="M100 287Q64 287 49 300T31 330T28 356V640Q28 662 31 682T49 715T100 728Q136 728 151 715T169 682T172 639V356Q172 347 169 331T151 301T100 287ZM100 -217Q64 -217 49 -204T31 -170T28 -127V155Q28 165 31 181T49
211T101 225Q137 225 151 212T169 182T172 155V-128Q172 -150 169 -170T151 -204T100 -217Z" />
<glyph unicode="&#xa7;" horiz-adv-x="521" d="M259 -219Q206 -219 167 -206T101 -173T59 -138T39 -115Q11 -78 14 -52T55 9Q92 41 119 32T177 -7Q195 -24 207 -35T231 -50T257 -55Q283 -55 299 -49T322 -30T330 4Q330 19 316 28T278 43T225 56T166 74Q130 87
98 109T46 170T26 267Q26 290 31 311T45 353T69 390Q47 415 37 447T26 520Q26 578 55 624T136 697T252 724Q293 724 324 718T382 698T438 663Q469 637 470 616T446 558Q417 516 389 511T325 529Q317 535 310 542T290 554T251 559Q238 559 227 554T208 539T201 519Q201
498 217 487T261 469T321 457T386 440T446 407T490 351T507 259Q507 222 498 190T468 131Q488 108 497 77T507 7Q507 -56 483 -99T421 -168T340 -207T259 -219ZM304 206Q313 211 319 217T327 234T330 256Q330 266 324 273T306 285T278 296T241 306Q224 302 213
291T201 266Q201 255 206 247T220 232T243 222T271 214T304 206Z" />
<glyph unicode="&#xa8;" horiz-adv-x="526" d="M388 544Q342 544 323 557T300 592T296 637Q296 660 300 681T323 715T389 728Q435 728 454 715T477 680T481 635Q481 613 477 592T454 558T388 544ZM137 544Q91 544 72 557T49 592T45 637Q46 660 49 681T72 715T138
728Q184 728 203 715T226 680T230 635Q230 613 226 592T203 558T137 544Z" />
<glyph unicode="&#xa9;" horiz-adv-x="661" d="M330 80Q252 80 193 98T94 155T34 252T14 390Q14 471 34 530T94 628T193 685T331 704Q411 704 470 685T568 628T627 530T647 391Q647 310 627 251T567 155T468 99T330 80ZM341 201Q285 201 241 226T171 296T145 398Q145
447 170 488T239 555T332 581Q377 581 407 567T453 536T470 512Q473 496 463 479T439 450Q430 444 421 442T404 440T389 446Q389 446 374 456T339 466Q316 466 299 457T271 430T261 390Q261 369 271 353T298 326T336 316Q357 316 367 323T386 336T410 343Q424 343
430 340T449 320Q470 293 470 273T446 236Q430 225 413 217T377 205T341 201ZM331 178Q391 178 433 189T500 226T536 293T548 392Q548 452 536 493T497 559T429 595T330 606Q271 606 230 595T163 558T125 491T113 389Q113 329 125 289T165 224T233 189T331 178Z"
/>
<glyph unicode="&#xaa;" horiz-adv-x="414" d="M319 672Q353 672 366 662T383 636T386 605V372Q386 356 383 340T366 314T318 304Q284 304 268 317T251 359L272 350Q266 337 252 327T220 310T181 304Q138 304 100 330T38 399T14 490Q14 537 38 578T100 646T181
672Q207 672 224 665T252 649T268 632L250 616Q251 646 267 659T319 672ZM200 440Q213 440 223 447T239 465T246 488Q246 502 240 513T223 531T198 538Q178 538 164 523T149 487Q149 475 156 464T174 447T200 440Z" />
<glyph unicode="&#xab;" horiz-adv-x="654" d="M320 28Q297 5 279 -3T243 -4T204 24L43 184Q28 199 22 213T15 244Q15 260 21 274T43 303L206 465Q227 486 244 492T280 491T320 460Q345 436 348 418T340 384T307 345L205 244L306 143Q329 121 340 104T348 70T320
28ZM610 28Q587 5 569 -3T533 -4T494 24L333 184Q318 199 312 213T305 244Q305 260 311 274T333 303L496 465Q517 486 534 492T570 491T610 460Q635 436 638 418T630 384T597 345L495 244L596 143Q619 121 630 104T638 70T610 28Z" />
<glyph unicode="&#xac;" horiz-adv-x="489" d="M412 107Q376 107 361 119T343 149T340 181V240H76Q61 240 45 244T17 266T5 329Q5 374 17 392T46 415T79 419H408Q451 419 468 402T485 347V178Q485 163 482 147T463 119T412 107Z" />
<glyph unicode="&#xae;" horiz-adv-x="661" d="M331 704Q411 704 470 685T568 628T627 530T647 391Q647 310 627 251T567 155T468 99T330 80Q252 80 193 98T94 155T34 252T14 390Q14 471 34 530T94 628T193 685T331 704ZM331 178Q388 178 429 190T497 228T535
294T548 392Q548 452 536 493T497 559T429 595T330 606Q271 606 230 595T163 558T125 491T113 389Q113 329 125 289T165 224T233 189T331 178ZM455 355L491 259Q496 247 486 235T457 216T421 208Q408 208 398 216T382 237L353 305H312V267Q312 255 310 243T296
221T256 212Q228 212 216 221T202 244T199 267V536Q199 554 205 564T227 579T265 584H342Q384 584 416 566T468 516T487 443Q487 418 479 396T455 355ZM312 471V419H345Q357 419 365 426T374 443Q374 456 366 463T343 471H312Z" />
<glyph unicode="&#xb0;" horiz-adv-x="379" d="M190 369Q143 369 103 393T38 457T14 545Q14 595 38 635T101 700T189 724Q238 724 277 700T341 636T365 546Q365 497 342 457T278 393T190 369ZM189 496Q209 496 224 510T239 548Q239 570 225 583T189 597Q168 597
154 583T140 546Q140 524 154 510T189 496Z" />
<glyph unicode="&#xb1;" horiz-adv-x="466" d="M98 268Q83 268 66 270T37 288T25 340Q25 377 37 392T67 410T99 413H367Q383 413 400 410T429 392T441 339Q441 303 430 288T401 271T366 268H98ZM232 164Q191 164 174 176T154 208T150 247V444Q150 464 153 482T174
513T233 525Q274 525 291 513T311 482T315 443V246Q315 226 312 207T291 176T232 164ZM98 -8Q83 -8 66 -6T37 12T25 64Q25 101 37 116T67 134T99 137H367Q383 137 400 134T429 116T441 63Q441 27 430 12T401 -5T366 -8H98Z" />
<glyph unicode="&#xb2;" horiz-adv-x="423" d="M100 192Q74 192 55 202T26 230T15 274Q15 297 22 315T43 349T74 377Q100 397 129 413T185 445T229 480T246 525Q246 526 243 533T232 547T208 554Q189 554 181 544T171 524T169 513Q169 495 164 478T142 450T86
438Q50 438 35 451T17 481T14 513Q14 567 40 611T109 682T207 708Q262 708 305 682T375 612T401 512Q401 484 393 460T371 416T342 381T312 354T287 335L257 346H354Q367 346 382 343T408 323T419 268Q419 230 409 214T383 195T354 192H100Z" />
<glyph unicode="&#xb3;" horiz-adv-x="425" d="M209 184Q155 184 111 207T40 269T14 353Q14 371 24 384T53 403T97 410Q123 410 136 402T155 377Q156 374 161 362T178 338T212 326Q232 326 241 333T254 348T257 359Q257 378 251 383T217 388Q203 388 191 390T171
407T164 453Q164 478 172 488T191 501T214 504Q233 504 239 511T246 537Q246 548 236 556T210 564Q194 564 187 557T177 542T171 527Q165 516 155 506T118 496Q103 496 89 502T58 521Q34 545 34 572Q34 584 45 606T78 652T135 692T215 708Q267 708 309 687T376
629T401 548Q401 520 392 498T365 459Q379 447 389 431T405 398T411 362Q411 311 385 271T314 207T209 184Z" />
<glyph unicode="&#xb4;" horiz-adv-x="563" d="M193 520Q175 520 162 535T139 581Q126 623 134 643T178 675L362 729Q380 729 393 714T415 668Q429 628 420 607T377 575L193 520Z" />
<glyph unicode="&#xb5;" horiz-adv-x="559" d="M117 -214Q73 -214 54 -201T32 -166T28 -124V410Q28 432 31 452T54 486T118 499Q163 499 181 486T204 452T208 409V247Q208 225 216 210T241 186T279 177Q301 177 317 186T342 211T351 248V410Q351 433 354 453T377
487T441 500Q486 500 504 487T527 452T531 409V86Q531 64 527 44T505 10T440 -3Q411 -3 394 2T368 17T356 36T351 55L366 52Q362 46 355 37T335 19T307 3T270 -3Q251 -3 236 2T208 14V-125Q208 -146 204 -166T181 -200T117 -214Z" />
<glyph unicode="&#xb6;" horiz-adv-x="571" d="M257 -225Q221 -225 206 -212T187 -177T184 -134V236Q114 238 79 260T31 320T19 407Q19 448 24 480T46 534T98 567T193 579H454Q490 579 505 566T523 532T526 489V-136Q526 -157 523 -177T505 -211T453 -225Q417
-225 402 -212T383 -177T380 -134V467H330V-136Q330 -157 327 -177T309 -211T257 -225Z" />
<glyph unicode="&#xb7;" horiz-adv-x="220" d="M111 191Q57 191 36 212T14 286Q14 340 35 361T111 383Q164 383 185 362T206 286Q206 233 185 212T111 191Z" />
<glyph unicode="&#xb8;" horiz-adv-x="328" d="M149 -192Q120 -192 95 -178T66 -141Q66 -126 77 -114Q88 -101 96 -96T112 -90Q125 -90 131 -97T151 -104Q156 -104 165 -99T174 -81Q174 -67 165 -62T150 -57Q140 -57 132 -64T110 -72Q98 -72 90 -63T76 -47Q72
-39 69 -33T66 -20Q66 -5 79 6T112 24T150 30Q173 30 199 18T243 -18T262 -80Q262 -113 246 -138T204 -177T149 -192Z" />
<glyph unicode="&#xb9;" horiz-adv-x="299" d="M191 192Q153 192 137 203T118 230T115 257V457Q107 453 99 451T82 449Q69 449 54 458T27 480Q2 510 5 534T32 581L139 678Q150 690 164 696T193 702Q231 702 251 685T271 636V255Q271 242 268 228T248 203T191 192Z" />
<glyph unicode="&#xba;" horiz-adv-x="408" d="M206 290Q154 290 111 315T41 384T14 478Q14 531 40 574T109 643T204 669Q257 669 300 644T368 575T394 478Q394 426 369 383T301 315T206 290ZM204 424Q227 424 243 440T259 480Q259 505 244 519T203 534Q181 534
166 518T150 479Q150 456 166 440T204 424Z" />
<glyph unicode="&#xbb;" horiz-adv-x="651" d="M44 28Q20 52 16 69T24 104T58 143L159 244L57 345Q37 367 25 383T16 418T44 460Q67 483 84 491T119 493T158 465L321 303Q336 288 342 274T349 244Q349 228 343 214T321 184L160 24Q140 4 123 -3T87 -3T44 28ZM331
28Q307 52 303 69T311 104T345 143L446 244L344 345Q324 367 312 383T303 418T331 460Q354 483 371 491T406 493T445 465L608 303Q623 288 629 274T636 244Q636 228 630 214T608 184L447 24Q427 4 410 -3T374 -3T331 28Z" />
<glyph unicode="&#xbc;" horiz-adv-x="731" d="M132 -27Q115 -17 108 -9T100 10T108 33L467 712Q475 727 484 733T506 739T533 728Q549 719 556 710T564 692T557 669L195 -14Q189 -26 180 -32T160 -37T132 -27ZM621 -7Q591 -7 578 2T562 23T559 46V100H431Q406
100 392 115T378 156Q378 165 379 174T383 195L422 352Q430 386 446 396T496 398Q519 391 531 381T545 356T542 316L518 220H559V343Q559 356 561 369T577 391T622 400Q653 400 666 391T681 368T684 341V45Q684 36 682 24T666 2T621 -7ZM184 316Q154 316 142 325T126
346T123 368V525Q116 523 110 522T97 520Q87 520 76 526T56 541Q35 562 34 584T57 628L141 704Q151 714 162 719T186 724Q216 724 232 710T248 670V368Q248 358 246 346T230 325T184 316Z" />
<glyph unicode="&#xbd;" horiz-adv-x="748" d="M129 -27Q112 -17 105 -9T97 10T105 33L464 712Q472 727 481 733T503 739T530 728Q546 719 553 710T561 692T554 669L192 -14Q186 -26 177 -32T157 -37T129 -27ZM184 316Q154 316 142 325T126 346T123 368V525Q116
523 110 522T97 520Q87 520 76 526T56 541Q35 562 34 584T57 628L141 704Q151 714 162 719T186 724Q216 724 232 710T248 670V368Q248 358 246 346T230 325T184 316ZM450 -8Q429 -8 414 0T390 23T381 59Q381 81 389 97T412 125T445 148Q465 159 485 169T523 192T552
220T563 257Q563 258 562 263T554 273T536 278Q522 278 516 271T509 256T507 247Q507 233 503 219T485 196T439 186Q410 186 398 196T384 222T381 248Q381 291 401 326T457 383T535 404Q578 404 613 383T668 327T689 247Q689 219 678 196T650 156T617 126T590 107L591
117H651Q662 117 674 115T695 99T704 54Q704 23 696 10T675 -5T651 -8H450Z" />
<glyph unicode="&#xbe;" horiz-adv-x="748" d="M171 -27Q154 -17 146 -8T138 11T147 33L506 712Q515 727 524 733T545 738T572 728Q588 719 595 710T603 692T596 669L234 -14Q227 -26 219 -31T199 -36T171 -27ZM171 315Q130 315 97 333T45 380T25 442Q25 460 37
468T63 478T82 480Q105 480 114 473T127 458Q128 456 131 445T145 423T174 412Q189 412 203 421T217 448Q217 459 212 468T171 477Q158 477 150 483T141 520Q141 544 151 548T171 553Q191 553 200 561T209 587Q209 601 198 608T172 615Q159 615 152 612T142 603T135
590Q131 580 126 571T100 562Q78 562 59 578T40 615Q40 627 54 651T99 694T176 714Q219 714 250 697T298 652T316 596Q316 562 304 547T283 525Q301 512 312 492T324 448Q324 416 307 385T256 335T171 315ZM661 -7Q631 -7 618 2T602 23T599 46V100H471Q446 100
432 115T418 156Q418 165 419 174T423 195L462 352Q470 386 486 397T536 398Q559 391 571 381T585 356T582 316L558 220H599V343Q599 356 601 369T617 391T662 400Q693 400 706 391T721 368T724 341V45Q724 36 722 24T706 2T661 -7Z" />
<glyph unicode="&#xbf;" horiz-adv-x="475" d="M236 247Q278 247 295 236T316 207T320 169V162Q320 130 310 111T283 81T247 62T212 47T185 28T174 -4Q174 -33 190 -46T242 -59Q259 -59 269 -55T286 -45T294 -34Q305 -4 317 13T348 34T399 25Q433 12 448 -1T465
-33T458 -80Q457 -83 451 -98T430 -135T392 -178T331 -213T242 -227Q177 -227 124 -198T41 -118T10 -7Q10 38 24 70T59 124T101 157T138 174T157 179L150 167V177Q150 195 154 211T176 237T236 247ZM239 491Q298 491 316 469T334 394Q334 372 330 350T306 314T238
299Q179 299 161 321T142 396Q142 419 146 440T170 476T239 491Z" />
<glyph unicode="&#xc0;" horiz-adv-x="711" d="M690 118Q705 88 706 67T693 30T648 -2Q600 -25 574 -17T525 41L355 389L187 40Q163 -7 137 -15T64 -1Q33 14 19 30T5 67T21 118L272 638Q284 662 307 676T356 691Q374 691 389 685T418 666T439 637L690 118ZM197
136L273 292H438L514 136H197ZM397 725L240 775Q203 788 197 808T202 868Q215 912 232 922T286 922L439 875Q476 863 483 843T478 781Q465 738 449 728T397 725Z" />
<glyph unicode="&#xc1;" horiz-adv-x="711" d="M690 118Q705 88 706 67T693 30T648 -2Q600 -25 574 -17T525 41L355 389L187 40Q163 -7 137 -15T64 -1Q33 14 19 30T5 67T21 118L272 638Q284 662 307 676T356 691Q374 691 389 685T418 666T439 637L690 118ZM197
136L273 292H438L514 136H197ZM272 710Q254 710 241 725T218 771Q205 813 213 833T257 865L441 919Q459 919 472 904T494 858Q508 818 499 797T456 765L272 710Z" />
<glyph unicode="&#xc2;" horiz-adv-x="711" d="M690 118Q705 88 706 67T693 30T648 -2Q600 -25 574 -17T525 41L355 389L187 40Q163 -7 137 -15T64 -1Q33 14 19 30T5 67T21 118L272 638Q284 662 307 676T356 691Q374 691 389 685T418 666T439 637L690 118ZM197
136L273 292H438L514 136H197ZM357 928Q365 928 371 926T381 923L510 880Q542 870 549 844T540 786Q527 759 510 742T476 732L357 777L239 734Q220 727 204 744T173 787Q156 819 162 844T202 880L332 923Q334 924 341 926T357 928Z" />
<glyph unicode="&#xc3;" horiz-adv-x="711" d="M690 118Q705 88 706 67T693 30T648 -2Q600 -25 574 -17T525 41L355 389L187 40Q163 -7 137 -15T64 -1Q33 14 19 30T5 67T21 118L272 638Q284 662 307 676T356 691Q374 691 389 685T418 666T439 637L690 118ZM197
136L273 292H438L514 136H197ZM308 908Q334 908 347 896T370 872T391 860Q406 860 415 872T434 896T464 908Q474 908 484 904T505 892Q538 870 545 850T534 800Q522 780 501 761T454 731T406 719Q381 719 367 731T342 756T320 769Q293 769 280 759T259 738Q249
725 240 721T202 739Q171 763 167 782T181 829Q195 849 217 867T263 896T308 908Z" />
<glyph unicode="&#xc4;" horiz-adv-x="711" d="M690 118Q705 88 706 67T693 30T648 -2Q600 -25 574 -17T525 41L355 389L187 40Q163 -7 137 -15T64 -1Q33 14 19 30T5 67T21 118L272 638Q284 662 307 676T356 691Q374 691 389 685T418 666T439 637L690 118ZM197
136L273 292H438L514 136H197ZM484 744Q438 744 419 757T396 792T392 837Q392 860 396 881T419 915T485 928Q531 928 550 915T573 880T577 835Q577 813 573 792T550 758T484 744ZM233 744Q187 744 168 757T145 792T141 837Q142 860 145 881T168 915T234 928Q280
928 299 915T322 880T326 835Q326 813 322 792T299 758T233 744Z" />
<glyph unicode="&#xc5;" horiz-adv-x="711" d="M690 118Q705 88 706 67T693 30T648 -2Q600 -25 574 -17T525 41L355 389L187 40Q163 -7 137 -15T64 -1Q33 14 19 30T5 67T21 118L272 638Q284 662 307 676T356 691Q374 691 389 685T418 666T439 637L690 118ZM197
136L273 292H438L514 136H197ZM356 739Q321 739 292 756T245 803T227 868Q227 904 244 933T291 980T355 998Q391 998 420 981T467 935T485 869Q485 833 468 804T421 757T356 739ZM356 821Q376 821 389 835T403 870Q403 890 390 903T355 916Q336 916 322 903T308
869Q308 848 322 835T356 821Z" />
<glyph unicode="&#xc6;" horiz-adv-x="1068" d="M595 -8Q571 -8 550 4T517 38T504 85V404L155 20Q132 -6 110 -14T67 -14T24 19Q1 48 -6 68T-5 106T24 148L493 665Q505 678 521 685T559 692H963Q985 692 1006 688T1040 665T1054 600Q1054 556 1041 537T1008 513T967
509H688V433H860Q883 433 903 429T937 406T951 341Q951 296 938 277T904 254T859 250H688V175H968Q989 175 1009 171T1041 147T1054 83Q1054 38 1040 19T1005 -4T962 -8H595ZM238 129L380 286H520V129H238Z" />
<glyph unicode="&#xc7;" horiz-adv-x="631" d="M376 -19Q337 -19 289 -7T193 33T104 103T39 206T14 345Q14 421 38 479T103 579T191 647T289 685T379 698Q430 698 469 686T532 660T563 642Q583 629 600 614T618 572Q618 559 613 545T596 516Q576 488 559 475T524
462Q511 462 499 468T470 485Q463 490 452 496T422 508T372 514Q346 514 316 505T258 475T214 421T197 340Q197 292 214 259T259 206T316 176T372 166Q398 166 416 170T448 183T475 199Q486 207 499 213T525 219Q542 219 559 205T595 162Q606 145 611 131T617 104Q617
79 600 64T562 37Q555 33 532 19T470 -7T376 -19ZM349 -182Q320 -182 295 -168T266 -131Q266 -116 277 -104Q288 -91 296 -86T312 -80Q325 -80 331 -87T351 -94Q356 -94 365 -89T374 -71Q374 -57 365 -52T350 -47Q340 -47 332 -54T310 -62Q298 -62 290 -53T276
-37Q272 -29 269 -23T266 -10Q266 5 279 16T312 34T350 40Q373 40 399 28T443 -8T462 -70Q462 -103 446 -128T404 -167T349 -182Z" />
<glyph unicode="&#xc8;" horiz-adv-x="603" d="M129 -9Q84 -9 65 4T42 39T38 83V600Q38 652 58 671T132 691H498Q521 691 541 687T575 664T589 599Q589 554 576 535T541 512T497 508H221V419H406Q429 419 447 416T476 396T487 340Q487 302 476 286T446 266T404
263H221V174H498Q521 174 541 170T575 147T589 82Q589 37 576 18T541 -5T497 -9H129ZM307 725L150 775Q113 788 107 808T112 868Q125 912 142 922T196 922L349 875Q386 863 393 843T388 781Q375 738 359 728T307 725Z" />
<glyph unicode="&#xc9;" horiz-adv-x="603" d="M129 -9Q84 -9 65 4T42 39T38 83V600Q38 652 58 671T132 691H498Q521 691 541 687T575 664T589 599Q589 554 576 535T541 512T497 508H221V419H406Q429 419 447 416T476 396T487 340Q487 302 476 286T446 266T404
263H221V174H498Q521 174 541 170T575 147T589 82Q589 37 576 18T541 -5T497 -9H129ZM260 720Q242 720 229 735T206 781Q193 823 201 843T245 875L429 929Q447 929 460 914T482 868Q496 828 487 807T444 775L260 720Z" />
<glyph unicode="&#xca;" horiz-adv-x="603" d="M129 -9Q84 -9 65 4T42 39T38 83V600Q38 652 58 671T132 691H498Q521 691 541 687T575 664T589 599Q589 554 576 535T541 512T497 508H221V419H406Q429 419 447 416T476 396T487 340Q487 302 476 286T446 266T404
263H221V174H498Q521 174 541 170T575 147T589 82Q589 37 576 18T541 -5T497 -9H129ZM308 928Q316 928 322 926T332 923L461 880Q493 870 500 844T491 786Q478 759 461 742T427 732L308 777L190 734Q171 727 155 744T124 787Q107 819 113 844T153 880L283 923Q285
924 292 926T308 928Z" />
<glyph unicode="&#xcb;" horiz-adv-x="603" d="M129 -9Q84 -9 65 4T42 39T38 83V600Q38 652 58 671T132 691H498Q521 691 541 687T575 664T589 599Q589 554 576 535T541 512T497 508H221V419H406Q429 419 447 416T476 396T487 340Q487 302 476 286T446 266T404
263H221V174H498Q521 174 541 170T575 147T589 82Q589 37 576 18T541 -5T497 -9H129ZM435 744Q389 744 370 757T347 792T343 837Q343 860 347 881T370 915T436 928Q482 928 501 915T524 880T528 835Q528 813 524 792T501 758T435 744ZM184 744Q138 744 119 757T96
792T92 837Q93 860 96 881T119 915T185 928Q231 928 250 915T273 880T277 835Q277 813 273 792T250 758T184 744Z" />
<glyph unicode="&#xcc;" horiz-adv-x="239" d="M119 -9Q74 -9 55 4T32 39T28 83V600Q28 622 32 643T55 677T120 691Q166 691 184 678T207 643T211 599V82Q211 60 207 39T184 5T119 -9ZM120 725L-37 775Q-74 788 -80 808T-75 868Q-62 912 -45 922T9 922L162 875Q199
863 206 843T201 781Q188 738 172 728T120 725Z" />
<glyph unicode="&#xcd;" horiz-adv-x="239" d="M119 -9Q74 -9 55 4T32 39T28 83V600Q28 622 32 643T55 677T120 691Q166 691 184 678T207 643T211 599V82Q211 60 207 39T184 5T119 -9ZM36 710Q18 710 5 725T-18 771Q-31 813 -23 833T21 865L205 919Q223 919 236
904T258 858Q272 818 263 797T220 765L36 710Z" />
<glyph unicode="&#xce;" horiz-adv-x="239" d="M119 -9Q74 -9 55 4T32 39T28 83V600Q28 622 32 643T55 677T120 691Q166 691 184 678T207 643T211 599V82Q211 60 207 39T184 5T119 -9ZM121 928Q129 928 135 926T145 923L274 880Q306 870 313 844T304 786Q291 759
274 742T240 732L121 777L3 734Q-16 727 -32 744T-63 787Q-80 819 -74 844T-34 880L96 923Q98 924 105 926T121 928Z" />
<glyph unicode="&#xcf;" horiz-adv-x="239" d="M119 -9Q74 -9 55 4T32 39T28 83V600Q28 622 32 643T55 677T120 691Q166 691 184 678T207 643T211 599V82Q211 60 207 39T184 5T119 -9ZM248 744Q202 744 183 757T160 792T156 837Q156 860 160 881T183 915T249 928Q295
928 314 915T337 880T341 835Q341 813 337 792T314 758T248 744ZM-3 744Q-49 744 -68 757T-91 792T-95 837Q-94 860 -91 881T-68 915T-2 928Q44 928 63 915T86 880T90 835Q90 813 86 792T63 758T-3 744Z" />
<glyph unicode="&#xd0;" horiz-adv-x="752" d="M190 -8Q147 -8 128 5T104 39T99 84V601Q99 623 103 644T126 678T191 691H363Q434 691 497 664T608 590T684 479T712 345Q712 272 685 208T609 96T497 20T360 -8H190ZM282 175H363Q408 175 446 197T506 257T529 341Q529
387 507 425T446 485T362 508H282V175ZM96 264Q81 264 63 267T33 288T20 348Q20 389 33 405T64 425T97 429H318Q334 429 352 426T382 405T395 347Q395 306 383 289T354 268T318 264H96Z" />
<glyph unicode="&#xd1;" horiz-adv-x="670" d="M118 -9Q74 -9 55 4T32 39T28 83V602Q28 624 32 644T55 677T120 690Q164 690 180 679T209 651L459 315V602Q459 624 463 644T487 677T551 690Q597 690 615 677T638 642T642 598V82Q642 60 638 39T615 5T550 -9Q516
-9 499 -4T469 18L210 360V82Q210 60 206 39T183 5T118 -9ZM287 908Q313 908 326 896T349 872T370 860Q385 860 394 872T413 896T443 908Q453 908 463 904T484 892Q517 870 524 850T513 800Q501 780 480 761T433 731T385 719Q360 719 346 731T321 756T299 769Q272
769 259 759T238 738Q228 725 219 721T181 739Q150 763 146 782T160 829Q174 849 196 867T242 896T287 908Z" />
<glyph unicode="&#xd2;" horiz-adv-x="721" d="M365 -20Q292 -20 229 7T117 84T42 197T14 335Q14 411 40 477T114 593T223 671T357 699Q430 699 493 672T605 595T680 481T707 339Q707 265 681 200T607 86T498 8T365 -20ZM360 163Q394 163 424 176T476 213T511
269T524 339Q524 376 511 408T476 464T424 502T361 516Q327 516 298 503T246 465T210 408T197 339Q197 303 210 271T245 215T297 177T360 163ZM361 725L204 775Q167 788 161 808T166 868Q179 912 196 922T250 922L403 875Q440 863 447 843T442 781Q429 738 413
728T361 725Z" />
<glyph unicode="&#xd3;" horiz-adv-x="721" d="M365 -20Q292 -20 229 7T117 84T42 197T14 335Q14 411 40 477T114 593T223 671T357 699Q430 699 493 672T605 595T680 481T707 339Q707 265 681 200T607 86T498 8T365 -20ZM360 163Q394 163 424 176T476 213T511
269T524 339Q524 376 511 408T476 464T424 502T361 516Q327 516 298 503T246 465T210 408T197 339Q197 303 210 271T245 215T297 177T360 163ZM277 710Q259 710 246 725T223 771Q210 813 218 833T262 865L446 919Q464 919 477 904T499 858Q513 818 504 797T461
765L277 710Z" />
<glyph unicode="&#xd4;" horiz-adv-x="721" d="M365 -20Q292 -20 229 7T117 84T42 197T14 335Q14 411 40 477T114 593T223 671T357 699Q430 699 493 672T605 595T680 481T707 339Q707 265 681 200T607 86T498 8T365 -20ZM360 163Q394 163 424 176T476 213T511
269T524 339Q524 376 511 408T476 464T424 502T361 516Q327 516 298 503T246 465T210 408T197 339Q197 303 210 271T245 215T297 177T360 163ZM362 928Q370 928 376 926T386 923L515 880Q547 870 554 844T545 786Q532 759 515 742T481 732L362 777L244 734Q225
727 209 744T178 787Q161 819 167 844T207 880L337 923Q339 924 346 926T362 928Z" />
<glyph unicode="&#xd5;" horiz-adv-x="721" d="M365 -20Q292 -20 229 7T117 84T42 197T14 335Q14 411 40 477T114 593T223 671T357 699Q430 699 493 672T605 595T680 481T707 339Q707 265 681 200T607 86T498 8T365 -20ZM360 163Q394 163 424 176T476 213T511
269T524 339Q524 376 511 408T476 464T424 502T361 516Q327 516 298 503T246 465T210 408T197 339Q197 303 210 271T245 215T297 177T360 163ZM313 908Q339 908 352 896T375 872T396 860Q411 860 420 872T439 896T469 908Q479 908 489 904T510 892Q543 870 550
850T539 800Q527 780 506 761T459 731T411 719Q386 719 372 731T347 756T325 769Q298 769 285 759T264 738Q254 725 245 721T207 739Q176 763 172 782T186 829Q200 849 222 867T268 896T313 908Z" />
<glyph unicode="&#xd6;" horiz-adv-x="721" d="M365 -20Q292 -20 229 7T117 84T42 197T14 335Q14 411 40 477T114 593T223 671T357 699Q430 699 493 672T605 595T680 481T707 339Q707 265 681 200T607 86T498 8T365 -20ZM360 163Q394 163 424 176T476 213T511
269T524 339Q524 376 511 408T476 464T424 502T361 516Q327 516 298 503T246 465T210 408T197 339Q197 303 210 271T245 215T297 177T360 163ZM489 744Q443 744 424 757T401 792T397 837Q397 860 401 881T424 915T490 928Q536 928 555 915T578 880T582 835Q582
813 578 792T555 758T489 744ZM238 744Q192 744 173 757T150 792T146 837Q147 860 150 881T173 915T239 928Q285 928 304 915T327 880T331 835Q331 813 327 792T304 758T238 744Z" />
<glyph unicode="&#xd7;" horiz-adv-x="485" d="M360 245L437 168Q460 147 467 129T468 92T439 51Q417 29 399 22T362 21T321 51L243 129L165 51Q143 29 125 22T88 21T47 51Q25 73 18 91T19 128T49 168L126 245L46 325Q25 346 18 364T18 400T47 441Q70 462 88 469T125
469T165 441L243 363L321 441Q342 462 360 469T398 469T439 441Q461 419 468 401T468 364T440 325L360 245Z" />
<glyph unicode="&#xd8;" horiz-adv-x="742" d="M375 -20Q302 -20 239 7T127 84T52 197T24 335Q24 411 50 477T124 593T233 671T367 699Q440 699 503 672T615 595T690 481T717 339Q717 265 691 200T617 86T508 8T375 -20ZM370 163Q404 163 434 176T486 213T521
269T534 339Q534 376 521 408T486 464T434 502T371 516Q337 516 307 503T255 465T220 408T207 339Q207 302 220 270T255 214T307 177T370 163ZM185 -46Q139 -24 131 -3T141 60L441 687Q461 729 485 736T554 721Q603 697 610 675T596 610L297 -11Q277 -53 254 -60T185
-46Z" />
<glyph unicode="&#xd9;" horiz-adv-x="675" d="M336 -20Q260 -20 203 10T106 91T48 201T28 320V600Q28 623 32 644T55 678T120 692Q166 692 185 679T208 644T212 599V320Q212 287 223 251T261 190T339 164Q377 164 405 183T448 238T464 321V605Q464 627 468 646T492
679T556 692Q602 692 620 678T643 643T647 599V318Q647 258 627 199T568 90T470 10T336 -20ZM338 725L181 775Q144 788 138 808T143 868Q156 912 173 922T227 922L380 875Q417 863 424 843T419 781Q406 738 390 728T338 725Z" />
<glyph unicode="&#xda;" horiz-adv-x="675" d="M336 -20Q260 -20 203 10T106 91T48 201T28 320V600Q28 623 32 644T55 678T120 692Q166 692 185 679T208 644T212 599V320Q212 287 223 251T261 190T339 164Q377 164 405 183T448 238T464 321V605Q464 627 468 646T492
679T556 692Q602 692 620 678T643 643T647 599V318Q647 258 627 199T568 90T470 10T336 -20ZM254 710Q236 710 223 725T200 771Q187 813 195 833T239 865L423 919Q441 919 454 904T476 858Q490 818 481 797T438 765L254 710Z" />
<glyph unicode="&#xdb;" horiz-adv-x="675" d="M336 -20Q260 -20 203 10T106 91T48 201T28 320V600Q28 623 32 644T55 678T120 692Q166 692 185 679T208 644T212 599V320Q212 287 223 251T261 190T339 164Q377 164 405 183T448 238T464 321V605Q464 627 468 646T492
679T556 692Q602 692 620 678T643 643T647 599V318Q647 258 627 199T568 90T470 10T336 -20ZM339 928Q347 928 353 926T363 923L492 880Q524 870 531 844T522 786Q509 759 492 742T458 732L339 777L221 734Q202 727 186 744T155 787Q138 819 144 844T184 880L314
923Q316 924 323 926T339 928Z" />
<glyph unicode="&#xdc;" horiz-adv-x="675" d="M336 -20Q260 -20 203 10T106 91T48 201T28 320V600Q28 623 32 644T55 678T120 692Q166 692 185 679T208 644T212 599V320Q212 287 223 251T261 190T339 164Q377 164 405 183T448 238T464 321V605Q464 627 468 646T492
679T556 692Q602 692 620 678T643 643T647 599V318Q647 258 627 199T568 90T470 10T336 -20ZM466 744Q420 744 401 757T378 792T374 837Q374 860 378 881T401 915T467 928Q513 928 532 915T555 880T559 835Q559 813 555 792T532 758T466 744ZM215 744Q169 744 150
757T127 792T123 837Q124 860 127 881T150 915T216 928Q262 928 281 915T304 880T308 835Q308 813 304 792T281 758T215 744Z" />
<glyph unicode="&#xdd;" horiz-adv-x="638" d="M584 676Q628 646 632 619T610 553L411 255V80Q411 58 407 37T384 3T319 -11Q273 -11 254 2T231 37T227 82V255L28 553Q0 592 6 620T55 676Q86 697 108 700T148 692T183 651L316 437L455 651Q474 680 491 692T531
700T584 676ZM235 710Q217 710 204 725T181 771Q168 813 176 833T220 865L404 919Q422 919 435 904T457 858Q471 818 462 797T419 765L235 710Z" />
<glyph unicode="&#xde;" horiz-adv-x="606" d="M131 -8Q86 -8 67 5T44 40T40 84V600Q40 622 44 643T67 677T132 691Q178 691 196 678T219 643T223 599V597H331Q369 597 413 582T496 534T561 454T586 340Q586 275 561 227T497 148T413 101T330 85H223V83Q223 61
219 40T196 6T131 -8ZM223 268H331Q344 268 361 274T391 297T404 341Q404 362 394 378T368 404T330 414H223V268Z" />
<glyph unicode="&#xdf;" horiz-adv-x="589" d="M117 -39Q73 -39 54 -26T32 8T28 51V482Q28 564 54 614T137 686T280 709Q349 709 396 693T468 647T492 571Q492 526 480 497T453 448T425 417T413 396Q413 379 429 367T470 339T518 303T558 249T575 164Q575 120
564 87T531 32T474 -1T395 -12Q378 -12 358 -10T314 -5Q283 0 259 13T234 65Q234 88 240 113T260 155T294 173Q310 173 325 167T354 155T381 148Q389 148 394 152T401 166T404 190Q404 200 389 211T350 236T304 270T265 317T249 381Q249 421 259 445T283 484T306
511T317 539Q317 544 314 547T303 551T282 553Q263 553 249 549T226 538T212 518T207 490V49Q207 27 203 7T181 -26T117 -39Z" />
<glyph unicode="&#xe0;" horiz-adv-x="557" d="M436 -7Q391 -7 370 8T349 42H363Q358 35 344 24T305 3T246 -7Q201 -7 160 13T86 70T34 151T15 247Q15 296 34 341T86 421T160 477T246 498Q280 498 303 488T341 466T361 446H350Q349 471 370 485T437 499Q482 499
500 486T523 451T527 408V83Q527 61 523 40T501 6T436 -7ZM271 174Q290 174 305 184T330 210T340 246Q340 266 331 282T305 308T269 318Q249 318 233 308T206 282T196 245Q196 226 206 210T234 184T271 174ZM319 525L162 575Q125 588 119 608T124 668Q137 712 154
722T208 722L361 675Q398 663 405 643T400 581Q387 538 371 528T319 525Z" />
<glyph unicode="&#xe1;" horiz-adv-x="557" d="M436 -7Q391 -7 370 8T349 42H363Q358 35 344 24T305 3T246 -7Q201 -7 160 13T86 70T34 151T15 247Q15 296 34 341T86 421T160 477T246 498Q280 498 303 488T341 466T361 446H350Q349 471 370 485T437 499Q482 499
500 486T523 451T527 408V83Q527 61 523 40T501 6T436 -7ZM271 174Q290 174 305 184T330 210T340 246Q340 266 331 282T305 308T269 318Q249 318 233 308T206 282T196 245Q196 226 206 210T234 184T271 174ZM231 520Q213 520 200 535T177 581Q164 623 172 643T216
675L400 729Q418 729 431 714T453 668Q467 628 458 607T415 575L231 520Z" />
<glyph unicode="&#xe2;" horiz-adv-x="557" d="M436 -7Q391 -7 370 8T349 42H363Q358 35 344 24T305 3T246 -7Q201 -7 160 13T86 70T34 151T15 247Q15 296 34 341T86 421T160 477T246 498Q280 498 303 488T341 466T361 446H350Q349 471 370 485T437 499Q482 499
500 486T523 451T527 408V83Q527 61 523 40T501 6T436 -7ZM271 174Q290 174 305 184T330 210T340 246Q340 266 331 282T305 308T269 318Q249 318 233 308T206 282T196 245Q196 226 206 210T234 184T271 174ZM533 728Q541 728 547 726T557 723L686 680Q718 670 725
644T716 586Q703 559 686 542T652 532L533 577L415 534Q396 527 380 544T349 587Q332 619 338 644T378 680L508 723Q510 724 517 726T533 728Z" />
<glyph unicode="&#xe3;" horiz-adv-x="557" d="M436 -7Q391 -7 370 8T349 42H363Q358 35 344 24T305 3T246 -7Q201 -7 160 13T86 70T34 151T15 247Q15 296 34 341T86 421T160 477T246 498Q280 498 303 488T341 466T361 446H350Q349 471 370 485T437 499Q482 499
500 486T523 451T527 408V83Q527 61 523 40T501 6T436 -7ZM271 174Q290 174 305 184T330 210T340 246Q340 266 331 282T305 308T269 318Q249 318 233 308T206 282T196 245Q196 226 206 210T234 184T271 174ZM226 728Q252 728 265 716T288 692T309 680Q324 680 333
692T352 716T382 728Q392 728 402 724T423 712Q456 690 463 670T452 620Q440 600 419 581T372 551T324 539Q299 539 285 551T260 576T238 589Q211 589 198 579T177 558Q167 545 158 541T120 559Q89 583 85 602T99 649Q113 669 135 687T181 716T226 728Z" />
<glyph unicode="&#xe4;" horiz-adv-x="557" d="M436 -7Q391 -7 370 8T349 42H363Q358 35 344 24T305 3T246 -7Q201 -7 160 13T86 70T34 151T15 247Q15 296 34 341T86 421T160 477T246 498Q280 498 303 488T341 466T361 446H350Q349 471 370 485T437 499Q482 499
500 486T523 451T527 408V83Q527 61 523 40T501 6T436 -7ZM271 174Q290 174 305 184T330 210T340 246Q340 266 331 282T305 308T269 318Q249 318 233 308T206 282T196 245Q196 226 206 210T234 184T271 174ZM406 544Q360 544 341 557T318 592T314 637Q314 660 318
681T341 715T407 728Q453 728 472 715T495 680T499 635Q499 613 495 592T472 558T406 544ZM155 544Q109 544 90 557T67 592T63 637Q64 660 67 681T90 715T156 728Q202 728 221 715T244 680T248 635Q248 613 244 592T221 558T155 544Z" />
<glyph unicode="&#xe5;" horiz-adv-x="557" d="M436 -7Q391 -7 370 8T349 42H363Q358 35 344 24T305 3T246 -7Q201 -7 160 13T86 70T34 151T15 247Q15 296 34 341T86 421T160 477T246 498Q280 498 303 488T341 466T361 446H350Q349 471 370 485T437 499Q482 499
500 486T523 451T527 408V83Q527 61 523 40T501 6T436 -7ZM271 174Q290 174 305 184T330 210T340 246Q340 266 331 282T305 308T269 318Q249 318 233 308T206 282T196 245Q196 226 206 210T234 184T271 174ZM276 525Q241 525 212 542T165 589T147 654Q147 690 164
719T211 766T275 784Q311 784 340 767T387 721T405 655Q405 619 388 590T341 543T276 525ZM276 607Q296 607 309 621T323 656Q323 676 310 689T275 702Q256 702 242 689T228 655Q228 634 242 621T276 607Z" />
<glyph unicode="&#xe6;" horiz-adv-x="846" d="M255 507Q286 507 315 500T371 478T421 443Q445 463 474 476T536 497T604 504Q663 504 706 485T777 436T818 372T832 308Q832 252 805 219T732 185H526Q529 176 537 169T556 155T582 146T611 142Q639 142 657 145T688
154T712 162T736 166Q754 166 769 155T795 121Q801 109 804 97T808 74Q808 42 778 22T700 -7T604 -16Q563 -16 527 -8T461 17T406 58Q388 40 362 23T296 -6T193 -18Q105 -18 60 21T14 139Q14 180 38 209T107 254T214 270Q229 270 243 269T270 266T294 260T316 253T335
243Q333 275 324 296T299 327T258 338Q248 338 240 337T224 333T209 325T195 313Q161 277 127 277T64 310Q27 353 27 380T63 442Q78 456 105 471T171 496T255 507ZM525 286H631Q642 286 648 291T655 306Q655 318 649 326T631 339T602 344Q586 344 570 336T541 314T525
286ZM228 111Q245 111 260 114T290 122T317 135T338 152Q329 155 315 158T282 163T242 166Q219 166 204 164T182 157T175 144Q175 127 187 119T228 111Z" />
<glyph unicode="&#xe7;" horiz-adv-x="487" d="M287 -14Q246 -14 201 2T115 51T50 133T25 247Q25 311 50 359T114 440T199 488T285 505Q323 505 351 497T397 480T423 465Q443 453 460 438T478 396Q478 383 473 370T457 339Q421 284 385 284Q369 284 357 289T335
302T314 314T285 320Q265 320 248 310T221 284T211 246Q211 225 221 208T247 181T283 171Q297 171 306 174T321 180T327 184Q341 192 353 199T379 206Q396 206 414 194T454 153Q475 127 477 105T466 63T423 25Q420 23 403 14T356 -5T287 -14ZM269 -192Q240 -192
215 -178T186 -141Q186 -126 197 -114Q208 -101 216 -96T232 -90Q245 -90 251 -97T271 -104Q276 -104 285 -99T294 -81Q294 -67 285 -62T270 -57Q260 -57 252 -64T230 -72Q218 -72 210 -63T196 -47Q192 -39 189 -33T186 -20Q186 -5 199 6T232 24T270 30Q293 30
319 18T363 -18T382 -80Q382 -113 366 -138T324 -177T269 -192Z" />
<glyph unicode="&#xe8;" d="M288 -20Q213 -20 161 4T77 68T30 154T15 243Q15 322 50 382T147 476T289 510Q351 510 395 490T466 439T507 373T520 308Q520 251 492 221T420 191H207Q211 175 223 164T255 146T296 139Q318 139 335 141T364 148T387 156T406 162T423
165Q441 165 456 153T483 117Q490 104 493 93T496 71Q496 41 472 21T401 -9T288 -20ZM207 285H319Q333 285 339 291T346 309Q346 322 339 331T318 344T287 349Q263 349 245 340T218 316T207 285ZM309 525L152 575Q115 588 109 608T114 668Q127 712 144 722T198
722L351 675Q388 663 395 643T390 581Q377 538 361 528T309 525Z" />
<glyph unicode="&#xe9;" d="M288 -20Q213 -20 161 4T77 68T30 154T15 243Q15 322 50 382T147 476T289 510Q351 510 395 490T466 439T507 373T520 308Q520 251 492 221T420 191H207Q211 175 223 164T255 146T296 139Q318 139 335 141T364 148T387 156T406 162T423
165Q441 165 456 153T483 117Q490 104 493 93T496 71Q496 41 472 21T401 -9T288 -20ZM207 285H319Q333 285 339 291T346 309Q346 322 339 331T318 344T287 349Q263 349 245 340T218 316T207 285ZM221 520Q203 520 190 535T167 581Q154 623 162 643T206 675L390
729Q408 729 421 714T443 668Q457 628 448 607T405 575L221 520Z" />
<glyph unicode="&#xea;" d="M288 -20Q213 -20 161 4T77 68T30 154T15 243Q15 322 50 382T147 476T289 510Q351 510 395 490T466 439T507 373T520 308Q520 251 492 221T420 191H207Q211 175 223 164T255 146T296 139Q318 139 335 141T364 148T387 156T406 162T423
165Q441 165 456 153T483 117Q490 104 493 93T496 71Q496 41 472 21T401 -9T288 -20ZM207 285H319Q333 285 339 291T346 309Q346 322 339 331T318 344T287 349Q263 349 245 340T218 316T207 285ZM523 728Q531 728 537 726T547 723L676 680Q708 670 715 644T706
586Q693 559 676 542T642 532L523 577L405 534Q386 527 370 544T339 587Q322 619 328 644T368 680L498 723Q500 724 507 726T523 728Z" />
<glyph unicode="&#xeb;" d="M288 -20Q213 -20 161 4T77 68T30 154T15 243Q15 322 50 382T147 476T289 510Q351 510 395 490T466 439T507 373T520 308Q520 251 492 221T420 191H207Q211 175 223 164T255 146T296 139Q318 139 335 141T364 148T387 156T406 162T423
165Q441 165 456 153T483 117Q490 104 493 93T496 71Q496 41 472 21T401 -9T288 -20ZM207 285H319Q333 285 339 291T346 309Q346 322 339 331T318 344T287 349Q263 349 245 340T218 316T207 285ZM396 544Q350 544 331 557T308 592T304 637Q304 660 308 681T331
715T397 728Q443 728 462 715T485 680T489 635Q489 613 485 592T462 558T396 544ZM145 544Q99 544 80 557T57 592T53 637Q54 660 57 681T80 715T146 728Q192 728 211 715T234 680T238 635Q238 613 234 592T211 558T145 544Z" />
<glyph unicode="&#xec;" horiz-adv-x="237" d="M118 -9Q73 -9 54 4T32 39T28 82V408Q28 430 32 450T55 484T119 498Q164 498 182 485T205 450T209 406V81Q209 59 205 38T183 4T118 -9ZM416 525L259 575Q222 588 216 608T221 668Q234 712 251 722T305 722L458 675Q495
663 502 643T497 581Q484 538 468 528T416 525Z" />
<glyph unicode="&#xed;" horiz-adv-x="237" d="M118 -9Q73 -9 54 4T32 39T28 82V408Q28 430 32 450T55 484T119 498Q164 498 182 485T205 450T209 406V81Q209 59 205 38T183 4T118 -9ZM328 520Q310 520 297 535T274 581Q261 623 269 643T313 675L497 729Q515 729
528 714T550 668Q564 628 555 607T512 575L328 520Z" />
<glyph unicode="&#xee;" horiz-adv-x="237" d="M118 -9Q73 -9 54 4T32 39T28 82V408Q28 430 32 450T55 484T119 498Q164 498 182 485T205 450T209 406V81Q209 59 205 38T183 4T118 -9ZM118 728Q126 728 132 726T142 723L271 680Q303 670 310 644T301 586Q288 559
271 542T237 532L118 577L0 534Q-19 527 -35 544T-66 587Q-83 619 -77 644T-37 680L93 723Q95 724 102 726T118 728Z" />
<glyph unicode="&#xef;" horiz-adv-x="237" d="M118 -9Q73 -9 54 4T32 39T28 82V408Q28 430 32 450T55 484T119 498Q164 498 182 485T205 450T209 406V81Q209 59 205 38T183 4T118 -9ZM247 544Q201 544 182 557T159 592T155 637Q155 660 159 681T182 715T248 728Q294
728 313 715T336 680T340 635Q340 613 336 592T313 558T247 544ZM-4 544Q-50 544 -69 557T-92 592T-96 637Q-95 660 -92 681T-69 715T-3 728Q43 728 62 715T85 680T89 635Q89 613 85 592T62 558T-4 544Z" />
<glyph unicode="&#xf0;" horiz-adv-x="564" d="M359 747Q377 736 383 726T388 704T377 678L360 656Q410 618 446 571T504 468T534 351T538 225Q535 176 514 132T457 54T377 1T282 -18Q237 -18 192 0T108 51T47 132T24 237Q24 293 46 338T105 417T184 468T267 486Q298
486 321 481T361 468Q343 493 322 512T277 545L257 517Q246 501 237 496T217 493T192 503Q172 515 165 525T160 546T174 572L186 588Q164 599 155 608T145 635Q145 645 148 656T159 680Q170 703 184 713T216 724Q227 724 237 721T256 714T274 705L291 730Q302 746
311 753T331 760T359 747ZM281 161Q296 161 314 168T347 192T361 240Q361 264 351 281T323 308T280 318Q259 318 242 308T214 280T203 239Q203 209 216 192T248 168T281 161Z" />
<glyph unicode="&#xf1;" horiz-adv-x="566" d="M120 -8Q75 -8 56 5T34 40T30 83V412Q30 434 34 454T57 486T121 499Q162 499 180 489T204 463T209 436T210 420L202 414Q201 429 213 444T246 471T290 491T335 499Q385 499 423 480T486 427T525 346T538 246V82Q538
60 534 39T512 5T447 -8Q401 -8 382 5T359 40T355 83V246Q355 269 347 285T323 309T284 318Q262 318 246 309T220 284T211 246V82Q211 60 207 39T185 5T120 -8ZM232 728Q258 728 271 716T294 692T315 680Q330 680 339 692T358 716T388 728Q398 728 408 724T429
712Q462 690 469 670T458 620Q446 600 425 581T378 551T330 539Q305 539 291 551T266 576T244 589Q217 589 204 579T183 558Q173 545 164 541T126 559Q95 583 91 602T105 649Q119 669 141 687T187 716T232 728Z" />
<glyph unicode="&#xf2;" horiz-adv-x="558" d="M280 -18Q234 -18 187 0T101 53T38 136T14 245Q14 300 35 348T92 432T176 490T278 511Q352 511 412 476T508 380T544 246Q544 183 520 134T457 51T372 0T280 -18ZM278 165Q293 165 312 172T346 198T361 247Q361 272
351 290T321 318T277 328Q255 328 237 318T208 289T197 246Q197 216 211 198T244 173T278 165ZM320 525L163 575Q126 588 120 608T125 668Q138 712 155 722T209 722L362 675Q399 663 406 643T401 581Q388 538 372 528T320 525Z" />
<glyph unicode="&#xf3;" horiz-adv-x="558" d="M280 -18Q234 -18 187 0T101 53T38 136T14 245Q14 300 35 348T92 432T176 490T278 511Q352 511 412 476T508 380T544 246Q544 183 520 134T457 51T372 0T280 -18ZM278 165Q293 165 312 172T346 198T361 247Q361 272
351 290T321 318T277 328Q255 328 237 318T208 289T197 246Q197 216 211 198T244 173T278 165ZM232 520Q214 520 201 535T178 581Q165 623 173 643T217 675L401 729Q419 729 432 714T454 668Q468 628 459 607T416 575L232 520Z" />
<glyph unicode="&#xf4;" horiz-adv-x="558" d="M280 -18Q234 -18 187 0T101 53T38 136T14 245Q14 300 35 348T92 432T176 490T278 511Q352 511 412 476T508 380T544 246Q544 183 520 134T457 51T372 0T280 -18ZM278 165Q293 165 312 172T346 198T361 247Q361 272
351 290T321 318T277 328Q255 328 237 318T208 289T197 246Q197 216 211 198T244 173T278 165ZM534 728Q542 728 548 726T558 723L687 680Q719 670 726 644T717 586Q704 559 687 542T653 532L534 577L416 534Q397 527 381 544T350 587Q333 619 339 644T379 680L509
723Q511 724 518 726T534 728Z" />
<glyph unicode="&#xf5;" horiz-adv-x="558" d="M280 -18Q234 -18 187 0T101 53T38 136T14 245Q14 300 35 348T92 432T176 490T278 511Q352 511 412 476T508 380T544 246Q544 183 520 134T457 51T372 0T280 -18ZM278 165Q293 165 312 172T346 198T361 247Q361 272
351 290T321 318T277 328Q255 328 237 318T208 289T197 246Q197 216 211 198T244 173T278 165ZM227 728Q253 728 266 716T289 692T310 680Q325 680 334 692T353 716T383 728Q393 728 403 724T424 712Q457 690 464 670T453 620Q441 600 420 581T373 551T325 539Q300
539 286 551T261 576T239 589Q212 589 199 579T178 558Q168 545 159 541T121 559Q90 583 86 602T100 649Q114 669 136 687T182 716T227 728Z" />
<glyph unicode="&#xf6;" horiz-adv-x="558" d="M280 -18Q234 -18 187 0T101 53T38 136T14 245Q14 300 35 348T92 432T176 490T278 511Q352 511 412 476T508 380T544 246Q544 183 520 134T457 51T372 0T280 -18ZM278 165Q293 165 312 172T346 198T361 247Q361 272
351 290T321 318T277 328Q255 328 237 318T208 289T197 246Q197 216 211 198T244 173T278 165ZM407 544Q361 544 342 557T319 592T315 637Q315 660 319 681T342 715T408 728Q454 728 473 715T496 680T500 635Q500 613 496 592T473 558T407 544ZM156 544Q110 544
91 557T68 592T64 637Q65 660 68 681T91 715T157 728Q203 728 222 715T245 680T249 635Q249 613 245 592T222 558T156 544Z" />
<glyph unicode="&#xf7;" horiz-adv-x="468" d="M88 189Q73 189 56 192T26 212T14 266Q14 304 27 319T58 338T92 341H377Q393 341 411 338T441 319T454 265Q454 228 443 212T413 193T376 189H88ZM233 -7Q186 -7 167 11T148 76Q148 125 167 144T234 163Q281 163
299 144T318 77Q318 30 299 12T233 -7ZM233 367Q186 367 167 385T148 450Q148 499 167 518T234 537Q281 537 299 518T318 451Q318 404 299 386T233 367Z" />
<glyph unicode="&#xf8;" horiz-adv-x="558" d="M458 420L302 494L351 595Q371 636 394 642T463 629Q495 613 507 599T519 565T505 517L458 420ZM95 -138Q55 -119 43 -96T51 -31L101 71L255 -3L207 -103Q187 -145 165 -151T95 -138ZM280 -18Q234 -18 187 0T101
53T38 136T14 245Q14 300 35 348T92 432T176 490T278 511Q352 511 412 476T508 380T544 246Q544 183 520 134T457 51T372 0T280 -18ZM278 165Q293 165 312 172T346 198T361 247Q361 272 351 290T321 318T277 328Q255 328 237 318T208 289T197 246Q197 216 211 198T244
173T278 165Z" />
<glyph unicode="&#xf9;" horiz-adv-x="568" d="M257 -7Q209 -7 168 12T95 65T47 146T30 246V409Q30 432 34 452T57 486T121 500Q167 500 185 487T208 452T212 408V246Q212 223 220 207T245 183T284 174Q306 174 322 183T347 208T356 246V410Q356 433 360 453T383
487T447 500Q493 500 511 487T534 452T538 409V80Q538 58 534 38T511 5T447 -8Q414 -8 396 -1T369 18T360 41T358 61L375 56Q375 56 367 47T344 25T307 3T257 -7ZM325 525L168 575Q131 588 125 608T130 668Q143 712 160 722T214 722L367 675Q404 663 411 643T406
581Q393 538 377 528T325 525Z" />
<glyph unicode="&#xfa;" horiz-adv-x="568" d="M257 -7Q209 -7 168 12T95 65T47 146T30 246V409Q30 432 34 452T57 486T121 500Q167 500 185 487T208 452T212 408V246Q212 223 220 207T245 183T284 174Q306 174 322 183T347 208T356 246V410Q356 433 360 453T383
487T447 500Q493 500 511 487T534 452T538 409V80Q538 58 534 38T511 5T447 -8Q414 -8 396 -1T369 18T360 41T358 61L375 56Q375 56 367 47T344 25T307 3T257 -7ZM237 520Q219 520 206 535T183 581Q170 623 178 643T222 675L406 729Q424 729 437 714T459 668Q473
628 464 607T421 575L237 520Z" />
<glyph unicode="&#xfb;" horiz-adv-x="568" d="M257 -7Q209 -7 168 12T95 65T47 146T30 246V409Q30 432 34 452T57 486T121 500Q167 500 185 487T208 452T212 408V246Q212 223 220 207T245 183T284 174Q306 174 322 183T347 208T356 246V410Q356 433 360 453T383
487T447 500Q493 500 511 487T534 452T538 409V80Q538 58 534 38T511 5T447 -8Q414 -8 396 -1T369 18T360 41T358 61L375 56Q375 56 367 47T344 25T307 3T257 -7ZM539 728Q547 728 553 726T563 723L692 680Q724 670 731 644T722 586Q709 559 692 542T658 532L539
577L421 534Q402 527 386 544T355 587Q338 619 344 644T384 680L514 723Q516 724 523 726T539 728Z" />
<glyph unicode="&#xfc;" horiz-adv-x="568" d="M257 -7Q209 -7 168 12T95 65T47 146T30 246V409Q30 432 34 452T57 486T121 500Q167 500 185 487T208 452T212 408V246Q212 223 220 207T245 183T284 174Q306 174 322 183T347 208T356 246V410Q356 433 360 453T383
487T447 500Q493 500 511 487T534 452T538 409V80Q538 58 534 38T511 5T447 -8Q414 -8 396 -1T369 18T360 41T358 61L375 56Q375 56 367 47T344 25T307 3T257 -7ZM412 544Q366 544 347 557T324 592T320 637Q320 660 324 681T347 715T413 728Q459 728 478 715T501
680T505 635Q505 613 501 592T478 558T412 544ZM161 544Q115 544 96 557T73 592T69 637Q70 660 73 681T96 715T162 728Q208 728 227 715T250 680T254 635Q254 613 250 592T227 558T161 544Z" />
<glyph unicode="&#xfd;" horiz-adv-x="576" d="M189 -214Q140 -192 132 -166T145 -96L388 448Q409 495 433 504T507 493Q555 471 563 446T553 379L308 -170Q288 -217 264 -226T189 -214ZM270 6L32 366Q6 406 11 432T59 486Q106 515 131 509T184 461L346 216L270
6ZM244 520Q226 520 213 535T190 581Q177 623 185 643T229 675L413 729Q431 729 444 714T466 668Q480 628 471 607T428 575L244 520Z" />
<glyph unicode="&#xfe;" horiz-adv-x="539" d="M297 3Q248 3 212 23T153 77T119 156T109 249Q110 297 121 342T156 422T214 477T297 498Q341 498 382 477T457 421T509 340T528 247Q528 197 509 153T458 75T384 22T297 3ZM112 -219Q70 -219 53 -206T32 -172T28
-129V652Q28 674 31 694T53 728T113 741Q155 741 172 728T194 694T198 651V-131Q198 -153 194 -173T173 -206T112 -219ZM273 173Q293 173 309 183T336 209T346 245Q346 265 337 281T311 307T274 317Q253 317 237 307T212 281T202 245Q202 226 212 210T238 183T273
173Z" />
<glyph unicode="&#xff;" horiz-adv-x="576" d="M189 -214Q140 -192 132 -166T145 -96L388 448Q409 495 433 504T507 493Q555 471 563 446T553 379L308 -170Q288 -217 264 -226T189 -214ZM270 6L32 366Q6 406 11 432T59 486Q106 515 131 509T184 461L346 216L270
6ZM419 544Q373 544 354 557T331 592T327 637Q327 660 331 681T354 715T420 728Q466 728 485 715T508 680T512 635Q512 613 508 592T485 558T419 544ZM168 544Q122 544 103 557T80 592T76 637Q77 660 80 681T103 715T169 728Q215 728 234 715T257 680T261 635Q261
613 257 592T234 558T168 544Z" />
<glyph unicode="&#x2013;" horiz-adv-x="542" d="M91 170Q75 170 58 174T28 196T15 256Q15 298 28 315T59 335T94 339H448Q465 339 483 336T514 315T527 255Q527 213 515 196T485 174T447 170H91Z" />
<glyph unicode="&#x2014;" horiz-adv-x="665" d="M91 170Q75 170 58 174T28 196T15 256Q15 298 28 315T59 335T94 339H572Q589 339 607 336T637 315T650 255Q650 213 639 196T609 174T571 170H91Z" />
<glyph unicode="&#x2018;" horiz-adv-x="220" d="M179 692Q179 692 185 690T198 679T205 648Q205 622 197 614T183 603Q181 602 166 589T145 543Q158 540 168 535T187 522Q201 508 203 488T206 447Q206 425 202 404T177 368T108 353Q54 353 32 375Q18 389 16 409T13
450Q13 460 14 469T16 488Q22 545 45 591T103 665T179 692Z" />
<glyph unicode="&#x2019;" horiz-adv-x="220" d="M38 352Q38 352 32 354T19 365T12 396Q12 422 20 431T34 441Q36 443 52 456T72 501Q59 504 49 509T30 522Q16 536 14 557T11 597Q12 619 16 640T40 676T109 691Q163 691 185 669Q199 655 201 635T204 594Q204 584
204 575T201 556Q196 499 173 453T114 380T38 352Z" />
<glyph unicode="&#x201a;" horiz-adv-x="223" d="M43 -157Q43 -157 37 -155T24 -144T17 -113Q17 -87 25 -78T39 -68Q41 -66 57 -53T77 -8Q64 -5 54 0T35 13Q21 27 19 48T16 88Q17 110 21 131T45 167T114 182Q168 182 190 160Q204 146 206 126T209 85Q209 75 209
66T206 47Q201 -10 178 -56T119 -129T43 -157Z" />
<glyph unicode="&#x201c;" horiz-adv-x="448" d="M396 692Q396 692 402 690T415 679T422 648Q422 622 414 614T400 603Q398 602 383 589T362 543Q375 540 385 535T404 522Q418 508 420 488T423 447Q423 425 419 404T394 368T325 353Q271 353 249 375Q235 389 233
409T230 450Q230 460 231 469T233 488Q239 545 262 591T320 665T396 692ZM185 692Q185 692 191 690T204 679T211 648Q211 622 203 614T189 603Q187 602 172 589T151 543Q164 540 174 535T193 522Q207 508 209 488T212 447Q212 425 208 404T183 368T114 353Q60 353
38 375Q24 389 22 409T19 450Q19 460 20 469T22 488Q28 545 51 591T109 665T185 692Z" />
<glyph unicode="&#x201d;" horiz-adv-x="448" d="M48 351Q48 351 42 353T29 364T22 395Q22 421 30 430T44 440Q46 442 62 455T82 500Q69 503 59 508T40 521Q26 535 24 556T21 596Q22 618 26 639T50 675T119 690Q173 690 195 668Q209 654 211 634T214 593Q214 583
214 574T211 555Q206 498 183 452T124 379T48 351ZM259 351Q259 351 253 353T240 364T233 395Q233 421 241 430T255 440Q257 442 273 455T293 500Q280 503 270 508T251 521Q237 535 235 556T232 596Q233 618 237 639T261 675T330 690Q384 690 406 668Q420 654 422
634T425 593Q425 583 425 574T422 555Q417 498 394 452T335 379T259 351Z" />
<glyph unicode="&#x201e;" horiz-adv-x="448" d="M49 -157Q49 -157 43 -155T30 -144T23 -113Q23 -87 31 -78T45 -68Q47 -66 63 -53T83 -8Q70 -5 60 0T41 13Q27 27 25 48T22 88Q23 110 27 131T51 167T120 182Q174 182 196 160Q210 146 212 126T215 85Q215 75 215
66T212 47Q207 -10 184 -56T125 -129T49 -157ZM263 -157Q263 -157 257 -155T244 -144T237 -113Q237 -87 245 -78T259 -68Q261 -66 277 -53T297 -8Q284 -5 274 0T255 13Q241 27 239 48T236 88Q237 110 241 131T265 167T334 182Q388 182 410 160Q424 146 426 126T429
85Q429 75 429 66T426 47Q421 -10 398 -56T339 -129T263 -157Z" />
<glyph unicode="&#x2022;" horiz-adv-x="318" d="M159 149Q111 149 79 165T31 213T14 294Q14 342 30 374T79 422T159 439Q207 439 239 423T287 374T304 294Q304 246 288 214T239 166T159 149Z" />
<glyph unicode="&#x2039;" horiz-adv-x="356" d="M317 28Q294 5 276 -3T240 -4T201 24L40 184Q25 199 19 213T12 244Q12 260 18 274T40 303L203 465Q224 486 241 492T277 491T317 460Q342 436 345 418T337 384T304 345L202 244L303 143Q326 121 337 104T345 70T317 28Z" />
<glyph unicode="&#x203a;" horiz-adv-x="360" d="M42 28Q18 52 14 69T22 104T56 143L157 244L55 345Q35 367 23 383T14 418T42 460Q65 483 82 491T117 493T156 465L319 303Q334 288 340 274T347 244Q347 228 341 214T319 184L158 24Q138 4 121 -3T85 -3T42 28Z" />
</font>
</defs>
</svg>
