<?xml version="1.0" standalone="no"?>
<!DOCTYPE svg PUBLIC "-//W3C//DTD SVG 1.1//EN" "http://www.w3.org/Graphics/SVG/1.1/DTD/svg11.dtd">
<svg xmlns="http://www.w3.org/2000/svg">
<defs >
<font id="Exo2" horiz-adv-x="559" ><font-face
    font-family="Exo 2"
    units-per-em="1000"
    panose-1="0 0 0 0 0 0 0 0 0 0"
    ascent="999"
    descent="-201"
    alphabetic="0" />
<glyph unicode=" " horiz-adv-x="216" />
<glyph unicode="!" horiz-adv-x="300" d="M279 695L242 425L198 219H82L95 425L133 695H279ZM143 152Q169 152 182 139T191 97L185 49Q182 24 169 12T128 0H97Q40 0 47 55L53 103Q60 152 111 152H143Z" />
<glyph unicode="&quot;" horiz-adv-x="372" d="M376 690L336 468H247L269 690H376ZM214 690L174 468H85L107 690H214Z" />
<glyph unicode="#" horiz-adv-x="713" d="M654 690L437 0H325L542 690H654ZM637 286L608 197H18L48 286H637ZM403 690L186 0H74L291 690H403ZM712 515L682 426H93L123 515H712Z" />
<glyph unicode="$" horiz-adv-x="574" d="M341 703Q394 703 452 697T564 675L549 574Q518 575 482 575T408 576T332 577Q307 577 289 576T257 568T237 549T225 512Q223 492 226 479T242 456T280 435L403 383Q456 359 483 332T519 267T521 178Q511 101 482 60T397
3T252 -13Q215 -13 151 -8T14 14L30 122Q88 121 130 120T201 118T247 117Q289 117 314 122T352 142T369 186Q372 208 369 221T354 243T320 260L190 317Q138 341 111 370T76 437T74 519Q81 576 101 612T154 668T233 695T341 703ZM269 358L318 357L210 -118H162L269
358ZM436 794L332 357L284 358L388 794H436Z" />
<glyph unicode="%" horiz-adv-x="907" d="M764 690L253 0H155L665 690H764ZM251 622Q224 622 209 611T186 572T170 492Q164 445 165 420T177 384T213 374Q240 374 255 385T279 424T295 504Q301 551 300 576T287 612T251 622ZM252 704Q315 704 352 684T402 617T403
492Q393 418 372 374T312 311T212 292Q149 292 112 312T63 379T62 504Q73 579 94 622T153 685T252 704ZM707 317Q680 317 665 307T642 268T626 187Q620 140 621 115T633 79T669 69Q697 69 712 80T736 119T751 199Q757 246 756 272T743 307T707 317ZM708 399Q772
399 809 379T858 312T859 187Q848 113 827 69T767 7T667 -12Q605 -12 568 8T520 75T518 199Q529 275 550 318T609 380T708 399Z" />
<glyph unicode="&amp;" horiz-adv-x="757" d="M376 702Q415 702 458 698T546 680L522 577Q492 583 455 586T381 590Q338 590 312 584T271 557T251 497Q246 461 252 441T279 413T336 405H745L730 306H322Q283 306 257 297T215 266T193 200Q189 173 192 155T206
127T235 112T280 108Q347 108 395 131T474 211Q505 262 516 336T528 511H654Q654 408 641 321T591 164Q562 108 517 69T406 9T252 -13Q166 -13 114 7T42 70T30 181Q37 232 56 270T109 330T195 355L196 361Q158 364 134 386T102 444T102 526Q115 603 151 640T244
690T376 702Z" />
<glyph unicode="&apos;" horiz-adv-x="211" d="M214 690L174 468H85L107 690H214Z" />
<glyph unicode="(" horiz-adv-x="365" d="M394 791L411 724Q317 684 263 579T185 307Q170 204 174 123T205 -14T288 -100L269 -162Q126 -114 70 4T42 319Q70 515 153 629T394 791Z" />
<glyph unicode=")" horiz-adv-x="365" d="M101 787Q245 741 301 624T329 305Q301 111 217 -3T-23 -166L-40 -99Q55 -56 109 51T186 319Q201 424 197 505T166 642T83 725L101 787Z" />
<glyph unicode="*" horiz-adv-x="453" d="M325 692L288 523L377 394L308 346L255 467L168 347L105 395L230 523L241 692H325ZM104 613L216 564L213 528L191 506L72 535L104 613ZM433 612L449 532L324 504L307 527L313 563L433 612Z" />
<glyph unicode="+" horiz-adv-x="533" d="M355 523L292 79H182L245 523H355ZM503 356L487 246H33L49 356H503Z" />
<glyph unicode="," horiz-adv-x="242" d="M117 152Q145 152 156 140T164 97L155 33Q151 3 141 -30T115 -93T82 -149L18 -126Q30 -94 39 -63T56 3Q32 2 23 14T17 49L24 101Q29 130 43 141T86 152H117Z" />
<glyph unicode="-" horiz-adv-x="414" d="M357 302L344 208H46L60 302H357Z" />
<glyph unicode="." horiz-adv-x="240" d="M115 152Q142 152 155 139T164 97L158 49Q155 24 142 12T101 0H67Q10 0 17 55L23 103Q30 152 81 152H115Z" />
<glyph unicode="/" horiz-adv-x="561" d="M593 690L93 -73H-28L472 690H593Z" />
<glyph unicode="0" horiz-adv-x="629" d="M284 -13Q209 -13 156 8T74 79T47 212Q47 287 54 359T81 493T135 603T224 676T359 703Q436 703 488 682T568 611T596 480Q596 405 590 333T564 198T510 88T420 14T284 -13ZM296 106Q337 106 364 127T408 184T433 266T444
364T448 466Q449 530 424 557T345 584Q305 584 279 563T236 506T211 423T200 325T195 223Q195 160 219 133T296 106Z" />
<glyph unicode="1" horiz-adv-x="432" d="M396 690L299 0H147L218 492Q220 511 224 529T233 567L64 522L54 619L247 690H396Z" />
<glyph unicode="2" horiz-adv-x="574" d="M326 702Q395 702 444 691T520 651T547 565Q547 514 530 471T482 390T407 313L202 124Q228 130 253 132T303 134H512L494 0H1L13 85Q16 103 20 118T38 146L237 330Q277 367 312 402T370 472T393 535Q393 552 384 560T356
570T312 573Q276 573 245 573T178 570T97 564L98 679Q150 689 191 694T265 700T326 702Z" />
<glyph unicode="3" horiz-adv-x="561" d="M315 704Q425 704 477 672T529 562Q529 513 515 470T471 400T397 367L396 363Q453 354 479 322T505 238Q505 153 471 98T374 15T219 -14Q171 -14 115 -9T4 6L16 115Q56 113 87 111T145 109T201 109Q276 112 315 146T355
247Q355 266 347 279T319 301T268 309L131 310L144 409H277Q336 410 360 439T384 529Q384 559 365 570T290 582Q243 582 193 581T105 578L103 686Q162 695 217 699T315 704Z" />
<glyph unicode="4" horiz-adv-x="632" d="M414 690L191 290Q182 275 184 268T202 260H597L585 169L504 154H95Q61 154 40 170T15 213T26 265L266 690H414ZM560 556L482 0H341L403 446L443 556H560Z" />
<glyph unicode="5" horiz-adv-x="546" d="M540 690L518 575H241L214 442L291 434Q365 426 410 403T477 342T498 256Q498 133 425 64T221 -12Q172 -15 117 -9T3 9L24 126Q72 118 114 115T192 114Q263 118 305 149T347 250Q347 276 334 290T291 311T213 321L124
332Q100 336 86 353T77 395L135 690H540Z" />
<glyph unicode="6" horiz-adv-x="587" d="M389 702Q405 702 431 701T488 697T550 683L529 587Q503 588 482 588T437 589T376 589Q335 589 307 579T260 540T226 461T201 326Q192 259 188 216T189 147T215 112T276 101Q325 101 351 125T387 190T399 276Q400 308
383 326T320 345Q276 345 235 320T141 245L138 310Q173 361 208 392T284 438T376 453Q463 453 504 414T544 311Q542 207 516 135T430 26T269 -12Q197 -12 149 4T76 60T46 167T55 334Q72 451 99 523T166 635T262 688T389 702Z" />
<glyph unicode="7" horiz-adv-x="529" d="M493 690Q538 690 552 667T549 606L251 0H100L347 504Q355 520 365 536T388 568L69 567L78 690H493Z" />
<glyph unicode="8" horiz-adv-x="620" d="M355 702Q453 702 505 681T573 618T580 512Q575 473 561 440T521 386T454 360L452 356Q500 351 523 325T551 257T548 166Q540 103 515 64T434 6T280 -13Q178 -13 122 8T45 71T33 178Q40 225 55 264T101 328T180 357L181
361Q127 369 109 413T99 524Q107 586 132 625T210 684T355 702ZM310 307Q277 307 254 303T217 288T194 255T180 196Q176 160 182 139T212 110T284 101Q327 101 353 110T391 142T410 207Q414 239 412 258T399 288T367 303T310 307ZM352 596Q309 596 285 588T250
557T233 494Q229 460 234 442T261 416T327 409Q358 409 379 413T412 427T431 456T442 505Q448 541 443 561T416 588T352 596Z" />
<glyph unicode="9" horiz-adv-x="587" d="M339 701Q414 701 461 684T531 626T557 516T545 345Q529 236 505 167T442 58T350 3T220 -13Q188 -13 138 -9T32 7L46 104Q73 103 98 103T151 102T212 102Q261 103 292 115T344 157T377 237T401 364Q411 432 414 476T411
544T384 578T326 588Q284 588 260 576T224 538T206 465Q200 419 204 392T226 354T277 342Q309 343 335 351T390 382T460 445L462 380Q425 324 389 293T316 249T235 236Q175 235 139 254T85 306T64 380T65 464Q74 528 91 573T139 647T219 688T339 701Z" />
<glyph unicode=":" horiz-adv-x="255" d="M156 451Q183 451 196 438T205 396L199 348Q196 323 183 311T142 299H108Q51 299 58 354L64 402Q71 451 122 451H156ZM370 153Q397 153 410 140T419 98L413 50Q410 25 397 13T356 1H322Q265 1 272 56L278 104Q285 153
336 153H370Z" />
<glyph unicode=";" horiz-adv-x="256" d="M164 451Q191 451 204 438T213 396L207 348Q204 323 191 311T150 299H116Q59 299 66 354L72 402Q79 451 130 451H164ZM125 152Q153 152 164 140T172 97L163 33Q159 3 149 -30T123 -93T90 -149L26 -126Q38 -94 47 -63T64
3Q40 2 31 14T25 49L32 101Q37 130 51 141T94 152H125Z" />
<glyph unicode="&lt;" horiz-adv-x="514" d="M491 523L474 403L165 301L444 193L429 79L31 243L47 358L491 523Z" />
<glyph unicode="=" horiz-adv-x="578" d="M542 457L526 348H68L83 457H542ZM513 245L496 136H38L54 245H513Z" />
<glyph unicode="&gt;" horiz-adv-x="513" d="M88 524L484 358L468 243L26 78L42 198L351 306L73 414L88 524Z" />
<glyph unicode="?" horiz-adv-x="520" d="M323 712Q432 712 483 673T523 551Q517 508 496 477T445 419T386 366T331 304T294 219H176Q181 270 199 309T243 378T292 434T336 481T360 528Q370 567 353 580T288 593Q236 593 203 593T143 591T81 588V688Q110 693 134
697T184 705T243 710T323 712ZM240 152Q267 152 280 139T290 97L283 49Q280 24 267 12T227 0H195Q138 0 144 55L151 103Q158 152 209 152H240Z" />
<glyph unicode="@" horiz-adv-x="797" d="M428 649Q540 650 609 639T713 594T753 494T744 317Q731 222 716 159T674 59T603 5T490 -11Q442 -11 412 3T366 40T346 93T346 151L390 427H525L479 135Q476 112 483 103T507 93Q533 93 549 103T575 139T594 209T614 325Q624
388 626 429T620 494T588 527T526 540T426 543H94L102 640Q155 643 210 644T321 647T428 649ZM284 453Q344 453 402 446T525 427L465 351Q400 353 365 354T309 355Q277 355 256 351T219 333T195 294T177 223Q168 173 169 146T184 110T221 100Q264 100 300 135T384
245L407 196Q382 143 351 96T278 18T175 -12Q133 -12 103 2T57 47T37 122T43 230Q55 303 75 347T126 415T195 445T284 453Z" />
<glyph unicode="A" horiz-adv-x="649" d="M451 690Q470 690 484 678T500 647L609 0H456L389 508Q387 526 386 543T385 576H356Q351 562 346 544T333 509L120 0H-40L251 652Q258 671 272 680T306 690H451ZM504 298L490 180H134L148 298H504Z" />
<glyph unicode="B" horiz-adv-x="638" d="M377 698Q464 698 516 682T589 625T600 512Q590 440 559 403T460 360L459 355Q539 348 565 299T579 166Q569 96 541 58T461 6T327 -8Q258 -8 207 -8T114 -5T28 0L53 108Q78 107 144 106T299 105Q343 105 369 113T408 143T427
207Q433 248 427 269T400 298T337 308H85L99 407H341Q379 408 401 415T436 444T454 503Q459 536 453 554T427 578T372 585Q314 585 270 585T193 585T130 583L125 690Q164 694 201 695T280 697T377 698ZM274 690L177 0H28L125 690H274Z" />
<glyph unicode="C" horiz-adv-x="585" d="M387 702Q436 702 471 700T535 692T595 677L575 566Q543 568 515 569T455 570T381 571Q342 571 315 562T269 528T236 458T214 339Q202 253 205 205T233 138T309 119Q380 119 426 121T518 128L525 15Q475 1 425 -5T304
-12Q197 -12 136 24T55 139T54 351Q69 452 93 520T155 628T250 685T387 702Z" />
<glyph unicode="D" horiz-adv-x="681" d="M379 700Q488 700 552 668T639 557T641 339Q626 232 601 164T537 58T439 5T298 -10Q226 -10 158 -7T28 0L103 113Q140 111 194 110T296 108Q338 108 368 117T420 153T456 226T481 351Q491 422 491 467T480 538T442 573T374
583Q343 583 309 583T243 582T183 582L125 690Q161 693 204 695T292 699T379 700ZM278 690L181 0H28L125 690H278Z" />
<glyph unicode="E" horiz-adv-x="573" d="M261 693Q318 693 374 693T485 690T585 682L567 572H309Q280 572 266 560T248 518L200 170Q196 144 207 131T246 118H501L498 7Q452 1 400 0T294 -2T189 -3Q109 -3 72 42T45 161L100 557Q109 620 150 656T261 693ZM99
412H506L493 305H82L99 412Z" />
<glyph unicode="F" horiz-adv-x="552" d="M264 693Q346 693 429 692T580 681L562 572H318Q286 572 271 561T252 518L179 0H26L103 555Q113 620 156 656T264 693ZM99 399H500L486 293H84L99 399Z" />
<glyph unicode="G" horiz-adv-x="647" d="M408 704Q446 704 482 701T554 693T622 677L604 567Q570 569 537 570T472 571T405 572Q359 572 327 562T274 526T238 455T214 339Q204 255 207 207T232 138T296 118Q330 118 355 128T401 156T445 193L468 121Q450 99 427
76T375 32T310 -1T230 -14Q160 -14 115 22T54 138T55 351Q69 458 96 527T166 634T269 688T408 704ZM611 398L554 0H443L438 107L428 136L464 398H611Z" />
<glyph unicode="H" horiz-adv-x="686" d="M279 690L182 0H28L125 690H279ZM493 425L477 309H217L233 425H493ZM672 690L575 0H423L520 690H672Z" />
<glyph unicode="I" horiz-adv-x="292" d="M278 690L181 0H28L125 690H278Z" />
<glyph unicode="J" horiz-adv-x="367" d="M356 690L278 133Q268 62 225 25T111 -12Q92 -12 67 -9T20 -2T-17 9L9 107H51Q87 107 106 122T129 165L203 690H356Z" />
<glyph unicode="K" horiz-adv-x="631" d="M672 690L455 403Q442 384 427 372T396 351L395 347Q407 339 419 322T439 287L584 0H417L253 357L498 690H672ZM279 690L250 486Q246 453 237 421T210 356Q217 326 218 295T214 235L182 0H28L125 690H279ZM315 412L301
306H178L192 412H315Z" />
<glyph unicode="L" horiz-adv-x="531" d="M276 690L202 176Q199 150 208 137T247 123H486L483 7Q416 0 338 -1T184 -3Q138 -3 105 16T56 69T47 150L122 690H276Z" />
<glyph unicode="M" horiz-adv-x="912" d="M824 690Q852 690 866 674T877 631L814 0H672L731 572H714L544 140Q536 116 521 105T480 94H386Q361 94 346 107T328 145L276 572H258L157 0H16L131 637Q136 664 149 677T190 690H331Q355 690 369 677T385 638L428 292Q431
267 432 243T433 193H448Q456 220 463 243T480 290L615 644Q623 668 638 679T678 690H824Z" />
<glyph unicode="N" horiz-adv-x="717" d="M704 690L614 52Q610 25 597 13T557 0H481Q456 0 445 13T424 49L279 411Q269 433 262 460T248 513H236Q236 486 235 459T229 403L172 0H28L117 638Q121 665 135 677T176 690H250Q275 690 286 677T307 641L448 291Q458
268 467 241T485 182H499Q498 212 499 238T505 291L560 690H704Z" />
<glyph unicode="O" horiz-adv-x="683" d="M388 704Q493 704 556 671T641 558T644 339Q630 236 605 168T541 60T444 3T310 -14Q203 -14 140 19T57 132T54 351Q69 452 93 520T157 628T252 686T388 704ZM385 583Q332 583 300 563T248 489T214 339Q201 248 205 198T236
127T313 107Q366 107 398 128T450 202T484 351Q498 444 494 494T463 563T385 583Z" />
<glyph unicode="P" horiz-adv-x="613" d="M381 700Q474 700 528 679T601 607T608 468Q596 380 568 333T487 267T350 249Q305 249 262 253T182 263T118 277T82 289L88 364Q148 364 213 364T339 364Q379 364 402 373T438 407T457 480Q463 521 458 544T433 576T377
585Q284 585 218 584T129 580L125 690Q166 695 202 697T280 699T381 700ZM277 690L180 0H28L125 690H277Z" />
<glyph unicode="Q" horiz-adv-x="683" d="M388 704Q493 704 556 671T641 558T644 339Q630 236 605 168T541 60T444 3T310 -14Q203 -14 140 19T57 132T54 351Q69 452 93 520T157 628T252 686T388 704ZM241 -35Q305 -63 375 -80T530 -111L473 -243Q385 -219 316
-186T194 -113L241 -35ZM385 583Q332 583 300 563T248 489T214 339Q201 248 205 198T236 127T313 107Q366 107 398 128T450 202T484 351Q498 444 494 494T463 563T385 583Z" />
<glyph unicode="R" horiz-adv-x="644" d="M382 700Q466 700 522 681T602 616T616 489Q610 443 594 408T545 352T461 324L460 318Q478 315 495 303T525 270T542 212L577 0H420L390 213Q386 247 373 258T332 270Q261 271 215 271T138 272T81 274L95 385H343Q383
385 407 394T444 426T463 491Q469 527 463 547T437 576T380 585Q283 585 218 584T129 581L125 690Q166 695 203 697T282 699T382 700ZM274 690L177 0H28L125 690H274Z" />
<glyph unicode="S" horiz-adv-x="581" d="M344 703Q398 703 457 697T570 675L556 574Q524 575 488 575T413 576T336 577Q311 577 292 576T259 568T237 549T225 512Q223 492 226 479T243 456T282 435L407 383Q462 360 490 332T526 267T527 178Q518 101 488 60T402
3T255 -13Q218 -13 154 -8T15 14L30 122Q89 121 132 120T204 118T250 117Q293 117 319 122T358 142T376 186Q379 208 376 221T360 242T325 260L193 317Q140 340 112 369T76 436T74 519Q81 576 101 612T154 668T235 695T344 703Z" />
<glyph unicode="T" horiz-adv-x="596" d="M430 690L333 0H180L277 690H430ZM636 690L620 570H54L71 690H636Z" />
<glyph unicode="U" horiz-adv-x="682" d="M675 690L615 272Q601 167 567 105T471 14T310 -14Q214 -14 154 15T70 109T61 278L119 690H272L213 272Q204 209 209 173T239 122T312 107Q361 107 391 122T437 176T464 278L521 690H675Z" />
<glyph unicode="V" horiz-adv-x="635" d="M684 690L403 39Q388 0 348 0H209Q189 0 176 13T160 45L61 690H215L271 196Q273 175 274 154T276 113H302Q307 134 314 154T329 195L523 690H684Z" />
<glyph unicode="W" horiz-adv-x="969" d="M1000 690L795 39Q790 20 776 10T739 0H599Q578 0 563 13T548 46L534 489Q534 514 534 535T534 580H514Q509 558 503 535T491 489L352 40Q346 21 331 11T296 0H153Q133 0 118 13T102 45L78 690H230L233 207Q233 185 232
160T230 107H251Q258 134 265 161T279 213L415 646Q427 690 472 690H595Q616 690 629 676T644 640L664 206Q665 182 665 157T665 107H687Q691 131 697 159T711 211L847 690H1000Z" />
<glyph unicode="X" horiz-adv-x="641" d="M231 690L345 340L134 0H-32L200 354L81 690H231ZM410 403L397 309H240L253 403H410ZM675 690L458 354L589 0H437L316 371L516 690H675Z" />
<glyph unicode="Y" horiz-adv-x="607" d="M662 690L365 219L221 220L55 690H208L287 433Q293 409 296 387T300 344H312Q316 364 326 388T347 434L498 690H662ZM380 312L337 0H183L228 312H380Z" />
<glyph unicode="Z" horiz-adv-x="580" d="M401 577L575 576L186 113L12 114L401 577ZM518 114L502 0H-3L12 114H518ZM591 690L575 576H86L102 690H591Z" />
<glyph unicode="[" horiz-adv-x="345" d="M380 768L367 676H291Q279 676 273 671T265 654L165 -54Q162 -73 179 -73H262L249 -165H93Q59 -165 38 -147T22 -85L132 693Q137 728 159 748T216 768H380Z" />
<glyph unicode="\" horiz-adv-x="545" d="M186 690L476 -73H364L74 690H186Z" />
<glyph unicode="]" horiz-adv-x="345" d="M254 768Q289 768 309 745T325 688L215 -90Q211 -124 189 -144T132 -165H-32L-20 -73H56Q67 -73 74 -68T82 -51L182 657Q185 676 168 676H86L99 768H254Z" />
<glyph unicode="^" horiz-adv-x="462" d="M335 627L453 402L393 370L279 535H271L107 370L51 402L228 627H335Z" />
<glyph unicode="_" horiz-adv-x="445" d="M410 0L397 -94H-48L-35 0H410Z" />
<glyph unicode="`" horiz-adv-x="353" d="M146 735L349 587L300 524L83 640L146 735Z" />
<glyph unicode="a" horiz-adv-x="593" d="M324 507Q350 507 382 505T448 498T511 489T560 479L459 399Q419 401 386 401T324 402Q291 402 268 397T230 378T205 334T188 256Q179 194 179 162T190 117T228 106Q255 107 284 124T343 170T399 237L425 189Q405 130
369 86T283 16T174 -12Q109 -15 75 14T32 104T38 257Q51 342 74 392T134 467T217 499T324 507ZM414 488L560 479L493 0H378L380 112L362 124L414 488Z" />
<glyph unicode="b" horiz-adv-x="595" d="M410 507Q469 507 503 481T549 397T546 243Q536 177 518 129T470 50T394 3T283 -12Q255 -12 220 -10T147 -2T78 10T21 27L129 104Q151 101 176 99T225 95T262 94Q297 94 319 100T355 124T379 172T395 254Q404 309 403
338T389 377T352 388Q316 388 275 364T185 298L163 350Q182 379 209 407T269 457T337 493T410 507ZM264 700L242 538Q238 502 231 470T210 404L222 394L169 20L21 27L116 700H264Z" />
<glyph unicode="c" horiz-adv-x="510" d="M305 507Q352 507 405 500T498 475L477 384Q433 386 393 386T325 387Q281 387 253 375T210 333T188 247Q180 189 186 159T215 118T282 107Q300 107 325 108T381 110T439 116L449 20Q406 3 355 -4T256 -12Q169 -12 115
14T41 99T33 253Q47 345 76 400T161 481T305 507Z" />
<glyph unicode="d" horiz-adv-x="595" d="M260 507Q328 507 393 498T500 470L479 406Q434 407 397 407T322 408Q287 408 264 403T226 382T203 336T187 256Q180 203 180 172T191 126T228 112Q271 113 309 138T393 205L420 141Q405 121 381 95T324 45T253 4T172
-12Q116 -12 82 15T36 102T37 257Q48 335 67 384T115 460T180 497T260 507ZM592 700L494 0H377V122L364 131L410 473L419 489Q419 515 421 540T427 593L444 700H592Z" />
<glyph unicode="e" horiz-adv-x="564" d="M320 507Q411 507 460 488T527 430T535 335Q528 289 505 263T440 223T336 205L84 184L95 266L307 287Q334 290 351 295T379 313T392 349Q396 373 389 385T364 400T316 403Q285 403 264 397T229 376T206 332T189 258Q179
193 186 160T217 116T284 105Q308 105 342 106T411 110T476 116L486 24Q456 11 418 3T341 -8T268 -12Q169 -12 115 18T42 107T34 254Q43 331 64 380T120 456T205 495T320 507Z" />
<glyph unicode="f" horiz-adv-x="400" d="M317 721Q337 721 366 720T426 717T478 709L456 615H367Q328 615 310 601T286 545L200 -46Q191 -114 151 -155T28 -196Q3 -196 -30 -193T-107 -185L-85 -90H-22Q17 -90 34 -76T58 -21L142 570Q153 640 193 680T317 721ZM415
494L401 397H33L45 489L134 494H415Z" />
<glyph unicode="g" horiz-adv-x="597" d="M418 488L564 479L503 50Q493 -24 468 -73T405 -152T316 -194T205 -207Q188 -207 154 -206T80 -199T10 -182L19 -97Q37 -97 55 -97T99 -98T161 -97Q232 -96 283 -75T354 0Q366 31 372 60T394 115L366 126L418 488ZM293
507Q345 507 396 503T491 493T563 479L463 399Q422 401 389 401T325 402Q288 402 265 396T227 375T205 331T189 256Q179 195 179 162T192 116T230 106Q258 108 287 124T345 170T402 237L428 190Q408 132 371 89T284 20T174 -7Q112 -8 78 19T34 106T39 257Q52 343
74 393T127 467T200 499T293 507Z" />
<glyph unicode="h" horiz-adv-x="599" d="M426 507Q495 507 528 471T552 367L500 0H352L399 327Q403 359 395 370T363 382Q327 382 290 362T200 299L183 374Q250 442 310 474T426 507ZM265 700L241 526Q235 479 223 434T200 363L215 351L167 0H19L117 700H265Z" />
<glyph unicode="i" horiz-adv-x="275" d="M239 494L170 0H23L92 494H239ZM224 712Q248 712 258 700T266 664L259 611Q253 569 210 569H150Q102 569 107 617L115 670Q119 712 163 712H224Z" />
<glyph unicode="j" horiz-adv-x="276" d="M241 494L173 20Q168 -25 148 -67T97 -142T24 -198L-57 -130Q-19 -92 0 -56T27 26L93 494H241ZM224 712Q248 712 258 700T265 664L258 611Q253 569 209 569H150Q102 569 107 617L114 670Q119 712 164 712H224Z" />
<glyph unicode="k" horiz-adv-x="565" d="M265 700L224 395Q219 363 210 333T185 271Q187 248 190 220T192 169L167 0H19L117 700H265ZM551 494Q529 416 488 362T392 270T279 208T166 163L153 261Q209 283 260 318T348 398T399 494H551ZM358 281Q383 266 399 245T425
201L519 0H365L257 244L358 281Z" />
<glyph unicode="l" horiz-adv-x="327" d="M266 700L188 155Q184 129 194 119T235 108H280L287 7Q275 0 253 -4T208 -10T172 -12Q101 -12 65 24T37 124L118 700H266Z" />
<glyph unicode="m" horiz-adv-x="878" d="M203 494L204 380L217 366L166 0H19L88 494H203ZM400 507Q469 507 500 470T523 367L471 0H329L375 327Q379 357 370 369T336 382Q318 382 298 374T253 349T192 300L174 374Q236 443 289 475T400 507ZM708 507Q778 507
810 470T832 367L781 0H634L680 327Q684 359 674 370T641 382Q624 382 605 375T561 350T502 301L483 374Q545 444 597 475T708 507Z" />
<glyph unicode="n" horiz-adv-x="599" d="M430 507Q471 507 501 492T545 445T553 367L501 0H352L398 322Q403 356 395 369T358 382Q325 381 289 361T200 299L183 374Q242 437 305 472T430 507ZM204 494V364L216 350L167 0H19L88 494H204Z" />
<glyph unicode="o" horiz-adv-x="590" d="M317 507Q408 507 463 481T537 396T543 240Q530 147 499 92T410 12T262 -12Q172 -12 117 14T41 98T33 252Q47 346 78 401T167 482T317 507ZM315 399Q275 399 251 386T212 339T188 240Q180 183 183 151T207 107T266 95Q306
95 330 108T368 156T391 252Q399 311 396 342T373 386T315 399Z" />
<glyph unicode="p" horiz-adv-x="595" d="M412 506Q469 506 503 478T547 392T545 237Q534 157 514 108T464 32T396 -4T309 -14Q285 -14 255 -12T193 -5T132 7T82 23L104 88Q149 87 186 86T259 85Q296 85 319 91T356 113T378 159T394 237Q403 298 402 330T390 375T354
388Q333 388 306 376T248 341T191 288L164 349Q178 371 204 397T263 449T335 490T412 506ZM206 494L202 375L217 363L173 26L163 10Q163 -16 162 -40T156 -94L140 -191H-8L88 494H206Z" />
<glyph unicode="q" horiz-adv-x="594" d="M296 507Q326 507 362 505T434 497T504 485T560 469L453 390Q431 395 405 397T356 400T318 401Q285 400 263 394T226 373T203 328T187 251Q179 198 180 168T193 125T232 112Q260 112 285 123T336 155T394 203L421 142Q394
102 355 67T270 10T178 -12Q119 -12 83 13T35 97T36 252Q46 321 63 369T110 448T185 493T296 507ZM412 475L560 469L466 -191H318L339 -44Q344 -4 353 33T376 105L361 113L412 475Z" />
<glyph unicode="r" horiz-adv-x="425" d="M203 494L204 376L217 362L167 0H19L88 494H203ZM445 507L413 370H377Q342 370 302 355T200 308L194 395Q253 450 309 478T415 507H445Z" />
<glyph unicode="s" horiz-adv-x="527" d="M271 507Q308 507 350 504T431 497T500 488L486 396Q438 397 391 397T294 399Q256 399 234 398T201 390T189 369Q187 351 199 341T243 320L366 276Q405 262 430 243T465 196T471 128Q464 68 434 39T353 -1T230 -11Q191
-11 158 -10T89 -4T9 7L22 99Q41 98 68 98T126 97T184 96Q241 97 271 100T313 110T329 133Q331 146 326 153T307 166T270 180L150 225Q109 240 85 261T52 312T48 380Q54 426 78 453T149 494T271 507Z" />
<glyph unicode="t" horiz-adv-x="408" d="M300 631L232 155Q228 128 237 118T275 108H342L349 7Q330 1 304 -3T252 -10T211 -12Q142 -12 107 25T81 127L154 631H300ZM418 494L404 397H32L44 489L140 494H418Z" />
<glyph unicode="u" horiz-adv-x="590" d="M233 494L186 167Q182 136 192 124T227 112Q262 112 295 132T380 196L402 122Q337 53 279 20T161 -14Q89 -14 57 23T34 127L85 494H233ZM558 494L490 0H374L376 134L363 147L411 494H558Z" />
<glyph unicode="v" horiz-adv-x="569" d="M565 494Q558 450 546 405T521 320T494 245Q473 188 451 144T413 78Q395 47 375 30T329 7T268 0H156Q139 0 127 11T112 38L38 494H198L234 97H246Q266 97 276 106T301 143Q313 166 327 199T357 279Q376 337 387 390T406 494H565Z" />
<glyph unicode="w" horiz-adv-x="888" d="M194 494L224 99H234Q248 99 258 110T278 149Q287 170 296 199T314 263Q322 291 328 319T339 380T352 457Q354 470 364 482T396 494H528Q545 494 556 483T568 457L594 99H603Q619 99 627 114T643 153Q656 184 666 212T688
281Q702 330 712 381T730 494H879Q871 452 862 410T842 328T817 249Q801 202 783 160T750 88Q735 58 717 39T670 10T597 0H530Q512 0 500 11T487 40L465 403H453Q451 385 447 358T435 299T420 236Q414 212 407 188T391 142T375 103Q359 57 336 35T284 7T219 0H139Q121
0 110 11T96 40L43 494H194Z" />
<glyph unicode="x" horiz-adv-x="565" d="M191 494L298 241L124 0H-32L158 254L51 494H191ZM362 301L349 209H194L207 301H362ZM574 494L397 253L514 0H372L257 266L422 494H574Z" />
<glyph unicode="y" horiz-adv-x="581" d="M576 494Q568 445 555 394T524 293T489 198T452 113T415 44Q365 -42 311 -96T195 -176T59 -206L44 -119Q81 -108 114 -95T177 -59T237 0T295 97Q325 156 347 215T387 342T419 494H576ZM197 494L239 114Q242 97 259 97H315L275
0H174Q151 0 135 14T115 49L37 494H197Z" />
<glyph unicode="z" horiz-adv-x="521" d="M319 392L494 391L185 101L10 102L319 392ZM456 102L442 0H-2L11 102H456ZM506 494L493 391H58L71 494H506Z" />
<glyph unicode="{" horiz-adv-x="342" d="M368 767L359 677Q317 677 298 664T274 612L252 461Q247 419 236 392T200 349T132 326Q170 315 190 298T217 254T219 193L190 -11Q185 -44 198 -59T255 -74L251 -166Q173 -175 126 -159T60 -107T48 -23L81 216Q85 240
80 251T63 267T32 281L44 377Q66 384 79 390T99 409T110 450L136 631Q142 681 167 715T242 763T368 767Z" />
<glyph unicode="|" horiz-adv-x="261" d="M251 781L118 -169H13L146 781H251Z" />
<glyph unicode="}" horiz-adv-x="342" d="M97 769Q177 779 224 763T289 710T301 626L275 444Q271 416 274 404T288 387T320 375L308 279Q287 271 273 265T250 246T238 210L205 -28Q198 -77 173 -111T99 -160T-28 -164L-18 -74Q24 -74 42 -61T65 -11L95 199Q101
234 112 258T149 300T220 330Q182 336 162 352T136 396T136 467L159 618Q163 651 150 664T92 677L97 769Z" />
<glyph unicode="~" horiz-adv-x="511" d="M143 362Q165 362 193 355T249 338T301 321T342 311Q370 306 380 319T395 360L459 354Q460 282 435 247T368 213Q343 214 315 221T258 237T206 255T166 265Q140 269 130 256T115 214L50 220Q50 271 62 302T96 348T143 362Z" />
<glyph unicode="&#xa0;" horiz-adv-x="216" />
<glyph unicode="&#xa1;" horiz-adv-x="284" d="M199 288L185 81L148 -185H2L39 81L83 288H199ZM184 507Q210 507 223 494T233 452L226 404Q223 379 210 367T169 355H138Q81 355 89 410L95 457Q102 507 153 507H184Z" />
<glyph unicode="&#xa2;" horiz-adv-x="522" d="M317 607Q364 607 416 600T509 575L488 485Q444 486 404 487T337 488Q293 488 267 476T225 434T203 348Q195 290 201 260T229 219T294 208Q312 208 337 208T392 211T450 217L460 121Q417 103 366 96T268 88Q183 88
129 114T55 200T48 354Q62 445 91 501T175 582T317 607ZM292 154L254 0H205L243 154H292ZM387 523L296 153H248L338 523H387ZM428 690L386 522H337L379 690H428Z" />
<glyph unicode="&#xa3;" horiz-adv-x="582" d="M365 703Q400 703 457 701T574 693L559 580Q543 580 530 580T499 581T454 581T380 582Q334 582 314 566T290 506L277 281Q274 237 262 207T230 154T180 113Q197 118 216 119T254 121H519L503 0H9L23 123Q78 148 100
191T127 286L143 518Q148 576 164 612T207 668T274 695T365 703ZM464 402L449 326H53L62 402H464Z" />
<glyph unicode="&#xa4;" horiz-adv-x="583" d="M317 555Q378 555 422 528T487 453T500 346Q493 290 462 245T384 175T279 149Q220 149 176 176T111 251T96 358Q104 415 134 459T212 529T317 555ZM138 275L197 209L96 117L36 184L138 275ZM440 256L523 166L457
106L375 196L440 256ZM313 472Q258 472 223 440T181 352Q174 298 203 266T282 233Q319 233 347 247T394 289T416 353Q421 389 409 416T373 457T313 472ZM144 601L224 510L157 450L77 541L144 601ZM503 592L562 525L470 442L410 508L503 592Z" />
<glyph unicode="&#xa5;" horiz-adv-x="660" d="M688 690L391 223L247 224L81 690H234L313 437Q319 413 322 391T326 348H338Q343 368 353 392T374 438L524 690H688ZM407 316L363 0H209L254 316H407ZM555 219L544 143H72L81 219H555ZM571 341L561 264H89L98 341H571Z" />
<glyph unicode="&#xa6;" horiz-adv-x="262" d="M252 781L196 381H91L148 781H252ZM175 231L119 -169H14L70 231H175Z" />
<glyph unicode="&#xa7;" horiz-adv-x="542" d="M76 360L180 356Q173 316 173 292T187 251T229 215L370 128Q386 118 402 106T430 75T448 29T449 -37Q440 -98 411 -128T335 -169T221 -180Q193 -179 154 -178T73 -174T-4 -167L13 -63Q52 -64 90 -65T173 -67Q208
-67 233 -65T273 -52T291 -20Q295 3 285 17T255 43L133 116Q82 144 62 178T46 257T76 360ZM313 704Q339 704 379 703T462 699T538 692L521 587Q500 589 481 589T432 590T350 590Q316 591 293 588T257 576T242 545Q239 524 249 509T285 478L402 408Q453 380 473
345T489 266T458 163L354 167Q361 206 360 230T347 273T304 310L164 400Q139 417 119 437T89 487T85 561Q93 622 124 652T204 693T313 704Z" />
<glyph unicode="&#xa8;" horiz-adv-x="424" d="M213 707Q230 707 235 700T239 679L230 613Q228 598 221 592T199 585H144Q115 585 118 613L128 678Q130 693 137 700T161 707H213ZM392 707Q408 707 414 700T418 679L409 613Q407 598 400 592T378 585H323Q294 585
297 613L307 678Q309 694 316 700T339 707H392Z" />
<glyph unicode="&#xa9;" horiz-adv-x="810" d="M447 704Q555 704 633 659T748 531T773 339Q761 235 710 156T574 31T378 -14Q297 -14 232 12T124 86T61 200T52 351Q64 456 116 535T253 659T447 704ZM448 554Q487 554 517 550T577 539L565 461Q532 461 505 462T444
463Q408 463 387 454T354 420T335 346Q330 301 333 276T353 241T400 231Q424 230 448 230T494 232T535 235L541 156Q508 147 475 143T405 139Q328 139 285 159T228 226T224 353Q234 429 259 473T329 535T448 554ZM450 635Q360 635 291 598T178 495T125 339Q117
254 144 190T230 91T375 55Q464 55 534 91T647 194T700 351Q710 436 683 499T596 599T450 635Z" />
<glyph unicode="&#xaa;" horiz-adv-x="448" d="M264 613Q311 613 357 608T429 594L355 537Q328 539 306 539T265 539Q238 539 221 533T194 508T177 446Q171 406 171 386T180 359T205 352Q229 353 258 375T313 432L331 399Q319 362 296 333T241 287T167 268Q121
267 96 285T64 344T65 447Q74 504 91 538T133 588T191 608T264 613ZM324 600L429 594L384 276H299V346L289 354L324 600Z" />
<glyph unicode="&#xab;" horiz-adv-x="516" d="M412 465L486 413L366 251L451 83L374 32L235 236L237 269L412 465ZM204 465L278 413L158 251L243 83L166 32L27 236L29 269L204 465Z" />
<glyph unicode="&#xac;" horiz-adv-x="578" d="M525 359L508 249H49L65 359H525ZM525 359L493 136H377L408 351L525 359Z" />
<glyph unicode="&#xad;" horiz-adv-x="415" d="M357 302L344 208H46L60 302H357Z" />
<glyph unicode="&#xae;" horiz-adv-x="524" d="M313 703Q375 703 422 676T493 597T509 475Q501 410 469 362T385 286T265 258Q200 258 152 287T81 368T66 488Q75 553 107 601T192 676T313 703ZM268 600L235 368H172L205 600H268ZM310 663Q222 663 171 612T109
477Q103 421 122 381T179 319T267 297Q324 297 367 321T435 387T467 487Q473 542 454 581T398 642T310 663ZM304 603Q338 603 362 598T397 576T404 531Q402 511 391 497T349 477L348 475Q360 472 367 465T378 437L391 368H326L316 438Q314 450 309 453T294 456Q262
456 244 456T215 456T194 457L196 497H295Q317 497 328 502T342 528Q345 547 338 552T308 558Q285 558 265 558T231 558T211 558L205 600Q230 602 251 602T304 603Z" />
<glyph unicode="&#xaf;" horiz-adv-x="400" d="M412 693L400 599H100L112 693H412Z" />
<glyph unicode="&#xb0;" horiz-adv-x="347" d="M220 700Q259 700 290 683T337 634T348 563Q342 505 302 471T202 436Q162 436 132 454T86 504T76 575Q82 630 120 665T220 700ZM216 631Q188 631 171 614T151 570Q148 541 163 524T207 506Q234 506 252 522T273 567Q276
595 261 613T216 631Z" />
<glyph unicode="&#xb1;" horiz-adv-x="570" d="M377 549L327 199H218L267 549H377ZM493 154L477 44H23L39 154H493ZM532 428L515 319H62L78 428H532Z" />
<glyph unicode="&#xb2;" horiz-adv-x="423" d="M276 777Q351 777 389 761T428 692Q428 663 415 638T382 590T336 548L217 451Q234 455 248 456T278 456L409 454L395 360H62L71 417Q73 431 77 442T94 463L207 557Q230 575 251 594T287 632T301 663Q301 676 288
679T252 683Q219 683 190 682T116 679L124 764Q173 773 213 775T276 777Z" />
<glyph unicode="&#xb3;" horiz-adv-x="409" d="M273 779Q348 779 383 763T418 707Q418 652 396 619T326 579V577Q365 571 382 554T400 504Q400 447 380 413T321 365T223 351Q181 351 139 354T60 363L76 445Q104 443 124 443T162 442T202 441Q245 441 264 453T284
502Q284 516 273 524T228 534L142 535L152 607L239 610Q274 610 288 622T302 663Q302 679 290 684T244 689Q209 689 176 689T119 687L126 766Q165 772 201 775T273 779Z" />
<glyph unicode="&#xb4;" horiz-adv-x="353" d="M315 739L369 632L132 524L95 587L315 739Z" />
<glyph unicode="&#xb5;" horiz-adv-x="613" d="M248 494L202 170Q198 142 208 129T245 115Q269 115 298 131T353 187T391 297L369 98Q346 61 317 36T255 -1T184 -14Q135 -14 104 5T58 58T50 134L100 494H248ZM567 494L516 135Q512 111 515 99T537 86H577L573 10Q548
2 515 -5T452 -12Q408 -12 385 9T364 79L366 94L365 109L418 494H567ZM188 68L168 -70L132 -188H4L59 199L188 68Z" />
<glyph unicode="&#xb6;" horiz-adv-x="593" d="M387 702Q426 702 475 698T563 685L550 601Q526 606 495 608T434 611T383 612L254 200Q171 207 122 239T56 326T50 458Q63 550 100 603T208 679T387 702ZM403 685L277 -210H182L308 685H403ZM563 685L467 0H371L468
685H563Z" />
<glyph unicode="&#xb7;" horiz-adv-x="248" d="M143 334Q170 334 183 321T192 279L186 231Q183 206 170 194T129 182H95Q38 182 45 237L51 285Q58 334 109 334H143Z" />
<glyph unicode="&#xb8;" horiz-adv-x="249" d="M36 -38Q83 -32 116 -35T165 -55T175 -109Q167 -157 137 -188T60 -231T-41 -237L-22 -175Q15 -176 44 -162T80 -116Q82 -103 73 -99T22 -94L36 -38Z" />
<glyph unicode="&#xb9;" horiz-adv-x="308" d="M316 771L258 360H145L183 630Q185 642 187 654T194 679L89 657L86 730L202 771H316Z" />
<glyph unicode="&#xba;" horiz-adv-x="437" d="M254 615Q352 615 390 574T414 434Q406 372 385 335T325 283T223 267Q127 267 88 307T62 446Q76 540 119 577T254 615ZM253 537Q228 537 213 528T189 497T174 434Q167 387 176 366T224 344Q262 344 278 365T303 446Q311
503 300 520T253 537Z" />
<glyph unicode="&#xbb;" horiz-adv-x="517" d="M92 32L18 83L138 246L53 414L130 465L269 260L267 228L92 32ZM300 32L226 83L346 246L261 414L337 465L476 260L474 228L300 32Z" />
<glyph unicode="&#xbc;" horiz-adv-x="908" d="M721 690L208 0H110L623 690H721ZM306 690L247 276H134L172 552Q174 564 176 576T183 601L81 577L77 649L192 690H306ZM730 414L598 180Q593 172 596 168T607 163H858L849 96L795 87H516Q496 87 484 97T469 125T478
160L625 414H730ZM834 333L787 0H686L722 264L749 333H834Z" />
<glyph unicode="&#xbd;" horiz-adv-x="912" d="M717 690L204 0H106L619 690H717ZM305 690L247 276H133L172 552Q174 564 176 576T183 601L80 577L77 649L191 690H305ZM704 421Q757 421 795 413T852 381T863 309Q859 281 840 254T778 192L649 93Q666 96 680 97T712
97L847 95L833 0H500L509 61Q511 76 514 87T528 107L642 201Q682 233 706 256T738 299Q746 317 735 323T699 330Q675 330 655 330T612 329T559 327L558 408Q608 418 646 419T704 421Z" />
<glyph unicode="&#xbe;" horiz-adv-x="979" d="M807 690L294 0H197L709 690H807ZM245 697Q337 697 369 675T394 595Q391 572 382 551T355 515T304 496L300 493Q350 487 366 458T377 384Q373 347 356 321T302 281T202 267Q164 267 123 270T45 279L51 360Q81 358
103 358T144 357T182 357Q225 357 243 371T265 412Q267 425 264 434T251 448T217 453L124 454L133 526L224 525Q247 526 259 532T276 550T282 574Q285 593 275 600T232 608Q206 608 173 608T104 607L102 687Q141 692 177 694T245 697ZM803 415L671 181Q666 173
669 169T680 164H931L922 97L868 88H590Q570 88 558 98T543 126T551 161L698 415H803ZM906 334L859 1H758L794 264L821 334H906Z" />
<glyph unicode="&#xbf;" horiz-adv-x="515" d="M329 289Q323 235 305 196T263 126T213 72T169 26T143 -20Q135 -52 151 -68T217 -84Q269 -84 303 -84T364 -82T424 -79L423 -179Q394 -184 370 -188T321 -196T263 -201T182 -203Q70 -203 21 -161T-19 -42Q-13 1 8
32T59 88T120 141T175 203T211 289H329ZM313 509Q339 509 352 495T362 454L355 406Q352 380 339 369T299 357H268Q211 357 218 411L224 460Q231 509 281 509H313Z" />
<glyph unicode="&#xc0;" horiz-adv-x="649" d="M451 690Q470 690 484 678T500 647L609 0H456L389 508Q387 526 386 543T385 576H356Q351 562 346 544T333 509L120 0H-40L251 652Q258 671 272 680T306 690H451ZM504 298L490 180H134L148 298H504ZM265 935L468 787L419
724L202 840L265 935Z" />
<glyph unicode="&#xc1;" horiz-adv-x="649" d="M451 690Q470 690 484 678T500 647L609 0H456L389 508Q387 526 386 543T385 576H356Q351 562 346 544T333 509L120 0H-40L251 652Q258 671 272 680T306 690H451ZM504 298L490 180H134L148 298H504ZM529 939L583 832L346
724L309 787L529 939Z" />
<glyph unicode="&#xc2;" horiz-adv-x="649" d="M451 690Q470 690 484 678T500 647L609 0H456L389 508Q387 526 386 543T385 576H356Q351 562 346 544T333 509L120 0H-40L251 652Q258 671 272 680T306 690H451ZM504 298L490 180H134L148 298H504ZM451 912L579 775L535
724L402 822H394L237 725L201 780L350 912H451Z" />
<glyph unicode="&#xc3;" horiz-adv-x="649" d="M451 690Q470 690 484 678T500 647L609 0H456L389 508Q387 526 386 543T385 576H356Q351 562 346 544T333 509L120 0H-40L251 652Q258 671 272 680T306 690H451ZM504 298L490 180H134L148 298H504ZM309 900Q331 899
351 893T389 877T425 861T460 850Q488 845 499 858T514 898L576 892Q578 820 552 786T484 754Q462 755 441 761T401 777T364 794T331 804Q304 808 293 795T278 755L215 761Q215 834 242 867T309 900Z" />
<glyph unicode="&#xc4;" horiz-adv-x="649" d="M451 690Q470 690 484 678T500 647L609 0H456L389 508Q387 526 386 543T385 576H356Q351 562 346 544T333 509L120 0H-40L251 652Q258 671 272 680T306 690H451ZM504 298L490 180H134L148 298H504ZM343 887Q360 887
365 880T369 859L360 793Q358 778 351 772T329 765H274Q245 765 248 793L258 858Q260 873 267 880T291 887H343ZM522 887Q538 887 544 880T548 859L539 793Q537 778 530 772T508 765H453Q424 765 427 793L437 858Q439 874 446 880T469 887H522Z" />
<glyph unicode="&#xc5;" horiz-adv-x="649" d="M451 690Q470 690 484 678T500 647L609 0H456L389 508Q387 526 386 543T385 576H356Q351 562 346 544T333 509L120 0H-40L251 652Q258 671 272 680T306 690H451ZM504 298L490 180H134L148 298H504ZM406 942Q454 942
486 914T518 839Q518 785 484 751T394 716Q346 716 314 745T281 820Q281 873 316 907T406 942ZM403 883Q378 883 363 867T348 826Q348 804 361 790T397 776Q422 776 437 792T452 834Q452 856 439 869T403 883Z" />
<glyph unicode="&#xc6;" horiz-adv-x="934" d="M621 692Q719 692 794 691T947 683L928 573H685Q657 573 642 561T622 519L573 169Q570 143 580 130T618 117H863L860 7Q787 -1 709 -2T557 -3Q488 -3 453 38T428 147L481 531Q483 548 492 567T512 597H504Q494 588
481 572T457 538L110 0H-50L319 560Q343 598 368 623T427 663T508 685T621 692ZM486 307L471 190H142L161 308L486 307ZM475 410L868 409L855 307H460L475 410Z" />
<glyph unicode="&#xc7;" horiz-adv-x="585" d="M387 702Q436 702 471 700T535 692T595 677L575 566Q543 568 515 569T455 570T381 571Q342 571 315 562T269 528T236 458T214 339Q202 253 205 205T233 138T309 119Q380 119 426 121T518 128L525 15Q475 1 425 -5T304
-12Q197 -12 136 24T55 139T54 351Q69 452 93 520T155 628T250 685T387 702ZM213 -56Q260 -50 293 -53T342 -73T352 -127Q344 -175 314 -206T237 -249T136 -255L155 -193Q192 -194 221 -180T257 -134Q259 -121 250 -117T199 -112L213 -56Z" />
<glyph unicode="&#xc8;" horiz-adv-x="573" d="M261 693Q318 693 374 693T485 690T585 682L567 572H309Q280 572 266 560T248 518L200 170Q196 144 207 131T246 118H501L498 7Q452 1 400 0T294 -2T189 -3Q109 -3 72 42T45 161L100 557Q109 620 150 656T261 693ZM99
412H506L493 305H82L99 412ZM255 945L458 797L409 734L192 850L255 945Z" />
<glyph unicode="&#xc9;" horiz-adv-x="573" d="M261 693Q318 693 374 693T485 690T585 682L567 572H309Q280 572 266 560T248 518L200 170Q196 144 207 131T246 118H501L498 7Q452 1 400 0T294 -2T189 -3Q109 -3 72 42T45 161L100 557Q109 620 150 656T261 693ZM99
412H506L493 305H82L99 412ZM519 949L573 842L336 734L299 797L519 949Z" />
<glyph unicode="&#xca;" horiz-adv-x="573" d="M261 693Q318 693 374 693T485 690T585 682L567 572H309Q280 572 266 560T248 518L200 170Q196 144 207 131T246 118H501L498 7Q452 1 400 0T294 -2T189 -3Q109 -3 72 42T45 161L100 557Q109 620 150 656T261 693ZM99
412H506L493 305H82L99 412ZM441 922L569 785L525 734L392 832H384L227 735L191 790L340 922H441Z" />
<glyph unicode="&#xcb;" horiz-adv-x="573" d="M261 693Q318 693 374 693T485 690T585 682L567 572H309Q280 572 266 560T248 518L200 170Q196 144 207 131T246 118H501L498 7Q452 1 400 0T294 -2T189 -3Q109 -3 72 42T45 161L100 557Q109 620 150 656T261 693ZM99
412H506L493 305H82L99 412ZM332 897Q349 897 354 890T358 869L349 803Q347 788 340 782T318 775H263Q234 775 237 803L247 868Q249 883 256 890T280 897H332ZM511 897Q527 897 533 890T537 869L528 803Q526 788 519 782T497 775H442Q413 775 416 803L426 868Q428
884 435 890T458 897H511Z" />
<glyph unicode="&#xcc;" horiz-adv-x="292" d="M278 690L181 0H28L125 690H278ZM88 935L291 787L242 724L25 840L88 935Z" />
<glyph unicode="&#xcd;" horiz-adv-x="292" d="M278 690L181 0H28L125 690H278ZM352 939L406 832L169 724L132 787L352 939Z" />
<glyph unicode="&#xce;" horiz-adv-x="292" d="M278 690L181 0H28L125 690H278ZM275 912L403 775L359 724L226 822H218L61 725L25 780L174 912H275Z" />
<glyph unicode="&#xcf;" horiz-adv-x="292" d="M278 690L181 0H28L125 690H278ZM166 887Q183 887 188 880T192 859L183 793Q181 778 174 772T152 765H97Q68 765 71 793L81 858Q83 873 90 880T114 887H166ZM345 887Q361 887 367 880T371 859L362 793Q360 778 353
772T331 765H276Q247 765 250 793L260 858Q262 874 269 880T292 887H345Z" />
<glyph unicode="&#xd0;" horiz-adv-x="681" d="M358 402L348 327H17L28 402H358ZM379 700Q488 700 552 668T639 557T641 339Q626 232 601 164T537 58T439 5T298 -10Q226 -10 158 -7T28 0L103 113Q140 111 194 110T296 108Q338 108 368 117T420 153T456 226T481
351Q491 422 491 467T480 538T442 573T374 583Q343 583 309 583T243 582T183 582L125 690Q161 693 204 695T292 699T379 700ZM278 690L181 0H28L125 690H278Z" />
<glyph unicode="&#xd1;" horiz-adv-x="717" d="M704 690L614 52Q610 25 597 13T557 0H481Q456 0 445 13T424 49L279 411Q269 433 262 460T248 513H236Q236 486 235 459T229 403L172 0H28L117 638Q121 665 135 677T176 690H250Q275 690 286 677T307 641L448 291Q458
268 467 241T485 182H499Q498 212 499 238T505 291L560 690H704ZM344 900Q366 899 386 893T424 877T460 861T495 850Q523 845 534 858T549 898L611 892Q613 820 587 786T519 754Q497 755 476 761T436 777T399 794T366 804Q339 808 328 795T313 755L250 761Q250
834 277 867T344 900Z" />
<glyph unicode="&#xd2;" horiz-adv-x="683" d="M388 704Q493 704 556 671T641 558T644 339Q630 236 605 168T541 60T444 3T310 -14Q203 -14 140 19T57 132T54 351Q69 452 93 520T157 628T252 686T388 704ZM385 583Q332 583 300 563T248 489T214 339Q201 248 205
198T236 127T313 107Q366 107 398 128T450 202T484 351Q498 444 494 494T463 563T385 583ZM280 935L483 787L434 724L217 840L280 935Z" />
<glyph unicode="&#xd3;" horiz-adv-x="683" d="M388 704Q493 704 556 671T641 558T644 339Q630 236 605 168T541 60T444 3T310 -14Q203 -14 140 19T57 132T54 351Q69 452 93 520T157 628T252 686T388 704ZM385 583Q332 583 300 563T248 489T214 339Q201 248 205
198T236 127T313 107Q366 107 398 128T450 202T484 351Q498 444 494 494T463 563T385 583ZM545 939L599 832L362 724L325 787L545 939Z" />
<glyph unicode="&#xd4;" horiz-adv-x="683" d="M388 704Q493 704 556 671T641 558T644 339Q630 236 605 168T541 60T444 3T310 -14Q203 -14 140 19T57 132T54 351Q69 452 93 520T157 628T252 686T388 704ZM385 583Q332 583 300 563T248 489T214 339Q201 248 205
198T236 127T313 107Q366 107 398 128T450 202T484 351Q498 444 494 494T463 563T385 583ZM467 912L595 775L551 724L418 822H410L253 725L217 780L366 912H467Z" />
<glyph unicode="&#xd5;" horiz-adv-x="683" d="M388 704Q493 704 556 671T641 558T644 339Q630 236 605 168T541 60T444 3T310 -14Q203 -14 140 19T57 132T54 351Q69 452 93 520T157 628T252 686T388 704ZM385 583Q332 583 300 563T248 489T214 339Q201 248 205
198T236 127T313 107Q366 107 398 128T450 202T484 351Q498 444 494 494T463 563T385 583ZM324 900Q346 899 366 893T404 877T440 861T475 850Q503 845 514 858T529 898L591 892Q593 820 567 786T499 754Q477 755 456 761T416 777T379 794T346 804Q319 808 308
795T293 755L230 761Q230 834 257 867T324 900Z" />
<glyph unicode="&#xd6;" horiz-adv-x="683" d="M388 704Q493 704 556 671T641 558T644 339Q630 236 605 168T541 60T444 3T310 -14Q203 -14 140 19T57 132T54 351Q69 452 93 520T157 628T252 686T388 704ZM385 583Q332 583 300 563T248 489T214 339Q201 248 205
198T236 127T313 107Q366 107 398 128T450 202T484 351Q498 444 494 494T463 563T385 583ZM358 887Q375 887 380 880T384 859L375 793Q373 778 366 772T344 765H289Q260 765 263 793L273 858Q275 873 282 880T306 887H358ZM537 887Q553 887 559 880T563 859L554
793Q552 778 545 772T523 765H468Q439 765 442 793L452 858Q454 874 461 880T484 887H537Z" />
<glyph unicode="&#xd7;" horiz-adv-x="526" d="M440 501L499 411L84 83L26 174L440 501ZM141 493L463 170L384 83L62 411L141 493Z" />
<glyph unicode="&#xd8;" horiz-adv-x="683" d="M566 755L616 730L134 -66L85 -40L566 755ZM388 704Q493 704 556 671T641 558T644 339Q630 236 605 168T541 60T444 3T310 -14Q203 -14 140 19T57 132T54 351Q69 452 93 520T157 628T252 686T388 704ZM385 583Q332
583 300 563T248 489T214 339Q201 248 205 198T236 127T313 107Q366 107 398 128T450 202T484 351Q498 444 494 494T463 563T385 583Z" />
<glyph unicode="&#xd9;" horiz-adv-x="682" d="M675 690L615 272Q601 167 567 105T471 14T310 -14Q214 -14 154 15T70 109T61 278L119 690H272L213 272Q204 209 209 173T239 122T312 107Q361 107 391 122T437 176T464 278L521 690H675ZM280 935L483 787L434 724L217
840L280 935Z" />
<glyph unicode="&#xda;" horiz-adv-x="682" d="M675 690L615 272Q601 167 567 105T471 14T310 -14Q214 -14 154 15T70 109T61 278L119 690H272L213 272Q204 209 209 173T239 122T312 107Q361 107 391 122T437 176T464 278L521 690H675ZM545 939L599 832L362 724L325
787L545 939Z" />
<glyph unicode="&#xdb;" horiz-adv-x="682" d="M675 690L615 272Q601 167 567 105T471 14T310 -14Q214 -14 154 15T70 109T61 278L119 690H272L213 272Q204 209 209 173T239 122T312 107Q361 107 391 122T437 176T464 278L521 690H675ZM467 912L595 775L551 724L418
822H410L253 725L217 780L366 912H467Z" />
<glyph unicode="&#xdc;" horiz-adv-x="682" d="M675 690L615 272Q601 167 567 105T471 14T310 -14Q214 -14 154 15T70 109T61 278L119 690H272L213 272Q204 209 209 173T239 122T312 107Q361 107 391 122T437 176T464 278L521 690H675ZM358 887Q375 887 380 880T384
859L375 793Q373 778 366 772T344 765H289Q260 765 263 793L273 858Q275 873 282 880T306 887H358ZM537 887Q553 887 559 880T563 859L554 793Q552 778 545 772T523 765H468Q439 765 442 793L452 858Q454 874 461 880T484 887H537Z" />
<glyph unicode="&#xdd;" horiz-adv-x="607" d="M662 690L365 219L221 220L55 690H208L287 433Q293 409 296 387T300 344H312Q316 364 326 388T347 434L498 690H662ZM380 312L337 0H183L228 312H380ZM501 939L555 832L318 724L281 787L501 939Z" />
<glyph unicode="&#xde;" horiz-adv-x="613" d="M363 573Q453 573 507 553T582 481T589 340Q577 253 549 205T470 139T336 120Q273 120 216 127T119 143T64 160L70 235Q131 235 196 235T321 235Q359 236 382 244T418 278T438 352Q444 394 439 417T415 449T360 458Q267
458 202 457T112 453L110 564Q152 568 187 570T263 572T363 573ZM278 690L181 0H28L125 690H278Z" />
<glyph unicode="&#xdf;" horiz-adv-x="702" d="M404 732Q502 732 555 717T627 667T636 576Q634 556 626 537T602 497T557 455Q537 440 519 428T488 403T473 373Q470 355 482 342T520 309L592 258Q633 225 649 194T658 117Q651 69 628 41T562 1T451 -11Q418 -11
378 -9T285 0L299 97Q331 96 361 95T421 95Q450 95 469 98T499 110T511 140Q513 153 508 163T491 186T456 215L393 255Q360 281 344 308T332 374Q336 400 349 418T383 454T434 494Q456 512 470 525T491 550T499 578Q501 595 495 606T470 621T413 626Q368 626 342
619T302 591T284 535L202 -46Q195 -92 176 -125T120 -177T27 -196Q6 -196 -27 -193T-104 -185L-82 -90H-20Q19 -90 36 -76T59 -21L140 557Q148 611 167 645T218 698T296 724T404 732ZM204 494L190 397H32L44 488L133 494H204Z" />
<glyph unicode="&#xe0;" horiz-adv-x="593" d="M324 507Q350 507 382 505T448 498T511 489T560 479L459 399Q419 401 386 401T324 402Q291 402 268 397T230 378T205 334T188 256Q179 194 179 162T190 117T228 106Q255 107 284 124T343 170T399 237L425 189Q405
130 369 86T283 16T174 -12Q109 -15 75 14T32 104T38 257Q51 342 74 392T134 467T217 499T324 507ZM414 488L560 479L493 0H378L380 112L362 124L414 488ZM218 751L421 603L372 540L155 656L218 751Z" />
<glyph unicode="&#xe1;" horiz-adv-x="593" d="M324 507Q350 507 382 505T448 498T511 489T560 479L459 399Q419 401 386 401T324 402Q291 402 268 397T230 378T205 334T188 256Q179 194 179 162T190 117T228 106Q255 107 284 124T343 170T399 237L425 189Q405
130 369 86T283 16T174 -12Q109 -15 75 14T32 104T38 257Q51 342 74 392T134 467T217 499T324 507ZM414 488L560 479L493 0H378L380 112L362 124L414 488ZM482 755L536 648L299 540L262 603L482 755Z" />
<glyph unicode="&#xe2;" horiz-adv-x="593" d="M324 507Q350 507 382 505T448 498T511 489T560 479L459 399Q419 401 386 401T324 402Q291 402 268 397T230 378T205 334T188 256Q179 194 179 162T190 117T228 106Q255 107 284 124T343 170T399 237L425 189Q405
130 369 86T283 16T174 -12Q109 -15 75 14T32 104T38 257Q51 342 74 392T134 467T217 499T324 507ZM414 488L560 479L493 0H378L380 112L362 124L414 488ZM405 728L533 591L489 540L356 638H348L191 541L155 596L304 728H405Z" />
<glyph unicode="&#xe3;" horiz-adv-x="593" d="M324 507Q350 507 382 505T448 498T511 489T560 479L459 399Q419 401 386 401T324 402Q291 402 268 397T230 378T205 334T188 256Q179 194 179 162T190 117T228 106Q255 107 284 124T343 170T399 237L425 189Q405
130 369 86T283 16T174 -12Q109 -15 75 14T32 104T38 257Q51 342 74 392T134 467T217 499T324 507ZM414 488L560 479L493 0H378L380 112L362 124L414 488ZM262 717Q284 716 304 710T342 694T378 678T413 667Q441 662 452 675T467 715L529 709Q531 637 505 603T437
571Q415 572 394 578T354 594T317 611T284 621Q257 625 246 612T231 572L168 578Q168 651 195 684T262 717Z" />
<glyph unicode="&#xe4;" horiz-adv-x="593" d="M324 507Q350 507 382 505T448 498T511 489T560 479L459 399Q419 401 386 401T324 402Q291 402 268 397T230 378T205 334T188 256Q179 194 179 162T190 117T228 106Q255 107 284 124T343 170T399 237L425 189Q405
130 369 86T283 16T174 -12Q109 -15 75 14T32 104T38 257Q51 342 74 392T134 467T217 499T324 507ZM414 488L560 479L493 0H378L380 112L362 124L414 488ZM296 959Q313 959 318 952T322 931L313 865Q311 850 304 844T282 837H227Q198 837 201 865L211 930Q213 945
220 952T244 959H296ZM475 959Q491 959 497 952T501 931L492 865Q490 850 483 844T461 837H406Q377 837 380 865L390 930Q392 946 399 952T422 959H475Z" />
<glyph unicode="&#xe5;" horiz-adv-x="593" d="M324 507Q350 507 382 505T448 498T511 489T560 479L459 399Q419 401 386 401T324 402Q291 402 268 397T230 378T205 334T188 256Q179 194 179 162T190 117T228 106Q255 107 284 124T343 170T399 237L425 189Q405
130 369 86T283 16T174 -12Q109 -15 75 14T32 104T38 257Q51 342 74 392T134 467T217 499T324 507ZM414 488L560 479L493 0H378L380 112L362 124L414 488ZM359 758Q407 758 439 730T471 655Q471 601 437 567T347 532Q299 532 267 561T234 636Q234 689 269 723T359
758ZM356 699Q331 699 316 683T301 642Q301 620 314 606T350 592Q375 592 390 608T405 650Q405 672 392 685T356 699Z" />
<glyph unicode="&#xe6;" horiz-adv-x="895" d="M299 507Q350 507 399 503T491 493T562 478L460 398Q433 400 409 400T364 401T322 402Q289 402 266 397T229 377T205 333T189 256Q180 195 180 162T190 117T226 106Q254 107 282 124T339 170T394 237L420 189Q400
130 365 86T281 16T172 -12Q107 -15 74 14T33 105T37 257Q50 342 71 392T125 467T201 499T299 507ZM653 507Q743 507 792 488T858 430T866 335Q859 289 836 263T772 223T669 205L419 184L431 266L640 287Q666 290 683 295T710 313T723 349Q727 373 720 385T696
400T649 403Q617 403 596 397T560 376T537 332T521 258Q511 193 517 160T548 116T617 105Q640 105 673 106T742 110T805 116L815 24Q785 11 748 3T673 -8T600 -12Q503 -12 449 18T377 107T369 254Q378 331 399 380T455 456T539 495T653 507Z" />
<glyph unicode="&#xe7;" horiz-adv-x="510" d="M305 507Q352 507 405 500T498 475L477 384Q433 386 393 386T325 387Q281 387 253 375T210 333T188 247Q180 189 186 159T215 118T282 107Q300 107 325 108T381 110T439 116L449 20Q406 3 355 -4T256 -12Q169 -12
115 14T41 99T33 253Q47 345 76 400T161 481T305 507ZM169 -50Q216 -44 249 -47T298 -67T308 -121Q300 -169 270 -200T193 -243T92 -249L111 -187Q148 -188 177 -174T213 -128Q215 -115 206 -111T155 -106L169 -50Z" />
<glyph unicode="&#xe8;" horiz-adv-x="564" d="M320 507Q411 507 460 488T527 430T535 335Q528 289 505 263T440 223T336 205L84 184L95 266L307 287Q334 290 351 295T379 313T392 349Q396 373 389 385T364 400T316 403Q285 403 264 397T229 376T206 332T189 258Q179
193 186 160T217 116T284 105Q308 105 342 106T411 110T476 116L486 24Q456 11 418 3T341 -8T268 -12Q169 -12 115 18T42 107T34 254Q43 331 64 380T120 456T205 495T320 507ZM211 751L414 603L365 540L148 656L211 751Z" />
<glyph unicode="&#xe9;" horiz-adv-x="564" d="M320 507Q411 507 460 488T527 430T535 335Q528 289 505 263T440 223T336 205L84 184L95 266L307 287Q334 290 351 295T379 313T392 349Q396 373 389 385T364 400T316 403Q285 403 264 397T229 376T206 332T189 258Q179
193 186 160T217 116T284 105Q308 105 342 106T411 110T476 116L486 24Q456 11 418 3T341 -8T268 -12Q169 -12 115 18T42 107T34 254Q43 331 64 380T120 456T205 495T320 507ZM475 755L529 648L292 540L255 603L475 755Z" />
<glyph unicode="&#xea;" horiz-adv-x="564" d="M320 507Q411 507 460 488T527 430T535 335Q528 289 505 263T440 223T336 205L84 184L95 266L307 287Q334 290 351 295T379 313T392 349Q396 373 389 385T364 400T316 403Q285 403 264 397T229 376T206 332T189 258Q179
193 186 160T217 116T284 105Q308 105 342 106T411 110T476 116L486 24Q456 11 418 3T341 -8T268 -12Q169 -12 115 18T42 107T34 254Q43 331 64 380T120 456T205 495T320 507ZM398 728L526 591L482 540L349 638H341L184 541L148 596L297 728H398Z" />
<glyph unicode="&#xeb;" horiz-adv-x="564" d="M320 507Q411 507 460 488T527 430T535 335Q528 289 505 263T440 223T336 205L84 184L95 266L307 287Q334 290 351 295T379 313T392 349Q396 373 389 385T364 400T316 403Q285 403 264 397T229 376T206 332T189 258Q179
193 186 160T217 116T284 105Q308 105 342 106T411 110T476 116L486 24Q456 11 418 3T341 -8T268 -12Q169 -12 115 18T42 107T34 254Q43 331 64 380T120 456T205 495T320 507ZM289 959Q306 959 311 952T315 931L306 865Q304 850 297 844T275 837H220Q191 837 194
865L204 930Q206 945 213 952T237 959H289ZM468 959Q484 959 490 952T494 931L485 865Q483 850 476 844T454 837H399Q370 837 373 865L383 930Q385 946 392 952T415 959H468Z" />
<glyph unicode="&#xec;" horiz-adv-x="276" d="M241 494L171 0H23L92 494H241ZM309 751L512 603L463 540L246 656L309 751Z" />
<glyph unicode="&#xed;" horiz-adv-x="276" d="M241 494L171 0H23L92 494H241ZM318 755L372 648L135 540L98 603L318 755Z" />
<glyph unicode="&#xee;" horiz-adv-x="276" d="M241 494L171 0H23L92 494H241ZM496 728L624 591L580 540L447 638H439L282 541L246 596L395 728H496Z" />
<glyph unicode="&#xef;" horiz-adv-x="276" d="M241 494L171 0H23L92 494H241ZM387 959Q404 959 409 952T413 931L404 865Q402 850 395 844T373 837H318Q289 837 292 865L302 930Q304 945 311 952T335 959H387ZM566 959Q582 959 588 952T592 931L583 865Q581 850
574 844T552 837H497Q468 837 471 865L481 930Q483 946 490 952T513 959H566Z" />
<glyph unicode="&#xf0;" horiz-adv-x="580" d="M190 698Q263 702 323 690T427 649T499 570T535 449T532 281Q523 205 503 150T448 58T365 4T246 -14Q167 -14 115 11T42 89T31 222Q46 337 102 394T263 451Q286 451 312 447T363 431T408 395T443 332L434 276Q417
301 396 317T351 341T301 349Q263 349 240 334T204 290T185 218Q175 149 190 122T255 95Q296 95 319 115T356 179T380 295Q390 371 388 426T372 516T330 571T264 598T172 602L190 698ZM478 722L515 673L270 490L234 538L478 722Z" />
<glyph unicode="&#xf1;" horiz-adv-x="599" d="M430 507Q471 507 501 492T545 445T553 367L501 0H352L398 322Q403 356 395 369T358 382Q325 381 289 361T200 299L183 374Q242 437 305 472T430 507ZM204 494V364L216 350L167 0H19L88 494H204ZM260 717Q282 716
302 710T340 694T376 678T411 667Q439 662 450 675T465 715L527 709Q529 637 503 603T435 571Q413 572 392 578T352 594T315 611T282 621Q255 625 244 612T229 572L166 578Q166 651 193 684T260 717Z" />
<glyph unicode="&#xf2;" horiz-adv-x="590" d="M317 507Q408 507 463 481T537 396T543 240Q530 147 499 92T410 12T262 -12Q172 -12 117 14T41 98T33 252Q47 346 78 401T167 482T317 507ZM315 399Q275 399 251 386T212 339T188 240Q180 183 183 151T207 107T266
95Q306 95 330 108T368 156T391 252Q399 311 396 342T373 386T315 399ZM211 751L414 603L365 540L148 656L211 751Z" />
<glyph unicode="&#xf3;" horiz-adv-x="590" d="M317 507Q408 507 463 481T537 396T543 240Q530 147 499 92T410 12T262 -12Q172 -12 117 14T41 98T33 252Q47 346 78 401T167 482T317 507ZM315 399Q275 399 251 386T212 339T188 240Q180 183 183 151T207 107T266
95Q306 95 330 108T368 156T391 252Q399 311 396 342T373 386T315 399ZM475 755L529 648L292 540L255 603L475 755Z" />
<glyph unicode="&#xf4;" horiz-adv-x="590" d="M317 507Q408 507 463 481T537 396T543 240Q530 147 499 92T410 12T262 -12Q172 -12 117 14T41 98T33 252Q47 346 78 401T167 482T317 507ZM315 399Q275 399 251 386T212 339T188 240Q180 183 183 151T207 107T266
95Q306 95 330 108T368 156T391 252Q399 311 396 342T373 386T315 399ZM398 728L526 591L482 540L349 638H341L184 541L148 596L297 728H398Z" />
<glyph unicode="&#xf5;" horiz-adv-x="590" d="M317 507Q408 507 463 481T537 396T543 240Q530 147 499 92T410 12T262 -12Q172 -12 117 14T41 98T33 252Q47 346 78 401T167 482T317 507ZM315 399Q275 399 251 386T212 339T188 240Q180 183 183 151T207 107T266
95Q306 95 330 108T368 156T391 252Q399 311 396 342T373 386T315 399ZM255 717Q277 716 297 710T335 694T371 678T406 667Q434 662 445 675T460 715L522 709Q524 637 498 603T430 571Q408 572 387 578T347 594T310 611T277 621Q250 625 239 612T224 572L161 578Q161
651 188 684T255 717Z" />
<glyph unicode="&#xf6;" horiz-adv-x="590" d="M317 507Q408 507 463 481T537 396T543 240Q530 147 499 92T410 12T262 -12Q172 -12 117 14T41 98T33 252Q47 346 78 401T167 482T317 507ZM315 399Q275 399 251 386T212 339T188 240Q180 183 183 151T207 107T266
95Q306 95 330 108T368 156T391 252Q399 311 396 342T373 386T315 399ZM289 959Q306 959 311 952T315 931L306 865Q304 850 297 844T275 837H220Q191 837 194 865L204 930Q206 945 213 952T237 959H289ZM468 959Q484 959 490 952T494 931L485 865Q483 850 476 844T454
837H399Q370 837 373 865L383 930Q385 946 392 952T415 959H468Z" />
<glyph unicode="&#xf7;" horiz-adv-x="547" d="M511 348L494 239H37L53 348H511ZM269 176Q302 176 314 163T323 117L318 86Q314 54 300 43T255 31H220Q187 31 176 44T168 90L173 120Q177 152 192 164T238 176H269ZM324 554Q357 553 369 541T376 496L373 464Q368
433 354 421T309 408H275Q242 408 230 422T222 467L226 498Q231 530 246 542T292 554H324Z" />
<glyph unicode="&#xf8;" horiz-adv-x="590" d="M468 580L510 558L122 -84L80 -62L468 580ZM317 507Q408 507 463 481T537 396T543 240Q530 147 499 92T410 12T262 -12Q172 -12 117 14T41 98T33 252Q47 346 78 401T167 482T317 507ZM315 399Q275 399 251 386T212
339T188 240Q180 183 183 151T207 107T266 95Q306 95 330 108T368 156T391 252Q399 311 396 342T373 386T315 399Z" />
<glyph unicode="&#xf9;" horiz-adv-x="590" d="M233 494L186 167Q182 136 192 124T227 112Q262 112 295 132T380 196L402 122Q337 53 279 20T161 -14Q89 -14 57 23T34 127L85 494H233ZM558 494L490 0H374L376 134L363 147L411 494H558ZM212 758L415 610L366 547L149
663L212 758Z" />
<glyph unicode="&#xfa;" horiz-adv-x="590" d="M233 494L186 167Q182 136 192 124T227 112Q262 112 295 132T380 196L402 122Q337 53 279 20T161 -14Q89 -14 57 23T34 127L85 494H233ZM558 494L490 0H374L376 134L363 147L411 494H558ZM476 762L530 655L293 547L256
610L476 762Z" />
<glyph unicode="&#xfb;" horiz-adv-x="590" d="M233 494L186 167Q182 136 192 124T227 112Q262 112 295 132T380 196L402 122Q337 53 279 20T161 -14Q89 -14 57 23T34 127L85 494H233ZM558 494L490 0H374L376 134L363 147L411 494H558ZM398 736L526 599L482 548L349
646H341L184 549L148 604L297 736H398Z" />
<glyph unicode="&#xfc;" horiz-adv-x="590" d="M233 494L186 167Q182 136 192 124T227 112Q262 112 295 132T380 196L402 122Q337 53 279 20T161 -14Q89 -14 57 23T34 127L85 494H233ZM558 494L490 0H374L376 134L363 147L411 494H558ZM289 711Q306 711 311 704T315
683L306 617Q304 602 297 596T275 589H220Q191 589 194 617L204 682Q206 697 213 704T237 711H289ZM468 711Q484 711 490 704T494 683L485 617Q483 602 476 596T454 589H399Q370 589 373 617L383 682Q385 698 392 704T415 711H468Z" />
<glyph unicode="&#xfd;" horiz-adv-x="581" d="M576 494Q568 445 555 394T524 293T489 198T452 113T415 44Q365 -42 311 -96T195 -176T59 -206L44 -119Q81 -108 114 -95T177 -59T237 0T295 97Q325 156 347 215T387 342T419 494H576ZM197 494L239 114Q242 97 259
97H315L275 0H174Q151 0 135 14T115 49L37 494H197ZM457 755L511 648L274 540L237 603L457 755Z" />
<glyph unicode="&#xfe;" horiz-adv-x="595" d="M407 506Q467 506 501 479T547 392T545 237Q535 162 516 113T468 37T402 -2T320 -14Q255 -14 190 -5T84 23L105 88Q150 88 187 87T259 86Q295 86 318 91T355 112T378 158T393 237Q401 294 401 327T391 374T353 388Q321
388 294 372T240 328T187 264L164 326Q181 371 216 412T300 479T407 506ZM265 700L245 555Q241 523 236 491T222 429L224 420L177 62L169 47Q167 17 165 -15T156 -79L140 -190H-7L117 700H265Z" />
<glyph unicode="&#xff;" horiz-adv-x="581" d="M576 494Q568 445 555 394T524 293T489 198T452 113T415 44Q365 -42 311 -96T195 -176T59 -206L44 -119Q81 -108 114 -95T177 -59T237 0T295 97Q325 156 347 215T387 342T419 494H576ZM197 494L239 114Q242 97 259
97H315L275 0H174Q151 0 135 14T115 49L37 494H197ZM271 959Q288 959 293 952T297 931L288 865Q286 850 279 844T257 837H202Q173 837 176 865L186 930Q188 945 195 952T219 959H271ZM450 959Q466 959 472 952T476 931L467 865Q465 850 458 844T436 837H381Q352
837 355 865L365 930Q367 946 374 952T397 959H450Z" />
<glyph unicode="&#x2013;" horiz-adv-x="561" d="M504 302L491 208H46L60 302H504Z" />
<glyph unicode="&#x2014;" horiz-adv-x="858" d="M801 302L788 208H46L60 302H801Z" />
<glyph unicode="&#x2018;" horiz-adv-x="220" d="M119 443Q93 443 83 454T76 493L85 551Q88 579 98 609T121 667T152 719L210 697Q199 668 191 640T175 579Q196 580 204 569T210 537L203 489Q199 462 187 453T147 443H119Z" />
<glyph unicode="&#x2019;" horiz-adv-x="218" d="M179 708Q205 708 215 697T222 658L213 599Q210 571 200 541T177 483T146 432L88 453Q99 483 107 511T123 572Q102 570 94 581T88 613L95 662Q99 688 111 698T150 708H179Z" />
<glyph unicode="&#x201a;" horiz-adv-x="230" d="M107 131Q133 131 143 120T149 81L141 23Q137 -5 128 -35T104 -94T74 -145L15 -124Q27 -94 35 -66T51 -5Q30 -6 22 5T15 37L22 85Q27 113 39 122T78 131H107Z" />
<glyph unicode="&#x201c;" horiz-adv-x="395" d="M119 443Q93 443 83 454T76 493L85 551Q88 579 98 609T121 667T152 719L210 697Q199 668 191 640T175 579Q196 580 204 569T210 537L203 489Q199 462 187 453T147 443H119ZM295 443Q269 443 259 454T252 493L261
551Q264 579 274 609T297 667T328 719L385 697Q374 668 366 640T350 579Q372 580 380 569T385 537L378 489Q374 462 362 453T323 443H295Z" />
<glyph unicode="&#x201d;" horiz-adv-x="394" d="M355 708Q380 708 390 697T397 658L389 599Q385 571 376 541T352 483T322 432L264 453Q275 483 283 511T299 572Q278 570 270 581T264 613L271 662Q275 688 287 698T326 708H355ZM179 708Q205 708 215 697T222
658L213 599Q210 571 200 541T177 483T146 432L88 453Q99 483 107 511T123 572Q102 570 94 581T88 613L95 662Q99 688 111 698T150 708H179Z" />
<glyph unicode="&#x201e;" horiz-adv-x="406" d="M282 131Q308 131 318 120T325 81L316 23Q313 -6 303 -36T280 -94T249 -145L192 -124Q203 -94 211 -66T227 -5Q205 -7 197 4T192 37L199 85Q203 112 215 121T254 131H282ZM107 131Q132 131 142 120T149 81L141
23Q137 -6 128 -36T104 -94T74 -145L16 -124Q27 -94 35 -66T51 -5Q29 -7 21 4T16 37L23 85Q27 112 39 121T78 131H107Z" />
<glyph unicode="&#x2022;" horiz-adv-x="370" d="M206 380Q262 380 282 356T296 275L293 259Q288 218 276 196T242 164T180 155H160Q102 155 81 179T68 266L71 281Q76 320 88 341T123 371T188 380H206Z" />
<glyph unicode="&#x2039;" horiz-adv-x="308" d="M204 465L278 413L158 251L243 83L166 32L27 236L29 269L204 465Z" />
<glyph unicode="&#x203a;" horiz-adv-x="308" d="M129 465L268 261L266 229L92 32L17 83L138 246L53 415L129 465Z" />
</font>
</defs>
</svg>
